<svg xmlns="http://www.w3.org/2000/svg" viewBox="0 0 119.06 71.06"><defs><style>.cls-1,.cls-4{fill:#333}.cls-1{opacity:.09}.cls-5{stroke:#333;stroke-linecap:round;stroke-linejoin:round;fill:#ffde00;stroke-width:2.12px}</style></defs><g id="Layer_2" data-name="Layer 2"><g id="Layer_2-2" data-name="Layer 2"><ellipse class="cls-1" cx="91.5" cy="70" rx="9.5" ry="1"/><ellipse class="cls-1" cx="42" cy="62.5" rx="42" ry="1.5"/><path stroke-width="2" stroke="#333" stroke-linecap="round" stroke-linejoin="round" fill="#fff" d="M5 11h73v51H5z"/><path d="M74.3 1H8.7A3.7 3.7 0 0 0 5 4.7V12h73V4.7A3.71 3.71 0 0 0 74.3 1z" fill="#e6e6e6" stroke-width="2" stroke="#333" stroke-linecap="round" stroke-linejoin="round"/><circle class="cls-4" cx="10.5" cy="6.5" r="1.5"/><circle class="cls-4" cx="14.5" cy="6.5" r="1.5"/><circle class="cls-4" cx="18.5" cy="6.5" r="1.5"/><path class="cls-5" d="M118 37.16l-10.45-2.09 5.91-8.87-6.74-6.74-8.87 6.44-2.09-9.9h-9.52l-2.09 9.91-8.86-6.18-6.74 6.6 5.91 8.8L64 37.17v9.53l10.45 2.09-5.91 8.86 6.74 6.74L84.15 59l2.09 11h9.52l2.09-11 8.86 5.64 6.74-6.87-5.91-8.93L118 46.69zM91.22 53.72a11 11 0 1 1 11-11 11 11 0 0 1-11 11z"/><text transform="translate(15.85 43.59)" font-size="25" font-family="HelveticaNeue-Bold,Helvetica Neue" font-weight="700" letter-spacing=".06em" fill="#333">API</text><circle class="cls-5" cx="91.22" cy="42.72" r="5"/></g></g></svg>