<svg xmlns="http://www.w3.org/2000/svg" width="38" height="60"><path fill="#353942" d="M15.21 16.555l1.532 1.049a4 4 0 0 0 4.516 0l1.497-1.026 9.34 8.096A1.99 1.99 0 0 1 31 25H7a1.99 1.99 0 0 1-1.101-.33l9.311-8.115zM33 9.574V22.81l-8.537-7.399L33 9.574zm-28 0l8.504 5.815L5 22.799V9.574zM31 5a2 2 0 0 1 2 2v.171L21.275 15.28a4 4 0 0 1-4.55 0L5 7.17V7a2 2 0 0 1 2-2h24zm3.21 41.555l1.532 1.049a4 4 0 0 0 4.516 0l1.497-1.026 9.34 8.096A1.99 1.99 0 0 1 50 55H26a1.99 1.99 0 0 1-1.101-.33l9.311-8.115zM52 39.574V52.81l-8.537-7.399L52 39.574zm-28 0l8.504 5.815L24 52.799V39.574zM50 35a2 2 0 0 1 2 2v.171L40.275 45.28a4 4 0 0 1-4.55 0L24 37.17V37a2 2 0 0 1 2-2h24zM-3.79 46.555l1.532 1.049a4 4 0 0 0 4.516 0l1.497-1.026 9.34 8.096A1.99 1.99 0 0 1 12 55h-24a1.99 1.99 0 0 1-1.101-.33l9.311-8.115zM14 39.574V52.81l-8.537-7.399L14 39.574zm-28 0l8.504 5.815-8.504 7.41V39.574zM12 35a2 2 0 0 1 2 2v.171L2.275 45.28a4 4 0 0 1-4.55 0L-14 37.17V37a2 2 0 0 1 2-2h24z" fill-rule="evenodd"/></svg>