<svg xmlns="http://www.w3.org/2000/svg" viewBox="0 0 561.4689 306.2511"><title>bulk_machine</title><g id="Layer_2" data-name="Layer 2"><g id="Layer_3" data-name="Layer 3"><path d="M531.9068,243.8156l.1649-.1268L292.3608,243.6v30.7364h214.346a5.3965,5.3965,0,0,0,4.5047-2.4242l24.7061-19.9185a4.6619,4.6619,0,0,0,1.7359-3.6293v-.005A4.6715,4.6715,0,0,0,531.9068,243.8156ZM511.87,259.2213l-5.3469,4.2583.013.0452h-.2632Z" fill="#ffde00" stroke="#333" stroke-linecap="round" stroke-linejoin="round" stroke-width="3"/><path d="M554.0158,96.2388l.1709-.1313-261.8259-.0918v31.8059H526.934a5.3652,5.3652,0,0,0,3.6041-1.4032l.1329.4628,27.5-22.1706a4.8293,4.8293,0,0,0,1.7983-3.76v-.0052A4.8393,4.8393,0,0,0,554.0158,96.2388Zm-27.0232,20.7771,6.2651-4.817-5.5372,4.41.1422.4948A5.3979,5.3979,0,0,0,526.9926,117.0159Z" fill="#ffde00" stroke="#333" stroke-linecap="round" stroke-linejoin="round" stroke-width="3"/><path d="M284.2373,168.2587H60.31L73.6911,15.3116C74.3585,7.6837,80.6779,1.5,88.3058,1.5H310.3274Z" fill="#ffde02" stroke="#333" stroke-linecap="round" stroke-linejoin="round" stroke-width="3"/><polygon points="268.888 154.745 61.279 154.745 28.503 210.523 238.987 210.523 268.888 154.745" fill="#ffde00" stroke="#333" stroke-linecap="round" stroke-linejoin="round" stroke-width="3"/><polygon points="246.279 140.794 77.954 140.794 89.122 15.438 257.448 15.438 246.279 140.794" fill="#fff" stroke="#333" stroke-linecap="round" stroke-linejoin="round" stroke-width="2"/><polygon points="246.279 140.794 78.954 140.794 90.122 16.807 257.448 16.807 246.279 140.794" fill="#fff" fill-opacity="0.2" stroke="#333" stroke-linecap="round" stroke-linejoin="round" stroke-width="2"/><rect x="28.5" y="210.7461" width="213" height="94.0025" stroke-width="3" stroke="#333" stroke-linecap="round" stroke-linejoin="round" fill="#ffde00"/><rect x="38" y="220.2461" width="180" height="85" stroke-width="2" stroke="#333" stroke-linecap="round" stroke-linejoin="round" fill="#ffde00"/><g opacity="0.2"><path d="M100.5594,252.7554c-2.4132,2.3115-7.0778,3.8782-12.436,3.8782A21.83,21.83,0,0,1,77.9386,254.36c-2.9739-1.6167-7.0776-3.8775-12.4359-3.8775a21.8339,21.8339,0,0,0-10.1844,2.2727v-1.1007a21.834,21.834,0,0,1,10.1844-2.2726c5.3583,0,9.462,2.2608,12.4359,3.8774a21.83,21.83,0,0,0,10.1848,2.2734c5.3582,0,10.0228-1.5667,12.436-3.8782Z" fill="#333"/><path d="M100.5594,257.4355c-2.4132,2.3115-7.0778,3.8782-12.436,3.8782A21.83,21.83,0,0,1,77.9386,259.04c-2.9739-1.6166-7.0776-3.8774-12.4359-3.8774a21.834,21.834,0,0,0-10.1844,2.2726v-1.1007a21.834,21.834,0,0,1,10.1844-2.2726c5.3583,0,9.462,2.2608,12.4359,3.8774a21.83,21.83,0,0,0,10.1848,2.2734c5.3582,0,10.0228-1.5667,12.436-3.8782Z" fill="#333"/><path d="M100.5594,262.1156c-2.4132,2.3115-7.0778,3.8782-12.436,3.8782A21.83,21.83,0,0,1,77.9386,263.72c-2.9739-1.6166-7.0776-3.8774-12.4359-3.8774a21.834,21.834,0,0,0-10.1844,2.2726v-1.1007a21.834,21.834,0,0,1,10.1844-2.2726c5.3583,0,9.462,2.2608,12.4359,3.8774a21.83,21.83,0,0,0,10.1848,2.2734c5.3582,0,10.0228-1.5667,12.436-3.8782Z" fill="#333"/><path d="M100.5594,266.7957c-2.4132,2.3116-7.0778,3.8782-12.436,3.8782a21.83,21.83,0,0,1-10.1848-2.2734c-2.9739-1.6166-7.0776-3.8774-12.4359-3.8774a21.834,21.834,0,0,0-10.1844,2.2726V265.695a21.834,21.834,0,0,1,10.1844-2.2726c5.3583,0,9.462,2.2608,12.4359,3.8774a21.83,21.83,0,0,0,10.1848,2.2734c5.3582,0,10.0228-1.5666,12.436-3.8782Z" fill="#333"/></g><path d="M76.4618,251.94l-2.3391-.0046.0046-2.3391,8.2833.0161c5.1736.01,6.24,3.4246,6.2355,5.7913a5.9187,5.9187,0,0,1-1.5767,4.1523c-1.2959,1.2909-3.0577,1.59-5.7271,1.5849l-2.0914-.004-.0094,4.8158,2.4493.0048-.0046,2.3391-7.5953-.0148.0045-2.3391,2.3391.0045Zm5.1326,6.9448c3.44.0067,4.1861-1.5879,4.19-3.5143a3.0581,3.0581,0,0,0-3.2957-3.4188l-3.22-.0063-.0135,6.9349Z" fill="#333"/><path d="M96.4123,254.9511a6.88,6.88,0,1,1-6.8656,6.8664A6.6844,6.6844,0,0,1,96.4123,254.9511Zm-.05,11.2828a4.4165,4.4165,0,1,0-4.0642-4.411A4.1526,4.1526,0,0,0,96.3628,266.2339Z" fill="#333"/><path d="M105.3926,263.8848l2.2842.0044-.0009.44c.2176,1.294,1.3993,2.0944,3.1056,2.0977,1.6236.0032,2.6705-.6279,2.6724-1.6186.0047-2.4216-4.5663-.8895-7.0383-3.371a3.5622,3.5622,0,0,1-1.0134-2.4787c.0043-2.229,1.9338-3.8214,4.5756-3.8162a6.7189,6.7189,0,0,1,3.1634.7492l.001-.523,2.2566.0044-.0084,4.293-2.2566-.0044.0016-.798a3.373,3.373,0,0,0-3.0241-1.6019c-1.3759-.0027-2.2853.6284-2.2871,1.5916-.0043,2.174,5.0067.9178,7.1489,3.0685a3.8325,3.8325,0,0,1,1.0956,2.6991c-.0046,2.3667-2.0167,3.9587-4.9888,3.9529a5.8023,5.8023,0,0,1-3.41-.9421l-.0014.7154-2.2842-.0045Z" fill="#333"/><path d="M117.7093,255.3778l1.6787.0033.0039-2.0088,2.5913-2.3341-.0085,4.3479,2.3941.0047-.0044,2.2566-2.3941-.0046-.0146,7.5127c-.0025,1.2658,1.126,1.2129,2.3926.7752l-.0045,2.3116a6.6046,6.6046,0,0,1-1.9.3539c-1.8161-.0035-3.08-.8315-3.076-3.088l.0153-7.87-1.6787-.0032Z" fill="#333"/><path d="M128.3262,257.6551l-2.174-.0042.0044-2.2566,4.761.0093-.0031,1.6236a7.1552,7.1552,0,0,1,4.4063-1.8351,3.21,3.21,0,0,1,3.1334,2.0425c1.874-1.4549,3.1961-2.03,4.6822-2.0273a3.2415,3.2415,0,0,1,3.46,3.5842l-.0144,7.375,2.2291.0044-.0044,2.2566-4.8158-.0094.0176-9.0537c.0025-1.266-.5743-1.9-1.5648-1.9019a6.3948,6.3948,0,0,0-3.6911,1.699l-.0136,6.99,2.2291.0043-.0044,2.2566-4.8158-.0094.0175-8.9987c.0027-1.3759-.7668-1.8453-1.5924-1.8469a6.9235,6.9235,0,0,0-3.6631,1.589l-.0136,6.99,2.2288.0043-.0044,2.2566-7.1825-.0139.0044-2.2567,2.3667.0047Z" fill="#333"/><path d="M163.28,268.4557l-4.513-.0088.0032-1.5962c-1.6263,1.3179-2.7556,1.8109-4.1865,1.8081a4.2238,4.2238,0,0,1-4.3951-4.1363c.0046-2.3666,2.072-4.2065,4.7416-4.2013a6.8024,6.8024,0,0,1,3.5477,1.1078l.0033-1.7063c.0036-1.8437-1.3436-2.5068-2.8845-2.51a3.0072,3.0072,0,0,0-2.7827,1.5356l-2.4478-.6652a5.8834,5.8834,0,0,1,5.62-3.0161c3.7976.0074,5.0873,1.9087,5.0832,4l-.0139,7.1274,2.2291.0044Zm-4.8064-4.8528a5.5484,5.5484,0,0,0-3.3546-1.3,2.286,2.286,0,0,0-2.4812,2.2243,2.151,2.151,0,0,0,2.3351,2.151,5.41,5.41,0,0,0,3.4977-1.5344Z" fill="#333"/><path d="M166.8228,257.73l-2.6144-.0051.0044-2.2566,4.6508.0091-.0057,2.9171h.0548a4.4,4.4,0,0,1,4.1066-3.1292l1.6788.0032-.0051,2.5868-1.3761-.0027c-3-.0058-3.9108,1.6711-3.9166,4.6432l-.0072,3.715,2.8068.0054-.0044,2.2566-7.9529-.0154.0044-2.2567,2.5593.005Z" fill="#333"/><path d="M177.5439,252.0545l-2.339-.0045.0044-2.2566,4.9258.01-.0228,11.6681,4.8784-3.8157V257.6l-2.174-.0043.0041-2.0915,7.21.0141-.0041,2.0915-2.0089-.0039-4.8788,4.0358,4.5868,4.6046,2.229.0043-.0044,2.2566-3.3023-.0064-6.5369-6.5623-.0083,4.2929,1.9264.0038-.0043,2.2566-6.88-.0134.0044-2.2566,2.3666.0046Z" fill="#333"/><path d="M324.5,304.7461h-96V212.2066l33.118-56.85,10.9-143.0092A11.5264,11.5264,0,0,1,284.0223,1.7461h28.9771A11.5006,11.5006,0,0,1,324.5,13.2467Z" fill="#ffde00"/><path d="M324.5,304.7461h-96V212.2066l33.118-56.85,10.9-143.0092A11.5264,11.5264,0,0,1,284.0223,1.7461h28.9771A11.5006,11.5006,0,0,1,324.5,13.2467Z" fill="#333" opacity="0.1"/><path d="M324.5,304.7461h-96V212.2066l33.118-56.85,10.9-143.0092A11.5264,11.5264,0,0,1,284.0223,1.7461h28.9771A11.5006,11.5006,0,0,1,324.5,13.2467Z" fill="none" stroke="#333" stroke-linecap="round" stroke-linejoin="round" stroke-width="3"/><polygon points="233.3 71.323 100.657 71.323 101.117 66.061 233.761 66.061 233.3 71.323" fill="#333" opacity="0.26"/><polygon points="221.34 71.323 100.657 71.323 101.117 66.061 221.8 66.061 221.34 71.323" fill="#ffde00"/><polygon points="228.037 131.777 95.394 131.777 95.854 126.514 228.498 126.514 228.037 131.777" fill="#333" opacity="0.26"/><polygon points="221.943 131.777 95.394 131.777 95.854 126.514 222.403 126.514 221.943 131.777" fill="#ffde00"/><polygon points="233.518 71.562 100.875 71.562 101.378 65.821 234.021 65.821 233.518 71.562" fill="none" stroke="#333" stroke-linecap="round" stroke-linejoin="round" stroke-width="2"/><polygon points="228.256 132.016 95.612 132.016 96.115 126.275 228.758 126.275 228.256 132.016" fill="none" stroke="#333" stroke-linecap="round" stroke-linejoin="round" stroke-width="2"/><path d="M287.5,1.7461h48.1592c5.9872,0,10.8408,5.1457,10.8408,11.4933V304.7461h-73" fill="#ffde00"/><path d="M287.5,1.7461h48.1592c5.9872,0,10.8408,5.1457,10.8408,11.4933V304.7461h-73" fill="#333" opacity="0.1"/><path d="M287.5,1.7461h48.1592c5.9872,0,10.8408,5.1457,10.8408,11.4933V304.7461h-73" fill="none" stroke="#333" stroke-linecap="round" stroke-linejoin="round" stroke-width="3"/><line x1="292" y1="306.2461" x2="292" y2="1.2461" fill="none"/><path d="M295.7742,22.7761h29.975a3.4135,3.4135,0,0,1,3.4135,3.4135v101.242a0,0,0,0,1,0,0H292.3607a0,0,0,0,1,0,0V26.19A3.4135,3.4135,0,0,1,295.7742,22.7761Z" fill="#333" stroke="#333" stroke-linecap="round" stroke-linejoin="round" stroke-width="2"/><path d="M295.7742,158.8337h29.975a3.4135,3.4135,0,0,1,3.4135,3.4135v101.242a0,0,0,0,1,0,0H292.3607a0,0,0,0,1,0,0V162.2472A3.4135,3.4135,0,0,1,295.7742,158.8337Z" fill="#333" stroke="#333" stroke-linecap="round" stroke-linejoin="round" stroke-width="2"/><polyline points="532.072 243.689 292.361 243.6 292.361 264.963 504.287 265.051" fill="#ffde00" stroke="#333" stroke-linecap="round" stroke-linejoin="round" stroke-width="2"/><g opacity="0.15"><path d="M487.3291,244.7908l-23.5646,18.7668" fill="none" stroke="#333" stroke-linecap="round" stroke-linejoin="round" stroke-width="1.5"/><path d="M455.3291,244.7908l-23.5646,18.7668" fill="none" stroke="#333" stroke-linecap="round" stroke-linejoin="round" stroke-width="1.5"/><path d="M423.3291,244.7908l-23.5646,18.7668" fill="none" stroke="#333" stroke-linecap="round" stroke-linejoin="round" stroke-width="1.5"/><path d="M391.3291,244.7908l-23.5646,18.7668" fill="none" stroke="#333" stroke-linecap="round" stroke-linejoin="round" stroke-width="1.5"/><path d="M359.3291,244.7908l-23.5646,18.7668" fill="none" stroke="#333" stroke-linecap="round" stroke-linejoin="round" stroke-width="1.5"/><path d="M327.3291,244.7908l-23.5646,18.7668" fill="none" stroke="#333" stroke-linecap="round" stroke-linejoin="round" stroke-width="1.5"/></g><path d="M325.8255,166.228H295.924a4.6,4.6,0,0,0-4.6,4.6v94.3049h0l37.839-33.1041,1.2631-59.3276v-1.8732A4.6,4.6,0,0,0,325.8255,166.228Z" fill="#333" opacity="0.15"/><rect x="317.4252" y="211.2383" width="64.4038" height="42.9359" rx="2.1292" stroke-width="3" stroke="#333" stroke-linecap="round" stroke-linejoin="round" fill="#ffde00"/><path d="M380.087,212.7165l-28.4163,21.5009a3.4556,3.4556,0,0,1-3.9881,0l-28.4164-21.5009" fill="#fff" stroke="#333" stroke-linecap="round" stroke-linejoin="round" stroke-width="2"/><line x1="318.4326" y1="253.1769" x2="344.44" y2="233.1457" fill="#ffde00" stroke="#333" stroke-linecap="round" stroke-linejoin="round" stroke-width="2"/><line x1="354.063" y1="232.9026" x2="380.6536" y2="253.2629" fill="#ffde00" stroke="#333" stroke-linecap="round" stroke-linejoin="round" stroke-width="2"/><rect x="416.2368" y="211.2383" width="64.4038" height="42.9359" rx="2.1292" stroke-width="3" stroke="#333" stroke-linecap="round" stroke-linejoin="round" fill="#ffde00"/><path d="M478.8987,212.7165l-28.4164,21.5009a3.4556,3.4556,0,0,1-3.9881,0l-28.4163-21.5009" fill="#fff" stroke="#333" stroke-linecap="round" stroke-linejoin="round" stroke-width="2"/><line x1="417.2442" y1="253.1769" x2="443.2516" y2="233.1457" fill="#ffde00" stroke="#333" stroke-linecap="round" stroke-linejoin="round" stroke-width="2"/><line x1="452.8746" y1="232.9026" x2="479.4652" y2="253.2629" fill="#ffde00" stroke="#333" stroke-linecap="round" stroke-linejoin="round" stroke-width="2"/><line x1="83.938" y1="79.6735" x2="250.4585" y2="79.6735" fill="#ffde00" stroke="#333" stroke-linecap="round" stroke-linejoin="round" stroke-width="2"/><polygon points="177.405 200.498 79.884 200.498 78.819 199.434 197.734 164.302 198.799 165.367 177.405 200.498" fill="#ffde00" stroke="#333" stroke-linecap="round" stroke-linejoin="round" stroke-width="2"/><polygon points="176.34 199.434 78.819 199.434 100.213 164.302 197.734 164.302 176.34 199.434" fill="#ffde00" stroke="#333" stroke-linecap="round" stroke-linejoin="round" stroke-width="2"/><line x1="94.872" y1="199.1725" x2="109.4039" y2="175.3096" fill="none" stroke="#333" stroke-linecap="round" stroke-linejoin="round" stroke-width="2"/><polygon points="110.152 180.612 102.86 180.612 107.301 173.321 114.592 173.321 110.152 180.612" fill="#ffde00" stroke="#333" stroke-linecap="round" stroke-linejoin="round" stroke-width="2"/><line x1="140.6094" y1="199.1725" x2="156.7653" y2="172.6426" fill="none" stroke="#333" stroke-linecap="round" stroke-linejoin="round" stroke-width="2"/><polygon points="150.038 189.677 142.746 189.677 147.186 182.386 154.478 182.386 150.038 189.677" fill="#ffde00" stroke="#333" stroke-linecap="round" stroke-linejoin="round" stroke-width="2"/><line x1="157.6429" y1="199.1725" x2="172.1747" y2="175.3096" fill="none" stroke="#333" stroke-linecap="round" stroke-linejoin="round" stroke-width="2"/><polygon points="172.2 180.612 164.909 180.612 169.349 173.321 176.641 173.321 172.2 180.612" fill="#ffde00" stroke="#333" stroke-linecap="round" stroke-linejoin="round" stroke-width="2"/><line x1="125.7653" y1="199.1725" x2="139.2326" y2="175.3096" fill="none" stroke="#333" stroke-linecap="round" stroke-linejoin="round" stroke-width="2"/><line x1="110.861" y1="199.1725" x2="124.3283" y2="175.3096" fill="none" stroke="#333" stroke-linecap="round" stroke-linejoin="round" stroke-width="2"/><polygon points="138.734 180.944 131.443 180.944 135.883 173.652 143.175 173.652 138.734 180.944" fill="#ffde00" stroke="#333" stroke-linecap="round" stroke-linejoin="round" stroke-width="2"/><polygon points="120.517 188.235 113.225 188.235 117.665 180.944 124.957 180.944 120.517 188.235" fill="#ffde00" stroke="#333" stroke-linecap="round" stroke-linejoin="round" stroke-width="2"/><line x1="208.9486" y1="169.6755" x2="233.4342" y2="169.6755" fill="none" stroke="#333" stroke-linecap="round" stroke-linejoin="round" stroke-width="2"/><line x1="205.7548" y1="176.0631" x2="231.3051" y2="176.0631" fill="none" stroke="#333" stroke-linecap="round" stroke-linejoin="round" stroke-width="2"/><line x1="202.561" y1="182.4506" x2="228.1113" y2="182.4506" fill="none" stroke="#333" stroke-linecap="round" stroke-linejoin="round" stroke-width="2"/><line x1="198.3027" y1="188.8382" x2="223.8529" y2="188.8382" fill="none" stroke="#333" stroke-linecap="round" stroke-linejoin="round" stroke-width="2"/><line x1="195.1089" y1="195.2258" x2="220.6591" y2="195.2258" fill="none" stroke="#333" stroke-linecap="round" stroke-linejoin="round" stroke-width="2"/><polygon points="66.274 200.136 46.755 200.136 45.69 199.071 86.523 164.071 87.588 165.136 66.274 200.136" fill="#ffde00" stroke="#333" stroke-linecap="round" stroke-linejoin="round" stroke-width="2"/><polygon points="65.21 199.071 45.69 199.071 67.004 164.071 86.523 164.071 65.21 199.071" fill="#ffde00" stroke="#333" stroke-linecap="round" stroke-linejoin="round" stroke-width="2"/><polygon points="62.142 194.381 54.229 194.552 70.198 168.33 78.007 168.33 62.142 194.381" fill="#333" stroke="#333" stroke-linecap="round" stroke-linejoin="round" stroke-width="2"/><line x1="66.118" y1="179.5745" x2="45.6901" y2="157.3925" fill="none" stroke="#333" stroke-linecap="round" stroke-linejoin="round" stroke-width="2.5"/><circle cx="45.6901" cy="157.3925" r="6.6789" fill="#ffde00" stroke="#333" stroke-linecap="round" stroke-linejoin="round" stroke-width="2.5"/><path d="M61.6065,178.959a11.6881,11.6881,0,0,0,2.0667,12.83l11.7821-19.3477A11.5466,11.5466,0,0,0,61.6065,178.959Z" fill="#ffde00" stroke="#333" stroke-linecap="round" stroke-linejoin="round" stroke-width="2"/><path d="M509.371,273.396l26.5466-21.4022a4.6621,4.6621,0,0,0,1.7359-3.6294v-.005a4.6619,4.6619,0,0,0-7.5662-3.6467L506.5227,263.48Z" fill="#ffde00"/><path d="M509.371,273.396l26.5466-21.4022a4.6621,4.6621,0,0,0,1.7359-3.6294v-.005a4.6619,4.6619,0,0,0-7.5662-3.6467L506.5227,263.48Z" fill="#333" opacity="0.1"/><path d="M509.371,273.396l26.5466-21.4022a4.6621,4.6621,0,0,0,1.7359-3.6294v-.005a4.6619,4.6619,0,0,0-7.5662-3.6467L506.5227,263.48Z" fill="none" stroke="#333" stroke-linecap="round" stroke-linejoin="round" stroke-width="2"/><path d="M506.7068,274.3364H292.3607V263.5248H506.7068a5.4058,5.4058,0,0,1,5.4057,5.4058h0A5.4058,5.4058,0,0,1,506.7068,274.3364Z" fill="#ffde00" stroke="#333" stroke-linecap="round" stroke-linejoin="round" stroke-width="2"/><polyline points="554.187 96.108 292.361 96.016 292.361 118.145 525.404 118.237" fill="#ffde00" stroke="#333" stroke-linecap="round" stroke-linejoin="round" stroke-width="2"/><g opacity="0.15"><path d="M519.2669,97.2309l-23.5646,18.7669" fill="none" stroke="#333" stroke-linecap="round" stroke-linejoin="round" stroke-width="1.5"/><path d="M487.2669,97.2309l-23.5646,18.7669" fill="none" stroke="#333" stroke-linecap="round" stroke-linejoin="round" stroke-width="1.5"/><path d="M455.2669,97.2309l-23.5646,18.7669" fill="none" stroke="#333" stroke-linecap="round" stroke-linejoin="round" stroke-width="1.5"/><path d="M423.2669,97.2309l-23.5646,18.7669" fill="none" stroke="#333" stroke-linecap="round" stroke-linejoin="round" stroke-width="1.5"/><path d="M391.2669,97.2309l-23.5646,18.7669" fill="none" stroke="#333" stroke-linecap="round" stroke-linejoin="round" stroke-width="1.5"/><path d="M359.2669,97.2309l-23.5646,18.7669" fill="none" stroke="#333" stroke-linecap="round" stroke-linejoin="round" stroke-width="1.5"/></g><path d="M530.671,126.8812l27.5-22.1706a4.8288,4.8288,0,0,0,1.7982-3.76v-.0052a4.8292,4.8292,0,0,0-7.8377-3.7777l-24.41,19.4406Z" fill="#ffde00"/><path d="M530.671,126.8812l27.5-22.1706a4.8288,4.8288,0,0,0,1.7982-3.76v-.0052a4.8292,4.8292,0,0,0-7.8377-3.7777l-24.41,19.4406Z" fill="#333" opacity="0.1"/><path d="M530.671,126.8812l27.5-22.1706a4.8288,4.8288,0,0,0,1.7982-3.76v-.0052a4.8292,4.8292,0,0,0-7.8377-3.7777l-24.41,19.4406Z" fill="none" stroke="#333" stroke-linecap="round" stroke-linejoin="round" stroke-width="2"/><path d="M526.934,127.8216H292.3607V117.01H526.934a5.4058,5.4058,0,0,1,5.4058,5.4058h0A5.4058,5.4058,0,0,1,526.934,127.8216Z" fill="#ffde00" stroke="#333" stroke-linecap="round" stroke-linejoin="round" stroke-width="2"/><path d="M325.8255,21.862H295.924a4.6,4.6,0,0,0-4.6,4.6v94.3049h0l37.839-32.04L297.7142,31.3408a3.0054,3.0054,0,0,1,3.0054-3.0054h29.7062V26.4622A4.6,4.6,0,0,0,325.8255,21.862Z" fill="#333" opacity="0.15"/><polygon points="403.731 97.24 383.948 112.417 378.408 49.885 403.731 48.55 403.731 97.24" fill="#fff"/><polygon points="403.731 97.24 383.948 112.417 378.408 49.885 403.731 48.55 403.731 97.24" fill="#333" opacity="0.2"/><polygon points="403.731 97.24 383.948 112.417 378.408 49.885 403.731 48.55 403.731 97.24" fill="none" stroke="#333" stroke-linecap="round" stroke-linejoin="round" stroke-width="3"/><polyline points="383.948 62.581 322.224 62.581 322.224 112.417 383.948 112.417" fill="#fff" stroke="#333" stroke-linecap="round" stroke-linejoin="round" stroke-width="3"/><line x1="383.9478" y1="112.4171" x2="383.9478" y2="62.5807" fill="#fff" stroke="#333" stroke-linecap="round" stroke-linejoin="round" stroke-width="2"/><polygon points="321.317 62.581 347.546 47.759 403.731 47.759 384.179 62.581 321.317 62.581" fill="#ffde00" stroke="#333" stroke-linecap="round" stroke-linejoin="round" stroke-width="2"/><path d="M347.5463,48.7461l10.8284,8.7019a4.5345,4.5345,0,0,0,2.1432.2445l42.422-9.3339" fill="#fff" stroke="#333" stroke-linecap="round" stroke-linejoin="round" stroke-width="2"/><line x1="355.1937" y1="55.4852" x2="325.3889" y2="61.7894" fill="none" stroke="#333" stroke-linecap="round" stroke-linejoin="round" stroke-width="2"/><line x1="383.9478" y1="62.5807" x2="369.9114" y2="55.6257" fill="none" stroke="#333" stroke-linecap="round" stroke-linejoin="round" stroke-width="2"/><line x1="383.1565" y1="105.1322" x2="322.2236" y2="105.1322" fill="none" stroke="#333" stroke-linecap="round" stroke-linejoin="round" stroke-width="2"/><line x1="383.1565" y1="98.2204" x2="322.2236" y2="98.2204" fill="none" stroke="#333" stroke-linecap="round" stroke-linejoin="round" stroke-width="2"/><line x1="383.1565" y1="91.3086" x2="322.2236" y2="91.3086" fill="none" stroke="#333" stroke-linecap="round" stroke-linejoin="round" stroke-width="2"/><line x1="383.1565" y1="84.3969" x2="322.2236" y2="84.3969" fill="none" stroke="#333" stroke-linecap="round" stroke-linejoin="round" stroke-width="2"/><line x1="383.1565" y1="77.4851" x2="322.2236" y2="77.4851" fill="none" stroke="#333" stroke-linecap="round" stroke-linejoin="round" stroke-width="2"/><line x1="383.1565" y1="70.5733" x2="322.2236" y2="70.5733" fill="none" stroke="#333" stroke-linecap="round" stroke-linejoin="round" stroke-width="2"/><line x1="384.0634" y1="104.9724" x2="403.7312" y2="90.1946" fill="none" stroke="#333" stroke-linecap="round" stroke-linejoin="round" stroke-width="2"/><line x1="384.0634" y1="98.0607" x2="403.7312" y2="83.2828" fill="none" stroke="#333" stroke-linecap="round" stroke-linejoin="round" stroke-width="2"/><line x1="384.0634" y1="91.1489" x2="403.7312" y2="76.371" fill="none" stroke="#333" stroke-linecap="round" stroke-linejoin="round" stroke-width="2"/><line x1="384.0634" y1="84.2371" x2="403.7312" y2="69.4593" fill="none" stroke="#333" stroke-linecap="round" stroke-linejoin="round" stroke-width="2"/><line x1="384.0634" y1="77.3254" x2="403.7312" y2="62.5475" fill="none" stroke="#333" stroke-linecap="round" stroke-linejoin="round" stroke-width="2"/><line x1="384.0634" y1="70.4136" x2="403.7312" y2="55.6357" fill="none" stroke="#333" stroke-linecap="round" stroke-linejoin="round" stroke-width="2"/><polygon points="509.382 97.24 489.598 112.417 484.059 70.376 509.382 69.041 509.382 97.24" fill="#fff"/><polygon points="509.382 97.24 489.598 112.417 484.059 70.376 509.382 69.041 509.382 97.24" fill="#333" opacity="0.2"/><polygon points="509.382 97.24 489.598 112.417 484.059 70.376 509.382 69.041 509.382 97.24" fill="none" stroke="#333" stroke-linecap="round" stroke-linejoin="round" stroke-width="3"/><polyline points="489.598 83.072 427.874 83.072 427.874 112.417 489.598 112.417" fill="#fff" stroke="#333" stroke-linecap="round" stroke-linejoin="round" stroke-width="3"/><line x1="489.5984" y1="112.4171" x2="489.5984" y2="83.0721" fill="#fff" stroke="#333" stroke-linecap="round" stroke-linejoin="round" stroke-width="2"/><path d="M427.8723,82.2787,453.197,68.25h56.1849L489.83,83.0721H428.0875A.4259.4259,0,0,1,427.8723,82.2787Z" fill="#ffde00" stroke="#333" stroke-linecap="round" stroke-linejoin="round" stroke-width="2"/><path d="M453.197,69.2374l11.8929,8.702a4.5346,4.5346,0,0,0,2.1432.2444L508.5905,68.85" fill="#fff" stroke="#333" stroke-linecap="round" stroke-linejoin="round" stroke-width="2"/><line x1="461.9089" y1="75.9765" x2="431.0395" y2="82.2807" fill="none" stroke="#333" stroke-linecap="round" stroke-linejoin="round" stroke-width="2"/><line x1="489.5984" y1="83.0721" x2="477.6912" y2="76.117" fill="none" stroke="#333" stroke-linecap="round" stroke-linejoin="round" stroke-width="2"/><line x1="488.8071" y1="104.8882" x2="427.8742" y2="104.8882" fill="none" stroke="#333" stroke-linecap="round" stroke-linejoin="round" stroke-width="2"/><line x1="488.8071" y1="97.9765" x2="427.8742" y2="97.9765" fill="none" stroke="#333" stroke-linecap="round" stroke-linejoin="round" stroke-width="2"/><line x1="488.8071" y1="91.0647" x2="427.8742" y2="91.0647" fill="none" stroke="#333" stroke-linecap="round" stroke-linejoin="round" stroke-width="2"/><line x1="489.714" y1="104.7285" x2="509.3819" y2="89.9506" fill="none" stroke="#333" stroke-linecap="round" stroke-linejoin="round" stroke-width="2"/><line x1="489.714" y1="97.8167" x2="509.3819" y2="83.0389" fill="none" stroke="#333" stroke-linecap="round" stroke-linejoin="round" stroke-width="2"/><line x1="489.714" y1="90.905" x2="509.3819" y2="76.1271" fill="none" stroke="#333" stroke-linecap="round" stroke-linejoin="round" stroke-width="2"/><path d="M230.162,119.1891l.8333-9.3521a.5.5,0,0,0-.498-.5444h-3.0248a.5.5,0,0,1-.4981-.5436l.4528-5.1748a.5.5,0,0,0-.4981-.5436H225.15a.5.5,0,0,0-.4981.4564l-.59,6.7407a.5.5,0,0,1-.4981.4564h-3.0206l.1217-1.3915h-2.9332a.5.5,0,0,1-.4981-.5436l.0874-1a.5.5,0,0,0-.4981-.5436H214.43a.5.5,0,0,1-.4984-.5391l.63-8.0146a.5.5,0,0,0-.4984-.5392H210.89a.5.5,0,0,0-.4983.4589L209.0832,114.4a.5.5,0,0,1-.4983.4588h-1.7771a.5.5,0,0,1-.4981-.5435l.27-3.0876a.5.5,0,0,0-.4981-.5436h-2.2375l.1218-1.3915h-2.9332a.5.5,0,0,1-.4981-.5436l.0875-1a.5.5,0,0,0-.4981-.5436h-1.6918a.5.5,0,0,1-.4981-.5435l.27-3.0875a.5.5,0,0,0-.4981-.5436h-2.475a.5.5,0,0,0-.4981.4564l-.468,5.3492a.5.5,0,0,1-.4981.4564h-2.5626a.5.5,0,0,0-.4981.4564l-.0426.4873a.5.5,0,0,1-.4886.4563L188.2,110.73a.5.5,0,0,1-.5075-.5435l1.3654-15.6089a.5.5,0,0,0-.491-.5435l-2.9743-.042a.5.5,0,0,0-.5052.4563l-1.2584,14.3852a.5.5,0,0,1-.5009.4564l-2.1161-.0118a.5.5,0,0,1-.4953-.5436l.4528-5.1748a.5.5,0,0,0-.5009-.5435l-2.594.0143h-2.3251a.5.5,0,0,0-.4981.4565l-.4678,5.349a.5.5,0,0,1-.4981.4565h-2.5625a.5.5,0,0,0-.4981.4564l-.0419.4787a.5.5,0,0,1-.4981.4564h-2.5627a.5.5,0,0,0-.4981.4565l-.2853,3.2618a.5.5,0,0,1-.4981.4564h-1.7846a.5.5,0,0,1-.4985-.5387l1.1247-14.47a.5.5,0,0,0-.4985-.5388h-2.4716a.5.5,0,0,0-.4988.466l-.475,6.9617a.5.5,0,0,1-.4988.4659h-2.5537a.5.5,0,0,0-.4981.4564l-.1028,1.1746a.5.5,0,0,1-.4981.4564h-2.5626a.5.5,0,0,0-.4981.4564l-.0419.4787a.5.5,0,0,1-.4981.4564h-2.475a.5.5,0,0,1-.4981-.5435l.5744-6.5664a.5.5,0,0,0-.4981-.5436h-1.7953a.5.5,0,0,0-.4963.4388l-.1922,1.5574a.5.5,0,0,1-.4962.4388H146.33a.5.5,0,0,1-.4966-.5585l.4829-4.0993a.5.5,0,0,0-.4965-.5585h-3.8529a.5.5,0,0,0-.4978.4531l-.8986,9.5287a.5.5,0,0,1-.4978.453h-3.0237l.1218-1.3915h-2.2375a.5.5,0,0,1-.4981-.5436l.0876-1a.5.5,0,0,0-.4981-.5436h-1.7793a.5.5,0,0,0-.4981.4564l-.2247,2.5662a.5.5,0,0,1-.4981.4563h-2.47a.5.5,0,0,1-.4977-.5482L129.84,91.7506a.5.5,0,0,0-.4977-.5483h-2.475a.5.5,0,0,0-.4976.4507l-1.4956,15.1015a.5.5,0,0,1-.4976.4507h-2.5679a.5.5,0,0,0-.4981.4565l-.2243,2.566a.5.5,0,0,1-.4981.4564h-2.4752a.5.5,0,0,1-.4981-.5435l.5744-6.5664a.5.5,0,0,0-.4981-.5436h-2.2373l-5.6925.03a.5.5,0,0,0-.4958.46l-.334,4.1567a.5.5,0,0,1-.505.46l-3-.0395a.5.5,0,0,1-.4926-.5269l.43-7.9663a.5.5,0,0,0-.4993-.5269H103.16a.5.5,0,0,1-.4993-.5271l.1438-2.646a.5.5,0,0,0-.4992-.5271H98.6978a.5.5,0,0,0-.4987.4644l-1.658,23.2678a.5.5,0,0,0,.4988.5355H229.664A.5.5,0,0,0,230.162,119.1891Z" fill="#333" opacity="0.26"/><path d="M108.1643,29.3163l-1.4681,16.8186a.5.5,0,0,1-.4981.4565h-2.6563a.5.5,0,0,0-.4981.4564l-.2727,3.1163h-.0905l-.89,9.9934a.5.5,0,0,0,.4981.5444H234.9324a.5.5,0,0,0,.4982-.4576l2.5932-30.4224a.5.5,0,0,0-.4982-.5425h-3.218a.5.5,0,0,0-.4991.4686l-.2785,4.4292a.5.5,0,0,1-.499.4686h-1.9321a.5.5,0,0,0-.4979.4548l-.9374,10.3215a.5.5,0,0,1-.498.4547h-1.9434a.5.5,0,0,0-.4981.4565l-.17,1.9453a.5.5,0,0,1-.4981.4565h-2.6565a.5.5,0,0,0-.4981.4564l-.0452.5162a.5.5,0,0,1-.498.4564h-2.569a.5.5,0,0,1-.4981-.5436l.28-3.2a.5.5,0,0,0-.4981-.5436h-3.9979a.5.5,0,0,0-.4981.4564l-.17,1.9455a.5.5,0,0,1-.4981.4564h-1.8543a.5.5,0,0,1-.4981-.5436l.4674-5.3439a.5.5,0,0,0-.4981-.5436H209.671a.5.5,0,0,0-.4981.4565l-.6078,6.9472a.5.5,0,0,1-.4981.4564h-3.1147l.1251-1.429H202.05a.5.5,0,0,1-.4981-.5436l.0924-1.0565a.5.5,0,0,0-.4981-.5436H198.66a.5.5,0,0,1-.4985-.5392l.9187-11.6776a.5.5,0,0,0-.4985-.5393h-3.2858a.5.5,0,0,0-.4983.4592l-1.6158,19.6978a.5.5,0,0,1-.4983.4592h-1.8519a.5.5,0,0,1-.4981-.5436l.28-3.2a.5.5,0,0,0-.4981-.5436h-2.3125l.125-1.429H184.901a.5.5,0,0,1-.4981-.5436l.0924-1.0565a.5.5,0,0,0-.4981-.5436H182.23a.5.5,0,0,1-.4981-.5436l.28-3.2a.5.5,0,0,0-.4981-.5436h-2.5683a.5.5,0,0,0-.4982.4572l-.26,3.0165a.5.5,0,0,1-.4981.4572h-2.6565a.5.5,0,0,0-.4981.4557l-.2684,3.0178a.5.5,0,0,1-.498.4557h-2.57a.5.5,0,0,1-.4981-.5436l1.4053-16.0621a.5.5,0,0,0-.4981-.5436H169.04a.5.5,0,0,0-.4981.4564l-1.2955,14.8074a.5.5,0,0,1-.4981.4565h-1.14a.5.5,0,0,1-.4981-.5436l.4674-5.3439a.5.5,0,0,0-.4981-.5436h-3.7415l.125-1.4291h-2.4a.5.5,0,0,0-.4981.4564l-.6078,6.9473a.5.5,0,0,1-.4981.4565h-2.6564a.5.5,0,0,0-.4981.4564l-.0452.5162a.5.5,0,0,1-.4981.4564h-3.1146l.0633-.077h-2.3143a.5.5,0,0,1-.4983-.5419l1.3458-15.9884a.5.5,0,0,0-.4982-.542h-2.5707a.5.5,0,0,0-.4981.4565L144.5678,46.135a.5.5,0,0,1-.4981.4564h-2.6565a.5.5,0,0,0-.4981.4564l-.1076,1.2308a.5.5,0,0,1-.4981.4565h-2.6565a.5.5,0,0,0-.4981.4564l-.0452.5162a.5.5,0,0,1-.4981.4564h-2.569a.5.5,0,0,1-.4981-.5436l.5926-6.7729a.5.5,0,0,0-.4981-.5436h-1.8544a.5.5,0,0,0-.4981.4565l-.4827,5.5181a.5.5,0,0,1-.4981.4565h-1.8544a.5.5,0,0,1-.4981-.5436l.0924-1.0565a.5.5,0,0,0-.4981-.5436h-3.998a.5.5,0,0,0-.4981.4564l-.2327,2.66a.5.5,0,0,1-.4981.4564h-3.1146l.125-1.429h-2.31a.5.5,0,0,1-.4979-.5462l1.1419-12.3225a.5.5,0,0,0-.4978-.5461h-1.8538a.5.5,0,0,0-.4978.4541L113.5313,49.71a.5.5,0,0,1-.4979.4541h-2.5711a.5.5,0,0,1-.4981-.5435l1.7652-20.2173a.5.5,0,0,0-.4981-.5435h-2.5689A.5.5,0,0,0,108.1643,29.3163Z" fill="#333" opacity="0.26"/><rect x="321.8018" y="91.3086" width="60.2901" height="6.9118" fill="#333" opacity="0.1"/><rect x="427.8742" y="91.0647" width="60.9329" height="6.9118" fill="#333" opacity="0.15"/><rect x="321.9155" y="69.4593" width="62.4632" height="7.3889" fill="#333" opacity="0.08"/><line x1="14.5" y1="304.7461" x2="362.5" y2="304.7461" fill="none" stroke="#333" stroke-linecap="round" stroke-linejoin="round" stroke-width="3"/><line x1="370.5" y1="304.7461" x2="380.5" y2="304.7461" fill="none" stroke="#333" stroke-linecap="round" stroke-linejoin="round" stroke-width="3"/><line x1="6.5" y1="304.7461" x2="1.5" y2="304.7461" fill="none" stroke="#333" stroke-linecap="round" stroke-linejoin="round" stroke-width="3"/><line x1="389.5" y1="304.7461" x2="392.5" y2="304.7461" fill="none" stroke="#333" stroke-linecap="round" stroke-linejoin="round" stroke-width="3"/></g></g></svg>