<svg width="90" height="68" fill="none" xmlns="http://www.w3.org/2000/svg"><g clip-path="url(#a)"><path d="M17.5 59V29.265l25.535-17.327a3.5 3.5 0 0 1 3.93 0L72.5 29.265V59a3.5 3.5 0 0 1-3.5 3.5H21a3.5 3.5 0 0 1-3.5-3.5Z" fill="#DCDFE3" stroke="#000"/><mask id="b" fill="#fff"><path fill-rule="evenodd" clip-rule="evenodd" d="M29.032 8.692a2 2 0 0 0-2.54 1.246l-1.94 5.678a7 7 0 1 1-4.526 13.248l-1.94 5.677a2 2 0 0 0 1.245 2.54l41.637 14.227a2 2 0 0 0 2.54-1.246l8.406-24.603a2 2 0 0 0-1.246-2.54L29.032 8.692Z"/></mask><path fill-rule="evenodd" clip-rule="evenodd" d="M29.032 8.692a2 2 0 0 0-2.54 1.246l-1.94 5.678a7 7 0 1 1-4.526 13.248l-1.94 5.677a2 2 0 0 0 1.245 2.54l41.637 14.227a2 2 0 0 0 2.54-1.246l8.406-24.603a2 2 0 0 0-1.246-2.54L29.032 8.692Z" fill="#fff"/><path d="m24.553 15.616-.947-.324-.323.947.946.323.324-.946Zm-4.527 13.248.323-.947-.946-.323-.323.946.946.324Zm7.413-18.603a1 1 0 0 1 1.27-.623l.646-1.892a3 3 0 0 0-3.809 1.869l1.893.646Zm-1.94 5.678 1.94-5.678-1.893-.646-1.94 5.677 1.893.647Zm-1.27.623a6 6 0 0 1 3.738 7.618l1.892.646a8 8 0 0 0-4.983-10.157l-.647 1.893Zm3.738 7.618a6 6 0 0 1-7.618 3.737l-.647 1.893a8 8 0 0 0 10.157-4.984l-1.892-.646Zm-8.935 10.685 1.94-5.678-1.893-.647-1.94 5.678 1.893.647Zm.623 1.27a1 1 0 0 1-.623-1.27l-1.893-.647a3 3 0 0 0 1.87 3.809l.646-1.893ZM61.29 50.361 19.655 36.134l-.647 1.893 41.637 14.227.646-1.892Zm1.27-.623a1 1 0 0 1-1.27.623l-.646 1.892a3 3 0 0 0 3.808-1.869l-1.892-.646Zm8.407-24.604L62.56 49.74l1.892.646 8.407-24.603-1.892-.647Zm-.623-1.27a1 1 0 0 1 .623 1.27l1.892.647a3 3 0 0 0-1.868-3.809l-.647 1.893ZM28.709 9.639l41.636 14.228.647-1.893L29.355 7.746l-.646 1.892Z" fill="#000" mask="url(#b)"/><path stroke="#000" stroke-linecap="round" stroke-dasharray="4 4" d="m56.786 18.704-9.378 27.442"/><rect x="58.966" y="23.148" width="9" height="8" rx="1" transform="rotate(18.866 58.966 23.148)" fill="#DCDFE3"/><rect x="55.732" y="32.611" width="9" height="1.5" rx=".75" transform="rotate(18.866 55.732 32.61)" fill="#DCDFE3"/><rect x="54.762" y="35.449" width="9" height="1.5" rx=".75" transform="rotate(18.866 54.762 35.45)" fill="#DCDFE3"/><rect x="53.792" y="38.288" width="9" height="1.5" rx=".75" transform="rotate(18.866 53.792 38.288)" fill="#DCDFE3"/><rect x="52.822" y="41.127" width="6" height="1.5" rx=".75" transform="rotate(18.866 52.822 41.127)" fill="#DCDFE3"/><path d="M46.7 22.127 32.876 34.839l1.861.636 13.826-12.712-1.861-.636Zm-10.082 1.279c.255-.747.498-1.297.728-1.65.234-.368.56-.48.98-.337.417.142.607.431.567.865-.034.42-.18 1.004-.434 1.75-.284.83-.545 1.435-.784 1.817-.235.367-.561.48-.98.337-.418-.143-.607-.432-.568-.866.044-.448.208-1.087.491-1.916Zm-2.245-.675a11.235 11.235 0 0 0-.47 1.785c-.086.526-.074.993.036 1.401.123.413.359.771.707 1.075.366.295.87.552 1.511.771.655.224 1.211.33 1.667.315.461-.027.86-.169 1.196-.424.35-.251.653-.611.906-1.08.254-.47.494-1.036.721-1.699.227-.664.383-1.258.47-1.785.086-.526.068-.995-.056-1.408a2.016 2.016 0 0 0-.693-1.047c-.348-.305-.85-.568-1.504-.792-.642-.22-1.2-.318-1.675-.295-.456.014-.86.147-1.21.397-.336.256-.631.618-.885 1.087-.254.47-.494 1.036-.72 1.7Zm6.458 10.08c-.231.677-.39 1.28-.477 1.805-.081.513-.067.973.043 1.381.128.399.37.737.728 1.013.366.295.87.552 1.511.771.655.224 1.211.329 1.667.315.452 0 .843-.12 1.175-.363.35-.25.65-.603.9-1.059.253-.469.495-1.042.727-1.72.227-.663.383-1.258.47-1.784.086-.526.067-.996-.056-1.408a2.016 2.016 0 0 0-.693-1.048c-.348-.304-.85-.568-1.505-.791-.641-.22-1.2-.318-1.674-.295-.456.014-.86.146-1.21.397-.336.256-.631.618-.885 1.087-.254.47-.494 1.036-.72 1.699Zm2.245.675c.255-.747.498-1.297.728-1.65.234-.368.56-.48.979-.338.418.143.608.432.568.866-.035.42-.18 1.004-.434 1.75-.284.83-.545 1.435-.785 1.817-.234.367-.56.48-.979.336-.418-.143-.607-.431-.568-.865.044-.448.208-1.087.491-1.916Z" fill="#DCDFE3"/><path d="M17.5 59V29.875l25.215 14.86a4.5 4.5 0 0 0 4.57 0L72.5 29.874V59a3.5 3.5 0 0 1-3.5 3.5H21a3.5 3.5 0 0 1-3.5-3.5Z" fill="#3899D7" stroke="#000"/><path d="m18.5 60.5 52-.5-23.811-16.341a3 3 0 0 0-3.383-.008L18.5 60.5Z" fill="#3899D7"/><mask id="c" style="mask-type:alpha" maskUnits="userSpaceOnUse" x="17" y="29" width="56" height="34"><path d="M17 29h56v30a4 4 0 0 1-4 4H21a4 4 0 0 1-4-4V29Z" fill="#FFDE00"/></mask><g mask="url(#c)"><path d="m17 62.5 25.637-18.77a4 4 0 0 1 4.726 0L73 62.5" stroke="#000"/></g><g style="mix-blend-mode:multiply" opacity=".2" fill="#3899D7"><path fill-rule="evenodd" clip-rule="evenodd" d="M77 10a1 1 0 1 0 0-2 1 1 0 0 0 0 2Zm0 1a2 2 0 1 0 0-4 2 2 0 0 0 0 4ZM6.558 13.568l.136 5.194 4.43-2.715-4.566-2.48Zm1.045 1.705.045 1.731 1.477-.905-1.522-.826Z"/><path d="M19 16a1 1 0 1 1-2 0 1 1 0 0 1 2 0ZM8 28a1 1 0 1 1-2 0 1 1 0 0 1 2 0ZM65 6a1 1 0 1 1-2 0 1 1 0 0 1 2 0ZM87 25a1 1 0 1 1-2 0 1 1 0 0 1 2 0ZM79 16.5a.5.5 0 0 1 1 0v4a.5.5 0 0 1-1 0v-4Z"/><path d="M81.5 18a.5.5 0 0 1 0 1h-4a.5.5 0 0 1 0-1h4ZM18.354 4.06a.5.5 0 1 1 .707-.706l2.828 2.828a.5.5 0 1 1-.707.707l-2.828-2.828Z"/><path d="M21.182 3.354a.5.5 0 1 1 .707.707l-2.828 2.828a.5.5 0 1 1-.707-.707l2.828-2.828Z"/></g></g><defs><clipPath id="a"><path fill="#fff" d="M0 0h90v68H0z"/></clipPath></defs></svg>