<svg xmlns="http://www.w3.org/2000/svg" viewBox="0 0 510.5 326.625"><g data-name="Layer 2"><path fill="#fede00" stroke="#2a2e35" stroke-linecap="round" stroke-linejoin="round" stroke-width="2" d="M168 9v316h50v-7h57v7h51V9H168z"/><rect x="178" y="65" width="138" height="42" rx="2.482" ry="2.482" fill="#fede00"/><path d="M313.517 66A1.483 1.483 0 0 1 315 67.483v37.034a1.483 1.483 0 0 1-1.483 1.483H180.483a1.483 1.483 0 0 1-1.483-1.483V67.483A1.483 1.483 0 0 1 180.483 66h133.034m0-2H180.483A3.487 3.487 0 0 0 177 67.483v37.034a3.487 3.487 0 0 0 3.483 3.483h133.034a3.487 3.487 0 0 0 3.483-3.483V67.483A3.487 3.487 0 0 0 313.517 64z" fill="#2a2e35"/><rect x="178" y="113" width="138" height="28" rx="2.482" ry="2.482" fill="#fede00"/><path d="M313.518 114a1.482 1.482 0 0 1 1.482 1.482v23.036a1.482 1.482 0 0 1-1.482 1.482H180.482a1.482 1.482 0 0 1-1.482-1.482v-23.036a1.482 1.482 0 0 1 1.482-1.482h133.036m0-2H180.482a3.486 3.486 0 0 0-3.482 3.482v23.036a3.486 3.486 0 0 0 3.482 3.482h133.036a3.486 3.486 0 0 0 3.482-3.482v-23.036a3.486 3.486 0 0 0-3.482-3.482z" fill="#2a2e35"/><rect x="178" y="146" width="138" height="28" rx="2.482" ry="2.482" fill="#fede00"/><path d="M313.518 147a1.482 1.482 0 0 1 1.482 1.482v23.036a1.482 1.482 0 0 1-1.482 1.482H180.482a1.482 1.482 0 0 1-1.482-1.482v-23.036a1.482 1.482 0 0 1 1.482-1.482h133.036m0-2H180.482a3.486 3.486 0 0 0-3.482 3.482v23.036a3.486 3.486 0 0 0 3.482 3.482h133.036a3.486 3.486 0 0 0 3.482-3.482v-23.036a3.486 3.486 0 0 0-3.482-3.482z" fill="#2a2e35"/><path fill="#fede00" stroke="#2a2e35" stroke-linecap="round" stroke-linejoin="round" stroke-width="2" d="M283 73h25v27h-25z"/><path fill="none" stroke="#2a2e35" stroke-linecap="round" stroke-linejoin="round" stroke-width="2" d="M277 123h30M277 131h30M277 156h30M277 164h30"/><circle cx="192" cy="127" r="4" fill="#2a2e35"/><path d="M192 124a3 3 0 1 1-3 3 3 3 0 0 1 3-3m0-2a5 5 0 1 0 5 5 5.006 5.006 0 0 0-5-5z" fill="#2a2e35"/><circle cx="206" cy="127" r="4" fill="#fff"/><path d="M206 124a3 3 0 1 1-3 3 3 3 0 0 1 3-3m0-2a5 5 0 1 0 5 5 5.006 5.006 0 0 0-5-5z" fill="#2a2e35"/><rect x="178" y="214" width="138" height="28" rx="2.482" ry="2.482" fill="#fede00"/><path d="M313.518 215a1.482 1.482 0 0 1 1.482 1.482v23.036a1.482 1.482 0 0 1-1.482 1.482H180.482a1.482 1.482 0 0 1-1.482-1.482v-23.036a1.482 1.482 0 0 1 1.482-1.482h133.036m0-2H180.482a3.486 3.486 0 0 0-3.482 3.482v23.036a3.486 3.486 0 0 0 3.482 3.482h133.036a3.486 3.486 0 0 0 3.482-3.482v-23.036a3.486 3.486 0 0 0-3.482-3.482z" fill="#2a2e35"/><path fill="none" stroke="#2a2e35" stroke-linecap="round" stroke-linejoin="round" stroke-width="2" d="M277 224.5h30M277 232h30"/><circle cx="192" cy="228" r="4" fill="#2a2e35"/><path d="M192 225a3 3 0 1 1-3 3 3 3 0 0 1 3-3m0-2a5 5 0 1 0 5 5 5.006 5.006 0 0 0-5-5z" fill="#2a2e35"/><circle cx="206" cy="228" r="4" fill="#2a2e35"/><path d="M206 225a3 3 0 1 1-3 3 3 3 0 0 1 3-3m0-2a5 5 0 1 0 5 5 5.006 5.006 0 0 0-5-5z" fill="#2a2e35"/><rect x="178" y="248" width="138" height="28" rx="2.482" ry="2.482" fill="#fede00"/><path d="M313.518 249a1.482 1.482 0 0 1 1.482 1.482v23.036a1.482 1.482 0 0 1-1.482 1.482H180.482a1.482 1.482 0 0 1-1.482-1.482v-23.036a1.482 1.482 0 0 1 1.482-1.482h133.036m0-2H180.482a3.486 3.486 0 0 0-3.482 3.482v23.036a3.486 3.486 0 0 0 3.482 3.482h133.036a3.486 3.486 0 0 0 3.482-3.482v-23.036a3.486 3.486 0 0 0-3.482-3.482z" fill="#2a2e35"/><path fill="none" stroke="#2a2e35" stroke-linecap="round" stroke-linejoin="round" stroke-width="2" d="M277 258.5h30M277 266h30"/><circle cx="192" cy="262" r="4" fill="#2a2e35"/><path d="M192 259a3 3 0 1 1-3 3 3 3 0 0 1 3-3m0-2a5 5 0 1 0 5 5 5.006 5.006 0 0 0-5-5z" fill="#2a2e35"/><circle cx="206" cy="262" r="4" fill="#fff"/><path d="M206 259a3 3 0 1 1-3 3 3 3 0 0 1 3-3m0-2a5 5 0 1 0 5 5 5.006 5.006 0 0 0-5-5z" fill="#2a2e35"/><rect x="178" y="180" width="138" height="28" rx="2.482" ry="2.482" fill="#fede00"/><path d="M313.518 181a1.482 1.482 0 0 1 1.482 1.482v23.036a1.482 1.482 0 0 1-1.482 1.482H180.482a1.482 1.482 0 0 1-1.482-1.482v-23.036a1.482 1.482 0 0 1 1.482-1.482h133.036m0-2H180.482a3.486 3.486 0 0 0-3.482 3.482v23.036a3.486 3.486 0 0 0 3.482 3.482h133.036a3.486 3.486 0 0 0 3.482-3.482v-23.036a3.486 3.486 0 0 0-3.482-3.482z" fill="#2a2e35"/><path fill="none" stroke="#2a2e35" stroke-linecap="round" stroke-linejoin="round" stroke-width="2" d="M277 191h30M277 198h30"/><circle cx="192" cy="194" r="4" fill="#fff"/><path d="M192 191a3 3 0 1 1-3 3 3 3 0 0 1 3-3m0-2a5 5 0 1 0 5 5 5.006 5.006 0 0 0-5-5z" fill="#2a2e35"/><circle cx="206" cy="194" r="4" fill="#2a2e35"/><path d="M206 191a3 3 0 1 1-3 3 3 3 0 0 1 3-3m0-2a5 5 0 1 0 5 5 5.006 5.006 0 0 0-5-5z" fill="#2a2e35"/><circle cx="192" cy="160" r="4" fill="#2a2e35"/><path d="M192 157a3 3 0 1 1-3 3 3 3 0 0 1 3-3m0-2a5 5 0 1 0 5 5 5.006 5.006 0 0 0-5-5z" fill="#2a2e35"/><circle cx="206" cy="160" r="4" fill="#2a2e35"/><path d="M206 157a3 3 0 1 1-3 3 3 3 0 0 1 3-3m0-2a5 5 0 1 0 5 5 5.006 5.006 0 0 0-5-5z" fill="#2a2e35"/><circle cx="295.5" cy="86.5" r="6.5" fill="#fede00" stroke="#2a2e35" stroke-linecap="round" stroke-linejoin="round" stroke-width="2"/><rect x="193" y="19" width="109" height="36" rx="2.894" ry="2.894" fill="#fff"/><path d="M299.106 20A1.895 1.895 0 0 1 301 21.895v30.21A1.895 1.895 0 0 1 299.106 54H195.894A1.895 1.895 0 0 1 194 52.105v-30.21A1.895 1.895 0 0 1 195.894 20h103.211m0-2h-103.21A3.899 3.899 0 0 0 192 21.895v30.21A3.899 3.899 0 0 0 195.894 56h103.211A3.899 3.899 0 0 0 303 52.105v-30.21A3.899 3.899 0 0 0 299.106 18z" fill="#2a2e35"/><text transform="translate(204.632 43.665)" font-size="17.5" fill="#2a2e35" font-family="HelveticaNeue-Bold, Helvetica Neue" font-weight="700" letter-spacing=".024em">ACME<tspan x="53.848" y="0" letter-spacing="0em"> Co.</tspan></text><circle cx="197.5" cy="23.5" r="1.5" fill="#2a2e35" opacity=".25"/><circle cx="197.5" cy="50.5" r="1.5" fill="#2a2e35" opacity=".25"/><circle cx="297.5" cy="50.5" r="1.5" fill="#2a2e35" opacity=".25"/><circle cx="297.5" cy="23.5" r="1.5" fill="#2a2e35" opacity=".25"/><path fill="none" stroke="#2a2e35" stroke-linecap="round" stroke-linejoin="round" stroke-width="3" d="M168.5 289.5h156"/><path fill="#fede00" d="M167.126 8l12.595-7H314.56l12.691 7H167.126z"/><path fill="#2a2e35" opacity=".09" d="M167.126 8l12.595-7H314.56l12.691 7H167.126z"/><path fill="none" stroke="#2a2e35" stroke-linecap="round" stroke-linejoin="round" stroke-width="2" d="M167.126 8l12.595-7H314.56l12.691 7H167.126z"/><path fill="#2a2e35" fill-opacity=".09" stroke="#2a2e35" stroke-linecap="round" stroke-linejoin="round" stroke-width="2" d="M185 73h93v27h-93z"/><circle cx="214.934" cy="80.215" r="1.86" fill="#2a2e35"/><circle cx="222.375" cy="80.215" r="1.86" fill="#2a2e35"/><circle cx="229.816" cy="80.215" r="1.86" fill="#2a2e35"/><circle cx="237.258" cy="80.215" r="1.86" fill="#2a2e35"/><circle cx="218.655" cy="86.168" r="1.86" fill="#2a2e35"/><circle cx="226.096" cy="86.168" r="1.86" fill="#2a2e35"/><circle cx="233.537" cy="86.168" r="1.86" fill="#2a2e35"/><circle cx="240.978" cy="86.168" r="1.86" fill="#2a2e35"/><circle cx="244.699" cy="80.215" r="1.86" fill="#2a2e35"/><circle cx="214.934" cy="92.121" r="1.86" fill="#2a2e35"/><circle cx="222.375" cy="92.121" r="1.86" fill="#2a2e35"/><circle cx="200.052" cy="80.215" r="1.86" fill="#2a2e35"/><circle cx="207.493" cy="80.215" r="1.86" fill="#2a2e35"/><circle cx="203.772" cy="86.168" r="1.86" fill="#2a2e35"/><circle cx="211.213" cy="86.168" r="1.86" fill="#2a2e35"/><circle cx="200.052" cy="92.121" r="1.86" fill="#2a2e35"/><circle cx="207.493" cy="92.121" r="1.86" fill="#2a2e35"/><circle cx="192.61" cy="80.215" r="1.86" fill="#2a2e35"/><circle cx="200.052" cy="80.215" r="1.86" fill="#2a2e35"/><circle cx="196.331" cy="86.168" r="1.86" fill="#2a2e35"/><circle cx="192.61" cy="92.121" r="1.86" fill="#2a2e35"/><circle cx="200.052" cy="92.121" r="1.86" fill="#2a2e35"/><circle cx="229.816" cy="92.121" r="1.86" fill="#2a2e35"/><circle cx="237.258" cy="92.121" r="1.86" fill="#2a2e35"/><circle cx="244.699" cy="92.121" r="1.86" fill="#2a2e35"/><circle cx="252.14" cy="80.215" r="1.86" fill="#2a2e35"/><circle cx="259.581" cy="80.215" r="1.86" fill="#2a2e35"/><circle cx="248.419" cy="86.168" r="1.86" fill="#2a2e35"/><circle cx="255.861" cy="86.168" r="1.86" fill="#2a2e35"/><circle cx="263.302" cy="86.168" r="1.86" fill="#2a2e35"/><circle cx="267.022" cy="80.215" r="1.86" fill="#2a2e35"/><circle cx="252.14" cy="92.121" r="1.86" fill="#2a2e35"/><circle cx="259.581" cy="92.121" r="1.86" fill="#2a2e35"/><circle cx="267.022" cy="92.121" r="1.86" fill="#2a2e35"/><circle cx="270.743" cy="86.168" r="1.86" fill="#2a2e35"/><path d="M458.106 20A1.895 1.895 0 0 1 460 21.895v30.21A1.895 1.895 0 0 1 458.106 54h-85.211A1.895 1.895 0 0 1 371 52.105v-30.21A1.895 1.895 0 0 1 372.894 20h85.211m0-2h-85.21A3.899 3.899 0 0 0 369 21.895v30.21A3.899 3.899 0 0 0 372.894 56h85.211A3.899 3.899 0 0 0 462 52.105v-30.21A3.899 3.899 0 0 0 458.106 18z" fill="#5f6b7d"/><text transform="translate(386.632 43.665)" font-size="17" fill="#fff" font-family="HelveticaNeue-Medium, Helvetica Neue">Sha<tspan x="30.226" y="0" letter-spacing="-.018em">r</tspan><tspan x="35.903" y="0">ed</tspan></text><path d="M494.238 245h.895a13 13 0 0 1 13 13v67" fill="none" stroke="#5f6b7d" stroke-linecap="round" stroke-linejoin="round" stroke-width="2"/><path fill="none" stroke="#5f6b7d" stroke-linecap="round" stroke-linejoin="round" stroke-width="3" d="M337.5 9.5v315h50v-7h57v7h50V9.5h-157z"/><path d="M482.517 66A1.483 1.483 0 0 1 484 67.483v37.034a1.483 1.483 0 0 1-1.483 1.483H349.483a1.483 1.483 0 0 1-1.483-1.483V67.483A1.483 1.483 0 0 1 349.483 66h133.034m0-2H349.483A3.487 3.487 0 0 0 346 67.483v37.034a3.487 3.487 0 0 0 3.483 3.483h133.034a3.487 3.487 0 0 0 3.483-3.483V67.483A3.487 3.487 0 0 0 482.517 64zM482.518 114a1.482 1.482 0 0 1 1.482 1.482v23.036a1.482 1.482 0 0 1-1.482 1.482H349.482a1.482 1.482 0 0 1-1.482-1.482v-23.036a1.482 1.482 0 0 1 1.482-1.482h133.036m0-2H349.482a3.486 3.486 0 0 0-3.482 3.482v23.036a3.486 3.486 0 0 0 3.482 3.482h133.036a3.486 3.486 0 0 0 3.482-3.482v-23.036a3.486 3.486 0 0 0-3.482-3.482zM482.518 147a1.482 1.482 0 0 1 1.482 1.482v23.036a1.482 1.482 0 0 1-1.482 1.482H349.482a1.482 1.482 0 0 1-1.482-1.482v-23.036a1.482 1.482 0 0 1 1.482-1.482h133.036m0-2H349.482a3.486 3.486 0 0 0-3.482 3.482v23.036a3.486 3.486 0 0 0 3.482 3.482h133.036a3.486 3.486 0 0 0 3.482-3.482v-23.036a3.486 3.486 0 0 0-3.482-3.482z" fill="#5f6b7d"/><path fill="none" stroke="#5f6b7d" stroke-linecap="round" stroke-linejoin="round" stroke-width="2" d="M452 73h25v27h-25zM446 123h30M446 131h30M446 156h30M446 164h30"/><path d="M361 124a3 3 0 1 1-3 3 3 3 0 0 1 3-3m0-2a5 5 0 1 0 5 5 5.006 5.006 0 0 0-5-5zM375 124a3 3 0 1 1-3 3 3 3 0 0 1 3-3m0-2a5 5 0 1 0 5 5 5.006 5.006 0 0 0-5-5zM482.518 215a1.482 1.482 0 0 1 1.482 1.482v23.036a1.482 1.482 0 0 1-1.482 1.482H349.482a1.482 1.482 0 0 1-1.482-1.482v-23.036a1.482 1.482 0 0 1 1.482-1.482h133.036m0-2H349.482a3.486 3.486 0 0 0-3.482 3.482v23.036a3.486 3.486 0 0 0 3.482 3.482h133.036a3.486 3.486 0 0 0 3.482-3.482v-23.036a3.486 3.486 0 0 0-3.482-3.482z" fill="#5f6b7d"/><path fill="none" stroke="#5f6b7d" stroke-linecap="round" stroke-linejoin="round" stroke-width="2" d="M446 224.5h30M446 232h30"/><path d="M361 225a3 3 0 1 1-3 3 3 3 0 0 1 3-3m0-2a5 5 0 1 0 5 5 5.006 5.006 0 0 0-5-5zM375 225a3 3 0 1 1-3 3 3 3 0 0 1 3-3m0-2a5 5 0 1 0 5 5 5.006 5.006 0 0 0-5-5zM482.518 249a1.482 1.482 0 0 1 1.482 1.482v23.036a1.482 1.482 0 0 1-1.482 1.482H349.482a1.482 1.482 0 0 1-1.482-1.482v-23.036a1.482 1.482 0 0 1 1.482-1.482h133.036m0-2H349.482a3.486 3.486 0 0 0-3.482 3.482v23.036a3.486 3.486 0 0 0 3.482 3.482h133.036a3.486 3.486 0 0 0 3.482-3.482v-23.036a3.486 3.486 0 0 0-3.482-3.482z" fill="#5f6b7d"/><path fill="none" stroke="#5f6b7d" stroke-linecap="round" stroke-linejoin="round" stroke-width="2" d="M446 258.5h30M446 266h30"/><path d="M361 259a3 3 0 1 1-3 3 3 3 0 0 1 3-3m0-2a5 5 0 1 0 5 5 5.006 5.006 0 0 0-5-5zM375 259a3 3 0 1 1-3 3 3 3 0 0 1 3-3m0-2a5 5 0 1 0 5 5 5.006 5.006 0 0 0-5-5zM482.518 181a1.482 1.482 0 0 1 1.482 1.482v23.036a1.482 1.482 0 0 1-1.482 1.482H349.482a1.482 1.482 0 0 1-1.482-1.482v-23.036a1.482 1.482 0 0 1 1.482-1.482h133.036m0-2H349.482a3.486 3.486 0 0 0-3.482 3.482v23.036a3.486 3.486 0 0 0 3.482 3.482h133.036a3.486 3.486 0 0 0 3.482-3.482v-23.036a3.486 3.486 0 0 0-3.482-3.482z" fill="#5f6b7d"/><path fill="none" stroke="#5f6b7d" stroke-linecap="round" stroke-linejoin="round" stroke-width="2" d="M446 191h30M446 198h30"/><path d="M361 191a3 3 0 1 1-3 3 3 3 0 0 1 3-3m0-2a5 5 0 1 0 5 5 5.006 5.006 0 0 0-5-5zM375 191a3 3 0 1 1-3 3 3 3 0 0 1 3-3m0-2a5 5 0 1 0 5 5 5.006 5.006 0 0 0-5-5zM361 157a3 3 0 1 1-3 3 3 3 0 0 1 3-3m0-2a5 5 0 1 0 5 5 5.006 5.006 0 0 0-5-5zM375 157a3 3 0 1 1-3 3 3 3 0 0 1 3-3m0-2a5 5 0 1 0 5 5 5.006 5.006 0 0 0-5-5z" fill="#5f6b7d"/><circle cx="464.5" cy="86.5" r="6.5" fill="none" stroke="#5f6b7d" stroke-linecap="round" stroke-linejoin="round" stroke-width="2"/><path fill="none" stroke="#5f6b7d" stroke-linecap="round" stroke-linejoin="round" stroke-width="3" d="M337.5 289.5h156"/><path fill="#2a2e35" opacity=".09" d="M337.5 9.5l11.221-7H482.56l11.94 7h-157z"/><path fill="none" stroke="#5f6b7d" stroke-linecap="round" stroke-linejoin="round" stroke-width="3" d="M337.5 9.5l11.221-7H482.56l11.94 7h-157z"/><path fill="#2a2e35" fill-opacity=".09" stroke="#5f6b7d" stroke-linecap="round" stroke-linejoin="round" stroke-width="2" d="M354 73h93v27h-93z"/><circle cx="383.934" cy="80.86" r="1.86" fill="#5f6b7d"/><circle cx="391.375" cy="80.86" r="1.86" fill="#5f6b7d"/><circle cx="398.816" cy="80.86" r="1.86" fill="#5f6b7d"/><circle cx="406.258" cy="80.86" r="1.86" fill="#5f6b7d"/><circle cx="387.654" cy="86.813" r="1.86" fill="#5f6b7d"/><circle cx="395.096" cy="86.813" r="1.86" fill="#5f6b7d"/><circle cx="402.537" cy="86.813" r="1.86" fill="#5f6b7d"/><circle cx="409.978" cy="86.813" r="1.86" fill="#5f6b7d"/><circle cx="413.699" cy="80.86" r="1.86" fill="#5f6b7d"/><circle cx="383.934" cy="92.766" r="1.86" fill="#5f6b7d"/><circle cx="391.375" cy="92.766" r="1.86" fill="#5f6b7d"/><circle cx="369.051" cy="80.86" r="1.86" fill="#5f6b7d"/><circle cx="376.493" cy="80.86" r="1.86" fill="#5f6b7d"/><circle cx="372.772" cy="86.813" r="1.86" fill="#5f6b7d"/><circle cx="380.213" cy="86.813" r="1.86" fill="#5f6b7d"/><circle cx="369.051" cy="92.766" r="1.86" fill="#5f6b7d"/><circle cx="376.493" cy="92.766" r="1.86" fill="#5f6b7d"/><circle cx="361.61" cy="80.86" r="1.86" fill="#5f6b7d"/><circle cx="369.051" cy="80.86" r="1.86" fill="#5f6b7d"/><circle cx="365.331" cy="86.813" r="1.86" fill="#5f6b7d"/><circle cx="361.61" cy="92.766" r="1.86" fill="#5f6b7d"/><circle cx="369.051" cy="92.766" r="1.86" fill="#5f6b7d"/><circle cx="398.816" cy="92.766" r="1.86" fill="#5f6b7d"/><circle cx="406.258" cy="92.766" r="1.86" fill="#5f6b7d"/><circle cx="413.699" cy="92.766" r="1.86" fill="#5f6b7d"/><circle cx="421.14" cy="80.86" r="1.86" fill="#5f6b7d"/><circle cx="428.581" cy="80.86" r="1.86" fill="#5f6b7d"/><circle cx="417.419" cy="86.813" r="1.86" fill="#5f6b7d"/><circle cx="424.861" cy="86.813" r="1.86" fill="#5f6b7d"/><circle cx="432.302" cy="86.813" r="1.86" fill="#5f6b7d"/><circle cx="436.022" cy="80.86" r="1.86" fill="#5f6b7d"/><circle cx="421.14" cy="92.766" r="1.86" fill="#5f6b7d"/><circle cx="428.581" cy="92.766" r="1.86" fill="#5f6b7d"/><circle cx="436.022" cy="92.766" r="1.86" fill="#5f6b7d"/><circle cx="439.743" cy="86.813" r="1.86" fill="#5f6b7d"/><path d="M122.106 20A1.895 1.895 0 0 1 124 21.895v30.21A1.895 1.895 0 0 1 122.106 54H36.894A1.895 1.895 0 0 1 35 52.105v-30.21A1.895 1.895 0 0 1 36.895 20h85.21m0-2h-85.21A3.899 3.899 0 0 0 33 21.895v30.21A3.899 3.899 0 0 0 36.895 56h85.21A3.899 3.899 0 0 0 126 52.105v-30.21A3.899 3.899 0 0 0 122.106 18z" fill="#5f6b7d"/><text transform="translate(52.632 43.665)" font-size="17" fill="#fff" font-family="HelveticaNeue-Medium, Helvetica Neue">Sha<tspan x="30.226" y="0" letter-spacing="-.018em">r</tspan><tspan x="35.903" y="0">ed</tspan></text><path fill="none" stroke="#5f6b7d" stroke-linecap="round" stroke-linejoin="round" stroke-width="3" d="M1.5 9.5v315h50v-7h57v7h50V9.5H1.5z"/><path d="M146.517 66A1.483 1.483 0 0 1 148 67.483v37.034a1.483 1.483 0 0 1-1.483 1.483H13.483A1.483 1.483 0 0 1 12 104.517V67.483A1.483 1.483 0 0 1 13.483 66h133.034m0-2H13.483A3.487 3.487 0 0 0 10 67.483v37.034A3.487 3.487 0 0 0 13.483 108h133.034a3.487 3.487 0 0 0 3.483-3.483V67.483A3.487 3.487 0 0 0 146.517 64zM146.518 114a1.482 1.482 0 0 1 1.482 1.482v23.036a1.482 1.482 0 0 1-1.482 1.482H13.482A1.482 1.482 0 0 1 12 138.518v-23.036A1.482 1.482 0 0 1 13.482 114h133.036m0-2H13.482A3.486 3.486 0 0 0 10 115.482v23.036A3.486 3.486 0 0 0 13.482 142h133.036a3.486 3.486 0 0 0 3.482-3.482v-23.036a3.486 3.486 0 0 0-3.482-3.482zM146.518 147a1.482 1.482 0 0 1 1.482 1.482v23.036a1.482 1.482 0 0 1-1.482 1.482H13.482A1.482 1.482 0 0 1 12 171.518v-23.036A1.482 1.482 0 0 1 13.482 147h133.036m0-2H13.482A3.486 3.486 0 0 0 10 148.482v23.036A3.486 3.486 0 0 0 13.482 175h133.036a3.486 3.486 0 0 0 3.482-3.482v-23.036a3.486 3.486 0 0 0-3.482-3.482z" fill="#5f6b7d"/><path fill="none" stroke="#5f6b7d" stroke-linecap="round" stroke-linejoin="round" stroke-width="2" d="M116 73h25v27h-25zM110 123h30M110 131h30M110 156h30M110 164h30"/><path d="M25 124a3 3 0 1 1-3 3 3 3 0 0 1 3-3m0-2a5 5 0 1 0 5 5 5.006 5.006 0 0 0-5-5zM39 124a3 3 0 1 1-3 3 3 3 0 0 1 3-3m0-2a5 5 0 1 0 5 5 5.006 5.006 0 0 0-5-5zM146.518 215a1.482 1.482 0 0 1 1.482 1.482v23.036a1.482 1.482 0 0 1-1.482 1.482H13.482A1.482 1.482 0 0 1 12 239.518v-23.036A1.482 1.482 0 0 1 13.482 215h133.036m0-2H13.482A3.486 3.486 0 0 0 10 216.482v23.036A3.486 3.486 0 0 0 13.482 243h133.036a3.486 3.486 0 0 0 3.482-3.482v-23.036a3.486 3.486 0 0 0-3.482-3.482z" fill="#5f6b7d"/><path fill="none" stroke="#5f6b7d" stroke-linecap="round" stroke-linejoin="round" stroke-width="2" d="M110 224.5h30M110 232h30"/><path d="M25 225a3 3 0 1 1-3 3 3 3 0 0 1 3-3m0-2a5 5 0 1 0 5 5 5.006 5.006 0 0 0-5-5zM39 225a3 3 0 1 1-3 3 3 3 0 0 1 3-3m0-2a5 5 0 1 0 5 5 5.006 5.006 0 0 0-5-5zM146.518 249a1.482 1.482 0 0 1 1.482 1.482v23.036a1.482 1.482 0 0 1-1.482 1.482H13.482A1.482 1.482 0 0 1 12 273.518v-23.036A1.482 1.482 0 0 1 13.482 249h133.036m0-2H13.482A3.486 3.486 0 0 0 10 250.482v23.036A3.486 3.486 0 0 0 13.482 277h133.036a3.486 3.486 0 0 0 3.482-3.482v-23.036a3.486 3.486 0 0 0-3.482-3.482z" fill="#5f6b7d"/><path fill="none" stroke="#5f6b7d" stroke-linecap="round" stroke-linejoin="round" stroke-width="2" d="M110 258.5h30M110 266h30"/><path d="M25 259a3 3 0 1 1-3 3 3 3 0 0 1 3-3m0-2a5 5 0 1 0 5 5 5.006 5.006 0 0 0-5-5zM39 259a3 3 0 1 1-3 3 3 3 0 0 1 3-3m0-2a5 5 0 1 0 5 5 5.006 5.006 0 0 0-5-5zM146.518 181a1.482 1.482 0 0 1 1.482 1.482v23.036a1.482 1.482 0 0 1-1.482 1.482H13.482A1.482 1.482 0 0 1 12 205.518v-23.036A1.482 1.482 0 0 1 13.482 181h133.036m0-2H13.482A3.486 3.486 0 0 0 10 182.482v23.036A3.486 3.486 0 0 0 13.482 209h133.036a3.486 3.486 0 0 0 3.482-3.482v-23.036a3.486 3.486 0 0 0-3.482-3.482z" fill="#5f6b7d"/><path fill="none" stroke="#5f6b7d" stroke-linecap="round" stroke-linejoin="round" stroke-width="2" d="M110 191h30M110 198h30"/><path d="M25 191a3 3 0 1 1-3 3 3 3 0 0 1 3-3m0-2a5 5 0 1 0 5 5 5.006 5.006 0 0 0-5-5zM39 191a3 3 0 1 1-3 3 3 3 0 0 1 3-3m0-2a5 5 0 1 0 5 5 5.006 5.006 0 0 0-5-5zM25 157a3 3 0 1 1-3 3 3 3 0 0 1 3-3m0-2a5 5 0 1 0 5 5 5.006 5.006 0 0 0-5-5zM39 157a3 3 0 1 1-3 3 3 3 0 0 1 3-3m0-2a5 5 0 1 0 5 5 5.006 5.006 0 0 0-5-5z" fill="#5f6b7d"/><circle cx="128.5" cy="86.5" r="6.5" fill="none" stroke="#5f6b7d" stroke-linecap="round" stroke-linejoin="round" stroke-width="2"/><path fill="none" stroke="#5f6b7d" stroke-linecap="round" stroke-linejoin="round" stroke-width="3" d="M1.5 289.5h156"/><path fill="#2a2e35" opacity=".09" d="M1.5 9.5l11.221-7H146.56l11.94 7H1.5z"/><path fill="none" stroke="#5f6b7d" stroke-linecap="round" stroke-linejoin="round" stroke-width="3" d="M1.5 9.5l11.221-7H146.56l11.94 7H1.5z"/><path fill="#2a2e35" fill-opacity=".09" stroke="#5f6b7d" stroke-linecap="round" stroke-linejoin="round" stroke-width="2" d="M18 73h93v27H18z"/><circle cx="47.934" cy="80.86" r="1.86" fill="#5f6b7d"/><circle cx="55.375" cy="80.86" r="1.86" fill="#5f6b7d"/><circle cx="62.816" cy="80.86" r="1.86" fill="#5f6b7d"/><circle cx="70.258" cy="80.86" r="1.86" fill="#5f6b7d"/><circle cx="51.654" cy="86.813" r="1.86" fill="#5f6b7d"/><circle cx="59.096" cy="86.813" r="1.86" fill="#5f6b7d"/><circle cx="66.537" cy="86.813" r="1.86" fill="#5f6b7d"/><circle cx="73.978" cy="86.813" r="1.86" fill="#5f6b7d"/><circle cx="77.699" cy="80.86" r="1.86" fill="#5f6b7d"/><circle cx="47.934" cy="92.766" r="1.86" fill="#5f6b7d"/><circle cx="55.375" cy="92.766" r="1.86" fill="#5f6b7d"/><circle cx="33.051" cy="80.86" r="1.86" fill="#5f6b7d"/><circle cx="40.493" cy="80.86" r="1.86" fill="#5f6b7d"/><circle cx="36.772" cy="86.813" r="1.86" fill="#5f6b7d"/><circle cx="44.213" cy="86.813" r="1.86" fill="#5f6b7d"/><circle cx="33.051" cy="92.766" r="1.86" fill="#5f6b7d"/><circle cx="40.493" cy="92.766" r="1.86" fill="#5f6b7d"/><circle cx="25.61" cy="80.86" r="1.86" fill="#5f6b7d"/><circle cx="33.051" cy="80.86" r="1.86" fill="#5f6b7d"/><circle cx="29.331" cy="86.813" r="1.86" fill="#5f6b7d"/><circle cx="25.61" cy="92.766" r="1.86" fill="#5f6b7d"/><circle cx="33.051" cy="92.766" r="1.86" fill="#5f6b7d"/><circle cx="62.816" cy="92.766" r="1.86" fill="#5f6b7d"/><circle cx="70.258" cy="92.766" r="1.86" fill="#5f6b7d"/><circle cx="77.699" cy="92.766" r="1.86" fill="#5f6b7d"/><circle cx="85.14" cy="80.86" r="1.86" fill="#5f6b7d"/><circle cx="92.581" cy="80.86" r="1.86" fill="#5f6b7d"/><circle cx="81.419" cy="86.813" r="1.86" fill="#5f6b7d"/><circle cx="88.861" cy="86.813" r="1.86" fill="#5f6b7d"/><circle cx="96.302" cy="86.813" r="1.86" fill="#5f6b7d"/><circle cx="100.022" cy="80.86" r="1.86" fill="#5f6b7d"/><circle cx="85.14" cy="92.766" r="1.86" fill="#5f6b7d"/><circle cx="92.581" cy="92.766" r="1.86" fill="#5f6b7d"/><circle cx="100.022" cy="92.766" r="1.86" fill="#5f6b7d"/><circle cx="103.743" cy="86.813" r="1.86" fill="#5f6b7d"/><ellipse cx="508" cy="325.813" rx="2.5" ry=".813" fill="#5f6b7d"/></g></svg>