<svg xmlns="http://www.w3.org/2000/svg" viewBox="0 0 82.19 80"><defs><style>.cls-1{fill:#42b05c;}.cls-2,.cls-8{fill:none;}.cls-2,.cls-3,.cls-7,.cls-8,.cls-9{stroke:#333;}.cls-2,.cls-3,.cls-7,.cls-8{stroke-linecap:round;stroke-linejoin:round;}.cls-2,.cls-3,.cls-9{stroke-width:2px;}.cls-3{fill:#fff;}.cls-4{opacity:0.2;}.cls-5,.cls-6{fill:#333;}.cls-6{opacity:0.1;}.cls-7,.cls-9{fill:#ffde00;}.cls-7{stroke-width:2.12px;}.cls-8{stroke-width:1.6px;stroke-dasharray:3 4;}.cls-9{stroke-miterlimit:10;}</style></defs><title>Asset 19</title><g id="Layer_2" data-name="Layer 2"><g id="Layer_2-2" data-name="Layer 2"><path class="cls-1" d="M12,52.15l.3-.15.3-.15Z"/><path class="cls-2" d="M16.55,10"/><path class="cls-3" d="M76.67,40.89A36.16,36.16,0,0,1,66.07,66.47,37.06,37.06,0,0,1,39.72,77.39C19.34,77.39,2.77,61,2.77,40.89S19.34,4.39,39.72,4.39s36.95,16.36,36.95,36.5"/><g class="cls-4"><path class="cls-5" d="M12,17.93A36.25,36.25,0,0,1,40.16,5.22s-2.5,1.66,2.29,4.25S45,13.27,44,14.06s-2.73-1.6-3.86-3.2-6-4.06-9.72-2.73-6.92,2.32-6.39,3.55,6.92-1.16,9.32-1,1.6,1.6-.67,3.33-2.53,3.86-.13,5.19,5.33,1.47,6,.67-1.2-6,3.33-3.73,8.26,3.6,4.53,6.92-8,7.06-8.12,9.19,1.33,3.86.53,4-1.53-.87-2.06-1.6-3-1-4.19-.53-3.46,2.26-2.2,4,3,.93,4.73,1.73,3.35,3.84,3,4.53-1.81-.18-3-2.53-3.47-.8-5.06-1.2-2.79-.67-4.39-3.46S20.77,33.59,19.42,32c-3.87-4.62-3.6-8.12-4.39-9.72A34.24,34.24,0,0,0,12,17.93Z"/><path class="cls-5" d="M43.78,41.91s4,.4,6,2.13S52,46.43,55.1,47.1s4.39,2.4,2.4,5.73-5.59,8.66-7.32,10.25S46.31,66,45.51,68.67s-1.07,4.26.67,5.33c0,0-.93,2.26-3.06-.67s-.4-6.39,0-8.39,1.46-8,.8-9.45-3.73-2.4-4.53-5.46S40,41,43.78,41.91Z"/></g><path class="cls-6" d="M66.07,61.45A37.05,37.05,0,0,1,2.87,38.38c-.06.83-.1,1.67-.1,2.51,0,20.14,16.56,36.5,36.95,36.5A37.06,37.06,0,0,0,66.07,66.47,36.16,36.16,0,0,0,76.67,40.89c0-.84,0-1.68-.1-2.51A36.18,36.18,0,0,1,66.07,61.45Z"/><path class="cls-2" d="M39.26,41.57"/><path class="cls-3" d="M64,36.51"/><path class="cls-7" d="M64.17,36.51"/><path class="cls-8" d="M62.08,66.73C58,32.88,29.84,5.48,29.84,5.48L7.27,28s21,21,27.4,42.72"/><path class="cls-8" d="M12.11,61.09S31.45,24.82,67.72,13.53"/><line class="cls-8" x1="58.7" y1="43.07" x2="65.88" y2="13.31"/><line class="cls-8" x1="29.97" y1="5.1" x2="65.88" y2="13.31"/><line class="cls-8" x1="10.47" y1="62.57" x2="7.39" y2="29.73"/><path class="cls-8" d="M35.14,74s11.25-35.3,39.65-35"/><circle class="cls-9" cx="29.46" cy="5.38" r="4.38"/><circle class="cls-9" cx="5.38" cy="28.12" r="4.38"/><circle class="cls-9" cx="65.81" cy="13.26" r="4.38"/><circle class="cls-9" cx="22.84" cy="45.08" r="4.38"/><circle class="cls-9" cx="43.66" cy="25.43" r="4.38"/><circle class="cls-9" cx="35.91" cy="74.62" r="4.38"/><circle class="cls-9" cx="10.46" cy="65.13" r="4.38"/><circle class="cls-9" cx="56.3" cy="44.18" r="4.38"/><circle class="cls-9" cx="62.61" cy="69.5" r="4.38"/><circle class="cls-9" cx="76.81" cy="37.98" r="4.38"/></g></g></svg>