<svg width="172" height="36" fill="none" xmlns="http://www.w3.org/2000/svg"><path d="M118.399 33.923h.867v-.669c.347.465.896.785 1.522.785 1.204 0 2.071-.92 2.071-2.452 0-1.502-.857-2.462-2.071-2.462-.607 0-1.156.291-1.522.795v-2.462h-.867v6.465zm.867-1.337v-1.987c.231-.378.761-.698 1.291-.698.867 0 1.406.707 1.406 1.686 0 .98-.539 1.677-1.406 1.677-.53 0-1.06-.3-1.291-.678zM123.871 34.97l-.134.785c.134.039.395.068.539.068.674-.01 1.185-.272 1.483-1.008l2.293-5.573h-.935l-1.454 3.673-1.454-3.673h-.925l1.917 4.73-.27.62c-.144.349-.356.455-.674.455-.116 0-.28-.029-.386-.077zM131.467 33.1v-4.937h-.823v-.823h2.338c.686 0 1.2.049 1.542.147.342.098.627.32.856.667.232.344.348.751.348 1.221 0 .375-.077.713-.23 1.013-.151.296-.339.516-.565.658a2.066 2.066 0 0 1-.757.288c-.279.048-.702.071-1.27.071h-.451V33.1h.846v.823h-2.657V33.1h.823zm.988-2.49h.564c.643 0 1.088-.091 1.336-.274.248-.186.371-.513.371-.98 0-.296-.065-.543-.197-.738a.866.866 0 0 0-.489-.374c-.195-.054-.519-.08-.974-.08h-.611v2.446zM136.048 31.633c0-.707.232-1.286.696-1.737.464-.455 1.03-.682 1.698-.682.655 0 1.218.224 1.688.672.471.445.706 1.027.706 1.747 0 .719-.235 1.302-.706 1.75a2.35 2.35 0 0 1-1.688.673c-.677 0-1.246-.228-1.707-.682-.458-.454-.687-1.035-.687-1.742zm.945 0c0 .45.14.821.419 1.112.282.287.625.43 1.03.43.411 0 .754-.145 1.03-.435.279-.294.418-.663.418-1.108 0-.448-.141-.817-.423-1.107a1.377 1.377 0 0 0-1.025-.435c-.42 0-.767.148-1.04.445-.272.296-.409.662-.409 1.098zM141.598 33.923v-1.571h.799v.151a.748.748 0 0 0 .344.53c.203.14.443.209.719.209.289 0 .519-.05.691-.152.173-.1.259-.241.259-.421a.41.41 0 0 0-.216-.383c-.141-.082-.423-.158-.847-.228-.627-.107-1.075-.279-1.345-.515-.266-.24-.4-.55-.4-.928 0-.382.146-.7.438-.956.291-.259.675-.388 1.152-.388.43 0 .8.088 1.11.265v-.194h.795v1.52h-.795v-.28c-.241-.376-.593-.563-1.054-.563-.235 0-.429.052-.583.156a.468.468 0 0 0-.225.407c0 .173.069.293.206.36.142.063.443.13.903.203.443.07.776.152 1.002.246.226.092.413.246.56.464.15.214.226.465.226.752 0 .426-.163.766-.489 1.018-.323.25-.744.374-1.261.374-.486 0-.883-.11-1.19-.332v.256h-.799zM145.906 30.142v-.8h.592v-.705l.894-.824v1.529h.842v.8h-.842v2.224c0 .357.019.577.056.663.041.082.14.123.297.123.166 0 .329-.032.489-.095v.819a2.024 2.024 0 0 1-.687.123c-.273 0-.494-.06-.663-.18a.788.788 0 0 1-.32-.46c-.044-.182-.066-.498-.066-.946v-2.271h-.592zM149.588 33.123v-2.981h-.757v-.8h1.651v.577c.539-.432 1.067-.648 1.585-.648.52 0 .879.238 1.077.715.592-.477 1.144-.715 1.655-.715.295 0 .536.066.725.199.191.13.319.295.385.497.066.198.099.493.099.885v2.271h.795v.8h-1.689v-2.91a2.83 2.83 0 0 0-.037-.559.426.426 0 0 0-.179-.27.544.544 0 0 0-.343-.108c-.383 0-.817.197-1.303.591v2.456h.781v.8h-1.675v-2.996c0-.3-.043-.515-.131-.648-.085-.136-.231-.203-.438-.203-.338 0-.774.197-1.307.591v2.456h.799v.8h-2.506v-.8h.813zM161.845 33.123v.8h-1.562v-.558c-.433.422-.915.634-1.448.634-.414 0-.775-.136-1.082-.407a1.333 1.333 0 0 1-.456-1.041c0-.426.161-.78.484-1.06.326-.281.718-.422 1.176-.422.426 0 .839.13 1.237.388v-.454c0-.233-.022-.413-.066-.54-.044-.126-.147-.24-.31-.34-.16-.101-.37-.152-.631-.152-.448 0-.773.18-.973.54l-.856-.227c.379-.713 1.035-1.07 1.966-1.07.342 0 .636.048.884.142.251.092.437.211.56.36.122.145.203.303.244.473.044.17.066.442.066.814v2.12h.767zm-1.651-.904c-.386-.303-.776-.454-1.171-.454a.91.91 0 0 0-.621.218.713.713 0 0 0-.249.563c0 .214.072.394.216.54.147.145.346.217.597.217.433 0 .842-.183 1.228-.549v-.535zM163.1 33.123v-2.981h-.917v-.8h1.632v1.032c.101-.268.24-.491.419-.668.179-.176.367-.293.564-.35.201-.057.474-.085.819-.085h.235v.909h-.179c-.455 0-.795.045-1.021.137a.929.929 0 0 0-.498.502c-.107.24-.16.672-.16 1.296v1.008h.992v.8h-2.803v-.8h.917zM166.844 33.123V28.14h-.818v-.8h1.712v4.113l1.702-1.368h-.757v-.743h2.516v.743h-.696l-1.707 1.43 1.604 1.608h.799v.8h-1.171l-2.29-2.305v1.505h.785v.8h-2.497v-.8h.818z" fill="#fff" fill-opacity=".5"/><path d="M44.527 4.475c-.616 0-1.145.532-1.145 1.174v4.52c-.858-1.13-2.091-1.75-3.412-1.75-2.752 0-4.733 2.17-4.733 5.627 0 3.522 2.003 5.604 4.733 5.604 1.365 0 2.598-.664 3.413-1.705v.398c0 .643.528 1.174 1.144 1.174.639 0 1.167-.531 1.167-1.174V5.65c0-.642-.528-1.174-1.167-1.174zM40.63 17.59c-1.827 0-2.994-1.484-2.994-3.544 0-2.083 1.167-3.567 2.994-3.567 1.101 0 2.224.642 2.752 1.44v4.253c-.528.798-1.65 1.418-2.752 1.418zM60.974 8.418c-1.585 0-2.994.997-3.61 1.972-.352-1.174-1.321-1.972-2.906-1.972-1.607 0-3.016 1.086-3.457 1.728v-.42c0-.643-.528-1.175-1.167-1.175-.616 0-1.144.532-1.144 1.175v8.617c0 .643.528 1.174 1.166 1.174.617 0 1.145-.531 1.145-1.174V11.92c.485-.71 1.431-1.44 2.444-1.44 1.255 0 1.761.775 1.761 1.927v5.937c0 .643.529 1.174 1.145 1.174.639 0 1.167-.531 1.167-1.174v-6.446c.462-.687 1.431-1.418 2.466-1.418 1.233 0 1.74.775 1.74 1.927v5.937c0 .643.527 1.174 1.144 1.174.638 0 1.167-.531 1.167-1.174v-6.69c0-2.171-1.101-3.235-3.06-3.235zM75.681 8.551c-.638 0-1.166.532-1.166 1.175v.443c-.837-1.13-2.092-1.75-3.413-1.75-2.752 0-4.733 2.17-4.733 5.627 0 3.522 2.003 5.604 4.733 5.604 1.365 0 2.598-.664 3.412-1.705v.398c0 .643.529 1.174 1.167 1.174.617 0 1.145-.531 1.145-1.174V9.726c0-.643-.528-1.175-1.145-1.175zm-3.918 9.04c-1.828 0-2.995-1.485-2.995-3.546 0-2.082 1.167-3.544 2.995-3.544 1.1 0 2.223.642 2.751 1.44v4.231c-.528.798-1.65 1.418-2.751 1.418zM84.797 8.507c-.198 0-.352.044-.616.133-.683.222-1.475.864-2.048 1.617v-.531c0-.643-.528-1.175-1.167-1.175-.616 0-1.144.532-1.144 1.175v8.617c0 .643.528 1.174 1.166 1.174.617 0 1.145-.531 1.145-1.174v-6.247c.463-.753 1.63-1.285 2.422-1.396.793-.11 1.189-.576 1.189-1.107 0-.576-.286-1.086-.947-1.086zM86.794 14.023c0 3.257 2.267 5.627 5.504 5.627 1.497 0 2.576-.465 3.368-1.152.22-.177.374-.487.374-.797 0-.576-.462-1.041-1.056-1.041-.243 0-.485.088-.66.243-.551.466-1.168.687-1.916.687-1.938 0-3.215-1.484-3.215-3.567 0-2.082 1.277-3.544 3.215-3.544.748 0 1.365.221 1.915.687.176.155.418.243.683.243.572 0 1.034-.465 1.034-1.041 0-.31-.154-.62-.374-.798-.792-.686-1.871-1.152-3.368-1.152-3.237 0-5.504 2.37-5.504 5.605zM111.582 4.475c-.617 0-1.145.532-1.145 1.174v4.52c-.859-1.13-2.092-1.75-3.413-1.75-2.752 0-4.733 2.17-4.733 5.627 0 3.522 2.003 5.604 4.733 5.604 1.365 0 2.598-.664 3.413-1.705v.398c0 .643.528 1.174 1.145 1.174.638 0 1.166-.531 1.166-1.174V5.65c0-.642-.528-1.174-1.166-1.174zm-3.897 13.115c-1.828 0-2.994-1.484-2.994-3.544 0-2.083 1.166-3.567 2.994-3.567 1.101 0 2.223.642 2.752 1.44v4.253c-.529.798-1.651 1.418-2.752 1.418zM116.889 6.602c.792 0 1.431-.643 1.431-1.44 0-.798-.639-1.44-1.431-1.44-.771 0-1.431.642-1.431 1.44 0 .797.66 1.44 1.431 1.44zm0 12.915c.638 0 1.166-.531 1.166-1.174V9.726c0-.643-.528-1.175-1.144-1.175-.639 0-1.167.532-1.167 1.175v8.617c0 .643.528 1.174 1.145 1.174zM129.685 8.551c-.639 0-1.167.532-1.167 1.175v.443c-.859-1.13-2.07-1.75-3.413-1.75-2.73 0-4.711 2.038-4.711 5.494 0 3.522 2.003 5.494 4.711 5.494 1.387 0 2.598-.71 3.413-1.773v1.285c0 2.194-1.629 2.902-3.149 2.902-1.056 0-1.937-.221-2.73-.775a.959.959 0 0 0-.55-.177.98.98 0 0 0-.969.975c0 .332.176.62.419.797 1.166.82 2.333 1.086 3.83 1.086 2.62 0 5.46-1.041 5.46-4.896V9.726c0-.643-.528-1.175-1.144-1.175zm-3.897 8.795c-1.828 0-2.994-1.373-2.994-3.433 0-2.06 1.166-3.434 2.994-3.434 1.079 0 2.223.642 2.73 1.44v3.987c-.507.798-1.651 1.44-2.73 1.44zM133.165 14.023c0 3.39 2.378 5.627 5.57 5.627 1.343 0 2.62-.332 3.677-1.04.242-.178.418-.444.418-.776 0-.51-.418-.93-.925-.93a.907.907 0 0 0-.506.132c-.749.465-1.651.71-2.422.71-2.003 0-3.214-1.33-3.39-2.947h6.847c.88 0 1.365-.399 1.365-1.086 0-2.835-2.048-5.295-5.24-5.295-3.149 0-5.394 2.504-5.394 5.605zm5.394-3.7c2.091 0 2.95 1.574 2.994 2.836h-5.988c.11-1.307 1.012-2.835 2.994-2.835zM145.794 18.52c1.101.754 2.466 1.13 3.919 1.13 2.862 0 4.425-1.44 4.425-3.323 0-2.525-2.268-3.057-4.117-3.456-1.255-.288-2.312-.576-2.312-1.395 0-.754.771-1.197 1.982-1.197.947 0 1.827.288 2.51.731.132.09.33.155.506.155.506 0 .925-.42.925-.93 0-.332-.176-.598-.419-.775-.946-.643-2.113-1.042-3.544-1.042-2.686 0-4.183 1.507-4.183 3.257 0 2.393 2.179 2.88 4.007 3.279 1.299.288 2.422.62 2.422 1.55 0 .798-.705 1.308-2.092 1.308-1.035 0-2.092-.4-2.928-.953a1.137 1.137 0 0 0-.551-.155.99.99 0 0 0-.99.997 1 1 0 0 0 .44.82zM160.824 17.524c-.176 0-.308.066-.572.066-.661 0-1.013-.532-1.013-1.263v-5.605h1.277c.55 0 1.012-.465 1.012-1.019 0-.553-.462-1.019-1.012-1.019h-1.277V6.801c0-.642-.529-1.174-1.145-1.174-.639 0-1.167.532-1.167 1.174v1.883h-.881c-.55 0-1.012.466-1.012 1.02 0 .553.462 1.018 1.012 1.018h.881v6.181c0 1.773.947 2.747 2.73 2.747.639 0 1.145-.11 1.519-.265.374-.133.617-.444.617-.887 0-.553-.375-.974-.969-.974zM163.209 18.52c1.101.754 2.466 1.13 3.919 1.13 2.862 0 4.425-1.44 4.425-3.323 0-2.525-2.268-3.057-4.117-3.456-1.255-.288-2.312-.576-2.312-1.395 0-.754.771-1.197 1.982-1.197.947 0 1.827.288 2.51.731.132.09.33.155.506.155.506 0 .925-.42.925-.93 0-.332-.176-.598-.419-.775-.946-.643-2.113-1.042-3.544-1.042-2.686 0-4.183 1.507-4.183 3.257 0 2.393 2.179 2.88 4.007 3.279 1.299.288 2.422.62 2.422 1.55 0 .798-.705 1.308-2.092 1.308-1.035 0-2.092-.4-2.928-.953a1.137 1.137 0 0 0-.551-.155.99.99 0 0 0-.99.997 1 1 0 0 0 .44.82z" fill="#fff"/><path fill-rule="evenodd" clip-rule="evenodd" d="M.385 4.434a.828.828 0 0 1 1.171.107L13.148 18.54 24.741 4.541a.828.828 0 0 1 1.17-.107.84.84 0 0 1 .107 1.178l-12.231 14.77a.83.83 0 0 1-1.277 0L.279 5.612a.84.84 0 0 1 .106-1.178zm3.982.643c0-.462.372-.837.831-.837h15.9c.46 0 .832.375.832.837a.834.834 0 0 1-.831.836h-15.9a.834.834 0 0 1-.832-.836zm2.446 3.077c0-.462.372-.837.831-.837h11.008c.46 0 .832.375.832.837a.834.834 0 0 1-.832.836H7.644a.834.834 0 0 1-.83-.836zm17.921 1.319a.828.828 0 0 1 1.17-.122.84.84 0 0 1 .12 1.176l-7.95 9.847a.828.828 0 0 1-1.169.121.84.84 0 0 1-.121-1.176l7.95-9.846zm-24.35.194a.828.828 0 0 1 1.17.103l7.95 9.538a.84.84 0 0 1-.102 1.179.828.828 0 0 1-1.171-.103L.28 10.845a.84.84 0 0 1 .102-1.178zm8.875 1.564c0-.462.373-.837.832-.837h6.115c.46 0 .832.375.832.837a.834.834 0 0 1-.832.836h-6.115a.834.834 0 0 1-.832-.836zm2.447 3.077c0-.462.372-.837.83-.837h1.224c.459 0 .831.375.831.837a.834.834 0 0 1-.831.836h-1.223a.834.834 0 0 1-.832-.836zm13.028.088a.828.828 0 0 1 1.17-.122.84.84 0 0 1 .12 1.177l-3.975 4.923a.828.828 0 0 1-1.169.121.84.84 0 0 1-.12-1.176l3.974-4.923zm-24.361.202a.828.828 0 0 1 1.173.085l3.975 4.615a.84.84 0 0 1-.084 1.18.828.828 0 0 1-1.173-.084L.29 15.779a.84.84 0 0 1 .084-1.18zm-.287 5.248c0-.462.372-.837.831-.837.46 0 .832.375.832.837a.834.834 0 0 1-.832.837.834.834 0 0 1-.831-.837zm24.462 0c0-.462.372-.837.831-.837.46 0 .832.375.832.837a.834.834 0 0 1-.832.837.834.834 0 0 1-.83-.837z" fill="#fff"/></svg>