<svg xmlns="http://www.w3.org/2000/svg" xmlns:xlink="http://www.w3.org/1999/xlink" viewBox="0 0 193.0099 161.2207"><defs><clipPath id="clip-path"><polygon points="83.771 61.149 93.461 8.171 115.749 14.777 131.938 35.056 83.771 61.149" style="fill:none"/></clipPath></defs><title>food</title><g id="Layer_2" data-name="Layer 2"><g id="Layer_1-2" data-name="Layer 1"><rect x="143.5458" y="85.6513" width="47.4641" height="68.0319" rx="5" ry="5" style="fill:#e6e6e6;stroke:#252525;stroke-linecap:round;stroke-linejoin:round;stroke-width:4px"/><path d="M147.5011,153.6833h39.5534a0,0,0,0,1,0,0v0a5.5375,5.5375,0,0,1-5.5375,5.5375H153.0386a5.5375,5.5375,0,0,1-5.5375-5.5375v0A0,0,0,0,1,147.5011,153.6833Z" style="fill:#e6e6e6;stroke:#252525;stroke-linecap:round;stroke-linejoin:round;stroke-width:4px"/><rect x="145.8634" y="79.3228" width="42.8289" height="6.3286" rx="3.1643" ry="3.1643" style="fill:#e6e6e6;stroke:#252525;stroke-linecap:round;stroke-linejoin:round;stroke-width:4px"/><polyline points="188.093 58.221 174.941 61.978 174.941 77.741" style="fill:none;stroke:#252525;stroke-linecap:round;stroke-linejoin:round;stroke-width:4px"/><circle cx="167.8762" cy="115.5142" r="10.8772" style="fill:#fff;stroke:#252525;stroke-linecap:round;stroke-linejoin:round;stroke-width:3.5px"/><path d="M68.4943,82.21l4.5029-48.3544c-3.267-.65-6.0015,1.2859-9.4594,1.2859a51.5227,51.5227,0,1,0,51.5227,51.5227c0-8.6708,4.3788-18.3451.5953-25.5151Z" style="fill:#fedc31;stroke:#252525;stroke-linecap:round;stroke-linejoin:round;stroke-width:4px"/><g style="opacity:0.1"><path d="M63.6847,138.3752a51.5,51.5,0,0,1,0-103,52.0841,52.0841,0,0,1,6.3408.3869,2.641,2.641,0,1,1-.6448,5.2425,46.8764,46.8764,0,0,0-5.696-.3473,46.1808,46.1808,0,1,0,42.314,27.5975,2.641,2.641,0,0,1,4.8333-2.13,51.5242,51.5242,0,0,1-47.1473,72.2508Z" style="fill:#252525"/></g><polygon points="82.403 62.493 92.093 9.516 114.38 16.122 130.57 36.4 82.403 62.493" style="fill:#fedc31;stroke:#252525;stroke-linecap:round;stroke-linejoin:round;stroke-width:4px"/><g style="clip-path:url(#clip-path)"><circle cx="99.0257" cy="38.8125" r="5.1013" style="fill:#fff;stroke:#252525;stroke-linecap:round;stroke-linejoin:round;stroke-width:4px"/><line x1="105.1396" y1="27.5671" x2="110.5697" y2="27.2618" style="fill:#fedc31;stroke:#252525;stroke-linecap:round;stroke-linejoin:round;stroke-width:4px"/></g><polygon points="81.035 63.838 93.461 8.171 115.749 14.777 131.938 35.056 81.035 63.838" style="fill:none;stroke:#252525;stroke-linecap:round;stroke-linejoin:round;stroke-width:4px"/><path d="M89.4568,6.5065A5.1232,5.1232,0,0,1,95.5779,2.11a59.3615,59.3615,0,0,1,22.0282,9.8962A69.19,69.19,0,0,1,135.053,29.4025a5.3022,5.3022,0,0,1-1.8893,7.614h0a5.322,5.322,0,0,1-7.0608-1.9071,48.8366,48.8366,0,0,0-13.7621-14.2829A57.7575,57.7575,0,0,0,93.3593,12.2a5.1464,5.1464,0,0,1-3.9106-5.6281Z" style="fill:#fedc31;stroke:#252525;stroke-linecap:round;stroke-linejoin:round;stroke-width:4px"/><circle cx="73.7697" cy="121.9944" r="5.1013" style="fill:#fff;stroke:#252525;stroke-linecap:round;stroke-linejoin:round;stroke-width:4px"/><circle cx="30.2058" cy="99.3066" r="5.1013" style="fill:#fff;stroke:#252525;stroke-linecap:round;stroke-linejoin:round;stroke-width:4px"/><circle cx="94.1707" cy="90.0292" r="5.1013" style="fill:#fff;stroke:#252525;stroke-linecap:round;stroke-linejoin:round;stroke-width:4px"/><circle cx="50.781" cy="57.452" r="5.1013" style="fill:#fff;stroke:#252525;stroke-linecap:round;stroke-linejoin:round;stroke-width:4px"/><line x1="67.9443" y1="104.5605" x2="73.3744" y2="104.2552" style="fill:#fedc31;stroke:#252525;stroke-linecap:round;stroke-linejoin:round;stroke-width:4px"/><line x1="92.1722" y1="106.0955" x2="96.1692" y2="110.5987" style="fill:#fedc31;stroke:#252525;stroke-linecap:round;stroke-linejoin:round;stroke-width:4px"/><line x1="45.7544" y1="120.194" x2="46.6254" y2="114.2361" style="fill:#fedc31;stroke:#252525;stroke-linecap:round;stroke-linejoin:round;stroke-width:4px"/><line x1="36.1261" y1="71.2131" x2="30.5936" y2="68.8369" style="fill:#fedc31;stroke:#252525;stroke-linecap:round;stroke-linejoin:round;stroke-width:4px"/><line x1="49.6956" y1="76.4821" x2="44.7858" y2="79.4402" style="fill:#fedc31;stroke:#252525;stroke-linecap:round;stroke-linejoin:round;stroke-width:4px"/><circle cx="57.0501" cy="93.3961" r="5.1001" style="fill:#fff;stroke:#252525;stroke-linecap:round;stroke-linejoin:round;stroke-width:4px"/><path d="M63.6846,148.56a61.6846,61.6846,0,1,1,0-123.3691,62.5161,62.5161,0,0,1,7.5927.4629,5.0614,5.0614,0,0,1-.6088,10.0849,5.1406,5.1406,0,0,1-.6329-.04,52.2723,52.2723,0,0,0-6.351-.3867,51.52,51.52,0,1,0,47.209,30.79,5.0607,5.0607,0,1,1,9.2617-4.082,61.7137,61.7137,0,0,1-56.4707,86.54Z" style="fill:#fedc31"/><path d="M63.6847,27.1905a60.3737,60.3737,0,0,1,7.3485.4484,3.0607,3.0607,0,1,1-.7473,6.0756,54.3292,54.3292,0,0,0-6.6012-.4025,53.52,53.52,0,1,0,49.0388,31.9835,3.0607,3.0607,0,1,1,5.6015-2.4689,59.6938,59.6938,0,1,1-54.64-35.6361m0-4a63.6419,63.6419,0,1,0,58.3,38.0224,7.0607,7.0607,0,0,0-12.9217,5.6958A49.5723,49.5723,0,1,1,63.6847,37.312a50.3091,50.3091,0,0,1,6.1134.3727,7.0608,7.0608,0,1,0,1.723-14.016,64.4008,64.4008,0,0,0-7.8364-.4782Z" style="fill:#252525"/></g></g></svg>