<svg width="155" height="72" xmlns="http://www.w3.org/2000/svg"><g transform="translate(1 1)" fill-rule="nonzero" fill="none"><ellipse fill="#333" opacity=".09" cx="125.5" cy="69" rx="9.5" ry="1"/><ellipse fill="#333" opacity=".09" cx="76" cy="61.5" rx="42" ry="1.5"/><path stroke="#333" stroke-width="2" fill="#FFF" stroke-linecap="round" stroke-linejoin="round" d="M0 10h112v51H0z"/><path d="M108.68 0H3.897C.76 0 0 1.657 0 3.7V11h112V3.7c-.008-2.041-.188-3.695-3.32-3.7z" stroke="#333" stroke-width="2" fill="#E6E6E6" stroke-linecap="round" stroke-linejoin="round"/><circle fill="#333" cx="5.5" cy="5.5" r="1.5"/><circle fill="#333" cx="9.5" cy="5.5" r="1.5"/><circle fill="#333" cx="13.5" cy="5.5" r="1.5"/><path d="M152 36.16l-10.45-2.09 5.91-8.87-6.74-6.74-8.87 6.44-2.09-9.9h-9.52l-2.09 9.91-8.86-6.18-6.74 6.6 5.91 8.8L98 36.17v9.53l10.45 2.09-5.91 8.86 6.74 6.74 8.87-5.39 2.09 11h9.52l2.09-11 8.86 5.64 6.74-6.87-5.91-8.93L152 45.69v-9.53zm-26.78 16.56c-6.075 0-11-4.925-11-11s4.925-11 11-11 11 4.925 11 11-4.925 11-11 11z" stroke="#333" stroke-width="2.12" fill="#FFDE00" stroke-linecap="round" stroke-linejoin="round"/><path d="M65.805 29.5c-4.157 0-6.304 2.904-6.304 6.487s2.094 6.488 6.304 6.488c4.21 0 6.305-2.905 6.305-6.488 0-3.583-2.148-6.487-6.305-6.487zm3.146 6.499c-.004 2.304-.79 4.17-3.146 4.17s-3.142-1.866-3.145-4.17v-.012c.003-2.304.789-4.17 3.145-4.17 2.357 0 3.143 1.866 3.146 4.17v.012zM47.19 24.664a.36.36 0 0 1 .305-.343l2.275-.318c.211-.028.491.12.491.413v6.649a6.515 6.515 0 0 1 1.64-1.13c.598-.286 1.298-.43 2.103-.43.697 0 1.313.117 1.851.35.539.234.99.561 1.35.983.36.422.634.926.82 1.51.186.586.28 1.231.28 1.935V42c0 .165-.137.3-.308.3h-2.454a.305.305 0 0 1-.308-.298v-7.72c0-.77-.18-1.365-.54-1.787-.362-.422-.902-.633-1.623-.633-.53 0-1.027.12-1.49.357-.466.237-.904.56-1.319.97v8.811c0 .166-.137.3-.308.3h-2.453a.304.304 0 0 1-.308-.3V24.664h-.004zm37.55 14.329v-6.566h-2.075c-.17 0-.268-.13-.222-.288l.462-1.576a.422.422 0 0 1 .355-.312l1.477-.202.54-3.531a.434.434 0 0 1 .35-.34s1.414-.197 1.686-.237a.42.42 0 0 1 .491.422v3.686h2.703c.17 0 .309.135.309.302v1.776a.305.305 0 0 1-.309.302h-2.703v6.476c0 .905.558 1.25 1.092 1.25.326 0 .773-.171 1.107-.324.206-.094.524-.024.607.26l.377 1.3a.382.382 0 0 1-.189.43s-1.122.657-2.625.657c-2.113 0-3.437-1.215-3.437-3.482l.004-.003zm-6.861-7.176c-1.09 0-1.948.372-1.948 1.268 0 1.118 1.848 1.444 3.113 1.9.845.304 3.115.898 3.115 3.309 0 2.928-2.462 4.18-5.088 4.18-2.625 0-3.908-.822-3.908-.822a.393.393 0 0 1-.185-.434s.323-1.13.406-1.411c.074-.253.371-.341.56-.27.676.258 1.896.615 3.275.615 1.396 0 2.071-.42 2.071-1.319 0-1.195-1.886-1.56-3.133-1.949-.86-.267-3.133-.891-3.133-3.542 0-2.611 2.32-3.837 4.801-3.837 2.1 0 3.617.705 3.617.705a.346.346 0 0 1 .197.406l-.41 1.406c-.074.262-.291.382-.563.295-.6-.192-1.724-.5-2.794-.5h.007zM45.514 29.52a3.876 3.876 0 0 0-2.24 1.042c-.933-.723-2.23-1.068-3.685-1.068-2.916 0-5.195 1.392-5.195 4.423 0 1.741.75 2.94 1.942 3.647-.885.413-1.473 1.291-1.473 2.155 0 1.445 1.154 1.896 1.154 1.896S34 42.583 34 44.519C34 46.997 36.31 48 39.13 48c4.068 0 6.866-1.66 6.866-4.706 0-1.875-1.453-2.91-4.619-3.033-1.877-.073-3.094-.14-3.396-.238-.398-.13-.594-.445-.594-.794 0-.383.32-.748.823-1 .44.078.904.116 1.384.116 2.92 0 5.195-1.386 5.195-4.423 0-.736-.134-1.375-.378-1.92.429-.227 1.283-.339 1.283-.339a.366.366 0 0 0 .304-.347v-1.374c0-.283-.245-.445-.477-.418l-.007-.004zm-7.56 12.796s1.531.058 3.062.127c1.72.078 2.255.445 2.255 1.324 0 1.075-1.494 2.12-3.582 2.12-1.982 0-2.973-.683-2.973-1.816 0-.651.348-1.38 1.238-1.758v.003zm1.64-6.093c-1.381 0-2.46-.726-2.46-2.307 0-1.583 1.08-2.308 2.46-2.308 1.381 0 2.46.723 2.46 2.306 0 1.583-1.078 2.306-2.46 2.306v.003z" fill="#2D3134"/><g opacity=".6" transform="translate(15 30)" fill="#2E3134"><rect x=".034" y="10.313" width="5.541" height="2.542" rx="1.271"/><rect x="8.346" y="10.313" width="5.538" height="2.542" rx="1.271"/><rect x=".03" y="5.228" width="13.855" height="2.542" rx="1.271"/><rect x=".034" y=".144" width="8.313" height="2.542" rx="1.271"/><rect x="11.117" y=".144" width="2.771" height="2.542" rx="1.271"/></g><circle stroke="#333" stroke-width="2.12" fill="#FFDE00" stroke-linecap="round" stroke-linejoin="round" cx="125.22" cy="41.72" r="5"/></g></svg>