<svg xmlns="http://www.w3.org/2000/svg" viewBox="0 0 181 69.1"><defs><style>.cls-1{isolation:isolate;}.cls-2{fill:#eaeaea;}.cls-10,.cls-2,.cls-3,.cls-6,.cls-9{stroke:#333;stroke-linecap:round;stroke-linejoin:round;}.cls-2,.cls-6,.cls-9{stroke-width:2px;}.cls-10,.cls-3{fill:none;}.cls-4,.cls-7,.cls-8{fill:#e6e6e6;}.cls-4,.cls-5,.cls-7,.cls-8{mix-blend-mode:multiply;}.cls-5{fill:#dbdbdb;}.cls-6{fill:#fff;}.cls-7{opacity:0.65;}.cls-8{opacity:0.85;}.cls-9{fill:#ffde00;}.cls-10{stroke-width:1.6px;}</style></defs><title>Asset 1</title><g class="cls-1"><g id="Layer_2" data-name="Layer 2"><g id="Layer_2-2" data-name="Layer 2"><rect class="cls-2" x="62" y="37.1" width="57" height="31"/><line class="cls-3" x1="62.5" y1="64.6" x2="119.5" y2="64.6"/><line class="cls-3" x1="62.5" y1="61.6" x2="119.5" y2="61.6"/><line class="cls-3" x1="62.5" y1="58.6" x2="119.5" y2="58.6"/><line class="cls-3" x1="62.5" y1="55.6" x2="119.5" y2="55.6"/><line class="cls-3" x1="62.5" y1="52.6" x2="119.5" y2="52.6"/><line class="cls-3" x1="62.5" y1="49.6" x2="119.5" y2="49.6"/><line class="cls-3" x1="62.5" y1="46.6" x2="119.5" y2="46.6"/><line class="cls-3" x1="62.5" y1="43.6" x2="119.5" y2="43.6"/><line class="cls-3" x1="62.5" y1="40.6" x2="119.5" y2="40.6"/><rect class="cls-4" x="63" y="44.1" width="55" height="2"/><rect class="cls-5" x="63" y="56.1" width="55" height="2"/><rect class="cls-4" x="63" y="65.1" width="55" height="2"/><rect class="cls-6" x="123" y="22.1" width="57" height="46"/><line class="cls-3" x1="123.5" y1="67.6" x2="180.5" y2="67.6"/><line class="cls-3" x1="123.5" y1="64.6" x2="180.5" y2="64.6"/><line class="cls-3" x1="123.5" y1="61.6" x2="180.5" y2="61.6"/><line class="cls-3" x1="123.5" y1="58.6" x2="180.5" y2="58.6"/><line class="cls-3" x1="123.5" y1="55.6" x2="180.5" y2="55.6"/><line class="cls-3" x1="123.5" y1="52.6" x2="180.5" y2="52.6"/><line class="cls-3" x1="123.5" y1="49.6" x2="180.5" y2="49.6"/><line class="cls-3" x1="123.5" y1="46.6" x2="180.5" y2="46.6"/><line class="cls-3" x1="123.5" y1="43.6" x2="180.5" y2="43.6"/><line class="cls-3" x1="123.5" y1="40.6" x2="180.5" y2="40.6"/><line class="cls-3" x1="123.5" y1="37.6" x2="180.5" y2="37.6"/><line class="cls-3" x1="123.5" y1="34.6" x2="180.5" y2="34.6"/><line class="cls-3" x1="123.5" y1="31.6" x2="180.5" y2="31.6"/><line class="cls-3" x1="123.5" y1="28.6" x2="180.5" y2="28.6"/><line class="cls-3" x1="123.5" y1="25.6" x2="180.5" y2="25.6"/><rect class="cls-4" x="124" y="29.1" width="55" height="2"/><rect class="cls-4" x="124" y="29.1" width="55" height="2"/><rect class="cls-4" x="124" y="59.1" width="55" height="2"/><rect class="cls-7" x="124" y="53.1" width="55" height="2"/><rect class="cls-8" x="124" y="41.1" width="55" height="2"/><rect class="cls-6" x="1" y="10.1" width="57" height="58"/><path class="cls-9" d="M1,10.1H58L48.06,1.71A3,3,0,0,0,46.12,1H12.87a3,3,0,0,0-1.94.71Z"/><path class="cls-6" d="M47.22,1.26l-17,5.55a2,2,0,0,1-1.5,0L12.87,1.1Z"/><line class="cls-10" x1="1.69" y1="9.27" x2="21" y2="4.1"/><line class="cls-10" x1="57.51" y1="9.51" x2="39" y2="4.1"/><path class="cls-9" d="M62,37.1h57l-9.94-8.39a3,3,0,0,0-1.93-.71H73.87a3,3,0,0,0-1.94.71Z"/><path class="cls-6" d="M108.22,28.26l-17,5.55a2,2,0,0,1-1.5,0L73.87,28.1Z"/><line class="cls-10" x1="62.69" y1="36.27" x2="82" y2="31.1"/><line class="cls-10" x1="118.51" y1="36.51" x2="100" y2="31.1"/><path class="cls-9" d="M123,22.1h57l-9.94-8.39a3,3,0,0,0-1.93-.71H134.87a3,3,0,0,0-1.94.71Z"/><path class="cls-6" d="M169.22,13.26l-17,5.55a2,2,0,0,1-1.5,0L134.87,13.1Z"/><line class="cls-10" x1="123.69" y1="21.27" x2="143" y2="16.1"/><line class="cls-10" x1="179.51" y1="21.51" x2="161" y2="16.1"/><line class="cls-3" x1="1.5" y1="64.6" x2="58.5" y2="64.6"/><line class="cls-3" x1="1.5" y1="61.6" x2="58.5" y2="61.6"/><line class="cls-3" x1="1.5" y1="58.6" x2="58.5" y2="58.6"/><line class="cls-3" x1="1.5" y1="55.6" x2="58.5" y2="55.6"/><line class="cls-3" x1="1.5" y1="52.6" x2="58.5" y2="52.6"/><line class="cls-3" x1="1.5" y1="49.6" x2="58.5" y2="49.6"/><line class="cls-3" x1="1.5" y1="46.6" x2="58.5" y2="46.6"/><line class="cls-3" x1="1.5" y1="43.6" x2="58.5" y2="43.6"/><line class="cls-3" x1="1.5" y1="40.6" x2="58.5" y2="40.6"/><line class="cls-3" x1="1.5" y1="37.6" x2="58.5" y2="37.6"/><line class="cls-3" x1="1.5" y1="34.6" x2="58.5" y2="34.6"/><line class="cls-3" x1="1.5" y1="31.6" x2="58.5" y2="31.6"/><line class="cls-3" x1="1.5" y1="28.6" x2="58.5" y2="28.6"/><line class="cls-3" x1="1.5" y1="25.6" x2="58.5" y2="25.6"/><line class="cls-3" x1="1.5" y1="22.6" x2="58.5" y2="22.6"/><line class="cls-3" x1="1.5" y1="19.6" x2="58.5" y2="19.6"/><line class="cls-3" x1="1.5" y1="16.6" x2="58.5" y2="16.6"/><line class="cls-3" x1="1.5" y1="13.6" x2="58.5" y2="13.6"/><rect class="cls-4" x="2" y="17.1" width="55" height="2"/><rect class="cls-4" x="2" y="17.1" width="55" height="2"/><rect class="cls-4" x="2" y="47.1" width="55" height="2"/><rect class="cls-7" x="2" y="41.1" width="55" height="2"/><rect class="cls-8" x="2" y="29.1" width="55" height="2"/></g></g></g></svg>