<svg xmlns="http://www.w3.org/2000/svg" width="104" height="78" viewBox="0 0 104 78">
  <g fill="none" fill-rule="evenodd" transform="translate(1 1)">
    <rect width="64" height="72" x="19" y="3" fill="#E1E1E1" stroke="#333" stroke-width="2"/>
    <g transform="translate(15 62)">
      <rect width="72" height="14" fill="#FFF" stroke="#333" stroke-width="2" rx="2"/>
      <circle cx="65.5" cy="7" r="1.5" fill="#DDD" fill-rule="nonzero"/>
      <circle cx="60.5" cy="7" r="1.5" fill="#333" fill-rule="nonzero"/>
      <path fill="#333" fill-rule="nonzero" d="M5.345,5.43 L6.13,5.43 L6.13,9 L5.345,9 L5.345,5.43 Z M7.02,5.43 L7.8,5.43 L9.29,7.825 L9.3,7.825 L9.3,5.43 L10.035,5.43 L10.035,9 L9.25,9 L7.765,6.61 L7.755,6.61 L7.755,9 L7.02,9 L7.02,5.43 Z M11.71,6.875 L12.505,6.875 C12.6450007,6.875 12.7599996,6.841667 12.85,6.775 C12.9400005,6.708333 12.985,6.60000075 12.985,6.45 C12.985,6.36666625 12.9700002,6.2983336 12.94,6.245 C12.9099999,6.1916664 12.8700003,6.15000015 12.82,6.12 C12.7699998,6.08999985 12.7125003,6.06916672 12.6475,6.0575 C12.5824997,6.04583327 12.5150004,6.04 12.445,6.04 L11.71,6.04 L11.71,6.875 Z M13.2600059,7.0600017 C13.480004,7.12333563 13.6441671,7.23416729 13.7525,7.3925 C13.8608339,7.55083412 13.915,7.74166555 13.915,7.965 C13.915,8.1450009 13.8800004,8.30083268 13.81,8.4325 C13.7399997,8.56416732 13.6458339,8.67166625 13.5275,8.755 C13.4091661,8.83833375 13.2741674,8.8999998 13.1225,8.94 C12.9708326,8.9800002 12.8150008,9 12.655,9 L10.925,9 L10.925,5.43 L12.605,5.43 C12.7750009,5.43 12.9299993,5.44499985 13.07,5.475 C13.2100007,5.50500015 13.3299995,5.55416633 13.43,5.6225 C13.5300005,5.69083368 13.6074997,5.7816661 13.6625,5.895 C13.7175003,6.0083339 13.745,6.1483325 13.745,6.315 C13.745,6.4950009 13.7041671,6.6449994 13.6225,6.765 C13.5414446,6.88410175 13.4218088,6.98185865 13.2635888,7.05827357 L13.2600059,7.0600017 Z M11.71,8.39 L12.55,8.39 C12.6266671,8.39 12.6999997,8.38250007 12.77,8.3675 C12.8400004,8.35249993 12.9016664,8.32750018 12.955,8.2925 C13.0083336,8.25749983 13.0508332,8.2100003 13.0825,8.15 C13.1141668,8.0899997 13.13,8.0133338 13.13,7.92 C13.13,7.73666575 13.0783339,7.60583373 12.975,7.5275 C12.8716662,7.44916627 12.7350009,7.41 12.565,7.41 L11.71,7.41 L11.71,8.39 Z M15.275,7.23 C15.275,7.38000075 15.2924998,7.52583262 15.3275,7.6675 C15.3625002,7.80916737 15.418333,7.9366661 15.495,8.05 C15.5716671,8.1633339 15.6716661,8.25416632 15.795,8.3225 C15.918334,8.39083367 16.0683325,8.425 16.245,8.425 C16.4216676,8.425 16.5716661,8.39083367 16.695,8.3225 C16.818334,8.25416632 16.918333,8.1633339 16.995,8.05 C17.0716671,7.9366661 17.1274998,7.80916737 17.1625,7.6675 C17.1975002,7.52583262 17.215,7.38000075 17.215,7.23 C17.215,7.07333255 17.1975002,6.9216674 17.1625,6.775 C17.1274998,6.6283326 17.0716671,6.49750058 16.995,6.3825 C16.918333,6.26749943 16.818334,6.17583368 16.695,6.1075 C16.5716661,6.03916633 16.4216676,6.005 16.245,6.005 C16.0683325,6.005 15.918334,6.03916633 15.795,6.1075 C15.6716661,6.17583368 15.5716671,6.26749943 15.495,6.3825 C15.418333,6.49750058 15.3625002,6.6283326 15.3275,6.775 C15.2924998,6.9216674 15.275,7.07333255 15.275,7.23 Z M14.49,7.23 C14.49,6.963332 14.5299996,6.71583448 14.61,6.4875 C14.6900004,6.25916553 14.8049993,6.06000085 14.955,5.89 C15.1050008,5.71999915 15.2891656,5.58666715 15.5075,5.49 C15.7258344,5.39333285 15.9716653,5.345 16.245,5.345 C16.5216681,5.345 16.7683323,5.39333285 16.985,5.49 C17.2016678,5.58666715 17.3849993,5.71999915 17.535,5.89 C17.6850008,6.06000085 17.7999996,6.25916553 17.88,6.4875 C17.9600004,6.71583448 18,6.963332 18,7.23 C18,7.4900013 17.9600004,7.73249887 17.88,7.9575 C17.7999996,8.18250112 17.6850008,8.3783325 17.535,8.545 C17.3849993,8.7116675 17.2016678,8.84249953 16.985,8.9375 C16.7683323,9.03250047 16.5216681,9.08 16.245,9.08 C15.9716653,9.08 15.7258344,9.03250047 15.5075,8.9375 C15.2891656,8.84249953 15.1050008,8.7116675 14.955,8.545 C14.8049993,8.3783325 14.6900004,8.18250112 14.61,7.9575 C14.5299996,7.73249887 14.49,7.4900013 14.49,7.23 Z M21.765,7.65 C21.765,8.13333575 21.6300014,8.49249883 21.36,8.7275 C21.0899987,8.96250117 20.7166691,9.08 20.24,9.08 C19.7566643,9.08 19.3825013,8.9633345 19.1175,8.73 C18.8524987,8.4966655 18.72,8.1366691 18.72,7.65 L18.72,5.43 L19.505,5.43 L19.505,7.65 C19.505,7.74666715 19.5133333,7.8416662 19.53,7.935 C19.5466668,8.0283338 19.5816664,8.11083298 19.635,8.1825 C19.6883336,8.25416703 19.7624995,8.31249977 19.8575,8.3575 C19.9525005,8.40250023 20.0799992,8.425 20.24,8.425 C20.5200014,8.425 20.7133328,8.36250062 20.82,8.2375 C20.9266672,8.11249937 20.98,7.916668 20.98,7.65 L20.98,5.43 L21.765,5.43 L21.765,7.65 Z M22.64,5.43 L23.42,5.43 L24.91,7.825 L24.92,7.825 L24.92,5.43 L25.655,5.43 L25.655,9 L24.87,9 L23.385,6.61 L23.375,6.61 L23.375,9 L22.64,9 L22.64,5.43 Z M27.33,8.34 L28.03,8.34 C28.1433339,8.34 28.2533328,8.32166685 28.36,8.285 C28.4666672,8.24833315 28.5616663,8.18750042 28.645,8.1025 C28.7283338,8.01749957 28.7949998,7.90666735 28.845,7.77 C28.8950003,7.63333265 28.92,7.46666765 28.92,7.27 C28.92,7.0899991 28.9025002,6.92750072 28.8675,6.7825 C28.8324998,6.63749927 28.7750004,6.51333385 28.695,6.41 C28.6149996,6.30666615 28.5091673,6.22750027 28.3775,6.1725 C28.2458327,6.11749973 28.0833343,6.09 27.89,6.09 L27.33,6.09 L27.33,8.34 Z M26.545,5.43 L28.085,5.43 C28.3150012,5.43 28.5291657,5.4666663 28.7275,5.54 C28.9258343,5.6133337 29.0974993,5.7233326 29.2425,5.87 C29.3875007,6.0166674 29.5008329,6.1999989 29.5825,6.42 C29.6641671,6.6400011 29.705,6.89833185 29.705,7.195 C29.705,7.4550013 29.671667,7.6949989 29.605,7.915 C29.538333,8.1350011 29.4375007,8.3249992 29.3025,8.485 C29.1674993,8.6450008 28.9991677,8.77083287 28.7975,8.8625 C28.5958323,8.95416712 28.3583347,9 28.085,9 L26.545,9 L26.545,5.43 Z"/>
    </g>
    <g transform="translate(0 44)">
      <rect width="72" height="14" fill="#FFF" stroke="#333" stroke-width="2" rx="2"/>
      <circle cx="65.5" cy="7" r="1.5" fill="#DDD" fill-rule="nonzero"/>
      <circle cx="60.5" cy="7" r="1.5" fill="#DDD" fill-rule="nonzero"/>
      <path fill="#333" fill-rule="nonzero" d="M6.13,6.875 L6.925,6.875 C7.0650007,6.875 7.17999955,6.841667 7.27,6.775 C7.36000045,6.708333 7.405,6.60000075 7.405,6.45 C7.405,6.36666625 7.39000015,6.2983336 7.36,6.245 C7.32999985,6.1916664 7.29000025,6.15000015 7.24,6.12 C7.18999975,6.08999985 7.13250032,6.06916672 7.0675,6.0575 C7.00249967,6.04583327 6.93500035,6.04 6.865,6.04 L6.13,6.04 L6.13,6.875 Z M7.68000591,7.0600017 C7.90000404,7.12333563 8.06416709,7.23416729 8.1725,7.3925 C8.28083387,7.55083412 8.335,7.74166555 8.335,7.965 C8.335,8.1450009 8.30000035,8.30083268 8.23,8.4325 C8.15999965,8.56416732 8.06583392,8.67166625 7.9475,8.755 C7.82916607,8.83833375 7.69416742,8.8999998 7.5425,8.94 C7.39083257,8.9800002 7.2350008,9 7.075,9 L5.345,9 L5.345,5.43 L7.025,5.43 C7.19500085,5.43 7.3499993,5.44499985 7.49,5.475 C7.6300007,5.50500015 7.7499995,5.55416633 7.85,5.6225 C7.9500005,5.69083368 8.02749972,5.7816661 8.0825,5.895 C8.13750027,6.0083339 8.165,6.1483325 8.165,6.315 C8.165,6.4950009 8.12416707,6.6449994 8.0425,6.765 C7.96144464,6.88410175 7.84180875,6.98185865 7.68358879,7.05827357 L7.68000591,7.0600017 Z M6.13,8.39 L6.97,8.39 C7.04666705,8.39 7.11999965,8.38250007 7.19,8.3675 C7.26000035,8.35249993 7.3216664,8.32750018 7.375,8.2925 C7.4283336,8.25749983 7.47083317,8.2100003 7.5025,8.15 C7.53416682,8.0899997 7.55,8.0133338 7.55,7.92 C7.55,7.73666575 7.49833385,7.60583373 7.395,7.5275 C7.29166615,7.44916627 7.15500085,7.41 6.985,7.41 L6.13,7.41 L6.13,8.39 Z M12.095,7.65 C12.095,8.13333575 11.9600014,8.49249883 11.69,8.7275 C11.4199987,8.96250117 11.0466691,9.08 10.57,9.08 C10.0866643,9.08 9.71250133,8.9633345 9.4475,8.73 C9.18249868,8.4966655 9.05,8.1366691 9.05,7.65 L9.05,5.43 L9.835,5.43 L9.835,7.65 C9.835,7.74666715 9.84333325,7.8416662 9.86,7.935 C9.87666675,8.0283338 9.9116664,8.11083298 9.965,8.1825 C10.0183336,8.25416703 10.0924995,8.31249977 10.1875,8.3575 C10.2825005,8.40250023 10.4099992,8.425 10.57,8.425 C10.8500014,8.425 11.0433328,8.36250062 11.15,8.2375 C11.2566672,8.11249937 11.31,7.916668 11.31,7.65 L11.31,5.43 L12.095,5.43 L12.095,7.65 Z M12.97,5.43 L13.755,5.43 L13.755,8.34 L15.495,8.34 L15.495,9 L12.97,9 L12.97,5.43 Z M16.135,5.43 L16.92,5.43 L16.92,6.91 L18.315,5.43 L19.295,5.43 L17.9,6.84 L19.43,9 L18.445,9 L17.37,7.395 L16.92,7.85 L16.92,9 L16.135,9 L16.135,5.43 Z"/>
    </g>
    <g transform="translate(15 26)">
      <rect width="72" height="14" fill="#FFF" stroke="#333" stroke-width="2" rx="2"/>
      <circle cx="65.5" cy="7" r="1.5" fill="#DDD" fill-rule="nonzero"/>
      <circle cx="60.5" cy="7" r="1.5" fill="#333" fill-rule="nonzero"/>
      <path fill="#333" fill-rule="nonzero" d="M6.135,6.09 L5.065,6.09 L5.065,5.43 L7.99,5.43 L7.99,6.09 L6.92,6.09 L6.92,9 L6.135,9 L6.135,6.09 Z M9.385,7.045 L10.245,7.045 C10.4250009,7.045 10.5599996,7.0050004 10.65,6.925 C10.7400005,6.8449996 10.785,6.7150009 10.785,6.535 C10.785,6.3616658 10.7400005,6.23583372 10.65,6.1575 C10.5599996,6.07916627 10.4250009,6.04 10.245,6.04 L9.385,6.04 L9.385,7.045 Z M8.6,5.43 L10.525,5.43 C10.6850008,5.43 10.829166,5.45583307 10.9575,5.5075 C11.085834,5.55916693 11.1958329,5.62999955 11.2875,5.72 C11.3791671,5.81000045 11.4491664,5.91416608 11.4975,6.0325 C11.5458336,6.15083393 11.57,6.27833265 11.57,6.415 C11.57,6.62500105 11.5258338,6.8066659 11.4375,6.96 C11.3491662,7.1133341 11.205001,7.2299996 11.005,7.31 L11.005,7.32 C11.1016672,7.3466668 11.1816664,7.38749972 11.245,7.4425 C11.3083337,7.49750028 11.3599998,7.56249963 11.4,7.6375 C11.4400002,7.71250037 11.4691666,7.79499955 11.4875,7.885 C11.5058334,7.97500045 11.5183333,8.06499955 11.525,8.155 C11.5283334,8.21166695 11.5316667,8.27833295 11.535,8.355 C11.5383334,8.43166705 11.5441666,8.5099996 11.5525,8.59 C11.5608334,8.6700004 11.5741666,8.74583297 11.5925,8.8175 C11.6108334,8.88916702 11.6383332,8.94999975 11.675,9 L10.89,9 C10.8466665,8.8866661 10.8200001,8.75166745 10.81,8.595 C10.8,8.43833255 10.7850001,8.28833405 10.765,8.145 C10.7383332,7.9583324 10.6816671,7.8216671 10.595,7.735 C10.5083329,7.6483329 10.3666677,7.605 10.17,7.605 L9.385,7.605 L9.385,9 L8.6,9 L8.6,5.43 Z M13.31,7.62 L14.235,7.62 L13.785,6.31 L13.775,6.31 L13.31,7.62 Z M13.385,5.43 L14.19,5.43 L15.525,9 L14.71,9 L14.44,8.205 L13.105,8.205 L12.825,9 L12.035,9 L13.385,5.43 Z M16.035,5.43 L16.815,5.43 L18.305,7.825 L18.315,7.825 L18.315,5.43 L19.05,5.43 L19.05,9 L18.265,9 L16.78,6.61 L16.77,6.61 L16.77,9 L16.035,9 L16.035,5.43 Z M20.475,7.815 C20.475,7.9350006 20.4966665,8.03666625 20.54,8.12 C20.5833336,8.20333375 20.640833,8.27083307 20.7125,8.3225 C20.784167,8.37416693 20.8683329,8.41249987 20.965,8.4375 C21.0616672,8.46250012 21.1616662,8.475 21.265,8.475 C21.3350004,8.475 21.4099996,8.46916672 21.49,8.4575 C21.5700004,8.44583327 21.6449997,8.4233335 21.715,8.39 C21.7850004,8.3566665 21.8433331,8.31083362 21.89,8.2525 C21.9366669,8.19416638 21.96,8.12000045 21.96,8.03 C21.96,7.93333285 21.929167,7.8550003 21.8675,7.795 C21.805833,7.7349997 21.7250005,7.6850002 21.625,7.645 C21.5249995,7.6049998 21.4116673,7.57000015 21.285,7.54 C21.1583327,7.50999985 21.0300007,7.47666685 20.9,7.44 C20.766666,7.4066665 20.6366673,7.36583357 20.51,7.3175 C20.3833327,7.26916642 20.2700005,7.20666705 20.17,7.13 C20.0699995,7.05333295 19.989167,6.95750058 19.9275,6.8425 C19.865833,6.72749942 19.835,6.58833415 19.835,6.425 C19.835,6.24166575 19.8741663,6.08250068 19.9525,5.9475 C20.0308337,5.81249933 20.1333327,5.70000045 20.26,5.61 C20.3866673,5.51999955 20.5299992,5.45333355 20.69,5.41 C20.8500008,5.36666645 21.0099992,5.345 21.17,5.345 C21.3566676,5.345 21.5358325,5.36583312 21.7075,5.4075 C21.8791675,5.44916687 22.031666,5.5166662 22.165,5.61 C22.298334,5.7033338 22.4041663,5.82249928 22.4825,5.9675 C22.5608337,6.11250073 22.6,6.2883323 22.6,6.495 L21.84,6.495 C21.8333333,6.3883328 21.8108335,6.30000035 21.7725,6.23 C21.7341665,6.15999965 21.6833337,6.1050002 21.62,6.065 C21.5566664,6.0249998 21.4841671,5.99666675 21.4025,5.98 C21.3208329,5.96333325 21.2316672,5.955 21.135,5.955 C21.0716664,5.955 21.0083337,5.9616666 20.945,5.975 C20.8816664,5.9883334 20.8241669,6.0116665 20.7725,6.045 C20.7208331,6.0783335 20.6783335,6.11999975 20.645,6.17 C20.6116665,6.22000025 20.595,6.28333295 20.595,6.36 C20.595,6.43000035 20.6083332,6.48666645 20.635,6.53 C20.6616668,6.57333355 20.7141663,6.61333315 20.7925,6.65 C20.8708337,6.68666685 20.979166,6.72333315 21.1175,6.76 C21.255834,6.79666685 21.4366656,6.84333305 21.66,6.9 C21.726667,6.9133334 21.8191661,6.93749982 21.9375,6.9725 C22.0558339,7.00750018 22.1733328,7.06333295 22.29,7.14 C22.4066673,7.21666705 22.5074996,7.31916602 22.5925,7.4475 C22.6775004,7.57583398 22.72,7.739999 22.72,7.94 C22.72,8.10333415 22.6883337,8.2549993 22.625,8.395 C22.5616664,8.5350007 22.4675006,8.65583283 22.3425,8.7575 C22.2174994,8.85916717 22.0625009,8.93833305 21.8775,8.995 C21.6924991,9.05166695 21.4783346,9.08 21.235,9.08 C21.0383324,9.08 20.8475009,9.05583358 20.6625,9.0075 C20.4774991,8.95916642 20.3141674,8.88333385 20.1725,8.78 C20.0308326,8.67666615 19.9183338,8.5450008 19.835,8.385 C19.7516663,8.2249992 19.7116667,8.0350011 19.715,7.815 L20.475,7.815 Z M24.285,7.62 L25.21,7.62 L24.76,6.31 L24.75,6.31 L24.285,7.62 Z M24.36,5.43 L25.165,5.43 L26.5,9 L25.685,9 L25.415,8.205 L24.08,8.205 L23.8,9 L23.01,9 L24.36,5.43 Z M29.39,6.63 C29.3766666,6.53999955 29.3466669,6.45750038 29.3,6.3825 C29.2533331,6.30749963 29.1950004,6.24166695 29.125,6.185 C29.0549997,6.12833305 28.9758338,6.08416683 28.8875,6.0525 C28.7991662,6.02083317 28.7066672,6.005 28.61,6.005 C28.4333325,6.005 28.283334,6.03916633 28.16,6.1075 C28.0366661,6.17583368 27.9366671,6.26749943 27.86,6.3825 C27.783333,6.49750058 27.7275002,6.6283326 27.6925,6.775 C27.6574998,6.9216674 27.64,7.07333255 27.64,7.23 C27.64,7.38000075 27.6574998,7.52583262 27.6925,7.6675 C27.7275002,7.80916737 27.783333,7.9366661 27.86,8.05 C27.9366671,8.1633339 28.0366661,8.25416632 28.16,8.3225 C28.283334,8.39083367 28.4333325,8.425 28.61,8.425 C28.8500012,8.425 29.0374993,8.3516674 29.1725,8.205 C29.3075007,8.0583326 29.3899999,7.8650012 29.42,7.625 L30.18,7.625 C30.1599999,7.84833445 30.1083338,8.0499991 30.025,8.23 C29.9416663,8.4100009 29.8316674,8.5633327 29.695,8.69 C29.5583327,8.8166673 29.3983343,8.913333 29.215,8.98 C29.0316658,9.046667 28.8300011,9.08 28.61,9.08 C28.3366653,9.08 28.0908344,9.03250047 27.8725,8.9375 C27.6541656,8.84249953 27.4700008,8.7116675 27.32,8.545 C27.1699993,8.3783325 27.0550004,8.18250112 26.975,7.9575 C26.8949996,7.73249887 26.855,7.4900013 26.855,7.23 C26.855,6.963332 26.8949996,6.71583448 26.975,6.4875 C27.0550004,6.25916553 27.1699993,6.06000085 27.32,5.89 C27.4700008,5.71999915 27.6541656,5.58666715 27.8725,5.49 C28.0908344,5.39333285 28.3366653,5.345 28.61,5.345 C28.8066677,5.345 28.9924991,5.37333305 29.1675,5.43 C29.3425009,5.48666695 29.499166,5.56916613 29.6375,5.6775 C29.775834,5.78583387 29.8899996,5.9199992 29.98,6.08 C30.0700005,6.2400008 30.1266666,6.4233323 30.15,6.63 L29.39,6.63 Z M31.705,6.09 L30.635,6.09 L30.635,5.43 L33.56,5.43 L33.56,6.09 L32.49,6.09 L32.49,9 L31.705,9 L31.705,6.09 Z M34.17,5.43 L34.955,5.43 L34.955,9 L34.17,9 L34.17,5.43 Z M36.475,7.23 C36.475,7.38000075 36.4924999,7.52583262 36.5275,7.6675 C36.5625002,7.80916737 36.618333,7.9366661 36.695,8.05 C36.7716671,8.1633339 36.8716661,8.25416632 36.995,8.3225 C37.118334,8.39083367 37.2683325,8.425 37.445,8.425 C37.6216676,8.425 37.7716661,8.39083367 37.895,8.3225 C38.018334,8.25416632 38.118333,8.1633339 38.195,8.05 C38.2716671,7.9366661 38.3274999,7.80916737 38.3625,7.6675 C38.3975002,7.52583262 38.415,7.38000075 38.415,7.23 C38.415,7.07333255 38.3975002,6.9216674 38.3625,6.775 C38.3274999,6.6283326 38.2716671,6.49750058 38.195,6.3825 C38.118333,6.26749943 38.018334,6.17583368 37.895,6.1075 C37.7716661,6.03916633 37.6216676,6.005 37.445,6.005 C37.2683325,6.005 37.118334,6.03916633 36.995,6.1075 C36.8716661,6.17583368 36.7716671,6.26749943 36.695,6.3825 C36.618333,6.49750058 36.5625002,6.6283326 36.5275,6.775 C36.4924999,6.9216674 36.475,7.07333255 36.475,7.23 Z M35.69,7.23 C35.69,6.963332 35.7299996,6.71583448 35.81,6.4875 C35.8900004,6.25916553 36.0049993,6.06000085 36.155,5.89 C36.3050008,5.71999915 36.4891656,5.58666715 36.7075,5.49 C36.9258345,5.39333285 37.1716653,5.345 37.445,5.345 C37.7216681,5.345 37.9683323,5.39333285 38.185,5.49 C38.4016678,5.58666715 38.5849993,5.71999915 38.735,5.89 C38.8850008,6.06000085 38.9999996,6.25916553 39.08,6.4875 C39.1600004,6.71583448 39.2,6.963332 39.2,7.23 C39.2,7.4900013 39.1600004,7.73249887 39.08,7.9575 C38.9999996,8.18250112 38.8850008,8.3783325 38.735,8.545 C38.5849993,8.7116675 38.4016678,8.84249953 38.185,8.9375 C37.9683323,9.03250047 37.7216681,9.08 37.445,9.08 C37.1716653,9.08 36.9258345,9.03250047 36.7075,8.9375 C36.4891656,8.84249953 36.3050008,8.7116675 36.155,8.545 C36.0049993,8.3783325 35.8900004,8.18250112 35.81,7.9575 C35.7299996,7.73249887 35.69,7.4900013 35.69,7.23 Z M39.935,5.43 L40.715,5.43 L42.205,7.825 L42.215,7.825 L42.215,5.43 L42.95,5.43 L42.95,9 L42.165,9 L40.68,6.61 L40.67,6.61 L40.67,9 L39.935,9 L39.935,5.43 Z M44.74,7.62 L45.665,7.62 L45.215,6.31 L45.205,6.31 L44.74,7.62 Z M44.815,5.43 L45.62,5.43 L46.955,9 L46.14,9 L45.87,8.205 L44.535,8.205 L44.255,9 L43.465,9 L44.815,5.43 Z M47.465,5.43 L48.25,5.43 L48.25,8.34 L49.99,8.34 L49.99,9 L47.465,9 L47.465,5.43 Z"/>
    </g>
    <g transform="translate(15)">
      <rect width="72" height="21" fill="#FFF" stroke="#333" stroke-width="2" rx="2"/>
      <rect width="11" height="11" x="5" y="5" fill="#FFDE00" stroke="#333" stroke-width="2" rx="1"/>
      <path fill="#333" fill-rule="nonzero" d="M8.88,13.1795494 L8,13.1795494 L8,14.0195494 L10.86,14.0195494 L10.86,13.1395494 L9.94,13.1395494 L9.94,11.3595494 L10.73,11.3595494 C11.502,11.4675494 12.284,11.2505494 12.89,10.7595494 C13.283,10.3325494 13.495,9.76954945 13.48,9.18954945 C13.516,8.57154945 13.273,7.96954945 12.818,7.54954945 C12.363,7.12954945 11.744,6.93454945 11.13,7.01954945 L8,7.01954945 L8,7.89954945 L8.88,7.89954945 L8.88,13.1795494 Z M9.94,10.5095494 L9.94,7.89954945 L11.15,7.89954945 C11.494,7.86754945 11.834,7.99154945 12.076,8.23754945 C12.318,8.48354945 12.437,8.82554945 12.4,9.16954945 C12.4,9.89954945 12.12,10.4995494 10.82,10.4995494 L9.94,10.5095494 Z"/>
      <rect width="46" height="11" x="21" y="5" fill="#FFDE00" stroke="#333" stroke-width="2" rx="1"/>
      <g fill="#333" fill-rule="nonzero" transform="translate(24 7)">
        <g transform="translate(2)">
          <circle cx="1.5" cy="1.5" r="1.5"/>
          <circle cx="6.5" cy="1.5" r="1.5"/>
          <circle cx="11.5" cy="1.5" r="1.5"/>
          <circle cx="16.5" cy="1.5" r="1.5"/>
          <circle cx="21.5" cy="1.5" r="1.5"/>
          <circle cx="26.5" cy="1.5" r="1.5"/>
          <circle cx="31.5" cy="1.5" r="1.5"/>
          <circle cx="36.5" cy="1.5" r="1.5"/>
        </g>
        <g transform="translate(0 4)">
          <circle cx="1.5" cy="1.5" r="1.5"/>
          <circle cx="6.5" cy="1.5" r="1.5"/>
          <circle cx="11.5" cy="1.5" r="1.5"/>
          <circle cx="16.5" cy="1.5" r="1.5"/>
          <circle cx="21.5" cy="1.5" r="1.5"/>
          <circle cx="26.5" cy="1.5" r="1.5"/>
          <circle cx="31.5" cy="1.5" r="1.5"/>
          <circle cx="36.5" cy="1.5" r="1.5"/>
        </g>
      </g>
    </g>
    <g transform="translate(76 44)">
      <circle cx="7" cy="7" r="7" fill="#4FC47F"/>
      <rect width="1.5" height="8" x="6.25" y="3" fill="#FFF"/>
      <rect width="8" height="1.5" x="3" y="6.25" fill="#FFF"/>
    </g>
  </g>
</svg>
