<svg width="102" height="13" fill="none" xmlns="http://www.w3.org/2000/svg"><g clip-path="url(#clip0)"><path clip-rule="evenodd" d="M78.75 1.75h8.5v10.5h-8.5V1.75z" stroke="#4FC47F" stroke-width="1.5"/><path fill-rule="evenodd" clip-rule="evenodd" d="M80.5 3.5h5v3h-5v-3zm0 4h5v1h-5v-1zm0 2h5v1h-5v-1z" fill="#4FC47F"/><path d="M64.418 5.849c.879.71 1.699 1.489 2.452 2.33 2.408 2.716 2.632 3.78 2.632 3.78s.246-1.16 2.829-4.073c.674-.76 1.87-1.923 3.589-3.487" stroke="#4FC47F" stroke-width="1.5" stroke-linecap="round" stroke-linejoin="bevel"/><path fill-rule="evenodd" clip-rule="evenodd" d="M76.843 3.561v4.243L72.6 3.561h4.243z" fill="#4FC47F"/><path clip-rule="evenodd" d="M58.43 6.7l2.298 1.929-1.929 2.298-2.298-1.929-1.607 1.915-4.323-8.849 9.465 2.721L58.43 6.7z" stroke="#4FC47F" stroke-width="1.5"/><path fill-rule="evenodd" clip-rule="evenodd" d="M15 7.5c0-.652-.42-1.2-1-1.408V4.908a1.496 1.496 0 10-1.5-2.518v8.11h-10V2.39A1.496 1.496 0 101 4.908v1.184C.42 6.3 0 6.848 0 7.5c0 .652.42 1.2 1 1.408v1.184A1.496 1.496 0 102.908 12h1.184c.207.58.756 1 1.408 1 .652 0 1.2-.42 1.408-1h1.184c.207.58.756 1 1.408 1 .652 0 1.2-.42 1.408-1h1.184A1.496 1.496 0 1014 10.092V8.908c.58-.207 1-.756 1-1.408z" fill="#4FC47F"/><path fill-rule="evenodd" clip-rule="evenodd" d="M11 3L7.5 0 4 3h2.5v4h2V3H11zm20 4.5c0-.652-.42-1.2-1-1.408V4.908a1.496 1.496 0 10-1.5-2.518v8.11h-10V2.39A1.492 1.492 0 0016 3.5c0 .652.42 1.2 1 1.408v1.184c-.58.207-1 .756-1 1.408 0 .652.42 1.2 1 1.408v1.184A1.496 1.496 0 1018.908 12h1.184c.207.58.756 1 1.408 1 .652 0 1.2-.42 1.408-1h1.184c.207.58.756 1 1.408 1 .652 0 1.2-.42 1.408-1h1.184A1.496 1.496 0 1030 10.092V8.908c.58-.207 1-.756 1-1.408z" fill="#4FC47F"/><path fill-rule="evenodd" clip-rule="evenodd" d="M27 4l-3.5 3L20 4h2.5V0h2v4H27zm20.697 2.617C45.74 3.683 42.932 2 39.987 2c-3.087 0-6.05 1.758-7.732 4.588l-.255.43.27.42C34.06 10.207 37.088 12 39.988 12c2.887 0 5.766-1.673 7.7-4.476l.313-.45-.303-.457h-.001zm-7.71 3.716c-2.164 0-4.448-1.3-5.943-3.35 1.402-2.057 3.64-3.316 5.943-3.316 2.153 0 4.33 1.257 5.918 3.39-1.592 2.06-3.77 3.276-5.918 3.276z" fill="#4FC47F"/><path fill-rule="evenodd" clip-rule="evenodd" d="M40 5a2 2 0 100 4 2 2 0 000-4" fill="#4FC47F"/><path d="M99.356 5.165c.912.404 1.839.61 2.625.617A6.51 6.51 0 0095.932.014a6.534 6.534 0 00-2.96.496c.401.104.794.24 1.172.41 1.398.62 2.209 1.678 2.798 2.448l.011.014c.515.669 1.358 1.319 2.403 1.783zM101.691 8.545A6.46 6.46 0 00102 7.013c-.884.122-2.06-.072-3.209-.583-1.046-.464-1.889-1.114-2.403-1.782l-.011-.015c-.59-.77-1.4-1.827-2.798-2.448-.813-.361-1.628-.556-2.346-.594a6.53 6.53 0 00-1.35 1.62l.037.004c.842-.066 1.89.124 2.937.588 1.398.62 2.208 1.679 2.797 2.448l.012.015c.514.668 1.356 1.318 2.404 1.782 1.337.595 2.711.76 3.621.497zM99.61 11.546a6.541 6.541 0 001.499-1.73c-.909.256-2.274.09-3.606-.502-1.046-.464-1.888-1.114-2.402-1.782l-.012-.015c-.589-.77-1.4-1.827-2.797-2.448-1.047-.464-2.095-.653-2.937-.588l-.045-.008A6.46 6.46 0 0089 6.086c.77.004 1.67.201 2.57.6 1.4.622 2.21 1.682 2.8 2.452l.008.011c.514.669 1.358 1.318 2.404 1.783.99.44 2 .644 2.828.614zM94.763 12.958a6.536 6.536 0 002.827-.3 7.65 7.65 0 01-1.374-.461c-1.046-.464-1.888-1.114-2.403-1.782l-.011-.015c-.59-.77-1.4-1.828-2.798-2.448a7.028 7.028 0 00-1.956-.56 6.49 6.49 0 003.03 4.637c.815.503 1.732.82 2.685.929z" fill="#4FC47F"/></g><defs><clipPath id="clip0"><path fill="#fff" d="M0 0h102v13H0z"/></clipPath></defs></svg>