<svg xmlns="http://www.w3.org/2000/svg" viewBox="0 0 157 76"><defs><style>.cls-1,.cls-8,.cls-9{fill:#333;}.cls-1{opacity:0.09;}.cls-2{fill:#e6e6e6;}.cls-10,.cls-2,.cls-3,.cls-4,.cls-5,.cls-6,.cls-7{stroke:#333;stroke-linecap:round;stroke-linejoin:round;}.cls-2,.cls-3,.cls-6,.cls-7{stroke-width:2px;}.cls-3{fill:#fff;}.cls-10,.cls-4,.cls-7{fill:none;}.cls-4,.cls-5{stroke-width:2.12px;}.cls-5,.cls-6{fill:#ffde00;}.cls-8{font-size:14.74px;font-family:HelveticaNeue-Bold, Helvetica Neue;font-weight:700;letter-spacing:0.06em;}.cls-9{stroke:#fff;stroke-miterlimit:10;stroke-width:0.2px;}.cls-10{stroke-width:1.7px;}</style></defs><title>Asset 9</title><g id="Layer_2" data-name="Layer 2"><g id="Layer_2-2" data-name="Layer 2"><ellipse class="cls-1" cx="36" cy="74" rx="36" ry="2"/><ellipse class="cls-1" cx="126.5" cy="74" rx="30.5" ry="2"/><rect class="cls-2" x="4" y="30" width="64" height="44" rx="3" ry="3" transform="translate(72 104) rotate(-180)"/><path class="cls-3" d="M67.82,30.19"/><path class="cls-4" d="M4.47,72.7,32.9,54.07A4.67,4.67,0,0,1,38.31,54L66.47,72.46"/><path class="cls-5" d="M67.47,30.19"/><path class="cls-5" d="M38.31,53.25"/><path class="cls-3" d="M5.8,31.87l27.62,22a3.82,3.82,0,0,0,4.39,0l28.59-22"/><path class="cls-3" d="M153,74H100V2.09A1.09,1.09,0,0,1,101.09,1h39.73L153,13Z"/><rect class="cls-6" x="100" y="48" width="53" height="26"/><polyline class="cls-7" points="141 1 141 13 152 13"/><text class="cls-8" transform="translate(105.45 66.21)">JSON</text><path class="cls-9" d="M111.6,24.08a16.69,16.69,0,0,1,.46,3.35c0,.92-1.73,1.73-1.73,1.73v1.15s1.73.81,1.73,1.73a16.69,16.69,0,0,1-.46,3.35c-.35,2.43.92,3.58,2.08,3.58h2.43V36.66s-2.08.23-2.08-1.15c0-1,.23-1,.46-3.35a2.86,2.86,0,0,0-1.27-2.43,2.66,2.66,0,0,0,1.27-2.31,20.61,20.61,0,0,1-.46-3.35c0-1.39,2.08-1.27,2.08-1.27V20.5h-2.43C112.41,20.5,111.25,21.65,111.6,24.08Z"/><path class="cls-9" d="M141.76,24.08a16.69,16.69,0,0,0-.46,3.35c0,.92,1.73,1.73,1.73,1.73v1.15s-1.73.81-1.73,1.73a16.69,16.69,0,0,0,.46,3.35c.35,2.43-.92,3.58-2.08,3.58h-2.43V36.66s2.08.23,2.08-1.15c0-1-.23-1-.46-3.35a2.86,2.86,0,0,1,1.27-2.43,2.66,2.66,0,0,1-1.27-2.31c.23-2.31.46-2.31.46-3.35,0-1.39-2.08-1.27-2.08-1.27V20.5h2.43C141,20.5,142.11,21.65,141.76,24.08Z"/><circle class="cls-9" cx="120.94" cy="30.28" r="1.88"/><circle class="cls-9" cx="127.37" cy="30.28" r="1.88"/><circle class="cls-9" cx="133.8" cy="30.28" r="1.88"/><polygon class="cls-1" points="65 74 7 74 4 71 68 71 65 74"/><path class="cls-10" d="M92,48c-8-8-18-1-18-1"/><polyline class="cls-10" points="88 50 93 49 93 44"/></g></g></svg>