<svg width="22" height="11" viewBox="0 0 22 11" xmlns="http://www.w3.org/2000/svg"><title>∞</title><path d="M5.638 10.807c-.765 0-1.447-.135-2.044-.406a4.809 4.809 0 0 1-1.54-1.092 4.593 4.593 0 0 1-.98-1.638 6.098 6.098 0 0 1-.336-2.044c0-.728.107-1.405.322-2.03a4.666 4.666 0 0 1 .938-1.624c.41-.457.915-.821 1.512-1.092.597-.27 1.27-.406 2.016-.406.616 0 1.18.093 1.694.28.513.187.99.434 1.428.742.439.308.85.663 1.232 1.064.383.401.76.826 1.134 1.274.355-.43.723-.85 1.106-1.26.383-.41.793-.77 1.232-1.078A6.102 6.102 0 0 1 14.78.755a4.84 4.84 0 0 1 1.666-.28c.747 0 1.419.13 2.016.392.597.261 1.101.62 1.512 1.078.41.457.728.994.952 1.61.224.616.336 1.288.336 2.016s-.112 1.41-.336 2.044a5.14 5.14 0 0 1-.952 1.666c-.41.476-.92.85-1.526 1.12-.607.27-1.283.406-2.03.406-.579 0-1.12-.089-1.624-.266a6.439 6.439 0 0 1-1.414-.7 8.42 8.42 0 0 1-1.246-1.008c-.392-.383-.765-.78-1.12-1.19-.392.41-.775.807-1.148 1.19-.373.383-.77.719-1.19 1.008a5.94 5.94 0 0 1-1.372.7 4.913 4.913 0 0 1-1.666.266zM5.61 7.98c.355 0 .71-.07 1.064-.21.355-.14.69-.317 1.008-.532.317-.215.616-.457.896-.728.28-.27.532-.537.756-.798a20.229 20.229 0 0 0-.784-.798 9.426 9.426 0 0 0-.938-.798 5.432 5.432 0 0 0-1.022-.602 2.587 2.587 0 0 0-1.064-.238c-.653 0-1.171.247-1.554.742a2.654 2.654 0 0 0-.574 1.666c0 .672.196 1.223.588 1.652.392.43.933.644 1.624.644zm10.864 0c.69 0 1.223-.224 1.596-.672.373-.448.56-.999.56-1.652 0-.653-.2-1.213-.602-1.68-.401-.467-.947-.7-1.638-.7-.373 0-.733.08-1.078.238-.345.159-.672.36-.98.602a8.842 8.842 0 0 0-.882.798c-.28.29-.532.555-.756.798.243.28.504.555.784.826.28.27.579.513.896.728.317.215.649.387.994.518.345.13.714.196 1.106.196z" fill="#FFF" fill-rule="evenodd"/></svg>