<svg width="174" height="175" viewBox="0 0 174 175" fill="none" xmlns="http://www.w3.org/2000/svg">
<path d="M156 18C156 27.9411 147.941 36 138 36C128.059 36 120 27.9411 120 18C120 8.05887 128.059 0 138 0C147.941 0 156 8.05887 156 18Z" fill="#3899D7"/>
<path fill-rule="evenodd" clip-rule="evenodd" d="M138 33C146.284 33 153 26.2843 153 18C153 9.71573 146.284 3 138 3C129.716 3 123 9.71573 123 18C123 26.2843 129.716 33 138 33ZM138 36C147.941 36 156 27.9411 156 18C156 8.05887 147.941 0 138 0C128.059 0 120 8.05887 120 18C120 27.9411 128.059 36 138 36Z" fill="#333333"/>
<path d="M58 44C58 51.1797 52.1797 57 45 57C37.8203 57 32 51.1797 32 44C32 36.8203 37.8203 31 45 31C52.1797 31 58 36.8203 58 44Z" fill="#89BF1D"/>
<path fill-rule="evenodd" clip-rule="evenodd" d="M45 54C50.5228 54 55 49.5228 55 44C55 38.4772 50.5228 34 45 34C39.4772 34 35 38.4772 35 44C35 49.5228 39.4772 54 45 54ZM45 57C52.1797 57 58 51.1797 58 44C58 36.8203 52.1797 31 45 31C37.8203 31 32 36.8203 32 44C32 51.1797 37.8203 57 45 57Z" fill="#333333"/>
<path d="M49 158C49 167.389 41.3888 175 32 175C22.6112 175 15 167.389 15 158C15 148.611 22.6112 141 32 141C41.3888 141 49 148.611 49 158Z" fill="#F0655D"/>
<path fill-rule="evenodd" clip-rule="evenodd" d="M32 172C39.732 172 46 165.732 46 158C46 150.268 39.732 144 32 144C24.268 144 18 150.268 18 158C18 165.732 24.268 172 32 172ZM32 175C41.3888 175 49 167.389 49 158C49 148.611 41.3888 141 32 141C22.6112 141 15 148.611 15 158C15 167.389 22.6112 175 32 175Z" fill="#333333"/>
<path d="M125 149C125 155.075 120.075 160 114 160C107.925 160 103 155.075 103 149C103 142.925 107.925 138 114 138C120.075 138 125 142.925 125 149Z" fill="#3FA46C"/>
<path fill-rule="evenodd" clip-rule="evenodd" d="M114 157C118.418 157 122 153.418 122 149C122 144.582 118.418 141 114 141C109.582 141 106 144.582 106 149C106 153.418 109.582 157 114 157ZM114 160C120.075 160 125 155.075 125 149C125 142.925 120.075 138 114 138C107.925 138 103 142.925 103 149C103 155.075 107.925 160 114 160Z" fill="#333333"/>
<path d="M174 102C174 108.075 169.075 113 163 113C156.925 113 152 108.075 152 102C152 95.9249 156.925 91 163 91C169.075 91 174 95.9249 174 102Z" fill="#D87A3D"/>
<path fill-rule="evenodd" clip-rule="evenodd" d="M163 110C167.418 110 171 106.418 171 102C171 97.5817 167.418 94 163 94C158.582 94 155 97.5817 155 102C155 106.418 158.582 110 163 110ZM163 113C169.075 113 174 108.075 174 102C174 95.9249 169.075 91 163 91C156.925 91 152 95.9249 152 102C152 108.075 156.925 113 163 113Z" fill="#333333"/>
<path opacity="0.5" d="M163.374 96.004L163.268 96.0268C162.12 96.2754 162.051 97.8881 163.175 98.2333L164.52 98.6465C164.659 98.6894 164.793 98.7482 164.92 98.8217L165.45 99.1308C166.401 99.6855 167.483 98.6459 166.967 97.6733C166.278 96.375 164.81 95.693 163.374 96.004Z" fill="white"/>
<path opacity="0.5" d="M115.299 143.338L115.191 143.349C114.022 143.471 113.778 145.066 114.857 145.532L116.148 146.09C116.282 146.148 116.409 146.222 116.527 146.308L117.019 146.674C117.904 147.329 119.094 146.414 118.687 145.391C118.145 144.025 116.76 143.187 115.299 143.338Z" fill="white"/>
<path fill-rule="evenodd" clip-rule="evenodd" d="M130.784 32.7755L100.284 83.2755L97.716 81.7245L128.216 31.2245L130.784 32.7755ZM53.7571 52.1818L74.2572 83.6818L71.7427 85.3182L51.2427 53.8182L53.7571 52.1818ZM153.534 104.5L109.534 105.5L109.466 102.5L153.466 101.5L153.534 104.5ZM42.4021 145.478L69.4021 116.478L71.5978 118.522L44.5978 147.522L42.4021 145.478ZM108.172 141.697L97.6718 121.697L100.328 120.303L110.828 140.303L108.172 141.697Z" fill="#333333"/>
<path opacity="0.5" d="M140.288 7.44931L138.067 7.64077C136.056 7.81415 135.539 10.5194 137.345 11.4222L140.612 13.0559C140.869 13.1846 141.107 13.3497 141.317 13.5461L143.75 15.8166C145.19 17.1603 147.5 15.8335 147.065 13.9128L146.655 12.1022C145.993 9.17836 143.275 7.19183 140.288 7.44931Z" fill="white"/>
<path opacity="0.6" d="M32.9859 148.588L32.7186 148.655C30.8938 149.111 30.6782 151.617 32.3983 152.379L33.9761 153.077C34.6951 153.395 35.3694 153.806 35.9816 154.299L36.9281 155.062C38.2621 156.137 40.2242 155.029 39.9927 153.332C39.5356 149.979 36.2681 147.767 32.9859 148.588Z" fill="white"/>
<path opacity="0.5" d="M48.2511 40.9549L48.8304 41.5097C49.7765 42.4159 51.3164 41.5082 50.9854 40.2406C50.4773 38.2944 48.5694 37.054 46.585 37.3816C45.3446 37.5864 45.0914 39.2591 46.2156 39.8218L47.6923 40.561C47.8972 40.6635 48.0856 40.7963 48.2511 40.9549Z" fill="white"/>
<path d="M49 82C49 79.7909 50.7909 78 53 78H121C123.209 78 125 79.7909 125 82V122C125 124.209 123.209 126 121 126H53C50.7909 126 49 124.209 49 122V82Z" fill="#E9E9E9"/>
<path fill-rule="evenodd" clip-rule="evenodd" d="M121 81H53C52.4477 81 52 81.4477 52 82V122C52 122.552 52.4477 123 53 123H121C121.552 123 122 122.552 122 122V82C122 81.4477 121.552 81 121 81ZM53 78C50.7909 78 49 79.7909 49 82V122C49 124.209 50.7909 126 53 126H121C123.209 126 125 124.209 125 122V82C125 79.7909 123.209 78 121 78H53Z" fill="#333333"/>
<path fill-rule="evenodd" clip-rule="evenodd" d="M83.5153 91.7027C84.6797 90.9079 86.0456 90.4858 87.4462 90.5004C88.8467 90.5149 90.204 90.9653 91.3527 91.7835C91.4143 91.8274 91.4724 91.8758 91.5267 91.9284L123.044 122.488C123.639 123.065 123.654 124.015 123.077 124.609C122.5 125.204 121.551 125.219 120.956 124.642L89.5262 94.1674C88.8853 93.7352 88.1545 93.5079 87.415 93.5002C86.6788 93.4925 85.9481 93.7026 85.3026 94.117L53.0387 125.082C52.441 125.656 51.4914 125.636 50.9178 125.039C50.3442 124.441 50.3637 123.491 50.9613 122.918L83.3223 91.8594C83.3822 91.8019 83.4468 91.7495 83.5153 91.7027Z" fill="#333333"/>
<path d="M122 81L89.5464 108.184C88.7956 108.715 87.8986 109 86.979 109C86.0594 109 85.1624 108.715 84.4116 108.184L52 81" fill="white"/>
<path fill-rule="evenodd" clip-rule="evenodd" d="M123.15 80.0368C123.682 80.6719 123.598 81.618 122.963 82.1499L90.5096 109.333C90.4783 109.36 90.446 109.385 90.4128 109.408C89.4087 110.118 88.209 110.5 86.979 110.5C85.7491 110.5 84.5494 110.118 83.5453 109.408C83.5118 109.384 83.4792 109.359 83.4477 109.333L51.0361 82.1493C50.4014 81.6169 50.3184 80.6708 50.8507 80.0361C51.3831 79.4013 52.3292 79.3184 52.9639 79.8507L85.3235 106.991C85.8115 107.322 86.3882 107.5 86.979 107.5C87.57 107.5 88.1469 107.322 88.6349 106.99L121.037 79.8501C121.672 79.3181 122.618 79.4017 123.15 80.0368Z" fill="#333333"/>
</svg>
