<svg xmlns="http://www.w3.org/2000/svg" xmlns:xlink="http://www.w3.org/1999/xlink" width="543" height="79" viewBox="0 0 543 79"><defs><linearGradient id="a" x1="12.96%" x2="79.638%" y1="12.208%" y2="78.075%"><stop offset="0%" stop-color="#387EB8"/><stop offset="100%" stop-color="#366994"/></linearGradient><linearGradient id="b" x1="19.129%" x2="90.741%" y1="20.71%" y2="88.258%"><stop offset="0%" stop-color="#FFE052"/><stop offset="100%" stop-color="#FFC331"/></linearGradient><radialGradient id="c" cx="30.02%" cy="17.584%" r="141.819%" fx="30.02%" fy="17.584%" gradientTransform="matrix(.5329 0 0 1 .14 0)"><stop offset="0%" stop-color="#FFF"/><stop offset="50%" stop-color="#4C6B97"/><stop offset="100%" stop-color="#231F20"/></radialGradient><path id="d" d="M7.59 18.103l-7.102-4.1a.857.857 0 0 1-.429-.741V5.058c0-.306.165-.59.43-.743L7.59.214a.859.859 0 0 1 .858 0l7.1 4.1c.266.154.43.437.43.744v8.204c0 .306-.165.59-.43.742l-7.101 4.099a.859.859 0 0 1-.857 0"/><linearGradient id="e" x1="-4418.47%" x2="5323.229%" y1="16.568%" y2="16.568%"><stop offset="0%" stop-color="#9BB48F"/><stop offset="9.192%" stop-color="#9BB48F"/><stop offset="30.263%" stop-color="#9BB48F"/><stop offset="86.244%" stop-color="#687E67"/><stop offset="100%" stop-color="#687E67"/></linearGradient><path id="g" d="M7.59 18.103l-7.102-4.1a.857.857 0 0 1-.429-.741V5.058c0-.306.165-.59.43-.743L7.59.214a.859.859 0 0 1 .858 0l7.1 4.1c.266.154.43.437.43.744v8.204c0 .306-.165.59-.43.742l-7.101 4.099a.859.859 0 0 1-.857 0"/><linearGradient id="h" x1="-9713.77%" x2="27.929%" y1="31.987%" y2="31.987%"><stop offset="0%" stop-color="#9BB48F"/><stop offset="9.192%" stop-color="#9BB48F"/><stop offset="30.263%" stop-color="#9BB48F"/><stop offset="86.244%" stop-color="#687E67"/><stop offset="100%" stop-color="#687E67"/></linearGradient><linearGradient id="j" x1="68.141%" x2="27.833%" y1="75.105%" y2="19.338%"><stop offset="0%" stop-color="#687E67"/><stop offset="52.88%" stop-color="#687E67"/><stop offset="100%" stop-color="#83A178"/></linearGradient><linearGradient id="k" x1="43.204%" x2="159.268%" y1="46.162%" y2="100.196%"><stop offset="0%" stop-color="#687E67"/><stop offset="13.756%" stop-color="#687E67"/><stop offset="69.737%" stop-color="#9BB48F"/><stop offset="90.808%" stop-color="#9BB48F"/><stop offset="100%" stop-color="#9BB48F"/></linearGradient><linearGradient id="l" x1="-4.533%" x2="101.719%" y1="49.998%" y2="49.998%"><stop offset="0%" stop-color="#9BB48F"/><stop offset="9.192%" stop-color="#9BB48F"/><stop offset="30.263%" stop-color="#9BB48F"/><stop offset="86.244%" stop-color="#687E67"/><stop offset="100%" stop-color="#687E67"/></linearGradient><path id="m" d="M7.59 18.103l-7.102-4.1a.857.857 0 0 1-.429-.741V5.058c0-.306.165-.59.43-.743L7.59.214a.859.859 0 0 1 .858 0l7.1 4.1c.266.154.43.437.43.744v8.204c0 .306-.165.59-.43.742l-7.101 4.099a.859.859 0 0 1-.857 0"/><linearGradient id="n" x1="-103.698%" x2="100.586%" y1="49.999%" y2="49.999%"><stop offset="0%" stop-color="#9BB48F"/><stop offset="9.192%" stop-color="#9BB48F"/><stop offset="30.263%" stop-color="#9BB48F"/><stop offset="86.244%" stop-color="#687E67"/><stop offset="100%" stop-color="#687E67"/></linearGradient><path id="p" d="M7.59 18.103l-7.102-4.1a.857.857 0 0 1-.429-.741V5.058c0-.306.165-.59.43-.743L7.59.214a.859.859 0 0 1 .858 0l7.1 4.1c.266.154.43.437.43.744v8.204c0 .306-.165.59-.43.742l-7.101 4.099a.859.859 0 0 1-.857 0"/><linearGradient id="q" x1="81.236%" x2="32.256%" y1="311.036%" y2="-101.153%"><stop offset="0%" stop-color="#687E67"/><stop offset="52.88%" stop-color="#687E67"/><stop offset="100%" stop-color="#83A178"/></linearGradient><linearGradient id="s" x1="84.695%" x2="58.241%" y1="111.399%" y2="64.584%"><stop offset="0%" stop-color="#FB7655"/><stop offset="0%" stop-color="#FB7655"/><stop offset="41%" stop-color="#E42B1E"/><stop offset="99%" stop-color="#900"/><stop offset="100%" stop-color="#900"/></linearGradient><linearGradient id="t" x1="116.651%" x2="1.746%" y1="53.17%" y2="41.06%"><stop offset="0%" stop-color="#871101"/><stop offset="0%" stop-color="#871101"/><stop offset="99%" stop-color="#911209"/><stop offset="100%" stop-color="#911209"/></linearGradient><linearGradient id="u" x1="50.352%" x2="49.85%" y1="219.327%" y2="7.829%"><stop offset="0%" stop-color="#871101"/><stop offset="0%" stop-color="#871101"/><stop offset="99%" stop-color="#911209"/><stop offset="100%" stop-color="#911209"/></linearGradient><linearGradient id="v" x1="50.012%" x2="66.483%" y1="30.704%" y2="63.146%"><stop offset="0%" stop-color="#FFF"/><stop offset="0%" stop-color="#FFF"/><stop offset="23%" stop-color="#E57252"/><stop offset="46%" stop-color="#DE3B20"/><stop offset="99%" stop-color="#A60003"/><stop offset="100%" stop-color="#A60003"/></linearGradient><linearGradient id="w" x1="46.174%" x2="49.932%" y1="17.289%" y2="82.123%"><stop offset="0%" stop-color="#FFF"/><stop offset="0%" stop-color="#FFF"/><stop offset="23%" stop-color="#E4714E"/><stop offset="56%" stop-color="#BE1A0D"/><stop offset="99%" stop-color="#A80D00"/><stop offset="100%" stop-color="#A80D00"/></linearGradient><linearGradient id="x" x1="43.536%" x2="49.766%" y1="15.594%" y2="92.478%"><stop offset="0%" stop-color="#FFF"/><stop offset="0%" stop-color="#FFF"/><stop offset="18%" stop-color="#E46342"/><stop offset="40%" stop-color="#C82410"/><stop offset="99%" stop-color="#A80D00"/><stop offset="100%" stop-color="#A80D00"/></linearGradient><linearGradient id="y" x1="45.71%" x2="54.216%" y1="58.346%" y2="-46.717%"><stop offset="0%" stop-color="#FFF"/><stop offset="0%" stop-color="#FFF"/><stop offset="54%" stop-color="#C81F11"/><stop offset="99%" stop-color="#BF0905"/><stop offset="100%" stop-color="#BF0905"/></linearGradient><linearGradient id="z" x1="27.624%" x2="50.745%" y1="48.192%" y2="51.82%"><stop offset="0%" stop-color="#FFF"/><stop offset="0%" stop-color="#FFF"/><stop offset="31%" stop-color="#DE4024"/><stop offset="99%" stop-color="#BF190B"/><stop offset="100%" stop-color="#BF190B"/></linearGradient><linearGradient id="A" x1="-20.468%" x2="104.089%" y1="122.282%" y2="-6.342%"><stop offset="0%" stop-color="#BD0012"/><stop offset="0%" stop-color="#BD0012"/><stop offset="7%" stop-color="#FFF"/><stop offset="17%" stop-color="#FFF"/><stop offset="27%" stop-color="#C82F1C"/><stop offset="33%" stop-color="#820C01"/><stop offset="46%" stop-color="#A31601"/><stop offset="72%" stop-color="#B31301"/><stop offset="99%" stop-color="#E82609"/><stop offset="100%" stop-color="#E82609"/></linearGradient><linearGradient id="B" x1="55.166%" x2="27.651%" y1="65.205%" y2="50.128%"><stop offset="0%" stop-color="#8C0C01"/><stop offset="0%" stop-color="#8C0C01"/><stop offset="54%" stop-color="#990C00"/><stop offset="99%" stop-color="#A80D0E"/><stop offset="100%" stop-color="#A80D0E"/></linearGradient><linearGradient id="C" x1="79.319%" x2="23.088%" y1="60.107%" y2="24.553%"><stop offset="0%" stop-color="#7E110B"/><stop offset="0%" stop-color="#7E110B"/><stop offset="99%" stop-color="#9E0C00"/><stop offset="100%" stop-color="#9E0C00"/></linearGradient><linearGradient id="D" x1="92.88%" x2="59.841%" y1="72.9%" y2="40.226%"><stop offset="0%" stop-color="#79130D"/><stop offset="0%" stop-color="#79130D"/><stop offset="99%" stop-color="#9E120B"/><stop offset="100%" stop-color="#9E120B"/></linearGradient><radialGradient id="E" cx="32.001%" cy="40.21%" r="69.573%" fx="32.001%" fy="40.21%" gradientTransform="matrix(.52261 0 0 1 .153 0)"><stop offset="0%" stop-color="#A80D00"/><stop offset="0%" stop-color="#A80D00"/><stop offset="99%" stop-color="#7E0E08"/><stop offset="100%" stop-color="#7E0E08"/></radialGradient><radialGradient id="F" cx="13.549%" cy="40.86%" r="88.386%" fx="13.549%" fy="40.86%" gradientTransform="matrix(.77842 0 0 1 .03 0)"><stop offset="0%" stop-color="#A30C00"/><stop offset="0%" stop-color="#A30C00"/><stop offset="99%" stop-color="#800E08"/><stop offset="100%" stop-color="#800E08"/></radialGradient><linearGradient id="G" x1="56.57%" x2="3.105%" y1="62.655%" y2="40.7%"><stop offset="0%" stop-color="#8B2114"/><stop offset="0%" stop-color="#8B2114"/><stop offset="43%" stop-color="#9E100A"/><stop offset="99%" stop-color="#B3100C"/><stop offset="100%" stop-color="#B3100C"/></linearGradient><linearGradient id="H" x1="46.662%" x2="57.412%" y1="35.599%" y2="100.694%"><stop offset="0%" stop-color="#B31000"/><stop offset="0%" stop-color="#B31000"/><stop offset="44%" stop-color="#910F08"/><stop offset="99%" stop-color="#791C12"/><stop offset="100%" stop-color="#791C12"/></linearGradient></defs><g fill="none" fill-rule="evenodd"><g fill="#C00" fill-rule="nonzero"><path d="M111.325 63.12V69h10.63c2.177 0 5.915-1.592 6.045-6.042v-2.274c0-3.801-3.12-6.043-6.046-6.043h-5.298v-2.729h10.499V46h-10.077c-2.6 0-6.078 2.144-6.078 6.14v2.046c0 3.996 3.446 6.043 6.078 6.043 7.314.032-1.755 0 5.006 0v2.859l-10.759.032zm-56.619-1.378s5.724-.484 5.724-7.774S53.495 46 53.495 46H41v23h6.28v-5.548L52.71 69H62l-7.294-7.258zM51.66 57H47v-5h4.69s1.31.49 1.31 2.485C53 56.479 51.66 57 51.66 57zm23.435-11h-6.19C64.492 46 63 50.093 63 52.042V69h6.19v-4.06H75V69h6V52.042C81 47.105 76.619 46 75.095 46zM75 58h-6v-5.712S69 51 70.99 51h2.184c1.76 0 1.793 1.288 1.793 1.288V58H75zm10-12h7v23h-7V46zm15.379 17.055V46H94v23h15v-5.945h-8.621z"/><path d="M2 69h25.519S22.64 46.594 38.792 37.52c3.521-1.723 14.73-8.162 33.077 5.497.582-.488 1.131-.878 1.131-.878S56.203 25.26 37.5 27.147c-9.4.846-20.964 9.463-27.747 20.845C2.969 59.374 2 69 2 69z"/><path d="M2 69h25.519S22.64 46.594 38.792 37.52c3.521-1.723 14.73-8.162 33.077 5.497.582-.488 1.131-.878 1.131-.878S56.203 25.26 37.5 27.147c-9.4.846-20.964 9.463-27.747 20.845C2.969 59.374 2 69 2 69z"/><path d="M2 69h25.519S22.64 46.594 38.792 37.52c3.521-1.723 14.73-8.162 33.077 5.497.582-.488 1.131-.878 1.131-.878S56.203 25.26 37.5 27.147c-9.432.846-20.996 9.463-27.78 20.845C2.937 59.374 2 69 2 69zm52.881-40L55 27.03c-.267-.148-1.01-.5-2.881-1.03L52 27.941c.98.324 1.93.677 2.881 1.059z"/><path d="M52.117 36L52 37.68c.961.027 1.922.133 2.883.32L55 36.347A22.431 22.431 0 0 0 52.117 36zM40.655 25.877H41L40.31 24a30.81 30.81 0 0 0-3.31.185L37.655 26c1-.092 2-.123 3-.123zM42 37.95l.836 2.05A26.222 26.222 0 0 1 46 38.96L45.2 37c-1.236.297-2.29.624-3.2.95zm-15-8.508L25.537 27c-.86.483-1.706.99-2.537 1.522L24.496 31c.845-.566 1.658-1.097 2.504-1.558zm7 14.486L35.346 46c.476-.72 1.037-1.381 1.654-2.043L35.738 42A15.77 15.77 0 0 0 34 43.928zm-5 10.865L31.382 57c.118-1.345.324-2.69.618-4.034L29.882 51c-.382 1.276-.647 2.552-.882 3.793zM15 39.199L12.552 37A60.663 60.663 0 0 0 10 39.66L12.655 42A35.656 35.656 0 0 1 15 39.199zM5 53.296L1.515 52C.94 53.327.303 54.87 0 55.704L3.485 57c.394-1.05 1.03-2.562 1.515-3.704zM29 62c.06 1.568.212 2.84.364 3.728L33 67a38.273 38.273 0 0 1-.727-3.846L29 62z"/></g><path fill="#5382A1" fill-rule="nonzero" d="M384.277 53s-2.605 1.614 1.854 2.16c5.403.657 8.164.563 14.118-.638 0 0 1.565 1.046 3.751 1.951-13.346 6.094-30.206-.353-19.723-3.473m-1.64-7s-2.896 2.35 1.527 2.852c5.72.647 10.238.7 18.055-.95 0 0 1.08 1.202 2.781 1.859-15.994 5.128-33.81.404-22.363-3.761"/><path fill="#E76F00" fill-rule="nonzero" d="M396.975 32.77c3.243 3.805-.852 7.23-.852 7.23s8.235-4.333 4.453-9.758c-3.532-5.06-6.241-7.574 8.424-16.242 0 0-23.02 5.86-12.025 18.77"/><path fill="#5382A1" fill-rule="nonzero" d="M414.665 58.557s1.958 1.533-2.155 2.72c-7.822 2.253-32.554 2.933-39.424.09-2.47-1.022 2.161-2.44 3.618-2.737 1.52-.314 2.388-.255 2.388-.255-2.747-1.84-17.753 3.612-7.622 5.174 27.627 4.26 50.361-1.918 43.195-4.992m-28.432-20.546s-12.662 2.943-4.484 4.012c3.454.452 10.337.35 16.75-.176 5.24-.432 10.501-1.352 10.501-1.352s-1.848.774-3.185 1.667c-12.858 3.31-37.697 1.77-30.546-1.615 6.047-2.86 10.964-2.536 10.964-2.536m22.028 12.639c12.986-6.934 6.982-13.599 2.79-12.7-1.026.219-1.484.41-1.484.41s.381-.615 1.11-.88c8.29-2.996 14.666 8.834-2.677 13.52 0 0 .2-.184.261-.35"/><path fill="#E76F00" fill-rule="nonzero" d="M400.139 0s7.254 7.2-6.88 18.27c-11.335 8.881-2.585 13.945-.005 19.73-6.616-5.922-11.472-11.136-8.214-15.988 4.78-7.123 18.026-10.576 15.099-22.012"/><path fill="#5382A1" fill-rule="nonzero" d="M386.822 68.768c12.51.851 31.723-.473 32.178-6.768 0 0-.875 2.386-10.34 4.282-10.678 2.137-23.849 1.887-31.66.518 0 0 1.6 1.407 9.822 1.968"/><path fill="url(#a)" fill-rule="nonzero" d="M333.139 11c-17.46 0-16.369 7.554-16.369 7.554l.02 7.827h16.66v2.35h-23.278S299 27.466 299 45.043c0 17.578 9.751 16.954 9.751 16.954h5.82v-8.156s-.314-9.73 9.595-9.73h16.525s9.284.15 9.284-8.952V20.108S351.385 11 333.139 11zM324 16c1.66 0 3 1.34 3 3s-1.34 3-3 3-3-1.34-3-3 1.34-3 3-3z"/><path fill="url(#b)" fill-rule="nonzero" d="M333.861 79c17.46 0 16.369-7.554 16.369-7.554l-.02-7.827h-16.66v-2.35h23.278S368 62.534 368 44.957c0-17.578-9.751-16.954-9.751-16.954h-5.82v8.156s.314 9.73-9.595 9.73h-16.525s-9.284-.15-9.284 8.952v15.051S315.615 79 333.861 79zM343 74c-1.66 0-3-1.34-3-3s1.34-3 3-3 3 1.34 3 3-1.34 3-3 3z"/><g fill-rule="nonzero" transform="translate(210.811 22.642)"><ellipse cx="43.774" cy="23.327" fill="url(#c)" rx="43.774" ry="23.327"/><ellipse cx="43.774" cy="23.327" fill="#6181B6" rx="42.064" ry="21.594"/><path fill="#FFF" d="M52.289 30.328l2.086-10.883c.479-2.461.068-4.298-1.163-5.442-1.197-1.11-3.249-1.664-6.258-1.664h-3.625l1.026-5.407a.732.732 0 0 0-.137-.589.612.612 0 0 0-.513-.243h-4.993a.701.701 0 0 0-.684.555l-2.223 11.542c-.205-1.317-.684-2.426-1.504-3.327-1.47-1.699-3.762-2.565-6.874-2.565h-9.61a.701.701 0 0 0-.684.554l-4.48 23.431a.732.732 0 0 0 .137.59c.121.16.313.25.513.242h5.027c.33 0 .615-.232.684-.555l1.094-5.65h3.728c1.95 0 3.625-.207 4.89-.623a9.672 9.672 0 0 0 3.591-2.184 11.167 11.167 0 0 0 2.12-2.669l-.889 4.68a.732.732 0 0 0 .137.589c.121.16.313.25.513.242h4.993c.33 0 .615-.231.684-.554l2.462-12.825h3.42c1.47 0 1.881.277 2.018.416.102.104.308.52.068 1.802L45.86 30.155a.732.732 0 0 0 .136.59c.121.16.313.25.513.242h5.13c.308-.104.582-.347.65-.659zM29.17 21.317c-.308 1.629-.89 2.807-1.744 3.466-.855.658-2.257 1.005-4.104 1.005H21.1l1.608-8.388h2.872c2.12 0 2.975.45 3.317.832.445.554.548 1.629.274 3.085h-.001zm44.459-6.447c-1.471-1.699-3.762-2.565-6.874-2.565h-9.678a.701.701 0 0 0-.684.554l-4.48 23.396a.732.732 0 0 0 .137.59c.121.16.313.25.513.242h5.027c.33 0 .615-.231.684-.554l1.094-5.65h3.728c1.949 0 3.625-.208 4.89-.624a9.672 9.672 0 0 0 3.59-2.184c.89-.831 1.642-1.767 2.19-2.772.566-1.042.97-2.164 1.196-3.328.582-3.015.137-5.372-1.333-7.105zm-5.233 6.447c-.308 1.629-.889 2.807-1.744 3.466-.855.658-2.257 1.005-4.104 1.005h-2.223l1.608-8.388h2.872c2.12 0 2.976.45 3.318.832.478.554.581 1.629.273 3.085z"/><path fill="#000004" d="M25.58 16.707c1.915 0 3.18.346 3.83 1.074.65.728.787 1.941.445 3.674-.342 1.803-1.026 3.12-2.018 3.882-.991.763-2.496 1.144-4.514 1.144H20.28l1.881-9.774h3.42-.001zM13.337 36.394h5.027l1.197-6.204h4.31c1.914 0 3.453-.208 4.684-.624 1.232-.416 2.326-1.075 3.352-2.045a10.379 10.379 0 0 0 2.052-2.6 10.19 10.19 0 0 0 1.094-3.12c.547-2.772.137-4.921-1.197-6.48-1.334-1.56-3.454-2.323-6.36-2.323h-9.679l-4.48 23.396zm25.409-29.6h4.993l-1.197 6.204h4.446c2.804 0 4.72.485 5.78 1.49 1.06 1.006 1.368 2.6.957 4.818L51.64 30.19h-5.061l1.983-10.364c.24-1.178.137-1.976-.24-2.391-.375-.416-1.23-.659-2.496-.659h-4L39.258 30.19h-4.992l4.48-23.396zm26.059 9.913c1.916 0 3.18.346 3.83 1.074.65.728.787 1.941.445 3.674-.342 1.803-1.026 3.12-2.018 3.882-.991.763-2.496 1.144-4.514 1.144h-3.043l1.88-9.774h3.42zM52.562 36.394h5.028l1.197-6.204h4.309c1.915 0 3.454-.208 4.685-.624 1.23-.416 2.325-1.075 3.351-2.045a10.379 10.379 0 0 0 2.052-2.6c.513-.936.89-1.975 1.094-3.12.547-2.772.137-4.921-1.197-6.48-1.333-1.56-3.454-2.323-6.36-2.323h-9.679l-4.48 23.396z"/></g><path fill="#000" fill-rule="nonzero" d="M208.001 26.338c0-.151-.03-.272-.12-.363-.09-.09-.27-.12-.51-.12h-.33v.967h.42c.36 0 .54-.181.54-.484zm.54 1.996h-.48l-.3-.665c-.15-.333-.33-.514-.51-.514h-.24v1.18h-.39v-2.783h.78c.36 0 .6.09.78.242.15.12.24.302.24.514a.69.69 0 0 1-.18.484.93.93 0 0 1-.51.272c.15.03.3.212.45.514l.36.756zm.87-1.391c0-.544-.18-1.028-.57-1.391a1.872 1.872 0 0 0-1.35-.545c-.54 0-1.02.182-1.38.545-.359.363-.539.847-.539 1.391s.18 1.028.57 1.391c.36.363.84.545 1.35.545.54 0 .99-.182 1.35-.575.36-.333.57-.786.57-1.361zm.24 0c0 .605-.21 1.15-.63 1.542-.42.424-.93.635-1.56.635a2.19 2.19 0 0 1-1.559-.604 2.109 2.109 0 0 1-.63-1.543c0-.605.21-1.119.63-1.542.42-.424.93-.635 1.56-.635.6 0 1.11.211 1.53.605.45.393.66.907.66 1.542zm-59.205 7.772h-1.35v-7.742c0-.605.03-1.36.12-2.238h-.03a9.23 9.23 0 0 1-.33 1.12l-3.9 8.86h-.659l-3.899-8.8c-.12-.242-.24-.635-.33-1.18h-.03c.03.454.06 1.21.06 2.238v7.742h-1.29V23.163h1.77l3.51 8.044c.27.605.45 1.059.51 1.391h.06c.24-.635.42-1.119.54-1.421l3.598-8.014h1.68l-.03 11.552zm4.14 0h-1.32V26.49h1.32v8.226-.001zm.21-11.19c0 .243-.09.454-.24.605-.15.182-.36.242-.6.242s-.45-.09-.6-.242c-.18-.15-.24-.362-.24-.635a.85.85 0 0 1 .24-.605c.18-.15.36-.241.6-.241s.45.09.6.241c.15.212.24.394.24.636v-.001zm7.947 10.827c-.63.394-1.38.575-2.25.575-1.17 0-2.13-.393-2.85-1.18-.689-.755-1.049-1.753-1.049-2.933 0-1.36.39-2.45 1.17-3.266.78-.847 1.8-1.24 3.09-1.24.72 0 1.35.151 1.89.423v1.361a3.335 3.335 0 0 0-1.95-.635c-.84 0-1.5.303-2.04.877-.54.605-.81 1.391-.81 2.39 0 .967.24 1.723.75 2.268.51.544 1.17.846 2.01.846.72 0 1.38-.242 2.01-.695l.03 1.21v-.001zm6.238-6.532c-.24-.181-.57-.272-.99-.272-.54 0-.99.242-1.35.726-.42.544-.6 1.3-.6 2.238v4.203h-1.319V26.49h1.32v1.694h.03c.18-.605.48-1.059.9-1.391.36-.303.78-.454 1.26-.454.36 0 .6.03.78.121l-.03 1.361v-.001zm7.288 2.813c0-1.059-.24-1.875-.72-2.42-.45-.544-1.11-.786-1.92-.786-.809 0-1.469.272-1.949.816-.51.575-.78 1.392-.78 2.45 0 .998.24 1.754.75 2.299.48.544 1.17.846 1.98.846.87 0 1.53-.272 1.98-.846.42-.575.66-1.361.66-2.36v.001zm1.32-.061c0 1.3-.36 2.359-1.11 3.145-.75.787-1.74 1.18-2.97 1.18-1.229 0-2.189-.393-2.908-1.18-.69-.756-1.05-1.784-1.05-3.024 0-1.421.39-2.54 1.2-3.327.75-.725 1.74-1.088 2.97-1.088 1.23 0 2.16.393 2.85 1.149.688.756 1.018 1.814 1.018 3.145zm6.508 1.966c0 .665-.24 1.24-.75 1.693-.54.484-1.29.726-2.249.726-.78 0-1.44-.15-2.04-.484v-1.421c.63.514 1.35.786 2.13.786 1.05 0 1.56-.393 1.56-1.149 0-.333-.12-.575-.33-.786-.24-.212-.69-.454-1.35-.756-.69-.303-1.17-.605-1.47-.938-.36-.393-.51-.877-.51-1.482 0-.695.27-1.24.81-1.693.54-.454 1.23-.696 2.07-.696.66 0 1.23.121 1.74.393v1.331c-.54-.393-1.17-.575-1.86-.575-.42 0-.78.121-1.05.333a.978.978 0 0 0-.39.817c0 .362.12.635.33.846.18.182.6.424 1.23.696.69.302 1.2.605 1.5.907.42.333.63.817.63 1.452zm7.978-1.905c0-1.059-.24-1.875-.72-2.42-.45-.544-1.11-.786-1.919-.786-.81 0-1.47.272-1.95.816-.51.575-.78 1.392-.78 2.45 0 .998.24 1.754.75 2.299.51.544 1.17.846 1.98.846.87 0 1.53-.272 1.98-.846.45-.575.66-1.361.66-2.36v.001zm1.35-.061c0 1.3-.36 2.359-1.11 3.145-.72.787-1.71 1.18-2.969 1.18-1.23 0-2.22-.393-2.91-1.18-.69-.756-1.049-1.784-1.049-3.024 0-1.421.39-2.54 1.2-3.327.75-.725 1.74-1.088 2.97-1.088 1.23 0 2.16.393 2.85 1.149s1.018 1.814 1.018 3.145zm5.76-6.895a1.688 1.688 0 0 0-.87-.212c-.93 0-1.38.575-1.38 1.754v1.27h1.92v1.12h-1.92v7.137h-1.32v-7.138h-1.38V26.49h1.38v-1.33c0-.908.27-1.633.84-2.117.48-.454 1.08-.666 1.77-.666.39 0 .72.06.96.152v1.149-.001zm5.187 10.978c-.3.181-.72.272-1.23.272-1.439 0-2.129-.816-2.129-2.42V27.64h-1.41v-1.12h1.41v-1.995c.42-.121.84-.273 1.32-.424v2.45h2.07v1.119h-2.07v4.657c0 .545.09.938.27 1.18.18.242.51.363.93.363.33 0 .6-.091.84-.273v1.059-.001zM133.65 66.894c0 .635-.24 1.21-.69 1.663-.449.484-1.019.696-1.679.696-.63 0-1.2-.242-1.62-.696a2.34 2.34 0 0 1-.66-1.663c0-.666.21-1.21.66-1.694.45-.454.99-.696 1.62-.696.66 0 1.2.242 1.68.696.45.484.69 1.058.69 1.694zm29.274 1.905h-4.26l-15.476-24.104a11.2 11.2 0 0 1-.93-1.905h-.12c.12.635.18 2.026.18 4.143V68.8h-3.509V38.556h4.56l15.026 23.74c.6.938 1.02 1.604 1.2 2.027h.09c-.15-.877-.21-2.359-.21-4.446v-21.32h3.51l-.06 30.242zm22.554 0h-15.896V38.556h15.206v3.206H173.09v10.07h10.827v3.206H173.09v10.585h12.387v3.176zm24.114-27.067h-8.638v27.037h-3.509V41.732h-8.668v-3.206h20.815v3.206z"/><g transform="matrix(1 0 0 -1 438.716 51.915)"><mask id="f" fill="#fff"><use xlink:href="#d"/></mask><path fill="url(#e)" fill-rule="nonzero" mask="url(#f)" d="M7.662 19.781l-.398-.227h.531z"/></g><g transform="matrix(1 0 0 -1 438.716 51.915)"><mask id="i" fill="#fff"><use xlink:href="#g"/></mask><path fill="url(#h)" fill-rule="nonzero" mask="url(#i)" d="M16.375 4.57l-.192.325v-.439l.192.112z"/></g><path fill="#689F63" fill-rule="nonzero" d="M456.07 68.93c-.248 0-.492-.065-.707-.189l-2.249-1.33c-.334-.188-.17-.254-.06-.292.448-.157.539-.192 1.018-.464.049-.027.115-.016.167.014l1.726 1.024c.064.036.151.036.209 0l6.734-3.886a.213.213 0 0 0 .103-.183v-7.77a.217.217 0 0 0-.105-.187l-6.73-3.882a.211.211 0 0 0-.208 0l-6.73 3.884a.217.217 0 0 0-.106.185v7.77c0 .076.04.146.105.181l1.845 1.066c1.001.5 1.614-.09 1.614-.682v-7.673c0-.108.088-.193.196-.193h.853c.107 0 .196.085.196.193v7.673c0 1.336-.727 2.103-1.994 2.103-.39 0-.696 0-1.55-.421l-1.767-1.018a1.422 1.422 0 0 1-.707-1.229v-7.77c0-.505.27-.977.707-1.228l6.733-3.892c.426-.24.993-.24 1.416 0l6.733 3.892c.437.253.708.723.708 1.228v7.77c0 .506-.271.975-.708 1.229l-6.733 3.888c-.216.124-.46.19-.71.19"/><path fill="#689F63" fill-rule="nonzero" d="M458.15 63.576c-2.947 0-3.564-1.352-3.564-2.488 0-.107.086-.193.195-.193h.87c.096 0 .179.069.192.165.133.886.526 1.334 2.307 1.334 1.418 0 2.023-.32 2.023-1.074 0-.435-.171-.755-2.377-.972-1.841-.183-2.981-.59-2.981-2.063 0-1.359 1.145-2.17 3.065-2.17 2.157 0 3.226.75 3.36 2.355a.197.197 0 0 1-.05.151.199.199 0 0 1-.143.062h-.875a.193.193 0 0 1-.188-.152c-.21-.933-.72-1.23-2.104-1.23-1.55 0-1.728.539-1.728.943 0 .49.211.631 2.304.91 2.068.274 3.051.66 3.051 2.114 0 1.468-1.223 2.308-3.357 2.308zm8.2-8.24h.226c.185 0 .22-.13.22-.205 0-.2-.137-.2-.213-.2h-.233v.406zm-.274-.638h.5c.172 0 .508 0 .508.384 0 .268-.17.323-.275.358.2.013.214.144.242.329.013.116.034.315.075.384h-.308c-.009-.069-.055-.44-.055-.46-.02-.082-.05-.123-.151-.123h-.255v.584h-.281v-1.456zm-.601.724c0 .605.487 1.093 1.083 1.093a1.097 1.097 0 0 0 1.093-1.093 1.089 1.089 0 0 0-2.176 0zm2.386.004c0 .713-.584 1.297-1.298 1.297a1.298 1.298 0 1 1 1.299-1.297z"/><path fill="#333" fill-rule="nonzero" d="M435.217 38.526a.861.861 0 0 0-.432-.75l-7.14-4.11a.84.84 0 0 0-.392-.113h-.074a.85.85 0 0 0-.395.114l-7.14 4.109a.864.864 0 0 0-.43.748l.015 11.065c0 .154.08.296.215.372.132.079.297.079.428 0l4.243-2.43a.87.87 0 0 0 .432-.748v-5.169a.86.86 0 0 1 .431-.746l1.806-1.04a.859.859 0 0 1 .861 0l1.807 1.04a.86.86 0 0 1 .432.746v5.17c0 .306.164.59.432.748l4.241 2.429a.43.43 0 1 0 .645-.373l.014-11.064.001.002zm33.69 5.76a.217.217 0 0 1-.108.186l-2.452 1.413a.217.217 0 0 1-.215 0l-2.452-1.413a.215.215 0 0 1-.109-.186v-2.832c0-.077.042-.148.109-.187l2.452-1.416a.215.215 0 0 1 .215 0l2.452 1.416c.068.039.109.11.109.187v2.832h-.002zm.664-20.97a.432.432 0 0 0-.641.376V34.65a.302.302 0 0 1-.453.26l-1.788-1.03a.863.863 0 0 0-.862 0l-7.142 4.122a.863.863 0 0 0-.432.747v8.245c0 .309.165.594.432.748l7.142 4.125a.864.864 0 0 0 .863 0l7.142-4.125a.864.864 0 0 0 .432-.748V26.441a.863.863 0 0 0-.443-.755l-4.25-2.37zm23.782 18.064a.863.863 0 0 0 .43-.746v-1.999a.863.863 0 0 0-.43-.744l-7.098-4.121a.863.863 0 0 0-.864 0l-7.14 4.12a.863.863 0 0 0-.432.747v8.243c0 .31.168.597.436.75l7.096 4.044c.26.15.582.15.845.004l4.292-2.387a.43.43 0 0 0 .006-.75l-7.186-4.124a.43.43 0 0 1-.216-.374v-2.582c0-.155.083-.298.216-.375l2.235-1.289a.43.43 0 0 1 .43 0l2.239 1.29c.133.076.215.219.215.374v2.032a.432.432 0 0 0 .649.373l4.276-2.486h.001z"/><path fill="#689F63" fill-rule="nonzero" d="M485.72 40.994c.05-.03.114-.03.165 0l1.371.79c.051.03.083.085.082.144v1.583a.165.165 0 0 1-.082.142l-1.371.792a.165.165 0 0 1-.165 0l-1.371-.792a.165.165 0 0 1-.083-.142v-1.584c0-.06.031-.114.083-.144l1.371-.79v.001z"/><path fill="url(#j)" fill-rule="nonzero" d="M7.59 18.103l-7.102-4.1a.857.857 0 0 1-.429-.741V5.058c0-.306.165-.59.43-.743L7.59.214a.859.859 0 0 1 .858 0l7.1 4.1c.266.154.43.437.43.744v8.204c0 .306-.165.59-.43.742l-7.101 4.099a.857.857 0 0 1-.857 0" transform="matrix(1 0 0 -1 438.716 51.915)"/><path fill="url(#k)" fill-rule="nonzero" d="M.069 4.537a.859.859 0 0 1 .25-.222L6.414.797 7.428.213A.864.864 0 0 1 8.09.132l7.49 13.714a.853.853 0 0 1-.2.158l-4.65 2.686-2.458 1.413a.857.857 0 0 1-.223.089L.069 4.537z" transform="matrix(1 0 0 -1 438.884 51.915)"/><path fill="url(#l)" fill-rule="nonzero" d="M7.428 18.213a.854.854 0 0 1-.343-.11L.003 14.016 7.639.107a.857.857 0 0 1 .306.106l7.1 4.102c.219.127.37.342.414.586L7.675 18.2a.845.845 0 0 1-.247.014" transform="matrix(1 0 0 -1 439.222 51.915)"/><g transform="matrix(1 0 0 -1 438.716 51.915)"><mask id="o" fill="#fff"><use xlink:href="#m"/></mask><path fill="url(#n)" fill-rule="nonzero" d="M15.567 4.316L8.457.21a.857.857 0 0 0-.313-.105l.142-.258 7.897 4.57v.11l-.196.332a.898.898 0 0 0-.42-.545" mask="url(#o)"/></g><g transform="matrix(1 0 0 -1 438.716 51.915)"><mask id="r" fill="#fff"><use xlink:href="#p"/></mask><path fill="url(#q)" fill-rule="nonzero" d="M15.567 4.316L8.457.21a.857.857 0 0 0-.313-.105l.142-.258 7.897 4.57v.11l-.196.332a.898.898 0 0 0-.42-.545" mask="url(#r)"/></g><g fill-rule="nonzero"><path fill="url(#s)" d="M36.63 31.495L9.636 47.525l34.953-2.372 2.693-35.244z" transform="translate(495 22)"/><path fill="url(#t)" d="M44.646 45.129l-3.004-20.734-8.183 10.804z" transform="translate(495 22)"/><path fill="url(#u)" d="M44.687 45.129l-22.01-1.728-12.924 4.08z" transform="translate(495 22)"/><path fill="url(#v)" d="M9.784 47.484l5.498-18.012-12.099 2.587z" transform="translate(495 22)"/><path fill="url(#w)" d="M33.458 35.259l-5.06-19.816L13.92 29.015z" transform="translate(495 22)"/><path fill="url(#x)" d="M46.133 15.722L32.448 4.545l-3.811 12.321z" transform="translate(495 22)"/><path fill="url(#y)" d="M39.733.558l-8.05 4.449L26.605.499z" transform="translate(495 22)"/><path fill="url(#z)" d="M0 38.1l3.372-6.15-2.727-7.323z" transform="translate(495 22)"/><path fill="#FFF" d="M495.464 46.393l2.745 7.785 11.923-2.676 13.614-12.653 3.841-12.202-6.049-4.272-10.284 3.849c-3.24 3.015-9.53 8.977-9.756 9.09-.225.114-4.152 7.539-6.034 11.079z"/><path fill="url(#A)" d="M10.1 10.41C17.122 3.445 26.175-.668 29.65 2.838c3.473 3.505-.21 12.024-7.232 18.985-7.023 6.96-15.965 11.303-19.438 7.797-3.474-3.504.096-12.25 7.12-19.21z" transform="translate(495 22)"/><path fill="url(#B)" d="M9.784 47.477l5.456-18.07 18.117 5.82c-6.55 6.143-13.836 11.336-23.572 12.25z" transform="translate(495 22)"/><path fill="url(#C)" d="M28.77 16.815l4.65 18.423c5.474-5.754 10.384-11.94 12.789-19.59L28.77 16.815z" transform="translate(495 22)"/><path fill="url(#D)" d="M46.163 15.741c1.86-5.617 2.29-13.677-6.488-15.172l-7.2 3.976 13.689 11.194-.002.002z" transform="translate(495 22)"/><path fill="#9E1209" d="M495 60.02c.258 9.27 6.947 9.41 9.795 9.491l-6.579-15.37L495 60.02z"/><path fill="url(#E)" d="M28.796 16.843c4.206 2.585 12.679 7.775 12.852 7.871.266.15 3.652-5.71 4.42-9.024l-17.272 1.153z" transform="translate(495 22)"/><path fill="url(#F)" d="M15.232 29.407l7.294 14.07c4.31-2.34 7.687-5.188 10.78-8.239l-18.075-5.83h.002z" transform="translate(495 22)"/><path fill="url(#G)" d="M3.186 32.16L2.152 44.463c1.95 2.664 4.633 2.895 7.446 2.687-2.035-5.066-6.102-15.195-6.412-14.992v.002z" transform="translate(495 22)"/><path fill="url(#H)" d="M32.43 4.578L46.919 6.61c-.774-3.276-3.149-5.39-7.196-6.052l-7.293 4.02z" transform="translate(495 22)"/></g></g></svg>
