<svg xmlns="http://www.w3.org/2000/svg" xmlns:xlink="http://www.w3.org/1999/xlink" viewBox="0 0 153 76"><defs><style>.cls-1,.cls-14,.cls-17,.cls-9{fill:none;}.cls-1{clip-rule:evenodd;}.cls-2{fill:#fff;}.cls-17,.cls-2,.cls-3,.cls-6,.cls-9{stroke:#333;stroke-width:2px;}.cls-2,.cls-3,.cls-6,.cls-9{stroke-linecap:round;stroke-linejoin:round;}.cls-3{fill:#ffde00;}.cls-4{opacity:0.26;}.cls-10,.cls-5,.cls-8{fill:#333;}.cls-6{fill:#e6e6e6;}.cls-7{opacity:0.6;}.cls-12,.cls-8{fill-rule:evenodd;}.cls-10{opacity:0.09;}.cls-11{opacity:0.95;}.cls-12{fill:url(#linear-gradient);}.cls-13{clip-path:url(#clip-path);}.cls-15{fill:#b4b4b4;opacity:0.66;}.cls-16{fill:url(#linear-gradient-2);}.cls-17{stroke-miterlimit:10;}</style><linearGradient id="linear-gradient" x1="80.58" y1="36.45" x2="84.99" y2="36.45" gradientUnits="userSpaceOnUse"><stop offset="0.01"/><stop offset="0.19" stop-color="#171717"/><stop offset="0.54" stop-color="#3c3c3c"/><stop offset="0.82" stop-color="#545454"/><stop offset="1" stop-color="#5c5c5c"/></linearGradient><clipPath id="clip-path"><path id="_Clipping_Path_" data-name="&lt;Clipping Path&gt;" class="cls-1" d="M82.91,34a.24.24,0,0,0-.24,0l-2,1.14a.24.24,0,0,0-.12.21v2.27a.24.24,0,0,0,.12.21l2,1.14a.24.24,0,0,0,.24,0l2-1.14a.24.24,0,0,0,.12-.21V35.31a.24.24,0,0,0-.12-.21Z"/></clipPath><linearGradient id="linear-gradient-2" x1="80.55" y1="36.45" x2="85.1" y2="36.45" gradientUnits="userSpaceOnUse"><stop offset="0" stop-color="#5c5c5c"/><stop offset="0.18" stop-color="#545454"/><stop offset="0.46" stop-color="#3c3c3c"/><stop offset="0.81" stop-color="#171717"/><stop offset="0.99"/></linearGradient></defs><title>Asset 8</title><g id="Layer_2" data-name="Layer 2"><g id="Layer_2-2" data-name="Layer 2"><rect class="cls-2" x="12" y="1" width="15" height="66"/><rect class="cls-3" x="12" y="7" width="15" height="6"/><rect class="cls-3" x="12" y="58" width="15" height="3"/><rect class="cls-3" x="27" y="12" width="17" height="55"/><g class="cls-4"><path class="cls-5" d="M32.33,61.7l.94.43-.1-.67L32.32,61Zm-2.78-5.65-.8-.59-.56.76.88.55Zm2.46-2-.51-.67-.72.43.6.65Zm2.65-.47L34.5,53,33.63,53l.25.6Zm2.95.69-.73-.52v.34l.71.44ZM32.71,58.7l-.18.62.65.59.16-.57Zm4.12-2.75.54,0v-.25l-.56-.11ZM34.6,53.87C32,53.74,27.4,56.19,26.73,66h6.33c-1.42-3.68-1.25-6.45-.28-8.33,1.42-2.73,3.53-2.91,5.5-1.76l.17-.38A5.38,5.38,0,0,0,34.6,53.87Zm.19,2,.24.56.44-.24-.16-.52Zm-1.43,1.28.48.66.3-.43-.42-.65Zm.73,7.67-.3-.72-1.09-.2.29.83Z"/></g><rect class="cls-6" x="51" y="53" width="65" height="14"/><rect class="cls-2" x="59" y="53" width="4" height="14"/><rect class="cls-3" x="61" y="41" width="60" height="12"/><rect class="cls-2" x="105" y="41" width="4" height="12"/><rect class="cls-3" x="122.32" y="15.47" width="16.8" height="50.4" transform="translate(-5.96 32.99) rotate(-14.07)"/><rect class="cls-6" x="1" y="67" width="151" height="8"/><rect class="cls-2" x="57" y="30" width="54" height="11"/><g class="cls-7"><path class="cls-5" d="M34.87,44h-1a1.63,1.63,0,0,0-1.52,1.54V48.8h6.13V47.14H36.67l1.78-1.34v-2l-2.06,1.55A1.65,1.65,0,0,0,34.87,44Zm.31,1.63v1.5H33.94v-1.5ZM32.3,39.22v1.5a1.62,1.62,0,0,0,1.59,1.54h4.53V40.63h-1.2V39.17h1.2V37.51H33.88A1.66,1.66,0,0,0,32.3,39.22Zm3.29-.05v1.46H33.94V39.17ZM34.51,24v1.6h-.67v-2.8H32.32v2.81a1.63,1.63,0,0,0,1.57,1.66h.65a1.66,1.66,0,0,0,1.61-1.64V24.15h.74v3h1.55v-3A1.63,1.63,0,0,0,37,22.5h-.81A1.59,1.59,0,0,0,34.51,24Zm-2.2,6.68v1.64h6.13v-4.1H36.8v2.46Zm6.13,5.06V34.11H32.31v1.64Z"/></g><path class="cls-8" d="M79.33,59a1.59,1.59,0,0,1,1.18.33,1.3,1.3,0,0,1,.14,1.12A1.88,1.88,0,0,1,80,61.64a2.28,2.28,0,0,1-1.4.35h-.95l.58-3Zm-3.79,6h1.56l.37-1.9h1.33a4.77,4.77,0,0,0,1.45-.19,2.75,2.75,0,0,0,1-.62,3.1,3.1,0,0,0,1-1.75,2.22,2.22,0,0,0-.37-2,2.48,2.48,0,0,0-2-.71h-3L75.54,65Z"/><path class="cls-8" d="M83.4,56h1.54l-.37,1.9h1.37a2.68,2.68,0,0,1,1.79.45A1.5,1.5,0,0,1,88,59.8l-.65,3.32H85.82L86.43,60a.86.86,0,0,0-.08-.74,1.08,1.08,0,0,0-.77-.2H84.35l-.79,4.09H82L83.4,56Z"/><path class="cls-8" d="M91.46,59a1.59,1.59,0,0,1,1.18.33,1.3,1.3,0,0,1,.14,1.12,1.88,1.88,0,0,1-.62,1.18,2.28,2.28,0,0,1-1.4.35h-.95l.58-3Zm-3.79,6h1.56l.37-1.9h1.33a4.77,4.77,0,0,0,1.45-.19,2.75,2.75,0,0,0,1-.62,3.1,3.1,0,0,0,1-1.75,2.22,2.22,0,0,0-.37-2,2.48,2.48,0,0,0-2-.71h-3L87.67,65Z"/><line class="cls-9" x1="65" y1="30" x2="65" y2="41"/><rect class="cls-10" x="61" y="42" width="60" height="1"/><rect class="cls-10" x="51" y="54" width="65" height="1"/></g><g id="Layer_3" data-name="Layer 3"><g class="cls-11"><path class="cls-8" d="M79.59,35.28a.24.24,0,0,0-.12-.21l-2-1.14a.23.23,0,0,0-.11,0h0l-.11,0-2,1.14a.24.24,0,0,0-.12.21v3.07a.12.12,0,0,0,.06.1.12.12,0,0,0,.12,0l1.18-.67a.24.24,0,0,0,.12-.21V36.14a.24.24,0,0,1,.12-.21l.5-.29a.24.24,0,0,1,.12,0,.23.23,0,0,1,.12,0l.5.29a.24.24,0,0,1,.12.21v1.44a.24.24,0,0,0,.12.21l1.18.67a.12.12,0,0,0,.12,0,.12.12,0,0,0,.06-.1Z"/><path class="cls-8" d="M89.13,31.06a.12.12,0,0,0-.18.1v3a.08.08,0,0,1-.13.07l-.5-.29a.24.24,0,0,0-.24,0l-2,1.14a.24.24,0,0,0-.12.21v2.29a.24.24,0,0,0,.12.21l2,1.15a.24.24,0,0,0,.24,0l2-1.15a.24.24,0,0,0,.12-.21V31.93a.24.24,0,0,0-.12-.21Zm-.18,5.82a.06.06,0,0,1,0,.05l-.68.39a.06.06,0,0,1-.06,0l-.68-.39a.06.06,0,0,1,0-.05V36.1a.06.06,0,0,1,0-.05l.68-.39a.06.06,0,0,1,.06,0l.68.39a.06.06,0,0,1,0,.05Z"/><path class="cls-8" d="M95.73,36.07a.24.24,0,0,0,.12-.21v-.55a.24.24,0,0,0-.12-.21l-2-1.14a.24.24,0,0,0-.24,0l-2,1.14a.24.24,0,0,0-.12.21V37.6a.24.24,0,0,0,.12.21l2,1.12a.24.24,0,0,0,.23,0l1.19-.66a.12.12,0,0,0,0-.21l-2-1.14a.12.12,0,0,1-.06-.1V36.1a.12.12,0,0,1,.06-.1l.62-.36a.12.12,0,0,1,.12,0l.62.36a.12.12,0,0,1,.06.1v.56a.12.12,0,0,0,.18.1Z"/><path id="_Path_" data-name="&lt;Path&gt;" class="cls-12" d="M82.67,34a.24.24,0,0,1,.24,0l2,1.14a.24.24,0,0,1,.12.21v2.27a.24.24,0,0,1-.12.21l-2,1.14a.24.24,0,0,1-.24,0l-2-1.14a.24.24,0,0,1-.12-.21V35.31a.24.24,0,0,1,.12-.21Z"/><g class="cls-13"><path class="cls-14" d="M82.67,34l-2,1.14a.24.24,0,0,0-.12.21v2.27a.23.23,0,0,0,.06.15l2.21-3.79A.24.24,0,0,0,82.67,34Z"/><path class="cls-14" d="M82.86,38.95l0,0,2-1.14a.23.23,0,0,0,.11-.21V35.31a.25.25,0,0,0,0-.15Z"/><path class="cls-15" d="M84.86,35.11l-2-1.14-.06,0-2.21,3.79.07.06,2,1.14a.23.23,0,0,0,.19,0l2.07-3.79Z"/><path class="cls-14" d="M80.72,35.1h0a.24.24,0,0,0-.12.21v2.27a.24.24,0,0,0,.12.21l2,1.14a.23.23,0,0,0,.17,0Z"/><path class="cls-14" d="M85,35.31a.23.23,0,0,0-.11-.21l-2-1.14-.05,0L85,37.58Z"/><path class="cls-16" d="M82.9,38.93l2-1.14a.23.23,0,0,0,.11-.21h0L82.85,34a.24.24,0,0,0-.18,0L80.72,35.1,82.84,39Z"/></g></g><path class="cls-5" d="M23,45.38a.65.65,0,0,1,.64.65.59.59,0,0,1-.19.45.66.66,0,0,1-.91,0,.6.6,0,0,1-.19-.45.62.62,0,0,1,.19-.46.62.62,0,0,1,.45-.19"/><path class="cls-5" d="M23.53,37.38v1.16L17,42.77a3,3,0,0,1-.51.26v0a8.5,8.5,0,0,1,1.12,0h5.92v1H15.34V42.73l6.42-4.1.55-.33v0a8.63,8.63,0,0,1-1.2.06H15.34v-1h8.19Z"/><path class="cls-5" d="M23.53,31.23v4.34H15.34V31.42h.87v3.19h2.72v-3h.87v3h2.86V31.23Z"/><path class="cls-5" d="M16.21,24.65V27h7.32v1H16.21v2.36h-.87V24.65Z"/><path class="cls-5" d="M123,31a4.69,4.69,0,0,0,3.81,3.2l-4-5.14A4.67,4.67,0,0,0,123,31Zm7.39-2.64a2.47,2.47,0,0,0-.77-1.11,2.19,2.19,0,0,1-.78-.9.81.81,0,0,1,.49-1l.06,0a4.68,4.68,0,0,0-6.46,3l.29-.09c.47-.15,1.17-.44,1.17-.44a.19.19,0,0,1,.15.36l-.5.21,3.19,4.3,0-3.24L126,27.78l-.48.11a.19.19,0,0,1-.09-.38s.75-.18,1.19-.32,1.17-.44,1.17-.44a.19.19,0,0,1,.15.36l-.5.21,3.16,4.27,0-1.63a5.66,5.66,0,0,0-.13-1.55ZM127.67,30l-.08,4.32a4.69,4.69,0,0,0,2.72-1l-.05-.05L127.67,30Zm3-3.77a3.59,3.59,0,0,1,.18.45,4.42,4.42,0,0,1,.18,1.71L131,32.73a4.69,4.69,0,0,0-.27-6.53Zm-1.61,8.36A5.21,5.21,0,1,1,132.42,28a5.22,5.22,0,0,1-3.35,6.56Z"/><line class="cls-17" x1="126.63" y1="56.5" x2="142.31" y2="52.36"/></g></g></svg>