<svg width="18" height="540" fill="none" xmlns="http://www.w3.org/2000/svg"><g clip-path="url(#a)"><path fill-rule="evenodd" clip-rule="evenodd" d="M3 4a2 2 0 0 0-2 2v6a2 2 0 0 0 2 2h12a2 2 0 0 0 2-2V6a2 2 0 0 0-2-2H3Zm4.453 2.24a.84.84 0 0 1 0 1.157L5.906 9l1.547 1.603a.84.84 0 0 1 0 1.157.77.77 0 0 1-1.117 0L4.231 9.58a.84.84 0 0 1 0-1.158L6.336 6.24a.77.77 0 0 1 1.117 0Zm3.094 0a.84.84 0 0 0 0 1.157L12.094 9l-1.547 1.603a.84.84 0 0 0 0 1.157.77.77 0 0 0 1.117 0l2.105-2.181a.84.84 0 0 0 0-1.158L11.664 6.24a.77.77 0 0 0-1.117 0Z" fill="#4FC47E"/><mask id="b" fill="#fff"><path fill-rule="evenodd" clip-rule="evenodd" d="M2 22a1 1 0 0 0-1 1v8a1 1 0 0 0 1 1h14a1 1 0 0 0 1-1v-8a1 1 0 0 0-1-1H2Zm1 2 6 5 6-5H3Z"/></mask><path fill-rule="evenodd" clip-rule="evenodd" d="M2 22a1 1 0 0 0-1 1v8a1 1 0 0 0 1 1h14a1 1 0 0 0 1-1v-8a1 1 0 0 0-1-1H2Zm1 2 6 5 6-5H3Z" fill="#4FC47E"/><path d="m9 29-1.28 1.536L9 31.603l1.28-1.067L9 29Zm-6-5v-2h-5.524l4.244 3.536L3 24Zm12 0 1.28 1.536L20.524 22H15v2ZM3 23a1 1 0 0 1-1 1v-4a3 3 0 0 0-3 3h4Zm0 8v-8h-4v8h4Zm-1-1a1 1 0 0 1 1 1h-4a3 3 0 0 0 3 3v-4Zm14 0H2v4h14v-4Zm-1 1a1 1 0 0 1 1-1v4a3 3 0 0 0 3-3h-4Zm0-8v8h4v-8h-4Zm1 1a1 1 0 0 1-1-1h4a3 3 0 0 0-3-3v4ZM2 24h14v-4H2v4Zm8.28 3.464-6-5-2.56 3.072 6 5 2.56-3.072Zm3.44-5-6 5 2.56 3.072 6-5-2.56-3.072ZM3 26h12v-4H3v4Z" fill="#4FC47E" mask="url(#b)"/><path fill-rule="evenodd" clip-rule="evenodd" d="M9 52a7 7 0 1 0 0-14 7 7 0 0 0 0 14Zm.193-7.677c1.117 1.08 2.39 2.21 4.438 2.564-.153.376-.35.728-.586 1.052-1.868-.25-2.971-1.229-4.041-2.262a97.644 97.644 0 0 1-.227-.22c-1.14-1.108-2.363-2.299-4.368-2.443.157-.363.356-.703.59-1.016V42c1.797 0 2.781.954 3.994 2.13l.2.193ZM8.999 50c.796 0 1.55-.186 2.217-.517-1.267-.518-2.188-1.353-3.023-2.16l-.2-.193C6.78 45.954 5.796 45 4 45v-.087V45a5 5 0 0 0 5 5Zm0-10c-.698 0-1.362.143-1.965.401 1.113.47 1.948 1.283 2.743 2.055v.001l.227.22c1.061 1.025 2.155 1.996 3.995 2.256a5 5 0 0 0-5-4.933ZM7 57c0-.552.358-1 .8-1h2.4c.442 0 .8.448.8 1s-.358 1-.8 1H10v1.083a5.963 5.963 0 0 1 2.016.73l1.105-1.106a1 1 0 0 1 1.415 1.414l-.978.977a6 6 0 1 1-9.003-.129l-.848-.848a1 1 0 1 1 1.414-1.414l1.018 1.018A5.96 5.96 0 0 1 8 59.083V58h-.2c-.442 0-.8-.448-.8-1Z" fill="#4FC47E"/><path d="M13 64.905c0 .77-.229 1.49-.624 2.095L9 64.905V61c2.21 0 4 1.748 4 3.905Z" fill="#C0E8CC"/><path fill-rule="evenodd" clip-rule="evenodd" d="M3 87a1 1 0 1 0 2 0v-5h8.879c.956 0 1.472-.856.85-1.41l-1.15-1.023c-.36-.32-.36-.792 0-1.111l1.15-1.024c.622-.554.106-1.41-.85-1.41H4.21A1.002 1.002 0 0 0 3 77v10ZM5.182 92h7.636c1.205 0 2.182.964 2.182 2.154v9.692c0 1.19-.977 2.154-2.182 2.154H5.182C3.977 106 3 105.036 3 103.846v-9.692C3 92.964 3.977 92 5.182 92Zm-.036 2.146A.5.5 0 0 1 5.5 94h7a.5.5 0 0 1 .5.5v3.75a.5.5 0 0 1-.5.5h-.348l-1.642-2.665-1.037 1.344L7.81 95l-2.259 3.75H5.5a.5.5 0 0 1-.5-.5V94.5a.5.5 0 0 1 .146-.354Z" fill="#4FC47E"/><path stroke="#C0E8CC" stroke-width="2" stroke-linecap="round" stroke-linejoin="round" d="M6 102h6"/><path fill="#4FC47E" d="M4.154 118h9.692v3H4.154z"/><path fill-rule="evenodd" clip-rule="evenodd" d="M12.685 113h-7.37l-1.05 3h3.12c0 1.105.723 2 1.615 2s1.615-.895 1.615-2h3.12l-1.05-3ZM16 116v5c0 1.105-.964 2-2.154 2H4.154C2.964 123 2 122.105 2 121v-5l1.266-3.618c.289-.824 1.116-1.382 2.049-1.382h7.37c.933 0 1.76.558 2.049 1.382L16 116Zm-11.846 2v3h9.692v-3h-1.573a3.955 3.955 0 0 1-.408.614C11.267 119.355 10.276 120 9 120c-1.276 0-2.267-.645-2.865-1.386a3.95 3.95 0 0 1-.408-.614H4.154ZM7.5 129a1 1 0 0 1 1-1h1a1 1 0 0 1 1 1v13h-3v-13Zm-5 5a1 1 0 0 1 1-1h1a1 1 0 0 1 1 1v8h-3v-8Zm11 4a1 1 0 0 0-1 1v3h3v-3a1 1 0 0 0-1-1h-1Z" fill="#4FC47E"/><rect x="1" y="147" width="16" height="12" rx="1" fill="#4FC47E"/><path fill="#C0E8CC" d="M2.6 148.636h12.8v8.727H2.6z"/><ellipse cx="9" cy="152.455" rx="2.667" ry="2.727" fill="#4FC47E"/><path d="M9 154.636c-2.651 0-4.8 1.954-4.8 4.364h9.6c0-2.41-2.15-4.364-4.8-4.364Z" fill="#4FC47E"/><path fill-rule="evenodd" clip-rule="evenodd" d="M13.63 172.887c-2.047-.354-3.32-1.484-4.437-2.564l-.2-.193C7.78 168.954 6.796 168 5 168v-.001a4.98 4.98 0 0 0-.591 1.015c2.005.144 3.229 1.335 4.368 2.442l.227.221c1.07 1.033 2.173 2.012 4.04 2.262.236-.324.434-.676.587-1.052Zm-2.414 2.596A5 5 0 0 1 4 170.914V171c1.796 0 2.78.954 3.993 2.13l.2.193c.835.807 1.756 1.641 3.023 2.16Zm-4.182-9.082a5 5 0 0 1 6.965 4.532c-1.84-.26-2.934-1.231-3.995-2.256l-.227-.22v-.001c-.795-.772-1.63-1.585-2.743-2.055Z" fill="#fff"/><rect x="1" y="164" width="16" height="14" rx="1" fill="#4FC47E"/><path d="m7 173.5 4-2.5-4-2.5v5Z" fill="#fff"/><path fill-rule="evenodd" clip-rule="evenodd" d="M5 166H3v4h2v-4Zm10 0h-2v4h2v-4Zm-12 6h2v4H3v-4Zm12 0h-2v4h2v-4Z" fill="#C0E8CC"/><path fill-rule="evenodd" clip-rule="evenodd" d="M9 182a2 2 0 0 0-2 2v4a2 2 0 1 0 4 0v-4a2 2 0 0 0-2-2Zm-5 5a1 1 0 0 1 1 1c0 1.491.521 2.453 1.217 3.057.72.623 1.721.943 2.783.943 1.062 0 2.063-.32 2.783-.943.696-.604 1.217-1.566 1.217-3.057a1 1 0 0 1 2 0c0 2.009-.729 3.547-1.908 4.568-.889.771-1.98 1.203-3.092 1.362V196H8v-2.07c-1.111-.159-2.204-.591-3.092-1.362C3.728 191.547 3 190.009 3 188a1 1 0 0 1 1-1ZM10.457 212.873l-2.86-2.113-1.492 1.551c-.462.481-1.27.033-1.092-.604l.607-2.18a.633.633 0 0 1 .076-.17l-.01-.008 7.336-4.883c.086-.058.012-.187-.082-.144l-8.688 3.968-1.994-1.472a.632.632 0 0 1 .206-1.118l12.706-3.673c.531-.154 1 .378.77.873l-4.508 9.728a.652.652 0 0 1-.975.245ZM9 232a7 7 0 1 0 0-14 7 7 0 0 0 0 14Zm-1.716-10.699-.055-.002a4.29 4.29 0 0 0-.376-.001c-.256.015-.544.079-.765.329-.197.222-.295.542-.352.938-.06.407-.084.959-.084 1.703a.68.68 0 0 1-.04.277c-.011.025-.02.031-.038.039a.696.696 0 0 1-.225.043l-.046.003c-.146-.011-.279-.009-.372-.008l-.067.001c-.217 0-.393.165-.393.37v.014c0 .205.176.37.393.37h.012c.142 0 .283 0 .414-.005a.81.81 0 0 1 .178.037.248.248 0 0 1 .126.082c.024.031.058.098.058.241 0 .744.025 1.296.084 1.703.057.396.155.716.352.938.221.25.509.314.765.329.123.007.254.003.376-.001l.055-.002c.11-.004.219-.008.337-.008.218 0 .394-.165.394-.37 0-.204-.176-.37-.394-.37-.135 0-.26.005-.37.009l-.051.002c-.125.004-.22.006-.3.002-.15-.009-.182-.037-.207-.064-.049-.056-.124-.198-.177-.565-.051-.355-.076-.867-.076-1.603 0-.258-.064-.484-.201-.667l-.027-.034a.81.81 0 0 0 .12-.185c.08-.171.108-.368.108-.578 0-.736.025-1.248.076-1.603.053-.367.128-.509.177-.565.025-.027.058-.055.208-.064.08-.004.174-.002.299.002l.052.002c.109.004.234.009.37.009.217 0 .393-.166.393-.37s-.176-.37-.394-.37c-.118 0-.228-.004-.337-.008Zm3.094.008c.119 0 .229-.004.338-.008l.055-.002a4.29 4.29 0 0 1 .376-.001c.256.015.543.079.765.329.197.222.295.542.352.938.06.407.084.959.084 1.703 0 .159.022.24.04.277.011.025.02.031.037.039a.696.696 0 0 0 .226.043l.046.003c.146-.011.278-.009.372-.008l.066.001c.218 0 .394.165.394.37v.014c0 .205-.176.37-.393.37h-.012c-.142 0-.283 0-.415-.005a.81.81 0 0 0-.177.037.249.249 0 0 0-.127.082c-.023.031-.057.098-.057.241 0 .744-.025 1.296-.084 1.703-.057.396-.155.716-.352.938-.222.25-.509.314-.765.329a4.29 4.29 0 0 1-.376-.001l-.055-.002a8.996 8.996 0 0 0-.338-.008c-.217 0-.393-.165-.393-.37 0-.204.176-.37.393-.37.135 0 .261.005.37.009l.052.002c.125.004.22.006.3.002.15-.009.182-.037.207-.064.049-.056.123-.198.177-.565.051-.355.076-.867.076-1.603 0-.258.064-.484.2-.667l.028-.034a.81.81 0 0 1-.12-.185 1.346 1.346 0 0 1-.108-.578c0-.736-.025-1.248-.076-1.603-.054-.367-.128-.509-.177-.565-.025-.027-.058-.055-.208-.064a3.83 3.83 0 0 0-.299.002l-.052.002c-.109.004-.235.009-.37.009-.217 0-.393-.166-.393-.37s.176-.37.393-.37Z" fill="#4FC47E"/><path d="M11 248.27c0 1.714-1.714 3.73-2 3.73-.286 0-2-2.016-2-3.73v-2.383c0-.49.256-.887.571-.887h2.858c.315 0 .571.397.571.887v2.383Z" fill="#C0E8CC"/><path fill-rule="evenodd" clip-rule="evenodd" d="M9 235c-.485 0-3.395 2.098-3.395 3.882v3.147l-3.548 3.762c-.132.14-.02.352.186.352h3.365c.035.479.455.857.967.857h4.85c.512 0 .932-.378.967-.857h3.365c.206 0 .318-.212.186-.352l-3.548-3.762v-3.147c0-1.784-2.91-3.882-3.395-3.882Zm0 6a1.5 1.5 0 1 0 0-3 1.5 1.5 0 0 0 0 3Z" fill="#4FC47E"/><path d="m2 255 6 1.687L7.953 267 2 265.313V255ZM16 265.313 10 267v-10.313L16 255v10.313Z" fill="#4FC47E"/><circle cx="9" cy="279" r="4" stroke="#C0E8CC" stroke-width="2"/><path fill-rule="evenodd" clip-rule="evenodd" d="M6.05 274.963A4.981 4.981 0 0 1 9 274a4.98 4.98 0 0 1 2.707.795l-1.47 1.471a2.987 2.987 0 0 0-1.912-.19 3.006 3.006 0 0 0-.833.33l-1.443-1.443Zm-1.553 1.861A4.982 4.982 0 0 0 4 279c0 .997.292 1.927.795 2.707l1.471-1.47a2.99 2.99 0 0 1-.204-1.846l-1.565-1.567Zm2.057 6.538A4.98 4.98 0 0 0 9 284a4.97 4.97 0 0 0 2.175-.497l-1.566-1.565a3.022 3.022 0 0 1-1.164.011l-.024-.005c-.034-.006-.068-.014-.101-.021l-.042-.01a3.16 3.16 0 0 1-.212-.061l-1.512 1.51Zm6.483-1.411A4.977 4.977 0 0 0 14 279c0-.889-.232-1.723-.638-2.446l-1.51 1.511a2.995 2.995 0 0 1-.257 2.443l1.442 1.443ZM9 272a7 7 0 1 0 0 14 7 7 0 0 0 0-14Zm0 5.385a1.615 1.615 0 1 0 0 3.23 1.615 1.615 0 0 0 0-3.23ZM3.5 294a1 1 0 0 1 1-1H7a1 1 0 0 1 1 1v4a1 1 0 0 1-1 1H4.5a1 1 0 0 1-1-1v-4Zm5.5-.287a1 1 0 0 1 .685-.949l4-1.328a1 1 0 0 1 1.315.949v7.232a1 1 0 0 1-1.314.949l-4-1.321a1 1 0 0 1-.686-.95v-4.582Z" fill="#4FC47E"/><path fill-rule="evenodd" clip-rule="evenodd" d="M5 298h2v5H5v-5ZM3 308a1 1 0 0 0-1 1v12a1 1 0 0 0 1 1h12a1 1 0 0 0 1-1v-12a1 1 0 0 0-1-1H3Zm11 5H4v7h10v-7Z" fill="#4FC47E"/><path fill="#C0E8CC" d="M5 314h2v2H5zM5 317h2v2H5zM8 314h2v2H8z"/><path fill="#4FC47E" d="M8 317h2v2H8z"/><path fill="#C0E8CC" d="M11 314h2v2h-2zM11 317h2v2h-2z"/><path fill-rule="evenodd" clip-rule="evenodd" d="M14.374 329.686a.645.645 0 0 0-.392-.126l-.138.016-4.555.825 1.967-3.896.058-.151a.269.269 0 0 0-.04-.138.347.347 0 0 0-.11-.111.63.63 0 0 0-.369-.105H7.022a.674.674 0 0 0-.323.076.386.386 0 0 0-.184.194l-3.001 7.667a.242.242 0 0 0 .009.183c.027.059.076.11.14.145a.653.653 0 0 0 .357.092l.139-.008 4.67-.849-1.577 6.072a.236.236 0 0 0-.01.13.27.27 0 0 0 .061.122c.07.08.174.137.293.16l.16.016c.223 0 .384-.07.484-.21l6.212-9.735c.084-.134.058-.257-.08-.369h.002Z" fill="#4FC47E"/><g opacity=".9" fill-rule="evenodd" clip-rule="evenodd" fill="#4FC47E"><path opacity=".9" d="M1.981 345.379a1.17 1.17 0 0 0-1.578-.135 1.011 1.011 0 0 0-.143 1.484l7.88 8.893c.212.24.527.379.86.379.333 0 .648-.139.86-.379l7.88-8.893a1.011 1.011 0 0 0-.143-1.484 1.17 1.17 0 0 0-1.578.135L9 353.3l-7.019-7.921Z"/><path opacity=".9" d="M0 348.697v6.203a1.1 1.1 0 0 0 1.1 1.1h5.371L0 348.697ZM8.998 356h.004c.331 0 .646-.139.859-.379l7.88-8.893c.173-.196.258-.434.259-.671v-.005c0-.301-.138-.6-.403-.808a1.17 1.17 0 0 0-1.578.135L9 353.3l-7.019-7.921a1.17 1.17 0 0 0-1.578-.135 1.011 1.011 0 0 0-.143 1.484l7.88 8.893c.212.24.527.379.858.379ZM18 348.697 11.529 356H16.9a1.1 1.1 0 0 0 1.1-1.1v-6.203ZM14.35 345 9 351.039 3.65 345h10.7Z"/></g><path fill-rule="evenodd" clip-rule="evenodd" d="M3 361h1.369v.842h3.368V361h2.526v.842h3.369V361H15a2 2 0 0 1 2 2v1.368h-.842v3.369H17v2.526h-.842v3.369H17V375a2 2 0 0 1-2 2h-1.368v-.842h-3.369V377H7.737v-.842H4.369V377H3a2 2 0 0 1-2-2v-1.368h.842v-3.369H1v-2.526h.842v-3.369H1V363a2 2 0 0 1 2-2Zm8.357 8.197c.455-.458.683-1.056.683-1.794 0-.594-.104-1.07-.312-1.428-.208-.362-.551-.631-1.031-.806-.476-.175-1.121-.263-1.934-.263H5.75v1.01h1.01v6.074H5.75V373h3.287v-1.01H7.984v-2.094h1.064c1.085-.008 1.855-.24 2.31-.699Zm-1.004-2.927c.297.233.446.602.446 1.107 0 .397-.07.709-.21.934-.14.222-.358.38-.655.473-.297.089-.695.134-1.192.134h-.758v-3.002h.844c.72 0 1.228.118 1.525.354ZM3 379h1.369v.842h3.368V379h2.526v.842h3.369V379H15a2 2 0 0 1 2 2v1.368h-.842v3.369H17v2.526h-.842v3.369H17V393a2 2 0 0 1-2 2h-1.368v-.842h-3.369V395H7.737v-.842H4.369V395H3a2 2 0 0 1-2-2v-1.368h.842v-3.369H1v-2.526h.842v-3.369H1V381a2 2 0 0 1 2-2Zm9.578 6.057v.185c-.313-.161-.699-.242-1.158-.242-.273 0-.54.048-.798.144a1.529 1.529 0 0 0-.638.431 1.007 1.007 0 0 0-.246.685c0 .331.112.603.337.817.225.213.58.363 1.063.451l.487.094c.423.074.704.147.844.218.14.068.21.172.21.312a.472.472 0 0 1-.265.435c-.176.096-.418.143-.725.143-.28 0-.526-.063-.739-.188-.21-.126-.337-.293-.382-.501v-.148h-.84v1.478h.84v-.234c.145.087.326.161.542.221.219.058.44.086.666.086.565 0 1.018-.12 1.359-.361.343-.24.515-.559.515-.956 0-.678-.473-1.096-1.418-1.252l-.634-.11c-.42-.061-.69-.13-.812-.21a.373.373 0 0 1-.178-.328c0-.156.08-.283.238-.382.158-.098.361-.147.61-.147.475 0 .849.176 1.122.529v.263h.821v-1.433h-.82Zm-6.073 3.206-1.036-2.446h.625v-.76H3.65v.76h.848l1.56 3.627h.852l1.528-3.627h.73v-.76H6.869v.76h.666l-1.03 2.446ZM6.792 408.501H8.5a1.004 1.004 0 0 1 .924.617 1.005 1.005 0 0 1-.217 1.09.994.994 0 0 1-.707.293H6.792a2.504 2.504 0 0 1-2.802 1.447 2.502 2.502 0 0 1 0-4.895 2.495 2.495 0 0 1 2.802 1.448Zm5.366-3.918 1.212 2.421a2.503 2.503 0 0 1 2.548 1.86 2.501 2.501 0 0 1-4.38 2.188 2.499 2.499 0 0 1 .043-3.154l-1.211-2.422a.998.998 0 0 1 .46-1.316.997.997 0 0 1 1.328.423Zm-2.042-6.318a2.498 2.498 0 0 1 .357 4.255 2.496 2.496 0 0 1-1.604.477l-1.211 2.423a1.001 1.001 0 0 1-1.82-.145 1 1 0 0 1 .032-.748l1.21-2.423a2.5 2.5 0 0 1 3.036-3.839Z" fill="#4FC47E"/><path d="M9 401.361a.84.84 0 1 0 0-1.68.84.84 0 0 0 0 1.68Z" fill="#fff"/><path d="M13.48 410.321a.84.84 0 1 0 0-1.68.84.84 0 0 0 0 1.68ZM4.52 410.321a.84.84 0 1 0 0-1.68.84.84 0 0 0 0 1.68Z" fill="#C0E8CC"/><path fill-rule="evenodd" clip-rule="evenodd" d="M8.455 416.323a1.123 1.123 0 0 1 1.09 0c1.471.818 3.32 1.442 5.075 1.751.5.088.883.514.86 1.021-.238 5.243-2.594 8.421-5.973 10.591a.937.937 0 0 1-1.014 0c-3.379-2.17-5.735-5.348-5.973-10.591-.023-.507.36-.933.86-1.021 1.754-.309 3.604-.933 5.075-1.751Zm3.688 4.063a.75.75 0 0 0-1.286-.772L8.35 423.79l-1.32-1.32a.75.75 0 0 0-1.061 1.06l2 2a.749.749 0 0 0 1.173-.144l3-5ZM3 434a1 1 0 0 0-1 1v12a1 1 0 0 0 1 1h12a1 1 0 0 0 1-1v-12a1 1 0 0 0-1-1H3Zm8 4a1 1 0 1 0 0-2 1 1 0 0 0 0 2Zm-2-1a1 1 0 1 1-2 0 1 1 0 0 1 2 0Zm-4 1a1 1 0 1 0 0-2 1 1 0 0 0 0 2Zm-1 3.25a.75.75 0 0 1 .75-.75h8.5a.75.75 0 0 1 0 1.5h-8.5a.75.75 0 0 1-.75-.75Zm.75 2.25a.75.75 0 0 0 0 1.5h6.5a.75.75 0 0 0 0-1.5h-6.5Z" fill="#4FC47E"/><path d="m15.456 455.83 1.54-.62-.3-.79-1.38.55v-1.29s-.49-.68-1.51-.68c-1.23.03-1.53.68-1.53.68v2.01c-.24.33-.38.73-.38 1.15 0 .87-.12 1.73-.36 2.57-.05.17-.1.33-.15.49.01-.42-.02-.83-.11-1.24-.52-2.52-2.96-4.19-5.43-3.72-1.2.23-2.18.85-2.92 1.84-.51.66-.82 1.45-.91 2.29-.03.33-.01.67 0 1.01 0 .14 0 .27.03.41.21 1.2.79 2.18 1.72 2.95.02 0 .04.02.05.02l-.02.03h-.05c-.4.04-.79.07-1.19.12-.14.02-.27.05-.39.11-.19.07-.21.22-.06.36.06.06.12.1.2.14.19.09.39.17.59.23.99.29 2.02.4 3.04.47a32.736 32.736 0 0 0 3.16.08 7.27 7.27 0 0 0 1.85-.28c.81-.23 1.54-.6 2.14-1.2.68-.67 1.08-1.51 1.3-2.43.19-.77.24-1.55.24-2.34 0-.03 0-.07.02-.09.02-.03.04-.05.07-.06.23-.13.43-.3.6-.51.16-.21.28-.45.35-.71.07-.26.08-.53.05-.79-.04-.27-.13-.52-.27-.75l.01-.01Zm-6.85 6.86s-.05.03-.07.04c.19-.32.36-.64.46-.99.31-1.11.19-2.16-.51-3.09-.52-.69-1.24-.99-2.09-.94-.39.03-.77.19-1.06.45-.29.27-.49.63-.56 1.03-.11.63.2 1.29.77 1.63.26.16.56.25.87.24.14 0 .28-.05.38-.16.1-.1.16-.24.17-.39 0-.15-.05-.29-.14-.4a.545.545 0 0 0-.37-.18c-.09 0-.17-.02-.26-.04-.26-.08-.38-.32-.32-.63.05-.26.21-.41.5-.44.71-.09 1.32.3 1.55 1.01.31.93.12 1.78-.49 2.52-.35.43-.78.73-1.33.84h-.18c-.68-.16-1.31-.52-1.79-1.04s-.8-1.17-.92-1.88c-.31-1.92.84-3.7 2.69-4.14a3.432 3.432 0 0 1 2.69.46 3.592 3.592 0 0 1 1.57 2.28c.31 1.49-.28 2.96-1.52 3.79l-.04.03ZM7 473a2 2 0 0 1 2-2h6a2 2 0 0 1 2 2v3.9c0 .61-.49 1.1-1.1 1.1-.71 0-1.24.67-1.06 1.36l.04.17c.16.63-.63 1.04-1.06.55l-1.22-1.4c-.38-.43-.93-.68-1.51-.68H9a2 2 0 0 1-2-2v-3Z" fill="#4FC47E"/><path fill-rule="evenodd" clip-rule="evenodd" d="M6 474H3a2 2 0 0 0-2 2v3.9c0 .61.49 1.1 1.1 1.1.71 0 1.24.67 1.06 1.36l-.04.17c-.16.63.63 1.04 1.06.55l1.22-1.4c.38-.43.93-.68 1.51-.68H9a2 2 0 0 0 2-2H9c-1.66 0-3-1.34-3-3v-2Zm1 0h2a2 2 0 0 1 2 2v2H9a2 2 0 0 1-2-2v-2ZM6.283 491.98a2 2 0 1 0-.994-.11l-.46 4.135a3 3 0 1 0 3.166 3.165l4.135-.459A2.002 2.002 0 0 0 16 498a2 2 0 0 0-3.98-.283l-4.134.459a2.982 2.982 0 0 0-.44-.914l4.538-4.539a2 2 0 1 0-.707-.707l-4.539 4.539a2.983 2.983 0 0 0-.914-.441l.46-4.134ZM2 506a2 2 0 0 1 2-2h12v18H4a2 2 0 0 1-2-2v-14Zm2 13.5a1.5 1.5 0 0 1 1.5-1.5H15v3H5.5a1.5 1.5 0 0 1-1.5-1.5Zm6.365-4.212H7v-1.125h.44c.225 0 .364-.139.364-.364v-5.059c0-.225-.14-.365-.365-.365H7v-1.125h3.194c1.715 0 3.076.868 3.076 2.529 0 1.662-1.361 2.541-3.076 2.541H9.1v1.479c0 .225.139.364.375.364h.89v1.125Zm-1.264-6.848v2.701h.996c1.137 0 1.79-.472 1.79-1.351 0-.889-.653-1.35-1.79-1.35h-.996ZM7.594 524.932v4.354c0 .684-.272 1.339-.755 1.823l-1.14 1.14a8.21 8.21 0 0 1 3.327.582l.47.188a6.788 6.788 0 0 0 3.918.342l-2.253-2.252a2.579 2.579 0 0 1-.755-1.823v-4.354a38.612 38.612 0 0 0-2.812 0Zm4.218.079.179.014a.703.703 0 0 0 .112-1.402 39.226 39.226 0 0 0-6.206 0 .703.703 0 0 0 .112 1.402l.178-.014v4.275c0 .311-.123.609-.343.828l-3.781 3.782c-1.403 1.403-.766 3.891 1.315 4.196 1.836.269 3.713.408 5.622.408 1.91 0 3.787-.139 5.622-.408 2.081-.305 2.718-2.793 1.315-4.196l-3.781-3.782a1.169 1.169 0 0 1-.344-.828v-4.275Z" fill="#4FC47E"/></g><defs><clipPath id="a"><path fill="#fff" d="M0 0h18v540H0z"/></clipPath></defs></svg>