<svg xmlns="http://www.w3.org/2000/svg" width="181" height="70"><g fill="none" fill-rule="evenodd"><path fill="#EAEAEA" fill-rule="nonzero" stroke="#999" stroke-linecap="round" stroke-linejoin="round" stroke-width="2" d="M62 37.1h57v31H62z"/><path stroke="#999" stroke-linecap="round" stroke-linejoin="round" d="M62.5 64.6h57m-57-3h57m-57-3h57m-57-3h57m-57-3h57m-57-3h57m-57-3h57m-57-3h57m-57-3h57"/><path fill="#E6E6E6" fill-rule="nonzero" style="mix-blend-mode:multiply" d="M63 44.1h55v2H63z"/><path fill="#DBDBDB" fill-rule="nonzero" style="mix-blend-mode:multiply" d="M63 56.1h55v2H63z"/><path fill="#E6E6E6" fill-rule="nonzero" style="mix-blend-mode:multiply" d="M63 65.1h55v2H63z"/><path fill="#FFF" fill-rule="nonzero" stroke="#999" stroke-linecap="round" stroke-linejoin="round" stroke-width="2" d="M123 22.1h57v46h-57z"/><path stroke="#999" stroke-linecap="round" stroke-linejoin="round" d="M123.5 67.6h57m-57-3h57m-57-3h57m-57-3h57m-57-3h57m-57-3h57m-57-3h57m-57-3h57m-57-3h57m-57-3h57m-57-3h57m-57-3h57m-57-3h57m-57-3h57m-57-3h57"/><path fill="#E6E6E6" fill-rule="nonzero" style="mix-blend-mode:multiply" d="M124 29.1h55v2h-55z"/><path fill="#E6E6E6" fill-rule="nonzero" style="mix-blend-mode:multiply" d="M124 29.1h55v2h-55zM124 59.1h55v2h-55z"/><path fill="#E6E6E6" fill-rule="nonzero" opacity=".65" style="mix-blend-mode:multiply" d="M124 53.1h55v2h-55z"/><path fill="#E6E6E6" fill-rule="nonzero" opacity=".85" style="mix-blend-mode:multiply" d="M124 41.1h55v2h-55z"/><path fill="#FFF" fill-rule="nonzero" stroke="#999" stroke-linecap="round" stroke-linejoin="round" stroke-width="2" d="M1 10.1h57v58H1z"/><path fill="#CCC" fill-rule="nonzero" stroke="#999" stroke-linecap="round" stroke-linejoin="round" stroke-width="2" d="M1 10.1h57l-9.94-8.39A3 3 0 0 0 46.12 1H12.87a3 3 0 0 0-1.94.71L1 10.1z"/><path fill="#FFF" fill-rule="nonzero" stroke="#999" stroke-linecap="round" stroke-linejoin="round" stroke-width="2" d="M47.22 1.26l-17 5.55a2 2 0 0 1-1.5 0L12.87 1.1l34.35.16z"/><path stroke="#999" stroke-linecap="round" stroke-linejoin="round" stroke-width="1.6" d="M1.69 9.27L21 4.1m36.51 5.41L39 4.1"/><path fill="#CCC" fill-rule="nonzero" stroke="#999" stroke-linecap="round" stroke-linejoin="round" stroke-width="2" d="M62 37.1h57l-9.94-8.39a3 3 0 0 0-1.93-.71H73.87a3 3 0 0 0-1.94.71L62 37.1z"/><path fill="#FFF" fill-rule="nonzero" stroke="#999" stroke-linecap="round" stroke-linejoin="round" stroke-width="2" d="M108.22 28.26l-17 5.55a2 2 0 0 1-1.5 0L73.87 28.1l34.35.16z"/><path stroke="#999" stroke-linecap="round" stroke-linejoin="round" stroke-width="1.6" d="M62.69 36.27L82 31.1m36.51 5.41L100 31.1"/><path fill="#CCC" fill-rule="nonzero" stroke="#999" stroke-linecap="round" stroke-linejoin="round" stroke-width="2" d="M123 22.1h57l-9.94-8.39a3 3 0 0 0-1.93-.71h-33.26a3 3 0 0 0-1.94.71L123 22.1z"/><path fill="#FFF" fill-rule="nonzero" stroke="#999" stroke-linecap="round" stroke-linejoin="round" stroke-width="2" d="M169.22 13.26l-17 5.55a2 2 0 0 1-1.5 0l-15.85-5.71 34.35.16z"/><path stroke="#999" stroke-linecap="round" stroke-linejoin="round" stroke-width="1.6" d="M123.69 21.27L143 16.1m36.51 5.41L161 16.1"/><path stroke="#999" stroke-linecap="round" stroke-linejoin="round" d="M1.5 64.6h57m-57-3h57m-57-3h57m-57-3h57m-57-3h57m-57-3h57m-57-3h57m-57-3h57m-57-3h57m-57-3h57m-57-3h57m-57-3h57m-57-3h57m-57-3h57m-57-3h57m-57-3h57m-57-3h57m-57-3h57"/><path fill="#E6E6E6" fill-rule="nonzero" style="mix-blend-mode:multiply" d="M2 17.1h55v2H2z"/><path fill="#E6E6E6" fill-rule="nonzero" style="mix-blend-mode:multiply" d="M2 17.1h55v2H2zM2 47.1h55v2H2z"/><path fill="#E6E6E6" fill-rule="nonzero" opacity=".65" style="mix-blend-mode:multiply" d="M2 41.1h55v2H2z"/><path fill="#E6E6E6" fill-rule="nonzero" opacity=".85" style="mix-blend-mode:multiply" d="M2 29.1h55v2H2z"/></g></svg>
