<svg viewBox="0 0 99.31 78" xmlns="http://www.w3.org/2000/svg"><path d="m84.48 76.44c0 .86-20.53 1.56-43.28 1.56s-41.2-.7-41.2-1.56 18.44-1.56 41.2-1.56 43.28.69 43.28 1.56z" fill="#333" opacity=".09"/><path d="m75.57 75.42h-65.23a4.88 4.88 0 0 1 -4.88-4.88v-45.12l75 1.22v43.9a4.88 4.88 0 0 1 -4.89 4.88z" fill="#e6e6e6" stroke="#333" stroke-linecap="round" stroke-linejoin="round" stroke-width="2"/><path d="m40.72 2.13-35.08 23.32 37.36 26.87 38-26.41-34-23.78a4.88 4.88 0 0 0 -6.28 0z" fill="#fff"/><path d="m40.72 2.13-35.08 23.32 37.36 26.87 38-26.41-34-23.78a4.88 4.88 0 0 0 -6.28 0z" fill="#bab0ad" opacity=".2"/><path d="m40.72 2.13-35.08 23.32 37.36 26.87 37-24.41-33-25.78a4.88 4.88 0 0 0 -6.28 0z" fill="none" stroke="#333" stroke-linecap="round" stroke-linejoin="round" stroke-width="2"/><path d="m7.77 74.13 32.37-22.91a4.88 4.88 0 0 1 5.65 0l32.43 23.1" fill="#e6e6e6" stroke="#333" stroke-linecap="round" stroke-linejoin="round" stroke-width="2"/><path d="m12.45 29.41v-23.99h60v25.99" fill="#fff" stroke="#333" stroke-linecap="round" stroke-linejoin="round" stroke-width="2"/><path d="m46.12 49.2 26.34-18v-12.85l-7.53-5.93h-40.16l-9.35 5.49-1.15 11.44 27.81 19.85a6.46 6.46 0 0 1 4.04 0z" fill="#fff"/><path d="m74 38.37v9.39h14.6v-9.39z" fill="#e6e6e6" stroke="#333" stroke-linecap="round" stroke-linejoin="round" stroke-width="2"/><path d="m83.43 50.88h-3.59a3.11 3.11 0 0 1 -2.5-1.25l-2.19-2.92h12.51l-2.19 2.92a3.11 3.11 0 0 1 -2.47 1.25" fill="#e6e6e6" stroke="#333" stroke-linecap="round" stroke-linejoin="round" stroke-width="2"/><path d="m98.2 16.42a17.38 17.38 0 0 0 -15.28-15.29c-.53 0-1-.09-1.51-.09a8.62 8.62 0 0 0 -1.51.09 17.46 17.46 0 0 0 -15.29 15.29 17.13 17.13 0 0 0 5.24 14.4 14.68 14.68 0 0 1 4.44 7.55h14.22a14.68 14.68 0 0 1 4.49-7.56 17.13 17.13 0 0 0 5.24-14.4" fill="#ffde00" stroke="#333" stroke-linecap="round" stroke-linejoin="round" stroke-width="2"/><g fill="#333"><path d="m81.35 41.5c.63.35 1 .07 1-.35s-.42-.7-1-.7h-7.35v1z"/><path d="m78.22 44.63c.63 0 1-.28 1-.7s-.42-.7-1-.35h-4.22v1h4.17z"/><path d="m88.65 40.45h-4.17c-.63 0-1 .28-1 .7s.42.7 1 .35h4.17v-1z"/><path d="m81.35 43.58c-.63-.35-1-.07-1 .35s.42.7 1 .7h7.3v-1z"/><rect height="4" opacity=".15" rx="2" width="27" x="29.45" y="12.42"/><rect height="3" opacity=".15" rx="1.5" width="48" x="19.45" y="22.42"/><rect height="3" opacity=".15" rx="1.5" width="51" x="18.45" y="30.42"/><rect height="3" opacity=".15" rx="1.5" width="37" x="24.45" y="37.42"/></g><path d="m79.94 37.85-3.81-15.78" fill="none" stroke="#333" stroke-miterlimit="10"/><path d="m82.39 38.37 5.27-16.69" fill="none" stroke="#333" stroke-miterlimit="10"/><path d="m76.13 21.16 3.82 1.83 3.83-1.83 3.83 1.83" fill="none" stroke="#333" stroke-miterlimit="10"/></svg>