<svg xmlns="http://www.w3.org/2000/svg" width="220" height="30"><g fill="none" fill-rule="evenodd"><path fill="#FFDE00" fill-rule="nonzero" d="M52.208 10.22h-3.276L46.54 24h-5.382l2.418-13.78H40.3l.806-4.628h11.908l-.806 4.628zm8.072 11.076h-3.302L56.016 24h-5.668l7.748-18.408h6.734L65.792 24H60.28v-2.704zm-2.002-4.134h2.08v-6.058h-.104l-1.976 6.058zM78.336 24H68.092L71.29 5.592h5.486l-2.314 13.39h4.758L78.336 24zm14.754-9.542L95.482 24H89.32l-1.352-8.086h-.104L86.46 24h-5.434l3.198-18.408h5.434l-1.274 7.306h.13l3.874-7.306h6.214l-5.512 8.866zM103.606 24h-5.512l3.198-18.408h5.512L103.606 24zm17.25 0h-5.668l-1.534-9.022h-.078L112.198 24h-4.836l3.198-18.408h5.798l1.456 9.282h.104l1.456-9.282h4.68L120.856 24zm15.56-12.662a3.393 3.393 0 0 0-.871-.715c-.32-.182-.75-.273-1.287-.273-.641 0-1.2.195-1.677.585-.477.39-.871.884-1.183 1.482a7.844 7.844 0 0 0-.702 1.976c-.156.72-.234 1.4-.234 2.041 0 .399.039.776.117 1.131.078.355.204.663.377.923.173.26.403.468.689.624.286.156.646.234 1.079.234.19 0 .373-.017.546-.052.173-.035.32-.095.442-.182l.338-1.82h-2.08l.832-4.758h6.864l-1.82 10.426a8.897 8.897 0 0 1-2.496 1.157c-.919.269-1.95.403-3.094.403-1.179 0-2.21-.182-3.094-.546-.884-.364-1.616-.875-2.197-1.534-.58-.659-1.014-1.443-1.3-2.353-.286-.91-.429-1.902-.429-2.977 0-1.612.225-3.142.676-4.589.45-1.447 1.088-2.726 1.911-3.835.823-1.11 1.803-1.989 2.938-2.639 1.135-.65 2.379-.975 3.731-.975.71 0 1.356.06 1.937.182.58.121 1.092.282 1.534.481.442.2.823.429 1.144.689.32.26.585.529.793.806l-3.484 4.108zm22.774-.962h-4.342l-.39 2.08h4.004l-.754 4.446h-4.004l-.39 2.236h4.836L157.318 24h-10.036l3.198-18.408h9.542l-.832 4.784zM178.364 24h-5.33l2.106-10.79h-.078L170.772 24h-3.484l-.364-10.79h-.104L165.182 24h-4.888l3.198-18.408h6.448l.546 9.932h.104l3.822-9.932h7.15L178.364 24zm12.284-2.704h-3.302L186.384 24h-5.668l7.748-18.408h6.734L196.16 24h-5.512v-2.704zm-2.002-4.134h2.08v-6.058h-.104l-1.976 6.058zM203.972 24h-5.512l3.198-18.408h5.512L203.972 24zm14 0h-10.244l3.198-18.408h5.486l-2.314 13.39h4.758L217.972 24z"/><path fill="#FFF" fill-rule="nonzero" d="M15 0C6.729 0 0 6.706 0 14.95c0 4.821 2.352 9.369 6.29 12.165a1.004 1.004 0 0 0 1.394-.234.994.994 0 0 0-.234-1.39A12.954 12.954 0 0 1 2 14.952C2 7.806 7.832 1.993 15 1.993c7.169 0 13 5.813 13 12.958 0 4.177-2.038 8.117-5.45 10.54a.994.994 0 0 0-.235 1.39.999.999 0 0 0 1.395.234A14.948 14.948 0 0 0 30 14.951C30 6.706 23.271 0 15 0z"/><path fill="#FFDE00" fill-rule="nonzero" d="M26.1 15.484C26.1 9.427 21.12 4.5 15 4.5 8.88 4.5 3.9 9.427 3.9 15.484a10.95 10.95 0 0 0 4.652 8.93 1.018 1.018 0 0 0 1.407-.233.992.992 0 0 0-.237-1.393 8.956 8.956 0 0 1-3.804-7.304c0-4.956 4.074-8.987 9.082-8.987 5.008 0 9.082 4.031 9.082 8.987a8.956 8.956 0 0 1-3.804 7.304.992.992 0 0 0-.237 1.393 1.013 1.013 0 0 0 1.407.234 10.95 10.95 0 0 0 4.652-8.931z"/><path fill="#FFF" fill-rule="nonzero" d="M15 8.7c-3.31 0-6 2.728-6 6.086 0 3.012 2.16 5.517 5 5.994v8.206c0 .56.448 1.014 1 1.014s1-.454 1-1.014V20.78c2.84-.477 5-2.982 5-5.994 0-3.358-2.69-6.086-6-6.086z"/><circle cx="15" cy="15" r="2.7" fill="#FFDE00" stroke="#2A2E35" stroke-width="2"/></g></svg>