<svg xmlns="http://www.w3.org/2000/svg" width="498" height="145"><g fill="none" fill-rule="evenodd"><path fill="#FFDE00" fill-rule="nonzero" d="M32.96 105.294h-9.067l-6.621 38.262H2.375l6.693-38.262H0l2.231-12.85h32.96l-2.23 12.85zm22.574 30.754h-9.14l-2.662 7.508h-15.69L49.49 92.444h18.64l2.662 51.112H55.534v-7.508zm-5.541-11.478h5.757v-16.821h-.288l-5.47 16.82zm55.75 18.986H77.388l8.852-51.112h15.185l-6.405 37.179h13.17l-2.447 13.933zm41.068-26.495l6.621 26.495h-17.056l-3.742-22.452h-.288l-3.886 22.452h-15.04l8.85-51.112h15.042l-3.526 20.286h.36l10.722-20.286h17.2l-15.257 24.617zm29.339 26.495h-15.257l8.852-51.112h15.257l-8.852 51.112zm47.977 0H208.44l-4.246-25.05h-.216l-3.814 25.05h-13.386l8.852-51.112h16.048l4.03 25.773h.288l4.03-25.773h12.954l-8.852 51.112zm43.3-35.158a9.399 9.399 0 0 0-2.41-1.985c-.888-.505-2.076-.758-3.563-.758-1.775 0-3.322.542-4.642 1.624-1.32 1.083-2.41 2.455-3.274 4.115-.864 1.66-1.512 3.49-1.943 5.487-.432 1.997-.648 3.886-.648 5.667 0 1.107.108 2.154.324 3.14.216.987.563 1.841 1.043 2.563.48.722 1.116 1.3 1.907 1.733.792.433 1.787.65 2.987.65a7.67 7.67 0 0 0 1.511-.145 3.13 3.13 0 0 0 1.224-.505l.935-5.054h-5.757l2.303-13.21h18.999l-5.038 28.948c-2.063 1.396-4.366 2.467-6.908 3.213-2.543.746-5.398 1.119-8.564 1.119-3.263 0-6.118-.505-8.564-1.516-2.447-1.01-4.474-2.43-6.082-4.26-1.607-1.828-2.806-4.006-3.598-6.533-.792-2.527-1.187-5.282-1.187-8.266 0-4.476.623-8.723 1.87-12.742 1.248-4.019 3.011-7.568 5.29-10.648 2.28-3.08 4.99-5.523 8.132-7.328C254.917 91.902 258.36 91 262.102 91c1.967 0 3.754.168 5.361.505 1.607.337 3.023.782 4.246 1.336 1.224.553 2.28 1.191 3.167 1.913s1.619 1.468 2.195 2.238l-9.644 11.406zm63.499-2.67h-12.019l-1.08 5.775h11.083l-2.087 12.345h-11.082l-1.08 6.208h13.386l-2.303 13.5h-27.78l8.853-51.112h26.411l-2.302 13.283zm53.303 37.828h-14.753l5.829-29.96h-.216l-11.875 29.96h-9.643l-1.008-29.96h-.287l-4.534 29.96h-13.53l8.852-51.112h17.848l1.51 27.577h.289l10.579-27.577h19.79l-8.851 51.112zm34.232-7.508h-9.14l-2.663 7.508H390.97l21.446-51.112h18.64l2.663 51.112H418.46v-7.508zm-5.542-11.478h5.758v-16.821h-.288l-5.47 16.82zm42.652 18.986h-15.257l8.852-51.112h15.257l-8.852 51.112zm38.982 0h-28.355l8.852-51.112h15.185l-6.405 37.179H497l-2.447 13.933z"/><g transform="translate(219)"><path fill="#FFF" fill-rule="nonzero" d="M30 0C13.458 0 0 13.413 0 29.902c0 9.64 4.703 18.735 12.58 24.328.897.635 2.146.43 2.789-.467a1.989 1.989 0 0 0-.469-2.78C8.075 46.136 4 38.255 4 29.902 4 15.612 15.663 3.987 30 3.987s26 11.626 26 25.915c0 8.353-4.075 16.234-10.9 21.081a1.989 1.989 0 0 0-.47 2.78c.391.547 1.007.837 1.632.837.401 0 .806-.12 1.158-.37C55.297 48.637 60 39.542 60 29.902 60 13.413 46.542 0 30 0z"/><path fill="#FFDE00" fill-rule="nonzero" d="M52.2 30.967C52.2 18.855 42.241 9 30 9S7.8 18.855 7.8 30.967c0 7.078 3.478 13.755 9.304 17.863a2.037 2.037 0 0 0 2.814-.469 1.983 1.983 0 0 0-.473-2.784c-4.765-3.359-7.609-8.821-7.609-14.61 0-9.91 8.149-17.973 18.164-17.973 10.015 0 18.164 8.062 18.164 17.973 0 5.789-2.844 11.251-7.609 14.61a1.983 1.983 0 0 0-.473 2.784 2.02 2.02 0 0 0 1.646.839c.405 0 .814-.12 1.168-.37 5.826-4.108 9.304-10.785 9.304-17.863z"/><path fill="#FFF" fill-rule="nonzero" d="M30 17.4c-6.62 0-12 5.457-12 12.171 0 6.025 4.32 11.036 10 11.99v16.41c0 1.122.896 2.029 2 2.029s2-.907 2-2.029v-16.41c5.68-.954 10-5.965 10-11.99C42 22.857 36.62 17.4 30 17.4z"/><circle cx="30" cy="30" r="5.4" fill="#FFDE00" stroke="#2A2E35" stroke-width="4"/></g></g></svg>