<svg xmlns="http://www.w3.org/2000/svg" width="60" height="60"><g fill="none" fill-rule="evenodd"><path fill="#FFF" fill-rule="nonzero" d="M30 0C13.458 0 0 13.413 0 29.902c0 9.64 4.703 18.735 12.58 24.328.897.635 2.146.43 2.789-.467a1.989 1.989 0 0 0-.469-2.78C8.075 46.136 4 38.255 4 29.902 4 15.612 15.663 3.987 30 3.987s26 11.626 26 25.915c0 8.353-4.075 16.234-10.9 21.081a1.989 1.989 0 0 0-.47 2.78c.391.547 1.007.837 1.632.837.401 0 .806-.12 1.158-.37C55.297 48.637 60 39.542 60 29.902 60 13.413 46.542 0 30 0z"/><path fill="#FFDE00" fill-rule="nonzero" d="M52.2 30.967C52.2 18.855 42.241 9 30 9S7.8 18.855 7.8 30.967c0 7.078 3.478 13.755 9.304 17.863a2.037 2.037 0 0 0 2.814-.469 1.983 1.983 0 0 0-.473-2.784c-4.765-3.359-7.609-8.821-7.609-14.61 0-9.91 8.149-17.973 18.164-17.973 10.015 0 18.164 8.062 18.164 17.973 0 5.789-2.844 11.251-7.609 14.61a1.983 1.983 0 0 0-.473 2.784 2.02 2.02 0 0 0 1.646.839c.405 0 .814-.12 1.168-.37 5.826-4.108 9.304-10.785 9.304-17.863z"/><path fill="#FFF" fill-rule="nonzero" d="M30 17.4c-6.62 0-12 5.457-12 12.171 0 6.025 4.32 11.036 10 11.99v16.41c0 1.122.896 2.029 2 2.029s2-.907 2-2.029v-16.41c5.68-.954 10-5.965 10-11.99C42 22.857 36.62 17.4 30 17.4z"/><circle cx="30" cy="30" r="5.4" fill="#FFDE00" stroke="#2A2E35" stroke-width="4"/></g></svg>