<svg xmlns="http://www.w3.org/2000/svg" width="60.71" height="61.26" viewBox="0 0 60.71 61.26"><defs><style>.a { isolation: isolate; } .b { fill: #231f20; opacity: 0.1; mix-blend-mode: multiply; } .c { fill: #4fc47f; }</style></defs><title>pricing-best-value-pip</title><g class="a"><path class="b" d="M29.63 4.63l4.69-2.63 3.65 3.95 5.28-1.05 2.25 4.89 5.34.63.63 5.34 4.89 2.25-1.05 5.28 3.95 3.65-2.63 4.69 2.63 4.69-3.95 3.65 1.05 5.28-4.89 2.25-.63 5.34-5.34.63-2.25 4.89-5.28-1.05-3.65 3.95-4.69-2.63-4.69 2.63-3.65-3.95-5.28 1.05-2.25-4.89-5.34-.63-.63-5.34-4.89-2.25 1.05-5.28-3.95-3.65 2.63-4.69-2.63-4.69 3.95-3.65-1.05-5.28 4.89-2.25.63-5.34 5.34-.63 2.25-4.89 5.28 1.05 3.65-3.95 4.69 2.63z"/><path class="c" d="M31.07 2.63l4.7-2.63 3.65 3.95 5.27-1.05 2.26 4.89 5.34.63.63 5.34 4.88 2.25-1.05 5.28 3.95 3.65-2.62 4.69 2.62 4.69-3.95 3.65 1.05 5.28-4.88 2.25-.63 5.34-5.34.63-2.26 4.89-5.27-1.05-3.65 3.95-4.7-2.63-4.69 2.63-3.65-3.95-5.28 1.05-2.25-4.89-5.34-.63-.63-5.34-4.89-2.25 1.06-5.28-3.96-3.65 2.64-4.69-2.64-4.69 3.96-3.65-1.06-5.28 4.89-2.25.63-5.34 5.34-.63 2.25-4.89 5.28 1.05 3.65-3.95 4.69 2.63z"/></g></svg>