<svg width="136" height="62" viewBox="0 0 136 62" fill="none" xmlns="http://www.w3.org/2000/svg">
<g clip-path="url(#clip0_103_1082)">
<path d="M85.75 1H6.75C4.54086 1 2.75 2.79086 2.75 5V53C2.75 55.2091 4.54086 57 6.75 57H85.75C87.9591 57 89.75 55.2091 89.75 53V5C89.75 2.79086 87.9591 1 85.75 1Z" fill="#FFDE00" stroke="#333333" stroke-width="2" stroke-linecap="round" stroke-linejoin="round"/>
<path opacity="0.09" d="M57.29 28.07C57.176 27.7278 57.0391 27.3937 56.88 27.07C55.8088 24.8259 54.1209 22.9331 52.0138 21.6127C49.9066 20.2923 47.4672 19.599 44.9806 19.6136C42.494 19.6283 40.0629 20.3504 37.9715 21.6956C35.88 23.0408 34.2147 24.9534 33.17 27.21C33.0144 27.534 32.8807 27.8681 32.77 28.21C31.9385 30.5593 31.7922 33.0966 32.3481 35.5259C32.9041 37.9552 34.1395 40.1762 35.91 41.93C37.8905 43.8981 40.4551 45.1716 43.22 45.56C45.4826 45.8682 47.7863 45.6034 49.92 44.79C50.2279 44.6752 50.5285 44.5416 50.82 44.39C53.7164 42.9411 55.9773 40.4758 57.1708 37.4653C58.3644 34.4547 58.4068 31.1099 57.29 28.07Z" fill="#333333"/>
<path opacity="0.09" d="M88 0.139999L49.56 30.52C48.5371 31.2455 47.314 31.6352 46.06 31.6352C44.806 31.6352 43.5829 31.2455 42.56 30.52L3.75 1.08V3.6L42.75 34.13C43.7729 34.8555 44.996 35.2452 46.25 35.2452C47.504 35.2452 48.7271 34.8555 49.75 34.13L88.68 3L88 0.139999Z" fill="#333333"/>
<path opacity="0.09" d="M89.75 50.73C89.081 51.3482 88.2652 51.7853 87.38 52H6.49999C6.49999 52 3.63999 50.49 3.74999 48.92V1.29C3.43991 1.43397 3.17945 1.66658 3.00147 1.95846C2.82349 2.25035 2.73598 2.58842 2.74999 2.93L3.10999 52.72C3.17154 53.5059 3.48659 54.2507 4.00777 54.8422C4.52894 55.4337 5.22805 55.84 5.99999 56H86.89C87.6557 55.9166 88.3659 55.5606 88.891 54.9969C89.416 54.4333 89.7209 53.6997 89.75 52.93V50.73Z" fill="#333333"/>
<path d="M4.75 2L42.52 31.61C43.5429 32.3355 44.766 32.7252 46.02 32.7252C47.274 32.7252 48.4971 32.3355 49.52 31.61L86.75 2" fill="white"/>
<path d="M4.75 2L42.52 31.61C43.5429 32.3355 44.766 32.7252 46.02 32.7252C47.274 32.7252 48.4971 32.3355 49.52 31.61L86.75 2" stroke="#333333" stroke-width="2" stroke-linecap="round" stroke-linejoin="round"/>
<path d="M4.62 55.63L42.02 31.48" stroke="#333333" stroke-width="2" stroke-linecap="round" stroke-linejoin="round"/>
<path d="M49.53 31.63L88.25 55" stroke="#333333" stroke-width="2" stroke-linecap="round" stroke-linejoin="round"/>
<path d="M46.3342 43.0023C53.2376 42.9565 58.7968 37.3231 58.751 30.4197C58.7052 23.5163 53.0718 17.9571 46.1684 18.0029C39.265 18.0487 33.7058 23.6821 33.7515 30.5855C33.7973 37.4889 39.4308 43.0481 46.3342 43.0023Z" fill="#333333" stroke="#333333" stroke-width="2" stroke-linecap="round" stroke-linejoin="round"/>
<path d="M46.445 39.3475C51.4156 39.2978 55.4047 35.2281 55.355 30.2575C55.3053 25.2869 51.2356 21.2978 46.265 21.3475C41.2945 21.3972 37.3053 25.4669 37.355 30.4375C37.4047 35.4081 41.4745 39.3972 46.445 39.3475Z" fill="#333333" stroke="white" stroke-linecap="round" stroke-linejoin="round"/>
<path d="M37.31 22C37.3619 22.3893 37.2706 22.7841 37.0532 23.1111C36.8357 23.4381 36.5069 23.675 36.1279 23.7777C35.7488 23.8804 35.3454 23.842 34.9926 23.6695C34.6398 23.497 34.3617 23.2022 34.21 22.84C34 22.08 34.9 20.36 36.98 20.28C37.87 20.24 37.1 21.23 37.31 22Z" fill="#333333"/>
<path d="M58.83 24.59C59.83 28.98 58.69 31.37 57.83 31.38C56.97 31.39 53.83 22.66 53.83 21.77C53.83 20.88 53.83 20.34 54.71 20.34C55.59 20.34 58.22 21.83 58.83 24.59Z" fill="#333333"/>
<path d="M34.82 29.74C34.55 32.21 33.73 34.15 32.98 34.07C32.23 33.99 31 31.92 31.3 29.45C31.6 26.98 33.21 25 34 25.11C34.79 25.22 35.09 27.26 34.82 29.74Z" fill="#333333"/>
<path d="M31.59 39.51C31.6939 39.8501 31.7269 40.2079 31.6869 40.5613C31.647 40.9147 31.535 41.2561 31.3578 41.5645C31.1807 41.8729 30.9422 42.1416 30.657 42.3541C30.3719 42.5666 30.0461 42.7184 29.7 42.8C29.0168 43.0906 28.2501 43.1175 27.5482 42.8755C26.8463 42.6335 26.259 42.1399 25.9 41.49C25.7962 41.1492 25.7636 40.7907 25.8042 40.4368C25.8448 40.0829 25.9576 39.741 26.1358 39.4325C26.3139 39.124 26.5536 38.8554 26.8399 38.6434C27.1262 38.4314 27.453 38.2805 27.8 38.2C28.482 37.9123 29.2464 37.8869 29.946 38.1287C30.6457 38.3706 31.2312 38.8625 31.59 39.51Z" fill="#333333"/>
<path d="M25.2544 49.0015C26.0828 48.996 26.7499 48.32 26.7444 47.4915C26.7389 46.6631 26.0629 45.996 25.2345 46.0015C24.4061 46.007 23.739 46.683 23.7445 47.5114C23.75 48.3399 24.426 49.007 25.2544 49.0015Z" fill="#333333"/>
<path d="M121.39 29.28C119.137 29.1952 116.897 29.662 114.865 30.6396C112.833 31.6173 111.07 33.0764 109.73 34.89C106.377 35.778 102.897 36.0857 99.44 35.8C94.1704 35.6005 88.945 34.7576 83.88 33.29L84.38 52.36C85.1469 52.5345 85.9431 52.5345 86.71 52.36V51.53L87.14 51.29C91.1951 50.5263 95.2983 50.0452 99.42 49.85C104.19 49.68 106.78 50.18 109.84 51.6C111.263 53.4545 113.131 54.9195 115.272 55.8593C117.412 56.799 119.755 57.183 122.083 56.9756C124.411 56.7682 126.65 55.9761 128.59 54.6729C130.531 53.3697 132.111 51.5974 133.183 49.5207C134.256 47.4439 134.787 45.1298 134.727 42.793C134.667 40.4563 134.018 38.1726 132.839 36.1537C131.661 34.1349 129.992 32.4464 127.987 31.2447C125.982 30.0431 123.706 29.3673 121.37 29.28H121.39Z" fill="#FFDE00" stroke="#333333" stroke-width="2.12" stroke-linecap="round" stroke-linejoin="round"/>
<path opacity="0.09" d="M120.35 51.75C118.309 51.6749 116.31 51.1491 114.497 50.2103C112.683 49.2715 111.1 47.943 109.86 46.32C106.8 44.91 104.21 44.41 99.44 44.57C95.3185 44.7619 91.2153 45.2397 87.16 46L86.73 46.24V47.07C85.9631 47.2445 85.1668 47.2445 84.4 47.07L84 33.33H83.86L84.36 52.4C85.1268 52.5745 85.9231 52.5745 86.69 52.4V51.57L87.12 51.33C91.1751 50.5664 95.2783 50.0852 99.4 49.89C104.17 49.72 106.76 50.22 109.82 51.64C111.718 54.1322 114.405 55.9078 117.442 56.6773C120.479 57.4467 123.687 57.1646 126.542 55.877C129.398 54.5894 131.734 52.3722 133.168 49.5869C134.602 46.8017 135.051 43.6127 134.44 40.54C133.809 43.7793 132.044 46.6874 129.461 48.7421C126.879 50.7967 123.648 51.8632 120.35 51.75Z" fill="#333333"/>
<path d="M99.58 42C99.58 32.6 95.7 24.89 90.75 24.08V24H81.75V60H90.75V59.92C95.7 59.11 99.58 51.4 99.58 42Z" fill="#FFDE00" stroke="#333333" stroke-width="2.36" stroke-linecap="round" stroke-linejoin="round"/>
<path d="M79.75 60C85.2728 60 89.75 51.9411 89.75 42C89.75 32.0589 85.2728 24 79.75 24C74.2272 24 69.75 32.0589 69.75 42C69.75 51.9411 74.2272 60 79.75 60Z" fill="white" stroke="#333333" stroke-width="2.36" stroke-linecap="round" stroke-linejoin="round"/>
<path d="M79.75 55.5C83.3399 55.5 86.25 49.6797 86.25 42.5C86.25 35.3203 83.3399 29.5 79.75 29.5C76.1601 29.5 73.25 35.3203 73.25 42.5C73.25 49.6797 76.1601 55.5 79.75 55.5Z" fill="white" stroke="#333333" stroke-width="1.18" stroke-linecap="round" stroke-linejoin="round"/>
<path opacity="0.06" d="M80.25 55C83.8399 55 86.75 49.1797 86.75 42C86.75 34.8203 83.8399 29 80.25 29C76.6601 29 73.75 34.8203 73.75 42C73.75 49.1797 76.6601 55 80.25 55Z" fill="#333333"/>
<path opacity="0.1" d="M103.9 60.75C119.436 60.75 132.03 60.2486 132.03 59.63C132.03 59.0114 119.436 58.51 103.9 58.51C88.3643 58.51 75.77 59.0114 75.77 59.63C75.77 60.2486 88.3643 60.75 103.9 60.75Z" fill="#333333"/>
<path opacity="0.1" d="M45.81 60C71.1102 60 91.62 59.1046 91.62 58C91.62 56.8954 71.1102 56 45.81 56C20.5098 56 0 56.8954 0 58C0 59.1046 20.5098 60 45.81 60Z" fill="#333333"/>
</g>
<defs>
<clipPath id="clip0_103_1082">
<rect width="135.81" height="61.18" fill="white"/>
</clipPath>
</defs>
</svg>
