<svg xmlns="http://www.w3.org/2000/svg" xmlns:xlink="http://www.w3.org/1999/xlink" width="652" height="30"><defs><path id="a" d="M0 0h41.951v28H0z"/><linearGradient id="c" x1="49.125%" x2="49.125%" y1="100.202%" y2="-.323%"><stop offset="71.4%" stop-color="#116BF2"/><stop offset="100%" stop-color="#1E50E5"/></linearGradient><linearGradient id="d" x1="49.122%" x2="49.122%" y1="100.202%" y2="-.323%"><stop offset="71.4%" stop-color="#116BF2"/><stop offset="100%" stop-color="#1E50E5"/></linearGradient><linearGradient id="e" x1="50.382%" x2="127.476%" y1="-35.683%" y2="57.174%"><stop offset="40.8%" stop-color="#116BF2"/><stop offset="100%" stop-color="#185DEC"/></linearGradient><linearGradient id="f" x1="49.128%" x2="49.128%" y1="100.204%" y2="-.322%"><stop offset="57.8%" stop-color="#116BF2"/><stop offset="100%" stop-color="#1E50E5"/></linearGradient><linearGradient id="g" x1="84.709%" x2="55.926%" y1="44.444%" y2="133.333%"><stop offset="3.3%" stop-color="#59C5FF"/><stop offset="98.9%" stop-color="#21B1FF"/></linearGradient><linearGradient id="h" x1="42.857%" x2="71.429%" y1="-44.444%" y2="44.444%"><stop offset="3.9%" stop-color="#59C5FF"/><stop offset="98.9%" stop-color="#21B1FF"/></linearGradient><linearGradient id="i" x1="48.795%" x2="7.832%" y1="102.747%" y2="32.159%"><stop offset="3.9%" stop-color="#57C4FF"/><stop offset="98.9%" stop-color="#21B1FF"/></linearGradient><path id="j" d="M0 0h111.235v20.364H0z"/></defs><g fill="none" fill-rule="evenodd"><path d="M66.077 14.762c-1.053 0-1.811.345-2.58.698v7.969c.736.07 1.159.07 1.858.07 2.526 0 2.872-1.159 2.872-2.777v-3.806c0-1.195-.396-2.154-2.15-2.154zm-16.775-.435c-1.752 0-2.153.964-2.153 2.157v.67h4.303v-.67c0-1.193-.4-2.157-2.15-2.157zm-32.495 8.295c0 .944.444 1.434 1.426 1.434 1.053 0 1.676-.344 2.445-.697v-1.89h-2.303c-1.09 0-1.568.203-1.568 1.153zm65.587-7.86c-1.755 0-2.363.96-2.363 2.154v4.36c0 1.198.608 2.16 2.363 2.16 1.75 0 2.363-.962 2.363-2.16v-4.36c0-1.195-.612-2.154-2.363-2.154zM8.204 27.51h-5.16V14.999H.467v-4.312h2.579V8.098c0-3.517 1.455-5.609 5.59-5.609h3.444v4.313H9.927c-1.61 0-1.716.602-1.716 1.727l-.007 2.158h3.9L11.647 15H8.204V27.51zm17.636.032h-4.3l-.187-1.09a9.845 9.845 0 0 1-4.873 1.267c-3.153 0-4.833-2.111-4.833-5.03 0-3.444 1.96-4.673 5.464-4.673h3.567v-.745c0-1.757-.201-2.273-2.9-2.273h-4.412l.432-4.312h4.822c5.921 0 7.22 1.874 7.22 6.62v10.236zm14.624-12.228c-2.676-.46-3.445-.56-4.732-.56-2.314 0-3.013.51-3.013 2.478v3.722c0 1.968.7 2.482 3.013 2.482 1.287 0 2.056-.103 4.732-.565v4.206c-2.344.526-3.871.665-5.162.665-5.54 0-7.742-2.92-7.742-7.135v-3.02c0-4.22 2.202-7.144 7.742-7.144 1.29 0 2.818.14 5.162.668v4.203zm16.148 5.293h-9.463v.347c0 1.968.7 2.482 3.013 2.482 2.078 0 3.347-.103 6.019-.565v4.206c-2.577.526-3.92.665-6.447.665-5.54 0-7.744-2.92-7.744-7.135v-3.453c0-3.69 1.635-6.71 7.312-6.71 5.677 0 7.31 2.986 7.31 6.71v3.453zm16.774.08c0 4.075-1.162 7.047-8.206 7.047-2.543 0-4.035-.224-6.842-.657V3.784l5.159-.862v8.148c1.114-.415 2.557-.626 3.87-.626 5.16 0 6.019 2.317 6.019 6.04v4.203zm16.536.088c0 3.516-1.45 6.925-7.51 6.925-6.065 0-7.541-3.41-7.541-6.925v-3.394c0-3.517 1.476-6.927 7.54-6.927 6.062 0 7.51 3.41 7.51 6.927v3.394zm16.524 0c0 3.516-1.45 6.925-7.511 6.925-6.065 0-7.54-3.41-7.54-6.925v-3.394c0-3.517 1.475-6.927 7.54-6.927 6.06 0 7.51 3.41 7.51 6.927v3.394zm16.958 6.735h-5.592l-4.728-7.908v7.908h-5.16V3.784l5.16-.862v15.274l4.728-7.509h5.592l-5.163 8.194 5.163 8.63zM98.918 14.76c-1.753 0-2.361.96-2.361 2.155v4.36c0 1.198.608 2.16 2.36 2.16 1.75 0 2.37-.962 2.37-2.16v-4.36c0-1.195-.62-2.154-2.37-2.154zm27.431 9.799c.869 0 1.561.71 1.561 1.596 0 .9-.692 1.602-1.567 1.602a1.58 1.58 0 0 1-1.577-1.602c0-.887.706-1.596 1.577-1.596h.006zm-.006.248c-.7 0-1.273.603-1.273 1.348 0 .758.573 1.353 1.28 1.353.706.007 1.27-.595 1.27-1.346 0-.752-.564-1.355-1.27-1.355h-.007zm-.297 2.277h-.284v-1.781c.149-.02.29-.042.502-.042.27 0 .445.057.553.134.104.079.16.199.16.368 0 .236-.154.377-.345.434v.014c.155.03.261.17.297.432.042.277.084.383.112.44h-.296c-.042-.057-.085-.22-.12-.454-.042-.226-.156-.312-.383-.312h-.196v.767zm0-.986h.205c.232 0 .43-.085.43-.306 0-.155-.113-.311-.43-.311-.093 0-.157.007-.205.014v.603z" fill="#3B5998" fill-rule="nonzero"/><g fill="#000" fill-rule="nonzero"><path d="M151.29 4.853c.46-.543.76-1.11.76-1.71 0-1.006-.829-1.641-1.841-1.641-.944 0-1.727.612-1.876 1.64l-1.381-.334c.265-1.687 1.634-2.75 3.245-2.75 1.807 0 3.246 1.236 3.246 3.073 0 1.005-.46 1.918-1.128 2.692-1.335 1.56-1.37 1.618-2.808 3.328h3.97v1.432h-6.399v-.612l4.213-5.118z"/><path d="M147.101 17.596l.012-5.222h11.29c.115.728.172 1.479.172 2.23 0 7.903-6.41 14.338-14.282 14.338-7.871.012-14.281-6.424-14.281-14.326 0-7.903 6.41-14.339 14.281-14.339v5.06c-5.098 0-9.24 4.16-9.24 9.279 0 5.118 4.142 9.277 9.24 9.277 4.051 0 7.515-2.634 8.758-6.297M169.14 13.991c0-3.778.23-5.315.851-6.239.783-1.155 2.29-1.79 4.258-1.79 1.738 0 3.188.508 3.96 1.42.586.647.828 1.549.828 2.97v.855h-3.188c-.046-1.618-.092-1.907-.322-2.253-.254-.393-.737-.636-1.324-.636-.633 0-1.15.278-1.37.694-.322.647-.414 1.837-.414 4.956 0 2.577.115 4.079.323 4.714.184.532.713.832 1.415.832 1.243 0 1.588-.636 1.692-3.016h3.176c-.023 2.01-.138 2.831-.564 3.617-.587 1.132-2.129 1.767-4.35 1.767-2.59 0-4.154-.959-4.672-2.807-.196-.751-.3-2.565-.3-5.084zm11.727-7.787h4.937c2.37 0 2.796.092 3.625.763.736.612 1.105 1.617 1.105 3.107 0 1.248-.254 2.207-.737 2.854-.414.566-.92.809-2.002 1.052 2.06.254 2.773 1.224 2.796 3.824 0 .416.046 1.27.092 2.334.046.74.07.878.253 1.525h-3.395c-.138-1.005-.138-1.028-.138-2.923 0-1.86-.138-2.785-.506-3.2-.253-.278-.53-.347-1.347-.347h-1.542v6.481h-3.141V6.204zm4.43 6.701c1.439 0 1.957-.612 1.957-2.23 0-.855-.23-1.548-.61-1.883-.276-.231-.484-.277-1.266-.277h-1.393v4.39h1.312zm7.239 1.005c0-3.604.161-4.852.783-5.938.736-1.329 2.267-2.01 4.442-2.01 2.405 0 4.04.9 4.672 2.599.322.832.46 2.46.46 5.43 0 3.247-.16 4.783-.61 5.662-.736 1.467-2.313 2.253-4.5 2.253-2.186 0-3.693-.67-4.453-2.01-.621-1.075-.794-2.358-.794-5.986zm5.179 5.615c.955 0 1.519-.462 1.715-1.374.115-.59.207-2.6.207-4.76 0-2.323-.115-3.686-.346-4.24-.207-.51-.805-.833-1.565-.833-.874 0-1.484.393-1.657 1.063-.161.647-.253 2.253-.253 4.714 0 2.045.069 3.385.184 4.032.173.936.737 1.398 1.715 1.398zm6.214-13.321h3.211l1.047 5.638c.369 2.045.46 3.905.633 7.464.645-4.737.852-6.054 1.151-7.464l1.22-5.638h3.602l1.151 5.638c.53 2.577.645 4.321.806 7.464.207-2.623.414-4.54.92-7.464l1.002-5.638h2.82l-3.108 15.47h-3.487l-1.462-7.186c-.253-1.248-.564-4.17-.633-5.754-.46 3.478-.483 3.975-.851 5.754l-1.496 7.186h-3.568l-2.958-15.47zm18.932 0h4.304c2.497 0 3.257.139 4.04.693.977.717 1.46 1.964 1.668 4.414.069.959.115 2.183.115 3.27 0 2.784-.196 4.147-.644 5.06-.645 1.306-2.13 2.045-4.04 2.045h-5.432l-.011-15.482zm4.591 13.033c1.105 0 1.715-.255 1.934-.832.23-.613.3-1.502.3-4.033 0-2.76-.093-3.974-.346-4.737-.23-.647-.852-1.005-1.807-1.005h-1.439v10.607h1.358zM163.443.116h1.024v28.549h-1.024z"/></g><g transform="translate(401 1)"><mask id="b" fill="#fff"><use xlink:href="#a"/></mask><g fill-rule="nonzero" mask="url(#b)"><path fill="url(#c)" d="M0 0a.956.956 0 0 1 .28.194l4.525 4.531c.18.179.28.422.28.675v20.87a.318.318 0 0 1-.542.224L.28 22.226A.952.952 0 0 1 0 21.55V0z" transform="translate(12.713 1.359)"/><path fill="url(#d)" d="M4.81.189A.945.945 0 0 1 5.085 0v21.55c0 .254-.1.497-.28.676L.543 26.494a.318.318 0 0 1-.543-.22V5.392a.954.954 0 0 1 .28-.666L4.805.194 4.81.19z" transform="translate(20.34 1.359)"/><path fill="url(#e)" d="M7.945 4.773l-.317-.318V0H3.31a.319.319 0 0 0-.223.091l-.002.002L0 3.182l9.89 9.902.005.005a.954.954 0 0 0 .67.275h5.194a.318.318 0 0 0 .225-.544L7.945 4.773z" transform="translate(25.425 13.363)"/><path fill="url(#f)" d="M5.394 0a.952.952 0 0 0-.67.275L4.72.28.194 4.81l-.004.005a.959.959 0 0 0-.19.276h12.627v11.454l.318.319 4.488-4.493a.957.957 0 0 0 .28-.676l-.001-6.209c0-.253-.1-.496-.28-.675L12.907.28a.952.952 0 0 0-.674-.28H5.394z" transform="translate(20.426 1.273)"/><path fill="url(#g)" d="M12.861.28a.951.951 0 0 0-.674-.28H.318a.318.318 0 0 0-.224.543l4.263 4.268a.95.95 0 0 0 .674.28h12c.35 0 .636.285.636.636v-.24c0-.254-.1-.497-.28-.676L12.862.28h-.001z" transform="translate(.13 1.273)"/><path fill="url(#h)" d="M4.805.28C4.985.1 5.227 0 5.48 0h6.838c.253 0 .496.1.674.28l4.526 4.53c.18.18.28.423.28.676v.241a.636.636 0 0 0-.636-.636H.636A.636.636 0 0 0 0 5.727v-.24c0-.254.1-.497.28-.676L4.805.28z" transform="translate(20.34 1.273)"/><path fill="url(#i)" d="M9.31 0a.636.636 0 0 1-.636.636H.16a.16.16 0 0 0-.112.272L4.543 5.41 9.03.916c.18-.18.28-.422.28-.675V0z" transform="translate(28.829 12.728)"/></g><g transform="translate(45.765 3.818)"><mask id="k" fill="#fff"><use xlink:href="#j"/></mask><g fill="#1B3AB5" fill-rule="nonzero" mask="url(#k)"><path d="M111.108 14.492c0-2.151-1.237-2.952-4.237-3.712-1.804-.443-2.286-.802-2.286-1.434 0-.633.566-1.054 1.74-1.054 1.196 0 2.56.4 3.714 1.011l.377-2.298c-1.154-.506-2.559-.801-4.07-.801-2.705 0-4.3 1.392-4.3 3.332 0 2.088 1.175 2.89 4.007 3.585 1.972.464 2.517.78 2.517 1.624 0 .76-.755 1.223-2.076 1.223-1.49 0-3.063-.548-4.3-1.328l-.357 2.32c1.112.569 2.853 1.096 4.552 1.096 3.062 0 4.72-1.328 4.72-3.564zM100.43 17.818V6.363h-2.782v7.78c-.902.882-1.874 1.47-2.86 1.47-1.133 0-1.59-.693-1.59-1.701V6.363h-2.78v8.284c0 2.12 1.175 3.402 3.419 3.402 1.573 0 2.858-.814 3.97-1.822l.397 1.59h2.225zM88.775 17.818V6.363h-2.749v11.455zM87.409 1.354c.923 0 1.643.672 1.643 1.596s-.72 1.596-1.643 1.596-1.672-.672-1.672-1.596.749-1.596 1.672-1.596zM81.635 13.997c-.818.987-1.7 1.617-2.832 1.617-1.384 0-2.412-1.071-2.412-3.318 0-2.52 1.195-3.738 2.832-3.738 1.048 0 1.657.168 2.412.504v4.935zm2.748 3.822V.796l-2.748.477v5.52c-.734-.251-1.657-.44-2.79-.44-2.769 0-5.223 1.89-5.223 6.11 0 3.823 2.014 5.587 4.51 5.587 1.657 0 2.81-.84 3.67-1.806l.24 1.575h2.34zM69.736 14.688c-.881.798-1.888 1.281-2.937 1.281-.965 0-1.552-.525-1.552-1.344 0-1.092.86-2.079 4.489-2.478v2.541zm2.726 3.129v-7.791c0-2.688-1.468-3.78-4.488-3.78-1.867 0-3.273.378-4.657.924l.336 2.184c1.28-.525 2.6-.903 3.985-.903 1.322 0 2.098.462 2.098 1.701v.357c-4.867.462-7.216 1.638-7.216 4.389 0 1.974 1.363 3.15 3.398 3.15 1.762 0 3-.756 3.985-1.701l.252 1.47h2.307zM62.069 17.42l-4.384-6.006c1.992-.63 3.293-2.028 3.293-4.254 0-2.94-2.119-4.614-5.622-4.614h-4.824v15.273h2.853v-5.887h1.384l4.28 6.034 3.02-.546zM58.125 7.319c0 1.596-1.195 2.466-3.146 2.466h-1.615V4.932h1.783c1.95 0 2.978.854 2.978 2.387zM49.097 17.818l-.335-2.29c-.273.064-.63.085-.986.085-1.133 0-1.573-.504-1.573-1.428V8.59h2.9l-.477-2.228h-2.423V2.386l-2.707.48v3.497h-1.862v2.228h1.862v6.056c0 2.562 1.511 3.36 3.776 3.36.839 0 1.385-.084 1.825-.19zM41.052 14.492c0-2.151-1.237-2.952-4.237-3.712-1.804-.443-2.286-.802-2.286-1.434 0-.633.566-1.054 1.74-1.054 1.196 0 2.56.4 3.714 1.011l.377-2.298c-1.154-.506-2.559-.801-4.07-.801-2.705 0-4.3 1.392-4.3 3.332 0 2.088 1.175 2.89 4.007 3.585 1.972.464 2.517.78 2.517 1.624 0 .76-.755 1.223-2.076 1.223-1.49 0-3.022-.552-4.26-1.332l-.397 2.323c1.112.57 2.862 1.097 4.56 1.097 3.063 0 4.711-1.328 4.711-3.564zM30.51 17.818V6.363h-2.78v7.78c-.903.882-1.875 1.47-2.861 1.47-1.133 0-1.59-.693-1.59-1.701V6.363H20.5v8.284c0 2.12 1.175 3.402 3.419 3.402 1.573 0 2.858-.814 3.97-1.822l.397 1.59h2.225zM19.228 8.909l-.636-2.705c-1.748.318-2.801 1.24-3.598 2.542l-.533-2.383h-2.066v11.455h2.701v-6.523c.84-1.24 2.265-2.281 4.132-2.386z"/><path d="M14.143 5.091l-.636-2.545H0v2.545h5.085v12.728h2.86V5.091z"/></g></g></g><g fill-rule="nonzero"><path fill="#127CC0" d="M270.09 20.3c-.074-.218-.295-.363-.515-.29-.589.29-1.692.507-2.501.507-3.973 0-5.665-3.117-5.665-6.524 0-2.973 1.177-5.873 4.635-5.873 1.25 0 1.986.29 2.133 1.088l.22 1.304c.074.218.221.29.369.29h.956c.22 0 .368-.144.368-.362V6.815c0-.218-.147-.363-.295-.435-.882-.218-2.354-.362-3.163-.362-5.15 0-8.975 3.262-8.975 8.41 0 4.857 3.605 8.41 8.68 8.41 1.62 0 3.311-.508 3.973-.798.147-.072.221-.29.147-.508-.073.073-.367-1.232-.367-1.232zm9.563-1.45c0 .942-.736 1.957-2.06 1.957-1.103 0-1.913-.724-1.913-1.74 0-1.305.957-2.32 3.752-2.32.147 0 .22.073.22.218v1.885zm4.634 2.175c0-.217-.147-.29-.367-.29-.221.073-.368.073-.589.073-.441 0-.588-.29-.588-.726V14.5c0-3.262-1.913-4.495-4.93-4.495-1.47 0-3.015.29-4.119.725-.22.072-.294.29-.22.508l.294 1.45c.073.29.294.29.515.217.662-.362 1.618-.652 2.648-.652 1.545 0 2.722.58 2.722 2.03v.507c0 .145-.074.363-.22.363-3.679 0-6.842 1.16-6.842 4.495 0 1.957 1.398 3.407 3.604 3.407 1.913 0 2.943-.87 3.752-1.668h.074c.073.943.588 1.668 1.912 1.668.81 0 1.913-.218 2.28-.363.148-.072.221-.145.221-.362l-.147-1.305zm5.959-6.742c0-1.16.956-1.958 2.207-1.958 1.986 0 2.795 1.958 2.795 3.988 0 2.03-.735 4.277-3.09 4.277-1.25 0-1.912-.58-1.912-1.595v-4.713zm1.84 13.05c.22 0 .367-.145.367-.363v-.58c0-.145-.074-.363-.294-.363l-1.472-.217c-.22-.072-.441-.29-.441-.725v-2.61c.294 0 .883.072 1.324.072 4.561 0 7.062-2.755 7.062-6.887 0-3.408-1.986-5.655-4.781-5.655-1.84 0-2.943.942-3.826 1.813h-.073l-.147-1.306c0-.217-.148-.434-.442-.362l-3.899.362c-.22 0-.367.146-.367.363v.58c0 .145.073.29.294.363l1.103.145c.368.072.515.507.515.797v12.325c0 .508-.22.725-.441.725l-.957.29c-.22.072-.294.217-.294.362v.58c0 .218.147.363.368.363l6.4-.073zm16.404-6.743c0-.218-.221-.29-.442-.29-.515.145-.956.29-1.471.29-1.324 0-2.06-.87-2.06-2.175V12.76c0-.145.147-.29.368-.29h3.016c.074 0 .147-.145.147-.218v-1.45c0-.072-.073-.217-.147-.217h-3.016c-.147 0-.294-.145-.294-.29V7.758c0-.29-.074-.436-.368-.363l-2.354.725c-.294.073-.368.29-.368.58v1.523c0 .217 0 .362-.294.362h-1.471c-.074 0-.147.145-.147.217l-.148 1.378c0 .218 0 .29.148.29h1.618c.147 0 .294.072.294.29v6.38c0 2.392 1.692 3.77 4.046 3.77.956 0 2.207-.218 3.016-.58.147-.072.22-.217.22-.435l-.293-1.305zm8.9-7.105c0 1.668-1.618 2.248-3.236 2.248-.368 0-.736 0-.956-.073-.221 0-.295-.072-.295-.29-.073-1.522.736-3.697 2.649-3.697 1.03-.073 1.839.797 1.839 1.812zm2.576 6.67c-.074-.218-.295-.363-.515-.218-.589.29-1.472.726-2.722.726-1.692 0-3.531-1.088-3.678-2.973 0-.218.073-.29.294-.29.515 0 1.03.073 1.618.073 2.501 0 5.591-1.088 5.591-3.843 0-2.393-2.207-3.698-4.56-3.698-3.458 0-6.327 2.683-6.327 6.453 0 3.842 2.207 6.525 6.547 6.525 1.324 0 2.795-.363 3.825-.942.147-.073.294-.29.22-.508l-.293-1.305zm9.048 2.465c.22 0 .368-.145.368-.363v-.58c0-.145-.074-.29-.295-.362l-1.47-.218c-.222 0-.442-.29-.442-.725v-5.51c0-1.232 1.103-2.03 2.28-2.03.442 0 1.104.073 1.471.218.221.072.442-.073.515-.218l.515-2.247c.074-.29 0-.435-.147-.508-.294-.145-.735-.217-1.103-.217-1.545 0-2.649 1.015-3.605 2.32h-.073l-.221-1.813c0-.29-.147-.435-.368-.435l-3.899.435c-.22 0-.368.145-.368.363v.58c0 .145.074.29.295.362l1.177.218c.367.072.515.508.515.797V20.3c0 .508-.221.725-.442.725l-1.03.218c-.22.072-.294.217-.294.362v.58c0 .218.147.363.368.363-.147.072 6.253.072 6.253.072zm10.666 0c.221 0 .368-.145.368-.363v-.58c0-.145-.073-.29-.294-.362l-1.471-.218c-.22 0-.442-.29-.442-.725v-5.51c0-1.232 1.104-2.03 2.28-2.03.442 0 1.104.073 1.472.218.22.072.441-.073.515-.218l.515-2.247c.074-.29 0-.435-.147-.508-.294-.145-.736-.217-1.104-.217-1.544 0-2.648 1.015-3.604 2.32h-.074l-.22-1.813c0-.29-.148-.435-.368-.435l-3.9.435c-.22 0-.367.145-.367.363v.58c0 .145.074.29.294.362l1.177.218c.368.072.515.508.515.797V20.3c0 .508-.22.725-.441.725l-1.03.218c-.22.072-.294.217-.294.362v.58c0 .218.147.363.368.363-.074.072 6.252.072 6.252.072zm11.256-3.77c0 .942-.736 1.957-2.06 1.957-1.104 0-1.913-.724-1.913-1.74 0-1.305.957-2.32 3.752-2.32.147 0 .22.073.22.218v1.885zm4.634 2.175c0-.217-.147-.29-.368-.29-.22.073-.368.073-.588.073-.442 0-.662-.29-.662-.726V14.5c0-3.262-1.913-4.495-4.929-4.495-1.471 0-3.016.29-4.12.725-.22.072-.294.29-.22.508l.294 1.45c.074.29.294.29.515.217.662-.362 1.618-.652 2.648-.652 1.545 0 2.722.58 2.722 2.03v.507c0 .145-.073.363-.22.363-3.752 0-6.842 1.16-6.842 4.495 0 1.957 1.398 3.407 3.605 3.407 1.912 0 2.942-.87 3.678-1.668h.073c.074.943.662 1.668 1.913 1.668.81 0 1.913-.218 2.28-.363.148-.072.221-.145.221-.362v-1.305z"/><path fill="#88BDDF" d="M236.03 13.703h4.267c.147 0 .294-.073.294-.218.441-1.667 1.912-2.9 3.678-2.9 1.765 0 3.31 1.16 3.678 2.9 0 .145.147.218.294.218h4.267c.147 0 .294-.146.294-.29v-.29c-.22-2.828-2.427-7.975-8.312-13.05a.475.475 0 0 0-.442 0c-.073.072-6.032 5.147-7.945 11.6-.147.362-.22.652-.294.942 0 0 0 .072-.073.29l-.074.435c0 .072 0 .145.074.217.147.073.22.146.294.146z"/><path fill="#59A3D2" d="M252.508 15.297h-4.267c-.147 0-.294.073-.294.218-.441 1.668-1.913 2.9-3.678 2.9-1.766 0-3.31-1.16-3.678-2.9 0-.145-.147-.218-.294-.218h-4.267c-.147 0-.294.146-.294.29v.29c.22 2.828 2.5 7.975 8.312 13.05a.475.475 0 0 0 .442 0c.073-.072 6.032-5.147 7.944-11.6.148-.362.221-.652.295-.942 0 0 0-.073.073-.29l.074-.435c0-.072 0-.145-.074-.217a.56.56 0 0 0-.294-.146z"/><path fill="#127CC0" d="M355.864 7.395c0-.29.074-.58.147-.87.074-.29.221-.508.295-.725.147-.218.294-.435.515-.652.22-.218.441-.363.662-.508.22-.145.515-.217.735-.29.295-.072.589-.145.883-.145.294 0 .589.072.883.145.294.073.515.218.736.29.22.145.44.29.662.508.22.217.367.434.515.652.147.218.22.508.294.725.073.217.147.58.147.87 0 .29-.074.58-.147.87-.074.29-.22.508-.294.725-.074.217-.295.435-.515.652-.221.218-.442.363-.662.508-.221.145-.515.217-.736.29-.294.072-.589.145-.883.145-.294 0-.588-.073-.883-.145-.294-.072-.515-.217-.735-.29a4.036 4.036 0 0 1-.662-.508c-.221-.217-.368-.434-.515-.652-.147-.217-.22-.508-.295-.725a3.075 3.075 0 0 1-.147-.87zm.442 0c0 .29 0 .508.073.725.074.218.147.435.295.653.147.217.294.362.44.58.148.145.369.29.59.434.22.145.44.218.662.29.22.073.514.073.735.073a2.99 2.99 0 0 0 1.104-.218c.367-.145.662-.362.882-.58.221-.217.442-.58.589-.87.147-.362.22-.724.22-1.087 0-.29 0-.507-.073-.725-.074-.218-.147-.435-.294-.652-.147-.218-.295-.363-.442-.58-.147-.218-.367-.29-.588-.435-.22-.146-.442-.218-.662-.29-.22-.073-.515-.073-.736-.073a2.99 2.99 0 0 0-1.103.218 2.648 2.648 0 0 0-.883.58c-.22.29-.441.58-.589.87-.147.29-.22.652-.22 1.087zm2.133.363V9.28h-.662V5.438h1.25c.516 0 .883.072 1.104.29.22.217.368.434.368.797 0 .29-.074.507-.22.725-.148.218-.369.29-.736.362.073 0 .073.073.147.146 0 .072.073.072.073.144l1.03 1.45h-.662c-.074 0-.147 0-.22-.145l-.883-1.305c0-.072-.074-.072-.074-.072h-.515v-.072zm0-.508h.515c.147 0 .294 0 .441-.072.148 0 .221-.073.295-.146.073-.072.147-.144.147-.217 0-.073.073-.145.073-.29 0-.073 0-.218-.073-.29 0-.073-.074-.145-.147-.218-.074-.072-.147-.072-.221-.145-.074 0-.22-.072-.368-.072h-.588v1.45h-.074z"/></g><path fill="#1DA1F2" fill-rule="nonzero" d="M375.692 28.944c12.83 0 19.848-10.728 19.848-20.031 0-.305 0-.608-.02-.91A14.266 14.266 0 0 0 399 4.359c-1.273.569-2.624.942-4.007 1.107a7.053 7.053 0 0 0 3.067-3.894 13.902 13.902 0 0 1-4.43 1.71 6.936 6.936 0 0 0-8.38-1.386c-2.783 1.503-4.22 4.703-3.507 7.806a19.744 19.744 0 0 1-14.377-7.356c-1.851 3.217-.905 7.332 2.16 9.398a6.876 6.876 0 0 1-3.166-.88v.088c0 3.352 2.342 6.238 5.596 6.902a6.903 6.903 0 0 1-3.15.12c.914 2.868 3.533 4.833 6.518 4.89A13.916 13.916 0 0 1 365 25.78a19.617 19.617 0 0 0 10.692 3.157"/><g fill-rule="nonzero" transform="translate(560 1)"><circle cx="14.417" cy="14.417" r="14.417" fill="#4171D6"/><path fill="#FFF" d="M11.849 16.779c.43.146.833.258 1.209.337.376.08.708.119.994.119.538 0 .94-.076 1.21-.228.268-.152.402-.344.402-.575 0-.218-.098-.398-.295-.538a3.65 3.65 0 0 0-.753-.392c-.304-.121-.63-.252-.976-.392a4.637 4.637 0 0 1-.976-.538 2.764 2.764 0 0 1-.752-.811c-.197-.322-.296-.733-.296-1.232 0-.425.078-.817.233-1.176.155-.358.394-.666.716-.92.323-.256.726-.457 1.21-.603.483-.146 1.053-.219 1.71-.219.49 0 .929.034 1.317.1.388.068.713.132.976.192 0 0 .175.206.09 1.024-.083.818-.27.982-.27.982a8.054 8.054 0 0 0-.832-.219 4.633 4.633 0 0 0-.94-.09c-.538 0-.94.07-1.21.21-.268.139-.403.318-.403.537 0 .182.099.332.296.447.197.116.448.228.752.337.305.11.63.235.977.374.346.14.671.323.976.547.304.225.555.514.752.867.197.352.296.796.296 1.331 0 .413-.08.803-.242 1.167-.161.365-.4.681-.717.949-.316.267-.713.477-1.19.629-.479.152-1.034.228-1.667.228-.442 0-.91-.04-1.406-.119a9.259 9.259 0 0 1-1.37-.319s-.136-.35-.136-.974.315-1.032.315-1.032"/><path fill="#4171D6" d="M91.27 9.746l-2.99 10.683c-.271.943-.678 1.618-1.22 2.026-.543.408-1.239.612-2.088.612-.483 0-.95-.05-1.397-.15 0 0-.108-.359-.072-.973.035-.613.249-1.043.249-1.043.212.075.442.113.69.113.341 0 .65-.073.928-.217.109-.057.205-.131.287-.222l-.359-1.276-.866-3.072-1.813-6.481s.107-.135 1.26-.135c1.152 0 1.323.135 1.323.135L87.042 17l1.645-7.255s.134-.135 1.279-.135c1.146 0 1.303.135 1.303.135m-15.378-.003s.343-.132 1.088-.132c.746 0 1.03.132 1.03.132l.472 1.232c.265-.368.536-.65.813-.846.278-.196.552-.334.823-.414.27-.08.532-.113.785-.101.251.012.485.043.699.092 0 0 .101.562.034 1.204-.068.643-.242 1.114-.242 1.114a5.616 5.616 0 0 0-.88-.037 3.689 3.689 0 0 0-.717.101c-.221.056-.423.126-.606.212-.182.086-.368.178-.557.276v6.494s-.133.153-1.37.153c-1.238 0-1.372-.153-1.372-.153V9.743zm-4.701 3.79c.025-.706-.09-1.213-.347-1.523a1.239 1.239 0 0 0-1-.465c-.488 0-.876.164-1.165.492-.289.328-.466.827-.53 1.496h3.042zm2.387 5.18c-.514.145-1.043.267-1.588.364-.546.097-1.21.146-1.993.146a6.408 6.408 0 0 1-1.838-.256 3.732 3.732 0 0 1-1.482-.83c-.417-.382-.748-.878-.992-1.486-.243-.608-.365-1.355-.365-2.243 0-.875.118-1.62.356-2.234.237-.614.564-1.11.982-1.487.416-.376.907-.65 1.472-.82a6.31 6.31 0 0 1 1.829-.256c.693 0 1.306.107 1.838.32.533.212.972.544 1.319.994.346.45.59 1.024.731 1.723.141.7.16 1.53.058 2.49h-5.756c.077 1.398.944 2.097 2.6 2.097.55 0 1.039-.058 1.462-.173.424-.116.815-.234 1.174-.356 0 0 .226.396.275 1.064.048.668-.082.942-.082.942zm-14.541-6.568H57.72s-.09-.397-.09-.94c0-.544.088-.913.09-.913h1.332v-3.44s.288-.124 1.196-.124c.91 0 1.273.11 1.157.11v3.454h1.728s.083.277.083.947c0 .67-.083.906-.083.906h-1.728v4.21c0 .273.09.496.272.668.18.172.458.258.83.258.231 0 .472-.035.725-.107l.164 1.906c-.23.06-.458.098-.683.116a8.429 8.429 0 0 1-.666.027c-.417 0-.809-.054-1.176-.16a2.745 2.745 0 0 1-.955-.481 2.378 2.378 0 0 1-.642-.784c-.159-.309-.238-.671-.238-1.087v-4.566zm-6.731-.003H51.01s-.108-.152-.108-.896c0-.745.108-.943.108-.943h1.295V9.244c0-.404.078-.763.234-1.076.157-.312.367-.575.631-.79.265-.213.577-.375.939-.485.361-.11.747-.165 1.157-.165.216 0 .434.009.655.026.221.017.445.055.672.113 0 0 .123.23.055.977-.067.747-.217.88-.217.88a2.643 2.643 0 0 0-.712-.104c-.367 0-.64.084-.817.251a.854.854 0 0 0-.267.651v.78h1.7s.075.16.075.928-.076.912-.076.912h-1.699v6.96s-.2.12-1.196.12c-.995 0-1.134-.12-1.134-.12v-6.96zm-6.152-1.9s.443.081 1.385.081c.94 0 1.384-.082 1.384-.082v8.86s-.134.122-1.384.122-1.385-.122-1.385-.122v-8.86zm-.057-3.408s.33-.106 1.442-.106c1.11 0 1.441.106 1.441.106v2.08s-.418.091-1.441.091c-1.024 0-1.442-.092-1.442-.092v-2.08zm-8.335 9.945c.43.146.833.258 1.209.337.376.08.707.119.994.119.537 0 .94-.076 1.21-.228.268-.152.402-.344.402-.575 0-.218-.098-.398-.295-.538a3.65 3.65 0 0 0-.753-.392c-.304-.121-.63-.252-.976-.392a4.637 4.637 0 0 1-.976-.538 2.764 2.764 0 0 1-.753-.811c-.197-.322-.295-.733-.295-1.232 0-.425.077-.817.233-1.176.155-.358.394-.666.716-.92.323-.256.726-.457 1.21-.603.483-.146 1.053-.219 1.71-.219.49 0 .929.034 1.317.1.388.068.713.132.976.192 0 0 .174.206.09 1.024-.083.818-.27.982-.27.982a8.054 8.054 0 0 0-.832-.219 4.633 4.633 0 0 0-.94-.09c-.538 0-.941.07-1.21.21-.268.139-.403.318-.403.537 0 .182.099.332.296.447.197.116.448.228.752.337.305.11.63.235.976.374.347.14.672.323.977.547.304.225.555.514.752.867.197.352.296.796.296 1.331 0 .413-.081.803-.242 1.167-.161.365-.4.681-.717.949-.316.267-.713.477-1.19.629-.479.152-1.034.228-1.667.228-.442 0-.91-.04-1.406-.119a9.259 9.259 0 0 1-1.37-.319s-.136-.35-.136-.974.315-1.032.315-1.032"/></g></g></svg>
