<svg fill="none" height="114" viewBox="0 0 94 114" width="94" xmlns="http://www.w3.org/2000/svg"><path clip-rule="evenodd" d="m47 4c-11.7273 8.4697-28.3409 14.6591-43 16.6136 0 45.6061 17.5909 71.6667 43 88.9314 25.4091-17.2647 43-43.3253 43-88.9314-14.6591-1.9545-31.2727-8.1439-43-16.6136z" fill="#fff" fill-rule="evenodd"/><circle cx="47.5" cy="56.5" fill="#fedc31" r="21.5" stroke="#252525" stroke-width="4"/><path clip-rule="evenodd" d="m0 20.6136c0-2.0048 1.48412-3.6999 3.47134-3.9649 14.08086-1.8774 30.05426-7.85133 41.18666-15.891417 1.3981-1.009711 3.2859-1.009711 4.684 0 11.1324 8.040087 27.1058 14.014017 41.1867 15.891417 1.9872.265 3.4713 1.9601 3.4713 3.9649 0 23.3271-4.5024 41.9077-12.4328 56.9584-7.9344 15.0583-19.1795 26.354-32.3191 35.282-1.3569.922-3.1393.922-4.4962 0-13.1396-8.928-24.3847-20.2237-32.3191-35.282-7.93041-15.0507-12.4328-33.6313-12.4328-56.9584zm47 88.9314c-25.4091-17.2647-43-43.3253-43-88.9314 14.6591-1.9545 31.2727-8.1439 43-16.6136 11.7273 8.4697 28.3409 14.6591 43 16.6136 0 45.6061-17.5909 71.6667-43 88.9314z" fill="#252525" fill-rule="evenodd"/><path d="m57 50-13.0286 14-5.9714-7.5833" stroke="#252525" stroke-linecap="round" stroke-linejoin="round" stroke-width="4"/></svg>