
<svg width="96px" height="45px" viewBox="0 0 96 45" version="1.1" xmlns="http://www.w3.org/2000/svg" xmlns:xlink="http://www.w3.org/1999/xlink">
    <g id="Page-1" stroke="none" stroke-width="1" fill="none" fill-rule="evenodd">
        <g id="share-icons" fill-rule="nonzero">
            <path d="M6.91076431,20 C15.212485,20 19.755102,13.0728346 19.755102,7.0757874 C19.755102,6.88090551 19.755102,6.68602362 19.7462985,6.49114173 C20.6266507,5.85334646 21.392557,5.04724409 22,4.13484252 C21.190076,4.4980315 20.3185274,4.73720472 19.4029612,4.8523622 C20.3361345,4.29429134 21.0492197,3.3996063 21.392557,2.33661417 C20.5210084,2.85925197 19.552621,3.23129921 18.522609,3.43503937 C17.695078,2.5492126 16.5242097,2 15.230092,2 C12.7386955,2 10.7138856,4.03740157 10.7138856,6.54429134 C10.7138856,6.89862205 10.7579032,7.24409449 10.8283313,7.58070866 C7.07803121,7.39468504 3.75030012,5.57874016 1.5230092,2.83267717 C1.13565426,3.50590551 0.915566226,4.28543307 0.915566226,5.11811024 C0.915566226,6.69488189 1.71668668,8.08562992 2.92276911,8.90059055 C2.18327331,8.87401575 1.48779512,8.67027559 0.880352141,8.33366142 C0.880352141,8.35137795 0.880352141,8.36909449 0.880352141,8.39566929 C0.880352141,10.5925197 2.43857543,12.4350394 4.49859944,12.851378 C4.12004802,12.9576772 3.72388956,13.0108268 3.31012405,13.0108268 C3.01960784,13.0108268 2.73789516,12.984252 2.46498599,12.9311024 C3.03721489,14.738189 4.70988395,16.0492126 6.68187275,16.0846457 C5.13245298,17.3070866 3.18687475,18.0334646 1.07402961,18.0334646 C0.713085234,18.0334646 0.352140856,18.015748 0,17.9714567 C1.98959584,19.2470472 4.36654662,20 6.91076431,20" id="Path" fill="#1DA1F2"></path>
            <path d="M24,2 L24,20 C24,21.1045695 24.8954305,22 26,22 L35.7508039,22 L35.7508039,13.4804578 L32.8836863,13.4804578 L32.8836863,10.1602246 L35.7508039,10.1602246 L35.7508039,7.71172533 C35.7508039,4.87000648 37.4864314,3.32282444 40.0211765,3.32282444 C41.2354902,3.32282444 42.2789804,3.41308573 42.583098,3.45368171 L42.583098,6.42323472 L40.8250392,6.42409847 C39.4463725,6.42409847 39.1795686,7.07903261 39.1795686,8.04038005 L39.1795686,10.1602246 L42.4672745,10.1602246 L42.0393529,13.4804578 L39.1795686,13.4804578 L39.1795686,22 L44,22 C45.1045695,22 46,21.1045695 46,20 L46,2 C46,0.8954305 45.1045695,0 44,0 L26,0 C24.8954305,0 24,0.8954305 24,2 Z" id="Path" fill="#3B5998"></path>
            <g id="Group" transform="translate(47.000000, 0.000000)">
                <path d="M2,22 L20,22 C21.1045695,22 22,21.1045695 22,20 L22,2 C22,0.8954305 21.1045695,-2.84217094e-14 20,-2.84217094e-14 L2,-2.84217094e-14 C0.8954305,-2.84217094e-14 0,0.8954305 0,2 L0,20 C0,21.1045695 0.8954305,22 2,22 Z" id="Path" fill="#AAAAAA"></path>
                <path d="M2,22 L20,22 C21.1045695,22 22,21.1045695 22,20 L22,2 C22,0.8954305 21.1045695,-2.84217094e-14 20,-2.84217094e-14 L2,-2.84217094e-14 C0.8954305,-2.84217094e-14 0,0.8954305 0,2 L0,20 C0,21.1045695 0.8954305,22 2,22 Z" id="Path" fill="#006699"></path>
                <path d="M6.89347739,4.2307049 L6.89347739,14.1982149 L3.58046159,14.1982149 L3.58046159,4.2307049 L6.89347739,4.2307049 Z M5.23695474,15.5591101 C6.39227038,15.5591101 7.11135629,16.324503 7.11135629,17.2810229 C7.08982501,18.2590742 6.39227038,19.0032308 5.25886946,19.0032308 C4.12558652,19.0032308 3.38461538,18.2590742 3.38461538,17.2810229 C3.38461538,16.324503 4.10355382,15.5591101 5.21536447,15.5591101 L5.23689575,15.5591101 L5.23695474,15.5591101 Z" id="Shape" fill="#FFFFFF" transform="translate(5.247986, 11.616968) scale(-1, 1) rotate(-180.000000) translate(-5.247986, -11.616968) "></path>
                <path d="M11.7745248,8.7995957 L11.7745248,14.3658751 C11.7745248,14.6637737 11.7960561,14.9613774 11.883538,15.1743306 C12.1230366,15.7695379 12.6681616,16.3859816 13.5833886,16.3859816 C14.7822093,16.3859816 15.261767,15.4719343 15.261767,14.1319805 L15.261767,8.7995957 L18.5744879,8.7995957 L18.5744879,14.5148244 C18.5744879,17.5763961 16.9400274,19.0010003 14.760324,19.0010003 C12.9730504,19.0010003 12.1884268,18.0020077 11.7524921,17.3215601 L11.7746133,18.7671057 L8.46153846,18.7671057 C8.50510244,17.8318221 8.46153846,8.7995957 8.46153846,8.7995957 L11.7745248,8.7995957 Z" id="Path" fill="#FFFFFF" transform="translate(13.518013, 13.900298) scale(-1, 1) rotate(-180.000000) translate(-13.518013, -13.900298) "></path>
            </g>
            <path d="M71.7333333,3 C70.7730667,3 70,3.77306233 70,4.73333333 L70,17.733342 C70,18.6936087 70.7730667,19.4666753 71.7333333,19.4666753 L94.2666667,19.4666753 C95.2268904,19.4666753 96,18.6936087 96,17.733342 L96,4.73333333 C96,3.77306233 95.2268904,3 94.2666667,3 L71.7333333,3 Z M74.7531033,6.019809 C74.8756933,6.02011667 74.9907433,6.061409 75.0781033,6.16874567 L81.9843533,13.020842 C82.4884933,13.520952 83.4966433,13.5209087 84.00204,13.020842 L90.9218538,6.16874567 C91.0814071,6.005639 91.3817071,5.99567233 91.5447704,6.15531233 C91.7078771,6.31486567 91.7041938,6.61512233 91.5447704,6.778229 L86.8458333,11.4230553 L91.5312067,15.6886587 C91.6979533,15.8446153 91.7143333,16.1449153 91.5585067,16.3115753 C91.4024633,16.4782353 91.1021633,16.481182 90.9355467,16.3250087 L86.2230462,12.045842 L84.6116096,13.6302387 C83.7345429,14.4979453 82.25133,14.499592 81.3751729,13.6302387 L79.7772129,12.045842 L75.0647129,16.3250087 C74.8980962,16.481052 74.6114033,16.4781487 74.4553596,16.3115753 C74.2993596,16.1449153 74.3022629,15.8446153 74.4687929,15.6886587 L79.1542529,11.4365753 L74.4552729,6.77823333 C74.2471429,6.48729333 74.3208962,6.16718567 74.6312929,6.03346333 C74.6741929,6.02609667 74.7123262,6.01959667 74.7531896,6.02003 L74.7531033,6.019809 Z" id="Shape" fill="#353942"></path>
            <path d="M6.91076431,43 C15.212485,43 19.755102,36.0728346 19.755102,30.0757874 C19.755102,29.8809055 19.755102,29.6860236 19.7462985,29.4911417 C20.6266507,28.8533465 21.392557,28.0472441 22,27.1348425 C21.190076,27.4980315 20.3185274,27.7372047 19.4029612,27.8523622 C20.3361345,27.2942913 21.0492197,26.3996063 21.392557,25.3366142 C20.5210084,25.859252 19.552621,26.2312992 18.522609,26.4350394 C17.695078,25.5492126 16.5242097,25 15.230092,25 C12.7386955,25 10.7138856,27.0374016 10.7138856,29.5442913 C10.7138856,29.8986221 10.7579032,30.2440945 10.8283313,30.5807087 C7.07803121,30.394685 3.75030012,28.5787402 1.5230092,25.8326772 C1.13565426,26.5059055 0.915566226,27.2854331 0.915566226,28.1181102 C0.915566226,29.6948819 1.71668668,31.0856299 2.92276911,31.9005906 C2.18327331,31.8740157 1.48779512,31.6702756 0.880352141,31.3336614 C0.880352141,31.3513779 0.880352141,31.3690945 0.880352141,31.3956693 C0.880352141,33.5925197 2.43857543,35.4350394 4.49859944,35.851378 C4.12004802,35.9576772 3.72388956,36.0108268 3.31012405,36.0108268 C3.01960784,36.0108268 2.73789516,35.984252 2.46498599,35.9311024 C3.03721489,37.738189 4.70988395,39.0492126 6.68187275,39.0846457 C5.13245298,40.3070866 3.18687475,41.0334646 1.07402961,41.0334646 C0.713085234,41.0334646 0.352140856,41.015748 0,40.9714567 C1.98959584,42.2470472 4.36654662,43 6.91076431,43" id="Path" fill="#AAAFBB"></path>
            <path d="M24,25 L24,43 C24,44.1045695 24.8954305,45 26,45 L35.7508039,45 L35.7508039,36.4804578 L32.8836863,36.4804578 L32.8836863,33.1602246 L35.7508039,33.1602246 L35.7508039,30.7117253 C35.7508039,27.8700065 37.4864314,26.3228244 40.0211765,26.3228244 C41.2354902,26.3228244 42.2789804,26.4130857 42.583098,26.4536817 L42.583098,29.4232347 L40.8250392,29.4240985 C39.4463725,29.4240985 39.1795686,30.0790326 39.1795686,31.04038 L39.1795686,33.1602246 L42.4672745,33.1602246 L42.0393529,36.4804578 L39.1795686,36.4804578 L39.1795686,45 L44,45 C45.1045695,45 46,44.1045695 46,43 L46,25 C46,23.8954305 45.1045695,23 44,23 L26,23 C24.8954305,23 24,23.8954305 24,25 Z" id="Path" fill="#AAAFBB"></path>
            <g id="Group" transform="translate(47.000000, 23.000000)" fill="#AAAFBB">
                <path d="M2,-2.84217094e-14 L20,-2.84217094e-14 C21.0543618,-2.84217094e-14 21.9181651,0.81587779 21.9945143,1.85073766 L22,2 L22,20 C22,21.0543618 21.1841222,21.9181651 20.1492623,21.9945143 L20,22 L2,22 C0.945638205,22 0.0818348781,21.1841222 0.00548573643,20.1492623 L0,20 L0,2 C0,0.945638205 0.81587779,0.0818348781 1.85073766,0.00548573643 L2,-2.84217094e-14 L20,-2.84217094e-14 Z M6.89347739,9.0357208 L3.58046159,9.0357208 L3.58046159,19.0032308 L6.89347739,19.0032308 L6.89347739,9.0357208 Z M14.760324,8.7995957 C12.9730504,8.7995957 12.1884268,9.7985883 11.7524921,10.4790359 L11.7746133,9.0334903 L8.46153846,9.0334903 C8.50510244,9.9687739 8.46153846,19.0010003 8.46153846,19.0010003 L11.7745248,19.0010003 L11.7745248,13.4347209 C11.7745248,13.1368223 11.7960561,12.8392186 11.883538,12.6262654 C12.1230366,12.0310581 12.6681616,11.4146144 13.5833886,11.4146144 C14.7822093,11.4146144 15.261767,12.3286617 15.261767,13.6686155 L15.261767,19.0010003 L18.5744879,19.0010003 L18.5744879,13.2857716 C18.5744879,10.2241999 16.9400274,8.7995957 14.760324,8.7995957 Z M5.25886946,4.2307049 C4.12558652,4.2307049 3.38461538,4.9748615 3.38461538,5.9529128 C3.38461538,6.9094327 4.10355382,7.6748256 5.21536447,7.6748256 L5.23689575,7.6748256 C6.39227038,7.6748256 7.11135629,6.9094327 7.11135629,5.9529128 C7.08982501,4.9748615 6.39227038,4.2307049 5.25886946,4.2307049 Z" id="Combined-Shape"></path>
            </g>
            <path d="M71.7333333,26 C70.7730667,26 70,26.7730623 70,27.7333333 L70,40.733342 C70,41.6936087 70.7730667,42.4666753 71.7333333,42.4666753 L94.2666667,42.4666753 C95.2268904,42.4666753 96,41.6936087 96,40.733342 L96,27.7333333 C96,26.7730623 95.2268904,26 94.2666667,26 L71.7333333,26 Z M74.7531033,29.019809 C74.8756933,29.0201167 74.9907433,29.061409 75.0781033,29.1687457 L81.9843533,36.020842 C82.4884933,36.520952 83.4966433,36.5209087 84.00204,36.020842 L90.9218538,29.1687457 C91.0814071,29.005639 91.3817071,28.9956723 91.5447704,29.1553123 C91.7078771,29.3148657 91.7041938,29.6151223 91.5447704,29.778229 L86.8458333,34.4230553 L91.5312067,38.6886587 C91.6979533,38.8446153 91.7143333,39.1449153 91.5585067,39.3115753 C91.4024633,39.4782353 91.1021633,39.481182 90.9355467,39.3250087 L86.2230462,35.045842 L84.6116096,36.6302387 C83.7345429,37.4979453 82.25133,37.499592 81.3751729,36.6302387 L79.7772129,35.045842 L75.0647129,39.3250087 C74.8980962,39.481052 74.6114033,39.4781487 74.4553596,39.3115753 C74.2993596,39.1449153 74.3022629,38.8446153 74.4687929,38.6886587 L79.1542529,34.4365753 L74.4552729,29.7782333 C74.2471429,29.4872933 74.3208962,29.1671857 74.6312929,29.0334633 C74.6741929,29.0260967 74.7123262,29.0195967 74.7531896,29.02003 L74.7531033,29.019809 Z" id="Shape" fill="#AAAFBB"></path>
        </g>
    </g>
</svg>