<svg xmlns="http://www.w3.org/2000/svg" viewBox="0 0 161.88 74.99"><defs><style>.cls-1,.cls-4{fill:#fff;}.cls-2,.cls-5{fill:#333;}.cls-2{opacity:0.2;}.cls-10,.cls-3,.cls-6,.cls-9{fill:none;}.cls-10,.cls-3,.cls-4,.cls-6,.cls-8,.cls-9{stroke:#000;stroke-linecap:round;stroke-linejoin:round;}.cls-10,.cls-3{stroke-width:2px;}.cls-4,.cls-8,.cls-9{stroke-width:1.7px;}.cls-10,.cls-5{opacity:0.1;}.cls-6{stroke-width:1.8px;}.cls-7,.cls-8{fill:#ffde00;}.cls-10{stroke-dasharray:3 4;}</style></defs><title>Asset 10</title><g id="Layer_2" data-name="Layer 2"><g id="Layer_2-2" data-name="Layer 2"><polygon class="cls-1" points="53.32 73.63 41.45 63.29 53.7 57.93 53.32 73.63"/><polygon class="cls-1" points="53.32 73.63 41.45 63.29 53.7 57.93 53.32 73.63"/><polygon class="cls-1" points="53.32 73.63 41.45 63.29 53.7 57.93 53.32 73.63"/><polygon class="cls-1" points="77.06 48.34 62.97 53.69 0.85 28.75 77.06 48.34"/><polygon class="cls-1" points="36.48 65.17 0.85 28.75 53.31 57.75 36.48 65.17"/><polygon class="cls-1" points="2.2 29.39 62.97 53.69 62.71 53.79 53.31 73.58 53.7 57.93 2.2 29.39"/><polygon class="cls-1" points="2.2 29.39 62.97 53.69 62.71 53.79 53.31 73.58 53.7 57.93 2.2 29.39"/><polygon class="cls-1" points="2.2 29.39 62.97 53.69 62.71 53.79 53.31 73.58 53.7 57.93 2.2 29.39"/><polygon class="cls-1" points="53.32 73.63 41.45 63.29 53.7 57.93 53.32 73.63"/><polygon class="cls-2" points="53.32 73.63 41.45 63.29 53.7 57.93 53.32 73.63"/><polygon class="cls-3" points="53.32 73.63 41.45 63.29 53.7 57.93 53.32 73.63"/><polygon class="cls-4" points="77.06 48.34 62.97 53.69 0.85 28.75 77.06 48.34"/><polygon class="cls-4" points="36.48 65.17 0.85 28.75 53.31 57.75 36.48 65.17"/><polygon class="cls-1" points="2.2 29.39 62.97 53.69 62.71 53.79 53.31 73.58 53.7 57.93 2.2 29.39"/><polygon class="cls-5" points="2.2 29.39 62.97 53.69 62.71 53.79 53.31 73.58 53.7 57.93 2.2 29.39"/><polygon class="cls-6" points="2.2 29.39 62.97 53.69 62.71 53.79 53.31 73.58 53.7 57.93 2.2 29.39"/><polygon class="cls-1" points="108.56 45.44 120.43 35.09 108.18 29.73 108.56 45.44"/><polygon class="cls-1" points="108.56 45.44 120.43 35.09 108.18 29.73 108.56 45.44"/><polygon class="cls-1" points="108.56 45.44 120.43 35.09 108.18 29.73 108.56 45.44"/><polygon class="cls-1" points="84.81 20.15 98.91 25.5 159.68 1.19 84.81 20.15"/><polygon class="cls-1" points="125.39 36.98 159.52 2.38 108.57 29.55 125.39 36.98"/><polygon class="cls-1" points="159.68 1.19 98.91 25.5 99.17 25.59 108.57 45.39 108.18 29.73 159.52 2.38 161.03 0.85 159.68 1.19"/><polygon class="cls-1" points="159.68 1.19 98.91 25.5 99.17 25.59 108.57 45.39 108.18 29.73 159.52 2.38 161.03 0.85 159.68 1.19"/><polygon class="cls-7" points="108.56 45.44 120.43 35.09 108.18 29.73 108.56 45.44"/><polygon class="cls-2" points="108.56 45.44 120.43 35.09 108.18 29.73 108.56 45.44"/><polygon class="cls-3" points="108.56 45.44 120.43 35.09 108.18 29.73 108.56 45.44"/><polygon class="cls-8" points="84.81 20.15 98.91 25.5 159.68 1.19 84.81 20.15"/><polygon class="cls-8" points="125.39 36.98 159.52 2.38 108.57 29.55 125.39 36.98"/><polygon class="cls-7" points="159.68 1.19 98.91 25.5 99.17 25.59 108.57 45.39 108.18 29.73 159.52 2.38 161.03 0.85 159.68 1.19"/><polygon class="cls-9" points="159.68 1.19 98.91 25.5 99.17 25.59 108.57 45.39 108.18 29.73 159.52 2.38 161.03 0.85 159.68 1.19"/><path class="cls-10" d="M67.23,64.12c0,3,3.46,6.2,6,7.26a25,25,0,0,0,11.84,2c3.63-.39,6.48-2.11,9.74-3.59A19.61,19.61,0,0,0,101.08,66c1.95-2,1.89-4.41,2.62-6.91a3.09,3.09,0,0,0-.79-2.91,4.66,4.66,0,0,0-2.79-1.33,3.51,3.51,0,0,0-1.64.11c-4.31,1.53.21,9.65,1.86,11.66a20.41,20.41,0,0,0,12,7c8,1.45,16.27-1.23,23.68-4.69"/></g></g></svg>