<svg xmlns="http://www.w3.org/2000/svg" width="472" height="68"><g fill="#D25050" fill-rule="evenodd"><path d="M472 40.709c-22.47-11.31-50.218-16.965-83.245-16.965-49.54 0-165.937 21.43-219.955 21.43C132.788 45.174 76.522 34.783 0 14v43.791c0 5.523 4.477 10 10 10h452c5.523 0 10-4.477 10-10V40.709z"/><path d="M472 34.709c-22.47-11.31-50.218-16.965-83.245-16.965-49.54 0-165.86 29.19-219.878 29.19C132.865 46.934 76.573 33.956 0 8v43.791c0 5.523 4.477 10 10 10h452c5.523 0 10-4.477 10-10V34.709z" opacity=".15"/><path d="M472 27.947c-22.47-11.31-50.218-16.966-83.245-16.966-49.54 0-168.102 34.471-222.12 34.471C130.625 45.452 75.08 30.302 0 0v45.029c0 5.523 4.477 10 10 10h452c5.523 0 10-4.477 10-10V27.947z" opacity=".15"/></g></svg>