<svg xmlns="http://www.w3.org/2000/svg" viewBox="0 0 188 74"><defs><style>.cls-1,.cls-10{fill:#fff;stroke:#333;stroke-linecap:round;stroke-linejoin:round;stroke-width:2px}.cls-10{fill:none}</style></defs><g id="Layer_2" data-name="Layer 2"><g id="Layer_2-2" data-name="Layer 2"><path class="cls-1" d="M122 73h65V33.53A18.58 18.58 0 0 0 168.47 15H122z"/><path d="M103 73h41V35.71A20.9 20.9 0 0 0 123.25 15 20.49 20.49 0 0 0 103 35.71z" fill="#e6e6e6" stroke-linecap="round" stroke-linejoin="round" stroke-width="2" stroke="#333"/><path stroke-miterlimit="10" fill="#333" stroke="#333" d="M122.78 15.5h.02-.02z" opacity=".09"/><path fill="#d8d8d8" stroke-linecap="round" stroke-linejoin="round" stroke-width="2" stroke="#333" d="M135.79 20h.02-.02z"/><path d="M144 73V35.77a20.13 20.13 0 0 0-7.37-15.56c-.45 0-.95-.05-1.4-.05A19.36 19.36 0 0 0 116 39.36V73z" fill="#efefef" stroke-linecap="round" stroke-linejoin="round" stroke-width="2" stroke="#333"/><path class="cls-1" d="M97 73h46v-4H93a4 4 0 0 0 4 4z"/><path fill="#fff" d="M140 70h9v2h-9z"/><path d="M90.68 24H37.17a2.75 2.75 0 0 0-2.48 2.69l-6.19 33.9A2.5 2.5 0 0 0 31 63h53.48A2.33 2.33 0 0 0 87 60.8l6.19-34.15A2.72 2.72 0 0 0 90.68 24z" fill="#ffde00" stroke-linecap="round" stroke-linejoin="round" stroke-width="2" stroke="#333"/><path d="M91.91 28.4L61.61 49a4.37 4.37 0 0 1-4.68 0L34.5 27.5l1.42-3H91l2.31 2.44z" fill="#353942" opacity=".09"/><path class="cls-1" d="M36.91 25l20 20.5a4.35 4.35 0 0 0 4.67 0L91.47 25M30.48 61.51l24.47-16.52M64.03 44.56l21.84 18.17"/><path class="cls-10" d="M20 48h10M32 34H12M21 41H6M14 48H7M29 54H12M28 61h-9M2 41H1M19 27h-1M34 27h-9"/><circle cx="165" cy="27" r="2" fill="#333"/><path class="cls-1" d="M182 9h-17V1h17v8z"/><path class="cls-10" d="M165 1v26"/></g></g></svg>