<svg xmlns="http://www.w3.org/2000/svg" viewBox="0 0 177.44 74"><defs><style>.cls-1,.cls-6{fill:#333}.cls-1{opacity:.1}.cls-2{fill:#fff}.cls-2,.cls-4,.cls-5{stroke:#333;stroke-width:2px;stroke-linecap:round;stroke-linejoin:round}.cls-4{fill:#ffde00}.cls-5{fill:none}</style></defs><g id="Layer_2" data-name="Layer 2"><g id="Layer_2-2" data-name="Layer 2"><ellipse class="cls-1" cx="53.03" cy="72.07" rx="31.31" ry="1.93"/><ellipse class="cls-1" cx="126.17" cy="71.92" rx="31.08" ry="1.97"/><path class="cls-2" d="M78 62.06c-8.18-1.2-15.38-7.36-15.38-7.36-2.58-3.49-.13-15.34-.13-15.34H45.94S48 51.21 45.42 54.7c0 0-6.81 6.16-15 7.36 0 0-1.11.28 1.47 4.53 1.28 2.11 11.77 3.17 22.32 3.19s21-1.08 22.32-3.19c2.58-4.25 1.47-4.53 1.47-4.53z"/><path d="M79.71 71.3c0-2.42.2-4.71.2-6.94 0-3.2-1.58-5-3.94-6.62S63 52 63 52c0 9.67-9.18 9.53-9.18 9.53s-9.18.14-9.18-9.53c0 0-10.61 4.2-13 5.8s-3.94 3.42-3.94 6.62c0 2.23.2 5 .2 6.94z" fill="#e6e6e6" stroke-linecap="round" stroke-linejoin="round" stroke="#333" stroke-width="2"/><path class="cls-2" d="M38.31 24.82c.61-1.34 1.48-.29 1.83.49C39.9 16.14 43.3 6.52 54 6.34h.31c10.74.18 14 9.76 13.74 19 .45-.74 1.37-1.92 2-.49.8 1.76 1.76 15 .58 13.8-.34 1.78-4-4-4.57-2.52-3.29 9.11-10.24 11.5-11.77 11.78H54c-1.54-.28-8.48-2.67-11.77-11.78-.53-1.47-7.68 7.27-8 5.51-1.23.88 3.29-15.1 4.08-16.82z"/><path class="cls-4" d="M71.2 14.32c-3.49-7.06-9.12-9.87-15.41-10.8a14.55 14.55 0 0 0-1.6-.05 14.55 14.55 0 0 0-1.6.05c-6.3.94-12.3 3.74-15.79 10.8C32.73 22.54 32 48 32 48a40.18 40.18 0 0 0 13 3.15l1-8.5c-1.56-1-2.83-4-3.7-6.75h-.1c-1.32.16-3.1-2.75-3.35-4.79-.19-1.61.82-1.68 1.69-2.3a22.94 22.94 0 0 1-.16-4.15s8.43-2.68 11.35-3a17.43 17.43 0 0 1 5 0 81.15 81.15 0 0 1 11.35 3 27.41 27.41 0 0 1-.27 4.53c.61.73 1.72.52 1.56 1.85-.26 1.96-2.18 4.85-3.37 4.89-1 2.89-2.44 6.17-4 7.19l1.58 8.09A37.49 37.49 0 0 0 77 47.51s-1.73-24.97-5.8-33.19z"/><path class="cls-2" d="M1 17.77c-.12 6.78 6.78 12.4 15.4 12.55a19.29 19.29 0 0 0 5.75-.75C23.94 31 27 33 29.94 33.08c-1.54-1.5-1.93-4.38-2-6.51a11 11 0 0 0 4.28-8.25c.12-6.78-6.77-12.39-15.4-12.55S1.12 11 1 17.77z"/><path class="cls-5" d="M13.73 13a3.82 3.82 0 0 1 2.86-1.13 2.67 2.67 0 0 1 2.76 2.5c0 2.56-3.28 2.87-3.24 5.4"/><path class="cls-6" d="M17.53 23a1.14 1.14 0 1 1-1.16-1.12A1.14 1.14 0 0 1 17.53 23"/><path class="cls-2" d="M151 62.06c-8.18-1.2-15.38-7.36-15.38-7.36-2.58-3.49-.13-15.34-.13-15.34h-16.55s2.05 11.84-.53 15.34c0 0-6.81 6.16-15 7.36 0 0-1.11.28 1.47 4.53 1.28 2.11 11.77 3.17 22.32 3.19s21-1.08 22.32-3.19c2.59-4.25 1.48-4.53 1.48-4.53z"/><path class="cls-4" d="M152.71 71.3c0-2.42.2-4.71.2-6.94 0-3.2-1.58-5-3.94-6.62S136 52 136 52c0 9.67-9.18 9.53-9.18 9.53s-9.18.14-9.18-9.53c0 0-10.61 4.2-13 5.8s-3.94 3.42-3.94 6.62c0 2.23.2 5 .2 6.94z"/><path class="cls-2" d="M142.66 26.46a2.2 2.2 0 0 0-2.05.74v-.37c.23-9-3.09-18.37-13.53-18.54h-.3c-10.5.18-13.7 9.53-13.43 18.54v.36a2.18 2.18 0 0 0-2-.73c-1.91.57-1.14 7.6 3 8.72a38.58 38.58 0 0 0 .9 4.91c.48 1.3 4.73 6.08 6.53 6.9s2.89 1.53 5.17 1.53 3.37-.71 5.17-1.53 6.05-5.59 6.53-6.9a38.42 38.42 0 0 0 .9-4.89c4.24-1.03 4.79-8.2 3.11-8.74z"/><path id="_Path_" data-name="&lt;Path&gt;" class="cls-6" d="M143.64 16.19a19.89 19.89 0 0 0 2.27-7.48c-1.89 1.38-5.1-.44-5.1-.44A16.7 16.7 0 0 0 127.63 0c-11.91-.63-14 7-14.14 9a9.36 9.36 0 0 0-3.63 2.61c-5.54 5.75 3.61 16.75 3.61 16.75s1.41-5.32 4-8c1.3-1.33 1.17-3.68.71-5.7 3.49 3.15 8.72 6.66 15 7.09a11.26 11.26 0 0 0 5.28-.81c.59 2.45 1.64 6.71 1.64 6.71s3.93-5.32 3.79-9a13.48 13.48 0 0 0-.25-2.46z"/><path class="cls-5" d="M140.13 34.76a19.23 19.23 0 0 1-4 3.34l-3.89 1.39"/><ellipse cx="130.55" cy="39.33" rx="2.44" ry="1.9" stroke-miterlimit="10" stroke="#333" stroke-width="2" fill="#333"/><path class="cls-2" d="M160.77 4.37c-8.78-.16-16 5.31-16.12 12.21a11.16 11.16 0 0 0 4.06 8.54c-.14 2.17-.64 5.07-2.26 6.55 3 .05 6.18-1.89 8.05-3.3a19.64 19.64 0 0 0 5.82 1c8.78.16 16-5.31 16.12-12.21s-6.9-12.63-15.67-12.79z"/><path class="cls-6" d="M162.42 17.29a1.88 1.88 0 1 1-1.85-1.91 1.88 1.88 0 0 1 1.85 1.91M169.77 17.29a1.88 1.88 0 1 1-1.85-1.91 1.88 1.88 0 0 1 1.85 1.91M155.07 17.29a1.88 1.88 0 1 1-1.85-1.91 1.88 1.88 0 0 1 1.85 1.91"/></g></g></svg>