<svg xmlns="http://www.w3.org/2000/svg" viewBox="0 0 197.9495 164"><title>swag</title><g id="Layer_2" data-name="Layer 2"><g id="Layer_1-2" data-name="Layer 1"><path d="M159.4823,63.2936l-.8221-3.4031-1.3172-5.4482,0,0-6.7408-27.8828a17.8617,17.8617,0,0,0-9.85-11.4857c-6.6752-2.849-28.6916-11.2331-33.0339-12.8837A2.9128,2.9128,0,0,0,106.68,2H54.891a2.9208,2.9208,0,0,0-1.0419.1905C49.5084,3.84,27.4944,12.2233,20.8153,15.0736A17.8134,17.8134,0,0,0,11.0708,26.19c-.0126.0412-.023.0756-.0333.1108-.0078.0274-.0176.0585-.0245.0831l-.0069.0237c-.0221.0781-.0391.143-.0509.1891l-6.73,27.8444h0L2.0827,63.3042a2.9418,2.9418,0,0,0,1.7695,3.4234L30.2839,77.2713v0l0,0V162h101V77.2716h0L157.713,66.7288A2.9521,2.9521,0,0,0,159.4823,63.2936Z" style="fill:#e6e6e6;stroke:#252525;stroke-linecap:round;stroke-linejoin:round;stroke-width:4px"/><rect x="56.7839" y="47.5" width="50" height="52" style="fill:#fff;stroke:#252525;stroke-linecap:round;stroke-linejoin:round;stroke-width:3px"/><rect x="62.7839" y="53.5" width="38" height="40" style="fill:#fedc31;stroke:#252525;stroke-linecap:round;stroke-linejoin:round;stroke-width:3px"/><path d="M80.9485,32.5692c13.6448,0,26.6823-13.1237,26.6823-30.5692H54.2662C54.2662,19.4459,67.3047,32.5692,80.9485,32.5692Z" style="fill:#e6e6e6;stroke:#252525;stroke-linecap:round;stroke-linejoin:round;stroke-width:4px"/><polygon points="23.284 60.567 23.284 63.808 23.196 75.151 30.284 76.398 30.284 63.808 30.284 60.567 30.284 44.8 23.284 33.224 23.284 60.567" style="fill:#333;fill-opacity:0.09"/><polygon points="138.284 31.913 131.284 43.489 131.284 59.256 131.284 62.497 131.284 75.087 138.284 73.478 138.284 62.497 138.284 59.256 138.284 31.913" style="fill:#333;fill-opacity:0.09"/><polyline points="30.284 87 30.284 42.033 15.386 21.563" style="fill:none;stroke:#252525;stroke-linecap:round;stroke-linejoin:round;stroke-width:4px"/><polyline points="130.284 87 130.284 42.033 145.182 21.563" style="fill:none;stroke:#252525;stroke-linecap:round;stroke-linejoin:round;stroke-width:4px"/><path d="M76.7415,82.2188H73.8373V85.123h9.43V82.2188H80.2265V76.24h2.5967c3.3142,0,5.5008-.3758,7.1067-1.9817a7.3489,7.3489,0,0,0,1.9475-5.1592c0-2.9383-1.3325-7.175-7.7559-7.175H73.8373v2.9042h2.9042Zm3.485-8.7809v-8.61H84.224c2.5625,0,4.1,1.5033,4.1,4.2367,0,2.3916-.9225,4.3733-5.1933,4.3733Z" style="fill:#252525"/><path d="M168.8535,112.7653A27.9483,27.9483,0,0,0,140.905,84.8171H125.3907a27.9483,27.9483,0,0,0-27.9485,27.9482v8.46h71.4113Z" style="fill:#fedc31;stroke:#252525;stroke-linecap:round;stroke-linejoin:round;stroke-width:4px"/><path d="M111.2658,121.4093s-1.9345-25.1123,16.9635-36.5922" style="fill:none;stroke:#252525;stroke-linecap:round;stroke-linejoin:round;stroke-width:3px"/><path d="M154.9578,121.4093s1.9345-25.1123-16.9634-36.5922" style="fill:none;stroke:#252525;stroke-linecap:round;stroke-linejoin:round;stroke-width:3px"/><path d="M168.8535,116.018c1.9357.7229,19.9632,4.3147,23.486,4.4955s4.8556,2.9527,2.2336,4.931c-8.8062,6.6407-27.9582,8.2513-43.3139-4.22Z" style="fill:#fedc31;stroke:#252525;stroke-linecap:round;stroke-linejoin:round;stroke-width:4px"/></g></g></svg>