<?xml version="1.0" encoding="utf-8"?>
<!-- Generator: Adobe Illustrator 22.0.1, SVG Export Plug-In . SVG Version: 6.00 Build 0)  -->
<svg version="1.1" id="Layer_1" xmlns="http://www.w3.org/2000/svg" xmlns:xlink="http://www.w3.org/1999/xlink" x="0px" y="0px"
	 viewBox="0 0 217.7 167.4" style="enable-background:new 0 0 217.7 167.4;" xml:space="preserve">
<style type="text/css">
	.st0{fill:#FFFFFF;stroke:#252525;stroke-width:4;stroke-linecap:round;stroke-linejoin:round;}
	.st1{opacity:9.000000e-02;fill:#353942;stroke:#23292A;stroke-miterlimit:10;enable-background:new    ;}
	.st2{fill:#FEDC31;stroke:#252525;stroke-width:4;stroke-linecap:round;stroke-linejoin:round;}
	.st3{fill:#252525;stroke:#252525;stroke-width:4;stroke-linecap:round;stroke-linejoin:round;}
	.st4{fill:#FFD409;stroke:#23292A;stroke-width:4;stroke-linecap:round;stroke-linejoin:round;}
	.st5{fill:#FFFFFF;stroke:#23292A;stroke-width:4;stroke-linecap:round;stroke-linejoin:round;}
	.st6{fill:#E6E6E6;stroke:#23292A;stroke-width:4;stroke-linecap:round;stroke-linejoin:round;}
	.st7{opacity:0.1;fill:#23292A;enable-background:new    ;}
	.st8{fill:#FFFFFF;}
	.st9{fill:#23292A;}
	.st10{fill:#FFD409;}
	.st11{fill:none;stroke:#23292A;stroke-width:4;stroke-linecap:round;stroke-linejoin:round;}
</style>
<title>team</title>
<g id="Layer_2_1_">
	<g id="Layer_1-2">
		<path class="st0" d="M211.3,143.2c-18.7-2.7-35.2-16.8-35.2-16.8c-5.9-8-0.3-35.1-0.3-35.1h-37.9c0,0,4.7,27.1-1.2,35.1
			c0,0-15.6,14.1-34.3,16.8c0,0-2.5,0.6,3.4,10.4c2.9,4.8,26.9,7.3,51.1,7.3c24.1,0,48.1-2.5,51.1-7.3
			C213.9,143.8,211.3,143.2,211.3,143.2z"/>
		<path class="st1" d="M139.6,110.5c7.4,7.7,15,8.3,17.4,8.3h0.8c2.3,0,9.1-1.3,16.1-7.9c-0.1-6.9,0.4-13.7,1.4-20.5h-37
			C139.2,97,139.6,103.8,139.6,110.5z"/>
		<path class="st2" d="M215.7,165.3v-15.9c0-7.3-3.6-11.5-9-15.1C201.3,130.6,177,121,177,121c0,22.1-21,21.8-21,21.8
			s-21,0.3-21-21.8c0,0-24.3,9.6-29.7,13.3c-5.4,3.7-9,7.8-9,15.1v15.9H215.7z"/>
		<path class="st0" d="M129.5,67.9c2,5.2,0.9,13.4-2.5,15s-7.7-4-9.7-9.3s-0.8-10.8,2.5-12.3S127.5,62.6,129.5,67.9z"/>
		<path class="st0" d="M184.4,67.9c-2,5.2-0.9,13.4,2.5,15s7.7-4,9.7-9.3s0.9-10.8-2.5-12.3S186.4,62.6,184.4,67.9z"/>
		<path class="st0" d="M156.7,21.4c-33.4-1.1-33.9,30.4-33.4,40.7c0.5,8.1,1.8,16.1,3.8,24c0.9,3.1,2.6,8.4,5,10.6
			c6.5,6.1,14.6,11.5,19.6,13.4c1.6,0.4,3.3,0.6,4.9,0.5c1.7,0.1,3.3-0.1,4.9-0.5c5-1.9,13.1-7.3,19.6-13.4c2.4-2.3,4.1-7.5,5-10.6
			c2-7.8,3.3-15.9,3.8-24C190.5,51.8,190,20.4,156.7,21.4z"/>
		<path class="st3" d="M194.6,38.5c2.8-5.2,4.6-11,5.1-16.9c-4.3,3.1-11.5-1-11.5-1C177.9,2.6,158.5,2.1,158.5,2.1
			c-26.9-1.4-31.5,15.8-31.9,20.4c-2.2,0.7-4.8,2.4-8.2,5.9c-12.5,13,5.5,37.8,5.5,37.8s5.8-12,11.7-18.1c2.9-3,2.6-8.3,1.6-12.9
			c7.9,7.1,19.7,15,33.9,16c4.1,0.4,8.1-0.3,11.9-1.8c1.3,5.5,6.3,15.1,6.3,15.1s6.2-12,5.9-20.4C195.2,42.2,195,40.4,194.6,38.5z"
			/>
		<path class="st4" d="M116.4,117.2c0,0-8.5-51.8-8.9-58.3c-0.6-10-3-20.1-8.4-28.4c-7.9-12.2-22.2-18.3-36.2-18.3
			s-28.3,6-36.2,18.3c-5.4,8.3-7.8,18.4-8.4,28.4c-0.4,6.6-8.3,59.1-8.3,59.1s14.9,5.8,18.9,6.8c12.1,2.9,20,2.1,20,2.1l28.2-0.1
			c7.1-0.3,14.1-1.2,21.1-2.7C104.5,122.4,110.6,120.1,116.4,117.2z"/>
		<path class="st5" d="M63.5,151.6c11.8,0,22.8-6.3,31.8-16.9l-15.6-4.9c-1.8-0.7-3.1-2.4-3.3-4.3c-1-5.6-0.8-20.2-0.8-22.6
			c0-0.2-0.1-0.3-0.3-0.3c0,0,0,0,0,0H51.8c-0.2,0-0.3,0.1-0.3,0.3c0,0,0,0,0,0c0,2.4,0.1,16.8-0.8,22.6c-0.2,2-1.5,3.6-3.3,4.3
			l-15.6,4.9C40.8,145.3,51.7,151.6,63.5,151.6z"/>
		<path class="st6" d="M125.1,165c-0.1-0.4-0.2-1.2-0.3-2.2l0-0.1c0-0.3-0.1-0.6-0.1-1l0-0.2c-0.1-0.4-0.1-0.7-0.2-1.1
			c-0.1-0.5-0.2-1-0.3-1.5c-0.3-1.6-0.8-3.2-1.4-4.8c-0.2-0.6-0.4-1.1-0.7-1.7c-0.7-1.5-1.5-3-2.4-4.4c-0.2-0.3-0.4-0.6-0.6-0.9
			c-1.3-1.8-2.9-3.5-4.7-4.9c-0.6-0.5-1.2-0.9-1.8-1.3c-1.9-1.2-3.9-2.2-6.1-2.8l-11.1-3.5c-9,10.7-20,16.9-31.8,16.9
			s-22.8-6.3-31.8-16.9l-11.2,3.5c-1.2,0.4-2.4,0.9-3.6,1.4c-1.2,0.6-2.3,1.2-3.3,2c-1.9,1.4-3.6,3.1-5.1,4.9
			c-0.5,0.6-0.9,1.2-1.3,1.8c-0.2,0.3-0.4,0.6-0.6,0.9c-0.4,0.6-0.7,1.2-1,1.8c-0.5,0.9-0.9,1.8-1.2,2.7c-1.3,3.7-2.2,7.5-2.5,11.4
			c0,0.1,0,0.3,0.2,0.4c0,0,0.1,0,0.1,0h122.4c0.1,0,0.1,0,0.1,0C125,165.3,125.1,165.2,125.1,165z"/>
		<path class="st7" d="M75.7,116.7c-0.1-5-0.1-8.4-0.1-9.7c0-0.2-0.1-0.3-0.3-0.3c0,0,0,0,0,0H51.8c-0.2,0-0.3,0.1-0.3,0.3
			c0,0,0,0,0,0c0,1.3,0,4.7-0.1,9.7C58.5,120.7,66.6,120.7,75.7,116.7z"/>
		<path class="st8" d="M32.2,87.9c-2.1,0-5.4-3.7-7.2-7.9c-1.7-3.9-0.9-8.2,1.6-9.2c0.4-0.2,0.8-0.3,1.3-0.3c2.4,0,5.1,2.3,6.5,5.5
			c0.9,2.4,1.1,4.9,0.7,7.4c-0.4,2.2-1.3,4-2.3,4.4C32.6,87.9,32.4,87.9,32.2,87.9z"/>
		<path class="st9" d="M27.9,72.5c1.4,0,3.5,1.6,4.6,4.3c1.4,3.3,0.5,8-0.5,9.1c-1.1-0.4-3.6-3-5.2-6.7c-0.7-1.5-0.9-3.2-0.6-4.8
			c0.1-0.4,0.4-1.5,1.1-1.8C27.6,72.5,27.7,72.5,27.9,72.5 M27.9,68.5c-0.7,0-1.4,0.1-2.1,0.4c-3.6,1.5-4.8,6.8-2.7,11.9
			c1.9,4.4,5.7,9.2,9.1,9.2c0.4,0,0.9-0.1,1.3-0.3c3.6-1.5,4.8-9.4,2.7-14.4C34.5,71.1,31.1,68.5,27.9,68.5z"/>
		<path class="st8" d="M94.9,87.2c-0.2,0-0.4,0-0.5-0.1c-2.2-0.9-3.5-7.4-1.6-11.8c1.4-3.3,4-5.5,6.5-5.5c0.4,0,0.9,0.1,1.3,0.3
			c1.2,0.6,2.1,1.8,2.3,3.2c0.4,2,0.1,4.1-0.7,6C100.3,83.5,96.9,87.2,94.9,87.2z"/>
		<path class="st9" d="M99.2,71.8c0.2,0,0.3,0,0.5,0.1c1.1,0.5,1.9,3.4,0.6,6.6c-1.6,3.7-4.1,6.3-5.2,6.7c-1-1.1-1.9-5.8-0.5-9.1
			C95.7,73.4,97.8,71.8,99.2,71.8 M99.2,67.8c-3.2,0-6.6,2.7-8.3,6.8c-2.1,5-0.9,12.9,2.7,14.4c0.4,0.2,0.9,0.3,1.3,0.3
			c3.4,0,7.2-4.7,9.1-9.2c2.1-5,0.9-10.3-2.7-11.9C100.6,67.9,99.9,67.8,99.2,67.8z"/>
		<path class="st8" d="M63.6,114.2c-0.4,0-0.8-0.1-1.2-0.2c-4.2-1.3-14.6-5-21.6-11.8c-2.3-2.3-3.9-5.1-4.8-8.1
			c-3.1-10.8-5-19.9-5.2-25.6c-0.7-15.6,2.3-27.2,9.1-34.3c5.1-5.3,12.4-8,21.7-8c0.7,0,1.3,0,2,0c0,0,0.1,0,0.2,0c0.7,0,1.4,0,2,0
			c9.3,0,16.6,2.7,21.7,8c6.8,7.1,9.8,18.6,9.1,34.3c-0.3,6.8-3.2,16.3-5,22.6c-0.3,1.1-0.7,2.2-0.9,3.1c-0.9,3.1-2.5,5.9-4.8,8.1
			c-7,6.8-16.9,10.5-20.9,11.8C64.4,114.1,64,114.2,63.6,114.2L63.6,114.2z"/>
		<path class="st9" d="M61.5,28.1L61.5,28.1c0.6,0,1.3,0,1.9,0c0.1,0,0.1,0,0.2,0c0.1,0,0.1,0,0.2,0c0.7,0,1.3,0,1.9,0
			c8.7,0,15.5,2.5,20.2,7.4c6.4,6.7,9.2,17.7,8.5,32.8c-0.3,6.5-3.1,15.9-5,22.1c-0.3,1.1-0.7,2.2-0.9,3.1c-0.8,2.8-2.2,5.3-4.3,7.3
			c-6.7,6.5-16.3,10-20.1,11.3c-0.2,0.1-0.4,0.1-0.6,0.1c-0.2,0-0.4,0-0.6-0.1c-4-1.2-14.1-4.8-20.8-11.3c-2-2-3.5-4.5-4.3-7.3
			c-3.1-10.6-4.9-19.6-5.2-25.2c-0.7-15.1,2.2-26.1,8.5-32.8C46,30.6,52.8,28.1,61.5,28.1 M65.7,24.1c-0.7,0-1.4,0-2.1,0
			c-0.7,0-1.4,0-2.1,0c-33.4,0-33.2,33.3-32.7,44.4c0.4,8.2,3.6,20.2,5.3,26.1c1,3.4,2.8,6.5,5.3,9c7.3,7.1,18.1,10.9,22.4,12.2
			c1.2,0.4,2.5,0.4,3.6,0c4.1-1.3,14.4-5.2,21.7-12.2c2.5-2.5,4.4-5.6,5.3-9c1.7-6,5.6-17.8,6-26.1C99,57.4,99.1,24.1,65.7,24.1
			L65.7,24.1z"/>
		<path class="st10" d="M98.8,62.4c0,0-9.6-8-41.5-7c0,0-12.6-1.4-14.9,0.2l-19.3,6.9l4.3-27.9l24.3-14.3l26.4-0.7l13.6,7.1l10,18.6
			l0.7,15.7L98.8,62.4z"/>
		<path class="st11" d="M30.7,60c10.5-3.8,21.7-6,32.9-6.1c11.4,0.1,22.6,2.7,33.1,7.4"/>
	</g>
</g>
</svg>
