<svg xmlns="http://www.w3.org/2000/svg" viewBox="0 0 122.11 76"><defs><style>.cls-1{fill:#fff}.cls-1,.cls-2,.cls-3,.cls-4{stroke:#333;stroke-linecap:round;stroke-linejoin:round}.cls-1,.cls-2{stroke-width:2px}.cls-2{fill:#ffde00}.cls-3,.cls-4,.cls-5,.cls-6{fill:#333}.cls-3,.cls-4{fill-opacity:.2;stroke-width:1.5px}.cls-4{fill-opacity:.09}.cls-5{opacity:.2}.cls-6{opacity:.15}</style></defs><title>Asset 2</title><g id="Layer_2" data-name="Layer 2"><g id="Layer_2-2" data-name="Layer 2"><path class="cls-1" d="M79 8h42.11v60H79zM1 8h42.11v60H1z"/><path class="cls-1" d="M34.05 1h54v74h-54z"/></g><g id="Layer_3" data-name="Layer 3"><path class="cls-2" d="M34.05 28h54v25h-54z"/><path class="cls-3" d="M35.8 53l15.03-16 16.72 16H35.8z"/><path class="cls-4" d="M80.05 52.5L66.78 40.25l-5.75 6.25 5.52 6h13.5z"/><circle class="cls-3" cx="78.55" cy="35.5" r="3"/><circle class="cls-5" cx="61.55" cy="10.5" r="4.5"/><rect class="cls-5" x="39.05" y="19" width="13" height="4" rx="2" ry="2"/><rect class="cls-5" x="70.05" y="19" width="13" height="4" rx="2" ry="2"/><rect class="cls-5" x="55.05" y="19" width="13" height="4" rx="2" ry="2"/><rect class="cls-5" x="39.05" y="57" width="44" height="4" rx="2" ry="2"/><rect class="cls-5" x="39.05" y="65" width="44" height="4" rx="2" ry="2"/><rect class="cls-6" x="7.05" y="14" width="28" height="4" rx="2" ry="2"/><rect class="cls-6" x="88.05" y="14" width="28" height="4" rx="2" ry="2"/><rect class="cls-6" x="88.05" y="22" width="28" height="4" rx="2" ry="2"/><rect class="cls-6" x="97.05" y="51" width="19" height="4" rx="2" ry="2"/><rect class="cls-6" x="97.05" y="58" width="19" height="4" rx="2" ry="2"/><path class="cls-6" d="M30.05 22h5v4h-5a2 2 0 0 1-2-2 2 2 0 0 1 2-2zm0 7h5v4h-5a2 2 0 0 1-2-2 2 2 0 0 1 2-2zm0 7h5v4h-5a2 2 0 0 1-2-2 2 2 0 0 1 2-2zm-23-14h18v18h-18zm23 22h5v4h-5a2 2 0 0 1-2-2 2 2 0 0 1 2-2zm0 7h5v4h-5a2 2 0 0 1-2-2 2 2 0 0 1 2-2zm0 7h5v4h-5a2 2 0 0 1-2-2 2 2 0 0 1 2-2zm-23-14h18v18h-18zm90-14h18v18h-18z"/><rect class="cls-6" x="87.05" y="51" width="6" height="4" rx="2" ry="2"/><rect class="cls-6" x="87.05" y="58" width="6" height="4" rx="2" ry="2"/><path class="cls-6" d="M87.05 30h5.68v18h-5.68z"/></g></g></svg>