<svg width="473" height="343" viewBox="0 0 473 343" fill="none" xmlns="http://www.w3.org/2000/svg">
<mask id="mask0_79_1562" style="mask-type:alpha" maskUnits="userSpaceOnUse" x="0" y="0" width="473" height="343">
<path d="M0 0H473V343H0V0Z" fill="white"/>
</mask>
<g mask="url(#mask0_79_1562)">
<path d="M272.786 169.782C319.67 169.782 357.677 131.775 357.677 84.891C357.677 38.007 319.67 0 272.786 0C225.902 0 187.895 38.007 187.895 84.891C187.895 131.775 225.902 169.782 272.786 169.782Z" fill="white" fill-opacity="0.2"/>
<path d="M272.786 140.509C303.503 140.509 328.404 115.608 328.404 84.8909C328.404 54.174 303.503 29.2729 272.786 29.2729C242.069 29.2729 217.168 54.174 217.168 84.8909C217.168 115.608 242.069 140.509 272.786 140.509Z" fill="white" fill-opacity="0.2"/>
<path d="M187.633 260.038H86.7211C78.7241 260.038 72.2421 253.556 72.2421 245.559V117.753C72.2384 116.414 71.7048 115.131 70.758 114.184C69.8113 113.237 68.5282 112.703 67.1891 112.699H21.8541C20.7429 112.702 19.6577 112.363 18.7464 111.727C17.835 111.091 17.1418 110.19 16.7611 109.146C12.5271 97.381 15.0011 84.403 26.2061 84.403H84.6651C93.4321 84.403 100.539 91.51 100.539 100.277V227.166C100.543 228.378 101.026 229.54 101.883 230.398C102.741 231.255 103.903 231.738 105.115 231.742H192.449C193.805 231.814 195.094 232.357 196.092 233.278C207.934 245.523 199.482 260.038 187.633 260.038Z" fill="#FFDE00"/>
<path fill-rule="evenodd" clip-rule="evenodd" d="M187.633 260.038H86.7211C78.7241 260.038 72.2421 253.556 72.2421 245.559V117.753C72.2384 116.414 71.7048 115.131 70.758 114.184C69.8113 113.237 68.5282 112.703 67.1891 112.699H21.8541C20.7429 112.702 19.6577 112.363 18.7464 111.727C17.835 111.091 17.1418 110.19 16.7611 109.146C12.5271 97.381 15.0011 84.403 26.2061 84.403H84.6651C93.4321 84.403 100.539 91.51 100.539 100.277V227.166C100.543 228.378 101.026 229.54 101.883 230.398C102.741 231.255 103.903 231.738 105.115 231.742H192.449C193.805 231.814 195.094 232.357 196.092 233.278C207.934 245.523 199.482 260.038 187.633 260.038Z" stroke="#333333" stroke-width="3" stroke-linecap="round" stroke-linejoin="round"/>
<path d="M100.479 108.803L72.4779 116.879M69.7839 113.211L81.6939 85.165L69.7839 113.211ZM72.3009 114.713L97.0189 90.582L72.3009 114.713Z" stroke="#333333" stroke-width="2" stroke-linecap="round" stroke-linejoin="round"/>
<path d="M440.454 233.693H141.874L141.854 103.927C141.815 102.407 142.081 100.894 142.634 99.4776C143.188 98.0611 144.018 96.7694 145.077 95.678C146.136 94.5867 147.403 93.7177 148.802 93.122C150.201 92.5264 151.705 92.2159 153.226 92.209H440.432L440.454 233.693V233.693Z" fill="#FFDE02" stroke="#333333" stroke-width="3" stroke-linecap="round" stroke-linejoin="round"/>
<path d="M412.78 222.472H142.496L124.445 269.796H397.168L412.78 222.472Z" fill="#FFDE00" stroke="#333333" stroke-width="3" stroke-linecap="round" stroke-linejoin="round"/>
<path d="M392.702 209.787H155.749L155.902 103.43H392.856L392.702 209.787Z" fill="white" stroke="#333333" stroke-width="2" stroke-linecap="round" stroke-linejoin="round"/>
<path d="M205.455 120.743L205.456 128.833C222.258 128.833 234.076 141.631 234.079 157.419C234.093 161.171 233.365 164.888 231.938 168.357C230.511 171.827 228.413 174.98 225.764 177.637C223.115 180.293 219.967 182.4 216.501 183.836C213.036 185.272 209.32 186.01 205.569 186.006C189.719 186.006 176.599 173.207 176.597 157.419C176.595 141.631 188.71 128.832 205.017 128.832V120.744C184.261 120.744 168.564 137.164 168.567 157.419C168.695 177.749 185.239 194.148 205.569 194.096C210.38 194.1 215.145 193.153 219.588 191.31C224.032 189.467 228.068 186.763 231.464 183.355C234.86 179.947 237.548 175.901 239.375 171.45C241.202 166.999 242.131 162.231 242.109 157.42C242.105 137.164 226.704 120.744 205.455 120.744V120.743Z" fill="#FFDE00" stroke="#333333" stroke-width="2" stroke-linecap="round" stroke-linejoin="round"/>
<path d="M186.826 163.723L186.824 154.177L184.768 156.406L183.267 154.73L187.157 150.568H189.455L189.457 163.723H186.826ZM191.042 157.276C191.042 153.934 192.699 150.592 196.424 150.592C200.13 150.592 201.808 153.934 201.808 157.276C201.808 160.619 200.132 163.98 196.427 163.98C192.701 163.98 191.042 160.618 191.042 157.276ZM198.98 157.276C198.98 154.886 198.277 153.041 196.425 153.041C194.552 153.041 193.85 154.887 193.851 157.276C193.851 159.666 194.554 161.532 196.426 161.532C198.278 161.532 198.98 159.667 198.98 157.276V157.276ZM202.356 157.276C202.356 153.934 204.012 150.592 207.738 150.592C211.443 150.592 213.121 153.934 213.122 157.276C213.122 160.619 211.445 163.98 207.74 163.98C204.015 163.98 202.356 160.618 202.356 157.276ZM210.294 157.276C210.294 154.886 209.591 153.041 207.738 153.041C205.866 153.041 205.164 154.887 205.164 157.276C205.164 159.666 205.867 161.532 207.74 161.532C209.592 161.532 210.294 159.667 210.294 157.276V157.276ZM215.074 153.857C215.074 152.98 215.422 152.139 216.042 151.519C216.662 150.899 217.503 150.551 218.38 150.551C219.257 150.551 220.098 150.899 220.718 151.519C221.338 152.139 221.686 152.98 221.686 153.857C221.656 154.714 221.295 155.526 220.678 156.121C220.061 156.717 219.238 157.05 218.38 157.05C217.523 157.05 216.699 156.717 216.082 156.121C215.465 155.526 215.104 154.714 215.074 153.857ZM219.911 153.857C219.887 153.557 219.776 153.271 219.592 153.034C219.408 152.796 219.159 152.618 218.874 152.52C218.59 152.422 218.284 152.408 217.992 152.482C217.701 152.555 217.437 152.712 217.234 152.933C217.03 153.154 216.895 153.429 216.845 153.726C216.796 154.022 216.834 154.327 216.954 154.602C217.075 154.877 217.273 155.111 217.525 155.276C217.776 155.44 218.071 155.527 218.371 155.527C218.585 155.528 218.796 155.484 218.992 155.399C219.188 155.313 219.364 155.188 219.509 155.031C219.654 154.874 219.764 154.689 219.833 154.486C219.903 154.284 219.929 154.07 219.911 153.857V153.857ZM217.031 163.723L225.461 150.568H226.967L218.515 163.723H217.03H217.031ZM222.233 160.773C222.213 160.115 222.39 159.465 222.742 158.908C223.093 158.351 223.603 157.912 224.206 157.646C224.809 157.381 225.477 157.302 226.125 157.419C226.774 157.535 227.372 157.843 227.844 158.303C228.317 158.762 228.641 159.352 228.776 159.996C228.91 160.641 228.85 161.311 228.601 161.921C228.352 162.531 227.927 163.053 227.38 163.42C226.833 163.787 226.189 163.982 225.53 163.98C225.099 164.003 224.667 163.937 224.263 163.785C223.858 163.633 223.49 163.4 223.18 163.099C222.87 162.797 222.626 162.435 222.463 162.035C222.3 161.635 222.222 161.206 222.233 160.774V160.773ZM227.089 160.773C227.114 160.555 227.092 160.334 227.026 160.124C226.959 159.915 226.849 159.722 226.703 159.558C226.557 159.394 226.377 159.263 226.177 159.173C225.976 159.083 225.759 159.037 225.539 159.037C225.319 159.037 225.102 159.083 224.902 159.173C224.701 159.263 224.522 159.394 224.375 159.558C224.229 159.722 224.119 159.915 224.052 160.124C223.986 160.334 223.964 160.555 223.989 160.773C223.97 160.988 223.996 161.205 224.065 161.409C224.135 161.614 224.246 161.801 224.392 161.96C224.537 162.12 224.715 162.247 224.912 162.334C225.11 162.421 225.323 162.466 225.539 162.466C225.755 162.466 225.968 162.421 226.166 162.334C226.364 162.247 226.541 162.12 226.687 161.96C226.832 161.801 226.943 161.614 227.013 161.409C227.082 161.205 227.108 160.988 227.089 160.773ZM371.247 161.092L371.246 154.953H369.492L369.491 149.691H366.86L366.861 156.269H365.107V158.023H362.915L362.914 155.83H361.16L361.161 160.654H359.407V158.023H357.214L357.211 136.975H354.58L354.581 144.429H352.827L352.829 158.023H351.075L351.076 159.777H348.883V160.654H346.691L346.69 158.023H343.621V159.777H341.867V155.83H340.113V160.654H337.921V159.777H335.728V158.461H333.536L333.533 143.991H330.902L330.905 163.284H329.151V160.654H327.397V159.777H325.204V158.461H323.45V155.83H321.257L321.258 159.777H319.065L319.066 160.654H316.873L316.871 150.13H314.679L314.68 159.777H313.365L313.364 155.83H310.733V154.953H308.979L308.98 159.777H306.788V160.654H304.595L304.596 163.284H302.842L302.84 150.13H300.647L300.648 158.461H298.456V159.777H296.264V160.654H294.071V155.83H292.317V159.777H290.563V158.461H287.493L287.494 160.654H285.301V159.777H283.547V158.461H281.793V160.654H279.601L279.598 142.237H277.405L277.408 158.461H275.216V160.654H273.023V155.83H271.269V158.461H269.515V156.269H267.322L267.321 150.13H264.69L264.691 154.953H263.376L263.37 119.435H260.3L260.309 170.3H373.441L373.439 161.092H371.247Z" fill="#333333"/>
<path opacity="0.26" d="M260.749 178.632H372.566V183.456H260.749V178.632Z" fill="#333333"/>
<path d="M260.749 178.632H361.603V183.456H260.749V178.632Z" fill="#FFDE00"/>
<path opacity="0.26" d="M260.75 189.156H372.567V193.98H260.75V189.156Z" fill="#333333"/>
<path d="M260.75 189.156H318.193V193.98H260.75V189.156Z" fill="#FFDE00"/>
<path fill-rule="evenodd" clip-rule="evenodd" d="M260.968 178.413H372.785V183.675H260.968V178.413ZM260.97 188.936H372.787V194.198H260.97V188.936Z" stroke="#333333" stroke-width="2" stroke-linecap="round" stroke-linejoin="round"/>
<path opacity="0.2" d="M249.864 130.832L240.356 120.743M370.11 131.397L351.975 112.358L370.11 131.397ZM266.36 203.201L226.544 159.111L266.36 203.201ZM372.117 120.536L362.661 110.143L372.117 120.536ZM180.979 202.148L163.515 182.81L180.979 202.148Z" stroke="#333333" stroke-width="2" stroke-linecap="round" stroke-linejoin="round"/>
<path d="M351.232 246.66C354.222 238.443 362.567 232.723 370.294 232.723C378.02 232.723 382.201 238.443 379.211 246.659H351.231L351.232 246.66Z" fill="#FFDE00" stroke="#333333" stroke-width="2" stroke-linecap="round" stroke-linejoin="round"/>
<path d="M365.47 246.386L374.549 240.709" stroke="#333333" stroke-width="2" stroke-linecap="round" stroke-linejoin="round"/>
<path d="M351.41 246.168C348.708 253.591 352.601 260.104 360.328 260.104C368.054 260.104 376.688 253.592 379.39 246.168H351.41V246.168Z" fill="#FFDE00"/>
<path fill-rule="evenodd" clip-rule="evenodd" d="M351.41 246.168C348.708 253.591 352.601 260.104 360.328 260.104C368.054 260.104 376.688 253.592 379.39 246.168H351.41V246.168Z" stroke="#333333" stroke-width="2" stroke-linecap="round" stroke-linejoin="round"/>
<path d="M313.83 246.66C316.82 238.443 325.166 232.723 332.893 232.723C340.619 232.723 344.8 238.443 341.81 246.659H313.83V246.66Z" fill="#FFDE00" stroke="#333333" stroke-width="2" stroke-linecap="round" stroke-linejoin="round"/>
<path d="M328.068 246.386L322.853 240.709" stroke="#333333" stroke-width="2" stroke-linecap="round" stroke-linejoin="round"/>
<path d="M314.01 246.168C311.307 253.591 315.2 260.104 322.926 260.104C330.653 260.104 339.286 253.592 341.989 246.168H314.009H314.01Z" fill="#FFDE00"/>
<path fill-rule="evenodd" clip-rule="evenodd" d="M314.01 246.168C311.307 253.591 315.2 260.104 322.926 260.104C330.653 260.104 339.286 253.592 341.989 246.168H314.009H314.01Z" stroke="#333333" stroke-width="2" stroke-linecap="round" stroke-linejoin="round"/>
<path d="M350.232 245.66C353.222 237.443 361.567 231.723 369.294 231.723C377.02 231.723 381.201 237.443 378.211 245.659H350.231L350.232 245.66Z" fill="#FFDE00" stroke="#333333" stroke-width="2" stroke-linecap="round" stroke-linejoin="round"/>
<path d="M364.47 245.386L373.549 239.709" stroke="#333333" stroke-width="2" stroke-linecap="round" stroke-linejoin="round"/>
<path d="M350.41 245.168C347.708 252.591 351.601 259.104 359.328 259.104C367.054 259.104 375.688 252.592 378.39 245.168H350.41V245.168Z" fill="#FFDE00"/>
<path fill-rule="evenodd" clip-rule="evenodd" d="M350.41 245.168C347.708 252.591 351.601 259.104 359.328 259.104C367.054 259.104 375.688 252.592 378.39 245.168H350.41V245.168Z" stroke="#333333" stroke-width="2" stroke-linecap="round" stroke-linejoin="round"/>
<path d="M312.83 245.66C315.82 237.443 324.166 231.723 331.893 231.723C339.619 231.723 343.8 237.443 340.81 245.659H312.83V245.66Z" fill="#FFDE00" stroke="#333333" stroke-width="2" stroke-linecap="round" stroke-linejoin="round"/>
<path d="M327.068 245.386L321.853 239.709" stroke="#333333" stroke-width="2" stroke-linecap="round" stroke-linejoin="round"/>
<path d="M313.01 245.168C310.307 252.591 314.2 259.104 321.926 259.104C329.653 259.104 338.286 252.592 340.989 245.168H313.009H313.01Z" fill="#FFDE00"/>
<path fill-rule="evenodd" clip-rule="evenodd" d="M313.01 245.168C310.307 252.591 314.2 259.104 321.926 259.104C329.653 259.104 338.286 252.592 340.989 245.168H313.009H313.01Z" stroke="#333333" stroke-width="2" stroke-linecap="round" stroke-linejoin="round"/>
<path d="M290.267 259.038H234.161L233.161 258.038L298.678 232.181L299.678 233.181L290.267 259.038Z" fill="#FFDE00" stroke="#333333" stroke-width="2" stroke-linecap="round" stroke-linejoin="round"/>
<path d="M289.267 258.038H233.161L242.572 232.181H298.678L289.267 258.038Z" fill="#FFDE00" stroke="#333333" stroke-width="2" stroke-linecap="round" stroke-linejoin="round"/>
<path d="M244.737 257.062L251.13 239.499" stroke="#333333" stroke-width="2" stroke-linecap="round" stroke-linejoin="round"/>
<path d="M252.637 243.402H247.27L249.223 238.035H254.59L252.637 243.402Z" fill="#FFDE00" stroke="#333333" stroke-width="2" stroke-linecap="round" stroke-linejoin="round"/>
<path d="M278.401 257.062L284.793 239.499" stroke="#333333" stroke-width="2" stroke-linecap="round" stroke-linejoin="round"/>
<path d="M285.812 243.402H280.446L282.399 238.035H287.766L285.812 243.402Z" fill="#FFDE00" stroke="#333333" stroke-width="2" stroke-linecap="round" stroke-linejoin="round"/>
<path d="M266.692 257.062L273.084 239.499" stroke="#333333" stroke-width="2" stroke-linecap="round" stroke-linejoin="round"/>
<path d="M272.815 248.281H267.449L269.402 242.914H274.769L272.815 248.281Z" fill="#FFDE00" stroke="#333333" stroke-width="2" stroke-linecap="round" stroke-linejoin="round"/>
<path d="M255.959 257.062L262.351 239.499" stroke="#333333" stroke-width="2" stroke-linecap="round" stroke-linejoin="round"/>
<path d="M260.351 251.696H254.985L256.938 246.329H262.305L260.351 251.696Z" fill="#FFDE00" stroke="#333333" stroke-width="2" stroke-linecap="round" stroke-linejoin="round"/>
<path d="M191.186 251.669C195.045 248.482 196.373 243.719 194.152 241.031C191.932 238.342 187.003 238.746 183.144 241.933C179.286 245.12 177.957 249.883 180.178 252.572C182.398 255.26 187.327 254.856 191.186 251.669Z" fill="#FFDE00" stroke="#333333" stroke-width="2" stroke-linecap="round" stroke-linejoin="round"/>
<path d="M220.187 251.669C224.046 248.482 225.374 243.719 223.153 241.031C220.933 238.342 216.004 238.746 212.145 241.933C208.286 245.12 206.958 249.883 209.179 252.572C211.399 255.26 216.328 254.856 220.187 251.669Z" fill="#FFDE00" stroke="#333333" stroke-width="2" stroke-linecap="round" stroke-linejoin="round"/>
<path d="M164.187 251.669C168.046 248.482 169.374 243.719 167.153 241.031C164.933 238.342 160.004 238.746 156.145 241.933C152.286 245.12 150.958 249.883 153.179 252.572C155.399 255.26 160.328 254.856 164.187 251.669Z" fill="#FFDE00" stroke="#333333" stroke-width="2" stroke-linecap="round" stroke-linejoin="round"/>
<path d="M163.187 250.669C167.046 247.482 168.374 242.719 166.153 240.031C163.933 237.342 159.004 237.746 155.145 240.933C151.286 244.12 149.958 248.883 152.179 251.572C154.399 254.26 159.328 253.856 163.187 250.669Z" fill="#FFDE00" stroke="#333333" stroke-width="2" stroke-linecap="round" stroke-linejoin="round"/>
<path d="M161.178 248.271C163.205 246.708 163.962 244.292 162.869 242.876C161.777 241.459 159.249 241.578 157.222 243.141C155.195 244.704 154.438 247.119 155.531 248.536C156.623 249.953 159.152 249.834 161.178 248.271Z" stroke="#333333" stroke-width="1.5" stroke-linecap="round" stroke-linejoin="round"/>
<path d="M190.508 250.669C194.367 247.482 195.695 242.719 193.474 240.031C191.254 237.342 186.325 237.746 182.466 240.933C178.608 244.12 177.279 248.883 179.5 251.572C181.72 254.26 186.649 253.856 190.508 250.669Z" fill="#FFDE00" stroke="#333333" stroke-width="2" stroke-linecap="round" stroke-linejoin="round"/>
<path d="M188.318 248.77C190.345 247.207 191.102 244.791 190.009 243.375C188.917 241.958 186.388 242.077 184.362 243.64C182.335 245.203 181.578 247.619 182.67 249.035C183.763 250.452 186.291 250.333 188.318 248.77Z" fill="#333333"/>
<path d="M188.499 248.271C190.526 246.708 191.283 244.292 190.191 242.876C189.098 241.459 186.57 241.578 184.543 243.141C182.516 244.704 181.759 247.119 182.852 248.536C183.944 249.953 186.473 249.834 188.499 248.271Z" fill="#FFDE00" stroke="#333333" stroke-width="1.5" stroke-linecap="round" stroke-linejoin="round"/>
<path d="M188.499 248.271C190.526 246.708 191.283 244.292 190.191 242.876C189.098 241.459 186.57 241.578 184.543 243.141C182.516 244.704 181.759 247.119 182.852 248.536C183.944 249.953 186.473 249.834 188.499 248.271Z" stroke="#333333" stroke-width="1.5" stroke-linecap="round" stroke-linejoin="round"/>
<path d="M219.78 250.67C223.639 247.483 224.967 242.72 222.747 240.031C220.526 237.342 215.598 237.746 211.739 240.933C207.88 244.12 206.552 248.883 208.772 251.572C210.993 254.261 215.921 253.857 219.78 250.67Z" fill="#FFDE00" stroke="#333333" stroke-width="2" stroke-linecap="round" stroke-linejoin="round"/>
<path d="M186.299 246.559L190.498 253.78M159.451 245.016L163.04 235.157L159.451 245.016Z" stroke="#333333" stroke-width="1.5" stroke-linecap="round" stroke-linejoin="round"/>
<path d="M217.772 248.271C219.799 246.708 220.556 244.292 219.463 242.876C218.371 241.459 215.843 241.578 213.816 243.141C211.789 244.704 211.032 247.119 212.125 248.536C213.217 249.953 215.746 249.834 217.772 248.271Z" fill="#FFDE00" stroke="#333333" stroke-width="1.5" stroke-linecap="round" stroke-linejoin="round"/>
<path d="M215.481 245.564L213.523 237.348" stroke="#333333" stroke-width="1.5" stroke-linecap="round" stroke-linejoin="round"/>
<path d="M30.2851 84.975V112.861L8.33008 138.012V57.686L30.2851 84.975Z" fill="#FFDE00" stroke="#333333" stroke-width="3" stroke-linecap="round" stroke-linejoin="round"/>
<path d="M77.2449 256.053L101.468 229.952M72.7299 121.969H100.539H72.7299ZM104.928 231.922L89.6029 259.992L104.928 231.922ZM72.3009 244.735L100.479 227.489L72.3009 244.735ZM108.383 232.174L107.283 259.616L108.383 232.174ZM54.6779 112.212V85.378V112.212ZM42.4819 112.212V85.378V112.212ZM72.0939 224.561L100.191 223.958L72.0939 224.561ZM72.2419 213.202H100.051H72.2419ZM72.2419 201.493H100.051H72.2419ZM72.2419 190.272H100.051H72.2419ZM72.2419 178.563H100.051H72.2419ZM72.2419 166.854H100.051H72.2419ZM72.2419 155.632H100.051H72.2419ZM72.2419 143.923H100.051H72.2419ZM72.7299 132.702H100.051H72.7299ZM119.566 232.229V260.038V232.229ZM131.275 232.229V251.256V232.229ZM65.8999 84.891V112.212V84.891Z" stroke="#333333" stroke-width="2" stroke-linecap="round" stroke-linejoin="round"/>
<path d="M1.5 57.0811H8.33V138.068H1.5V57.0811Z" fill="#FFDE00" stroke="#333333" stroke-width="3" stroke-linecap="round" stroke-linejoin="round"/>
<path d="M399.607 343.025V269.796H124.445V343.025" fill="#FFDE00"/>
<path d="M399.607 343.025V269.796H124.445V343.025" stroke="#333333" stroke-width="3" stroke-linejoin="round"/>
<path d="M369.254 342.436V284.073H144.241V342.436" fill="#FFDE00"/>
<path d="M369.254 342.436V284.073H144.241V342.436" stroke="#333333" stroke-width="2" stroke-linejoin="round"/>
<path d="M369.254 342.542V285.542H144.241V343.025" fill="#FFDE00"/>
<path d="M369.254 342.542V285.542H144.241V343.025" stroke="#333333" stroke-width="2" stroke-linejoin="round"/>
<path d="M369.254 342.542V285.542H145.597V342.542" fill="#FFDE00"/>
<path d="M369.254 342.542V285.542H145.597V342.542" stroke="#333333" stroke-width="2" stroke-linejoin="round"/>
<path d="M369.254 343.025V285.542H145.597V343.025" fill="#FFDE00"/>
<path d="M369.254 343.025V285.542H145.597V343.025" stroke="#333333" stroke-width="2" stroke-linejoin="round"/>
<path d="M247 324.391H248.477C249.236 324.391 249.715 323.907 249.715 323.141V306.041C249.715 305.275 249.236 304.791 248.477 304.791H247V301H257.7C263.449 301 268 303.944 268 309.55C268 315.196 263.449 318.14 257.7 318.14H254.027V323.141C254.027 323.907 254.506 324.391 255.304 324.391H258.298V328.222H247V324.391ZM257.38 314.188C261.173 314.188 263.369 312.574 263.369 309.63C263.369 306.606 261.173 305.073 257.38 305.073H254.027V314.228H257.38V314.188Z" fill="#333333"/>
<path d="M134.443 280.229C135.575 280.229 136.493 279.311 136.493 278.179C136.493 277.047 135.575 276.129 134.443 276.129C133.311 276.129 132.393 277.047 132.393 278.179C132.393 279.311 133.311 280.229 134.443 280.229Z" fill="#FFDE00" stroke="#333333" stroke-width="1.5" stroke-linecap="round" stroke-linejoin="round"/>
<path d="M379.357 280.229C380.489 280.229 381.407 279.311 381.407 278.179C381.407 277.047 380.489 276.129 379.357 276.129C378.225 276.129 377.307 277.047 377.307 278.179C377.307 279.311 378.225 280.229 379.357 280.229Z" fill="#FFDE00" stroke="#333333" stroke-width="1.5" stroke-linecap="round" stroke-linejoin="round"/>
<path d="M263.949 80.543V57.88C263.949 56.5649 264.236 55.2657 264.791 54.0733C265.346 52.8809 266.154 51.8241 267.16 50.977L273.787 48.051L274.241 42.209L274.213 42.994L282.693 51C283.612 51.8452 284.345 52.8719 284.847 54.0152C285.349 55.1585 285.608 56.3934 285.608 57.642V80.542C285.608 81.8185 285.101 83.0427 284.198 83.9453C283.296 84.8479 282.071 85.355 280.795 85.355H268.762C267.485 85.355 266.261 84.8479 265.359 83.9453C264.456 83.0427 263.949 81.8185 263.949 80.542V80.543Z" fill="white" stroke="#333333" stroke-width="2" stroke-linecap="round" stroke-linejoin="round"/>
<path d="M268.258 85.356H283.299V91.974H268.258V85.356Z" fill="#FFDE00" stroke="#333333" stroke-width="2" stroke-linecap="round" stroke-linejoin="round"/>
<path d="M262.997 80.543V57.88C262.997 56.5648 263.285 55.2656 263.839 54.0732C264.394 52.8807 265.203 51.824 266.209 50.977L273.313 44.994L274.241 42.209L275.213 44.994L281.741 51C282.66 51.8452 283.394 52.8719 283.895 54.0152C284.397 55.1585 284.656 56.3934 284.656 57.642V80.542C284.656 81.8185 284.149 83.0427 283.246 83.9453C282.344 84.8479 281.12 85.355 279.843 85.355H267.81C266.534 85.355 265.309 84.8479 264.407 83.9453C263.504 83.0427 262.997 81.8185 262.997 80.542V80.543Z" fill="white" stroke="#333333" stroke-width="2" stroke-linecap="round" stroke-linejoin="round"/>
<path d="M266.306 85.356H281.347V91.974H266.306V85.356Z" fill="#FFDE00" stroke="#333333" stroke-width="2" stroke-linecap="round" stroke-linejoin="round"/>
<path d="M269.869 71.356C271.134 71.356 272.16 70.3303 272.16 69.065C272.16 67.7998 271.134 66.774 269.869 66.774C268.604 66.774 267.578 67.7998 267.578 69.065C267.578 70.3303 268.604 71.356 269.869 71.356Z" fill="white" stroke="#333333" stroke-width="2" stroke-linecap="round" stroke-linejoin="round"/>
<path d="M273.117 84.681L268.534 71.266Z" fill="#FFDE00"/>
<path d="M273.117 84.681L268.534 71.266" stroke="#333333" stroke-width="2" stroke-linecap="round" stroke-linejoin="round"/>
<path d="M277.699 71.356C278.964 71.356 279.99 70.3303 279.99 69.065C279.99 67.7998 278.964 66.774 277.699 66.774C276.434 66.774 275.408 67.7998 275.408 69.065C275.408 70.3303 276.434 71.356 277.699 71.356Z" fill="white" stroke="#333333" stroke-width="2" stroke-linecap="round" stroke-linejoin="round"/>
<path d="M274.451 84.681L279.033 71.266Z" fill="#FFDE00"/>
<path d="M274.451 84.681L279.033 71.266" stroke="#333333" stroke-width="2" stroke-linecap="round" stroke-linejoin="round"/>
<path d="M388.874 343.026V270.68L407.119 222.47L407.335 101.198C407.528 98.7505 408.637 96.4658 410.44 94.7996C412.243 93.1333 414.608 92.2079 417.063 92.208H455.225C460.614 92.208 464.982 96.576 464.982 101.965V343.025" fill="#FFDE00"/>
<path opacity="0.1" d="M388.874 343.026V270.68L407.119 222.47L407.335 101.198C407.528 98.7505 408.637 96.4658 410.44 94.7996C412.243 93.1333 414.608 92.2079 417.063 92.208H455.225C460.614 92.208 464.982 96.576 464.982 101.965V343.025" fill="#333333"/>
<path d="M388.874 343.026V270.68L407.119 222.47L407.335 101.198C407.528 98.7505 408.637 96.4658 410.44 94.7996C412.243 93.1333 414.608 92.2079 417.063 92.208H455.225C460.614 92.208 464.982 96.576 464.982 101.965V343.025" stroke="#333333" stroke-width="3" stroke-linejoin="round"/>
</g>
</svg>
