<svg width="345" height="35" viewBox="0 0 345 35" xmlns="http://www.w3.org/2000/svg" xmlns:xlink="http://www.w3.org/1999/xlink"><title>Slice</title><defs><path d="M-248-173.998a5.948 5.948 0 0 1 5.954-6.002h829.22a5.996 5.996 0 0 1 5.995 6.002V-6.002A5.996 5.996 0 0 1 587.17 0h-250.08c-3.313 0-7.42 2.276-9.179 5.088l-13.641 21.824c-1.757 2.81-5.874 5.088-9.182 5.088H40.541c-3.314 0-7.423-2.276-9.18-5.088L17.72 5.088C15.967 2.278 11.849 0 8.546 0h-249.379a6.047 6.047 0 0 1-6.038-6.002L-248-173.998z" id="a"/><mask id="b" x="-3" y="-3" width="847.169" height="218"><path fill="#fff" d="M-251-183h847.169V35H-251z"/><use xlink:href="#a"/></mask></defs><g fill="none" fill-rule="evenodd"><use fill="#353942" xlink:href="#a"/><use stroke="#2A2E35" mask="url(#b)" stroke-width="6" xlink:href="#a"/></g></svg>