<svg xmlns="http://www.w3.org/2000/svg" width="85" height="61"><g fill="none" fill-rule="evenodd" transform="translate(0 1)"><ellipse cx="40.5" cy="58" fill="#333" fill-rule="nonzero" opacity=".1" rx="40" ry="2"/><rect width="69" height="48" x="6.5" y="9" fill="#FFDE00" fill-rule="nonzero" stroke="#333" stroke-linecap="round" stroke-linejoin="round" stroke-width="2" rx="3"/><path stroke="#333" stroke-linecap="round" stroke-linejoin="round" stroke-width="2.12" d="M74.74 55.58L43.81 35.32a5.08 5.08 0 0 0-5.88-.06L7.5 56"/><path fill="#333" fill-rule="nonzero" stroke="#333" stroke-linecap="round" stroke-linejoin="round" stroke-width="2" d="M73.38 12.09L43.24 37.16a4.15 4.15 0 0 1-4.77 0L8.37 12.09" opacity=".09"/><path fill="#FFF" fill-rule="nonzero" stroke="#333" stroke-linecap="round" stroke-linejoin="round" stroke-width="2" d="M73.38 10.09L43.24 35.16a4.15 4.15 0 0 1-4.77 0L8.37 10.09"/><path fill="#333" fill-rule="nonzero" d="M72.5 54h-63a3 3 0 0 1-3-3v4a3 3 0 0 0 3 3h63a3 3 0 0 0 3-3v-4a3 3 0 0 1-3 3z" opacity=".1"/><circle cx="74" cy="10" r="10" fill="#F35A3D" stroke="#333" stroke-width="2"/></g></svg>