<svg height="77" width="77" xmlns="http://www.w3.org/2000/svg"><g fill="none" fill-rule="evenodd" transform="translate(1 1)"><g stroke="#333" stroke-width="2"><rect fill="#fff" height="75" rx="2" width="75"/><g transform="translate(13 13)"><path d="m17.113 37.5h6.1a3.571 3.571 0 1 1 0 7.142h-6.1a8.93 8.93 0 0 1 -17.113-3.57 8.928 8.928 0 0 1 17.113-3.572zm19.165-13.995 4.329 8.649a8.929 8.929 0 1 1 -6.39 3.193l-4.325-8.65a3.571 3.571 0 0 1 6.386-3.192zm-7.292-22.563a8.928 8.928 0 0 1 -4.455 16.902l-4.325 8.653a3.572 3.572 0 0 1 -6.386-3.192l4.321-8.653a8.927 8.927 0 0 1 10.845-13.71z" fill="#e1e1e1"/><circle cx="25" cy="9" fill="#fff" r="3"/><g fill="#ffde00"><circle cx="41" cy="41" r="3"/><circle cx="9" cy="41" r="3"/></g></g><path d="m5 5h13v13h-13z" fill="#ffde00" stroke-linecap="round" stroke-linejoin="round"/></g><path d="m9.88 14.18h-.88v.84h2.86v-.88h-.92v-1.78h.79a2.81 2.81 0 0 0 2.16-.6 2.23 2.23 0 0 0 .59-1.57 2.07 2.07 0 0 0 -2.35-2.17h-3.13v.88h.88zm1.06-2.67v-2.61h1.21a1.15 1.15 0 0 1 1.25 1.27c0 .73-.28 1.33-1.58 1.33z" fill="#333" fill-rule="nonzero"/></g></svg>