<svg width="33" height="15" viewBox="0 0 33 15" fill="none" xmlns="http://www.w3.org/2000/svg">
<path fill-rule="evenodd" clip-rule="evenodd" d="M22.1462 1.73945H20.9245L21.7884 0.877976C21.7205 0.782861 21.6447 0.693607 21.5621 0.611303C21.4796 0.528999 21.3903 0.453645 21.2949 0.385892L20.431 1.24736V0.0290993C20.3179 0.0102065 20.2017 0.000217159 20.0834 0H20.081C19.9626 0.000217159 19.8465 0.0102065 19.7334 0.0290993V1.24736L18.8695 0.385892C18.7741 0.453645 18.6846 0.528999 18.6023 0.611303L18.6019 0.61174C18.5193 0.693824 18.4437 0.782861 18.376 0.877976L19.24 1.73945H18.0182C18.0182 1.73945 17.989 1.96811 17.989 2.08647V2.08799C17.989 2.20612 17.999 2.3223 18.0182 2.43523H19.24L18.376 3.29648C18.5119 3.48671 18.6787 3.65327 18.8695 3.78856L19.7334 2.92709V4.14535C19.8465 4.16425 19.9623 4.17422 20.0806 4.17447H20.0836C20.2019 4.17422 20.3181 4.16425 20.431 4.14535V2.92709L21.2951 3.78856C21.3903 3.72103 21.4796 3.64546 21.5621 3.56315H21.5624C21.6447 3.48085 21.7205 3.39159 21.7884 3.29648L20.9242 2.43523H22.1462C22.1652 2.32252 22.1752 2.20677 22.1752 2.08864V2.08582C22.1752 1.96768 22.1652 1.85215 22.1462 1.73945ZM24.1902 10.612C23.8413 10.2851 23.6585 9.76958 23.6416 9.06534H28.0422C28.0505 8.97327 28.059 8.8625 28.0672 8.73223C28.0758 8.60234 28.0801 8.47881 28.0801 8.3613C28.0801 7.93371 28.0211 7.53784 27.9035 7.17323C27.7857 6.80861 27.6134 6.49438 27.3867 6.23031C27.1596 5.96624 26.878 5.75887 26.5417 5.60795C26.2055 5.45702 25.8146 5.38146 25.3692 5.38146C24.8479 5.38146 24.396 5.47157 24.0135 5.6518C23.6311 5.83228 23.3138 6.07527 23.0616 6.38103C22.8096 6.68724 22.6224 7.04749 22.5006 7.46228C22.3787 7.87748 22.3177 8.32372 22.3177 8.80127C22.3177 9.28771 22.3809 9.73396 22.5069 10.1405C22.633 10.547 22.8327 10.8993 23.1058 11.1967C23.3789 11.4943 23.7258 11.7247 24.1462 11.8882C24.5663 12.0517 25.0706 12.1334 25.6593 12.1334C26.0626 12.1334 26.4302 12.1038 26.7626 12.0454C27.0942 11.9866 27.3991 11.8988 27.6766 11.7814C27.6681 11.6052 27.643 11.4274 27.601 11.2469C27.5588 11.0667 27.5043 10.9138 27.437 10.7881C26.8989 10.9976 26.3318 11.1025 25.7348 11.1025C25.0539 11.1025 24.539 10.9388 24.1902 10.612ZM12.4073 5.5323C12.4912 5.5158 12.5774 5.5032 12.6656 5.49472C12.754 5.48645 12.8442 5.48213 12.9367 5.48213C13.0206 5.48213 13.109 5.48645 13.2015 5.49472C13.2939 5.5032 13.3823 5.5158 13.4664 5.5323C13.4747 5.54942 13.4853 5.60155 13.4977 5.68971C13.5104 5.77766 13.523 5.87193 13.5357 5.97248C13.5483 6.07303 13.5609 6.16967 13.5735 6.26173C13.5862 6.35401 13.5923 6.41266 13.5923 6.43785C13.6763 6.30363 13.7772 6.17378 13.895 6.04805C14.0126 5.92231 14.1537 5.80896 14.3174 5.70862C14.4813 5.60787 14.6661 5.52839 14.8724 5.46974C15.078 5.41109 15.307 5.38158 15.5594 5.38158C15.9375 5.38158 16.2886 5.44455 16.6124 5.57029C16.9358 5.69603 17.213 5.8908 17.4443 6.15466C17.6754 6.41894 17.8561 6.75425 17.9866 7.16055C18.1168 7.56752 18.1819 8.04698 18.1819 8.6003C18.1819 9.70674 17.8814 10.5723 17.2806 11.1967C16.6793 11.8212 15.8284 12.1335 14.7271 12.1335C14.5422 12.1335 14.3532 12.1209 14.1598 12.0957C13.9662 12.0705 13.7983 12.0369 13.6554 11.9952V14.9498C13.5546 14.9663 13.4474 14.9789 13.334 14.9874C13.2205 14.9956 13.1173 15 13.0249 15C12.9324 15 12.8296 14.9956 12.7161 14.9874C12.6027 14.9789 12.4997 14.9663 12.4073 14.9498V5.5323ZM9.82237 7.73278C9.82237 7.23811 9.69627 6.89453 9.44412 6.70171C9.19192 6.50909 8.82626 6.41266 8.34713 6.41266C8.05269 6.41266 7.77767 6.43589 7.52131 6.48174C7.26479 6.52796 7.01454 6.58857 6.77107 6.66392C6.61121 6.38726 6.53151 6.05653 6.53151 5.67063C6.81701 5.57856 7.13216 5.50732 7.47711 5.45694C7.82165 5.40656 8.15356 5.38158 8.47323 5.38158C9.31365 5.38158 9.95259 5.57249 10.3897 5.95361C10.8268 6.33514 11.0454 6.94495 11.0454 7.78296V11.8191C10.7512 11.8862 10.394 11.9552 9.97375 12.0265C9.55321 12.0975 9.1244 12.1333 8.68752 12.1333C8.2755 12.1333 7.90373 12.0957 7.57162 12.0202C7.23951 11.9446 6.95791 11.8234 6.72688 11.6553C6.49559 11.4881 6.31702 11.274 6.19092 11.0143C6.06482 10.7546 6.00187 10.4403 6.00187 10.0711C6.00187 9.7111 6.07525 9.3945 6.22248 9.12195C6.36949 8.84986 6.56918 8.62337 6.82138 8.4431C7.07358 8.26308 7.36365 8.12866 7.6914 8.04091C8.01939 7.95275 8.36393 7.90869 8.72543 7.90869C8.99439 7.90869 9.21499 7.91522 9.38724 7.92756C9.55953 7.94041 9.70455 7.95495 9.82237 7.97166V7.73278ZM0 11.8066L3.40454 6.52572H0.403546C0.37828 6.37479 0.36565 6.20737 0.36565 6.02277C0.36565 5.84687 0.37828 5.68314 0.403546 5.53222H5.25804L5.32098 5.69594L1.89141 10.9892H5.1067C5.13173 11.1571 5.14458 11.3286 5.14458 11.5045C5.14458 11.6726 5.13173 11.8316 5.1067 11.9827H0.063156L0 11.8066ZM9.34325 8.90219C9.53666 8.91911 9.69627 8.93561 9.82237 8.95236V11.0019C9.66251 11.0438 9.47983 11.0751 9.27378 11.0959C9.06798 11.1172 8.86829 11.1276 8.67492 11.1276C8.52375 11.1276 8.36393 11.1194 8.1958 11.1024C8.02766 11.0855 7.87433 11.0395 7.73563 10.9641C7.59689 10.8885 7.48127 10.7798 7.38893 10.6371C7.29613 10.4948 7.25019 10.2976 7.25019 10.0462C7.25019 9.65245 7.38652 9.35908 7.66005 9.16605C7.93291 8.9734 8.33017 8.8768 8.85153 8.8768C8.98591 8.8768 9.14988 8.88548 9.34325 8.90219ZM14.1472 11.0521C13.979 11.0271 13.8148 10.9852 13.6554 10.9263V8.31125C13.6554 7.99249 13.7016 7.71844 13.7944 7.48759C13.8867 7.25719 14.0085 7.06628 14.1598 6.91535C14.3112 6.76443 14.4832 6.65129 14.6768 6.57618C14.8699 6.50061 15.0718 6.46283 15.282 6.46283C15.8449 6.46283 16.2507 6.65998 16.4987 7.05369C16.7466 7.44785 16.8707 7.9801 16.8707 8.65068C16.8707 9.06983 16.818 9.43224 16.713 9.738C16.6078 10.0442 16.465 10.2976 16.2842 10.4987C16.1037 10.7 15.8872 10.8492 15.635 10.9452C15.3828 11.0416 15.1056 11.0898 14.8029 11.0898C14.5337 11.0898 14.3153 11.077 14.1472 11.0521ZM19.7329 6.51312H18.9132C18.8965 6.44604 18.8838 6.36852 18.8755 6.28056C18.867 6.19261 18.8629 6.10661 18.8629 6.02277C18.8629 5.93919 18.867 5.85298 18.8755 5.76503C18.8838 5.67707 18.8965 5.59955 18.9132 5.53222H20.9562V11.9827C20.8634 11.9992 20.7606 12.0116 20.6472 12.0201C20.5337 12.0283 20.4305 12.0327 20.3381 12.0327C20.2541 12.0327 20.1552 12.0283 20.042 12.0201C19.9283 12.0116 19.8253 11.9992 19.7329 11.9827V6.51312ZM26.8445 8.13522C26.8445 7.9005 26.8129 7.67638 26.7499 7.46228C26.6868 7.24859 26.5942 7.06225 26.4725 6.90289C26.3503 6.74369 26.195 6.61579 26.0058 6.51957C25.8167 6.42318 25.5918 6.37475 25.3313 6.37475C24.8185 6.37475 24.4256 6.53 24.1522 6.84012C23.8792 7.1502 23.7132 7.58194 23.6542 8.13522H26.8445ZM29.7199 5.49472C29.6358 5.5032 29.5474 5.5158 29.4551 5.5323V11.9826C29.5559 11.9991 29.663 12.0117 29.7767 12.0202C29.8901 12.0284 29.993 12.0328 30.0857 12.0328C30.1779 12.0328 30.2811 12.0284 30.3943 12.0202C30.5078 12.0117 30.6108 11.9991 30.7033 11.9826V8.77625C30.7033 8.3406 30.7517 7.98426 30.8484 7.7078C30.9449 7.43114 31.0753 7.21313 31.2391 7.05373C31.4031 6.89453 31.5877 6.78359 31.794 6.72062C32 6.65786 32.2165 6.62635 32.4434 6.62635H32.6135C32.6849 6.62635 32.7542 6.63483 32.8217 6.65133C32.8385 6.55099 32.8533 6.44612 32.8659 6.33709C32.8783 6.22832 32.8846 6.1234 32.8846 6.02286C32.8846 5.93058 32.8805 5.84263 32.872 5.75879C32.8637 5.6752 32.8509 5.59527 32.8343 5.5197C32.784 5.51168 32.7226 5.50536 32.6514 5.50104C32.5799 5.49668 32.5105 5.49472 32.4434 5.49472C31.9893 5.49472 31.6176 5.59964 31.3275 5.80896C31.0376 6.01853 30.8042 6.2661 30.6278 6.55099C30.6278 6.40834 30.6149 6.23459 30.5899 6.02897C30.5646 5.82397 30.5394 5.65804 30.5143 5.5323C30.4385 5.5158 30.3545 5.5032 30.2621 5.49472C30.1694 5.48649 30.077 5.48213 29.9847 5.48213C29.8921 5.48213 29.8037 5.48649 29.7199 5.49472ZM20.5251 2.52882C20.5769 2.39158 20.6054 2.24325 20.6054 2.0882V2.08625C20.6054 1.9312 20.5769 1.78266 20.5251 1.64563C20.3876 1.59395 20.2387 1.5655 20.0832 1.5655H20.0812C19.9257 1.5655 19.7768 1.59395 19.6391 1.64563C19.5875 1.78266 19.559 1.9312 19.5588 2.08625V2.0882C19.559 2.24325 19.5875 2.39179 19.6393 2.52882C19.7768 2.58051 19.9257 2.60895 20.0812 2.60895H20.0832C20.2387 2.60895 20.3876 2.58051 20.5251 2.52882Z" fill="#FF4A00"/>
</svg>
