<svg width="29" height="18" fill="none" xmlns="http://www.w3.org/2000/svg"><path fill-rule="evenodd" clip-rule="evenodd" d="M.42.304A.906.906 0 0 1 1.696.42l12.637 15.164L26.97.42a.906.906 0 0 1 1.393 1.16l-13.334 16a.906.906 0 0 1-1.392 0L.304 1.58A.906.906 0 0 1 .42.304zM4.76 1c0-.5.406-.906.907-.906H23a.906.906 0 1 1 0 1.812H5.667A.906.906 0 0 1 4.76 1zm2.667 3.333c0-.5.406-.906.906-.906h12a.906.906 0 0 1 0 1.813h-12a.906.906 0 0 1-.906-.907zm19.536 1.429a.906.906 0 1 1 1.407 1.143L19.703 17.57a.906.906 0 0 1-1.406-1.143l8.666-10.666zm-26.545.21a.906.906 0 0 1 1.276.112l8.667 10.334a.906.906 0 1 1-1.389 1.164L.306 7.25a.906.906 0 0 1 .112-1.277zm9.676 1.695c0-.5.405-.907.906-.907h6.666a.906.906 0 1 1 0 1.813H11a.906.906 0 0 1-.906-.906zM12.76 11c0-.5.406-.906.907-.906H15a.906.906 0 1 1 0 1.812h-1.333A.906.906 0 0 1 12.76 11zm14.203.095a.906.906 0 0 1 1.407 1.143l-4.334 5.333a.906.906 0 1 1-1.406-1.143l4.333-5.333zm-26.557.22a.906.906 0 0 1 1.279.091l4.333 5a.906.906 0 0 1-1.37 1.187l-4.333-5a.906.906 0 0 1 .091-1.278zM.094 17a.906.906 0 1 1 1.812 0 .906.906 0 0 1-1.812 0zm26.666 0a.906.906 0 1 1 1.813 0 .906.906 0 0 1-1.813 0z" fill="#fff"/></svg>