<svg xmlns="http://www.w3.org/2000/svg" width="187" height="29"><g fill="#B3D8F0" fill-rule="evenodd" opacity=".75" style="mix-blend-mode:multiply"><path d="M0 0h16v5H0zM19 0h16v5H19zM0 8h8v5H0zM11 8h16v5H11zM0 16h16v5H0zM19 16h16v5H19zM30 8h16v5H30zM0 24h8v5H0zM11 24h16v5H11zM30 24h16v5H30zM49 8h16v5H49zM68 8h16v5H68zM87 8h16v5H87zM106 8h16v5h-16zM125 8h16v5h-16zM38 16h16v5H38zM57 16h16v5H57zM76 16h16v5H76zM38 0h16v5H38zM57 0h16v5H57zM76 0h16v5H76zM95 0h16v5H95zM114 0h16v5h-16zM133 0h16v5h-16zM152 0h16v5h-16zM171 0h16v5h-16z"/></g></svg>