<?xml version="1.0" encoding="UTF-8"?>
<svg width="16px" height="16px" viewBox="0 0 16 16" version="1.1" xmlns="http://www.w3.org/2000/svg" xmlns:xlink="http://www.w3.org/1999/xlink">
    <!-- Generator: Sketch 45.2 (43514) - http://www.bohemiancoding.com/sketch -->
    <title>i-phone</title>
    <desc>Created with Sketch.</desc>
    <defs></defs>
    <g id="Page-1" stroke="none" stroke-width="1" fill="none" fill-rule="evenodd">
        <g id="i-phone" fill="#007DCC">
            <path d="M4,0 L12,0 C12.5522847,-1.01453063e-16 13,0.44771525 13,1 L13,15 C13,15.5522847 12.5522847,16 12,16 L4,16 C3.44771525,16 3,15.5522847 3,15 L3,1 L3,1 C3,0.44771525 3.44771525,1.01453063e-16 4,0 L4,0 Z M8,15.25 C8.41421356,15.25 8.75,14.9142136 8.75,14.5 C8.75,14.0857864 8.41421356,13.75 8,13.75 C7.58578644,13.75 7.25,14.0857864 7.25,14.5 C7.25,14.9142136 7.58578644,15.25 8,15.25 Z M7,1 C6.72385763,1 6.5,1.22385763 6.5,1.5 C6.5,1.77614237 6.72385763,2 7,2 L7,2 L9,2 C9.27614237,2 9.5,1.77614237 9.5,1.5 L9.5,1.5 C9.5,1.22385763 9.27614237,1 9,1 L7,1 Z M4,3 L4,13 L12,13 L12,3 L4,3 Z" id="Combined-Shape"></path>
        </g>
    </g>
</svg>