<svg width="14" height="14" viewBox="0 0 14 14" fill="none" xmlns="http://www.w3.org/2000/svg">
  <path d="M13.7917 2.87993C13.3047 3.09576 12.7814 3.2416 12.2313 3.30751C12.7925 2.97151 13.223 2.43835 13.426 1.80368C12.901 2.11518 12.3194 2.34151 11.7005 2.46285C11.2047 1.93551 10.4988 1.60535 9.71715 1.60535C8.21682 1.60535 6.99999 2.82218 6.99999 4.32368C6.99999 4.53601 7.02449 4.74251 7.06999 4.94201C4.81074 4.82826 2.80932 3.74618 1.46882 2.10235C1.23549 2.50485 1.10132 2.97151 1.10132 3.46851C1.10132 4.41118 1.5814 5.2436 2.30999 5.73068C1.86432 5.7161 1.44549 5.59418 1.07915 5.3906V5.4256C1.07915 6.74218 2.0154 7.8406 3.25907 8.09026C3.0304 8.1521 2.79065 8.18476 2.54332 8.18476C2.36832 8.18476 2.1974 8.16843 2.03174 8.13693C2.37765 9.2161 3.38099 10.0024 4.5704 10.0234C3.63999 10.7526 2.46807 11.1872 1.19524 11.1872C0.975903 11.1872 0.759487 11.1743 0.54657 11.1493C1.7494 11.921 3.1774 12.3702 4.71157 12.3702C9.71074 12.3702 12.4437 8.22968 12.4437 4.63868C12.4437 4.52201 12.4407 4.40418 12.4355 4.28751C12.9663 3.90368 13.4272 3.42593 13.7906 2.88168L13.7917 2.87993Z" fill="#1DA1F2"/>
</svg>
