<svg xmlns="http://www.w3.org/2000/svg" width="472" height="68"><g fill="#4FC47F" fill-rule="evenodd"><path d="M0 40.709c22.47-11.31 50.218-16.965 83.245-16.965 49.54 0 165.937 21.43 219.955 21.43 36.012 0 92.278-10.391 168.8-31.174v43.791c0 5.523-4.477 10-10 10H10c-5.523 0-10-4.477-10-10V40.709z"/><path d="M0 34.709c22.47-11.31 50.218-16.965 83.245-16.965 49.54 0 165.86 29.19 219.878 29.19C339.135 46.934 395.427 33.956 472 8v43.791c0 5.523-4.477 10-10 10H10c-5.523 0-10-4.477-10-10V34.709z" opacity=".15"/><path d="M0 28.709c22.47-11.31 50.218-16.965 83.245-16.965 49.54 0 168.102 34.47 222.12 34.47 36.011 0 91.556-15.15 166.635-45.452v45.029c0 5.523-4.477 10-10 10H10c-5.523 0-10-4.477-10-10V28.709z" opacity=".15"/></g></svg>