<svg width="730" height="261" viewBox="0 0 730 261" xmlns="http://www.w3.org/2000/svg"><title>Path 7</title><path d="M1.822 102.482C3.746 79.92 19.508 50.015 37.037 35.676l7.268-5.945c23.936-19.579 67.443-28.533 97.174-20l11.64 3.341c15.4 4.42 40.414 4.58 55.86.361L241 4.687c27.705-7.567 72.059-5.782 99.06 3.986l-8.038-2.908c23.373 8.456 62.244 12.314 86.816 8.62l82.288-12.372c28.402-4.27 73.127.719 99.88 11.137l-1.885-.734c22.64 8.817 60.522 18.563 84.604 21.769l2.18.29c20.806 2.77 37.673 22.028 37.673 43.013v52.884l5.773 39.552c4.148 28.416-15.172 56.699-43.148 63.17l4.57-1.057c-27.979 6.47-73.476 16.346-101.626 22.057l-1.746.354c-28.148 5.71-73.568 4.781-101.462-2.08l-29.193-7.18c-27.887-6.859-72.495-4.81-99.634 4.575l5.693-1.969c-27.14 9.386-72.284 14.53-100.856 11.487l-11.192-1.192c-28.563-3.042-74.919-3.579-103.53-1.2l-37.2 3.093c-31.921 2.655-65.855-19.88-75.793-50.335l.438 1.345c-1.2-3.677-3.9-9.282-6.018-12.498l-14.51-22.036C5.032 162.624-1.21 138.018.197 121.515l1.624-19.033z" fill="#EFF9FA" fill-rule="evenodd"/></svg>