<svg xmlns="http://www.w3.org/2000/svg" width="32" height="215"><g fill="none" fill-rule="evenodd"><path fill="#EAEAEA" fill-rule="nonzero" d="M3 74.286h26a2 2 0 0 1 2 2V85H1v-8.714a2 2 0 0 1 2-2z"/><path stroke="#3A3A3A" d="M1.5 84.5h29v-8.214a1.5 1.5 0 0 0-1.5-1.5H3a1.5 1.5 0 0 0-1.5 1.5V84.5z"/><path fill="#E6E6E6" fill-rule="nonzero" d="M2 77.5h28v1.045H2V77.5zm0 3.214h28v1.045H2v-1.045z" style="mix-blend-mode:multiply"/><g stroke="#333" stroke-linecap="round" stroke-linejoin="round"><path fill="#EEE" fill-rule="nonzero" d="M2 74.439h28l-4.883-4.093a1.479 1.479 0 0 0-.948-.346H7.831a1.48 1.48 0 0 0-.953.346L2 74.439z"/><path fill="#FFF" fill-rule="nonzero" d="M24.313 70.082l-8.207 2.843c-.232.1-.492.1-.724 0L7.73 70l16.583.082z"/><path d="M2.333 74.034l9.322-2.522m17.626 2.639l-8.936-2.639"/></g><g transform="translate(6 35)"><rect width="22" height="15" fill="#E9E9E9" fill-rule="nonzero" rx="2"/><rect width="21" height="14" x=".5" y=".5" stroke="#3A3A3A" rx="2"/></g><path stroke="#333" stroke-linecap="round" stroke-linejoin="round" d="M27 48.884l-9.005-8.151a1.603 1.603 0 0 0-1.749-.017L7 49"/><path fill="#333" fill-rule="nonzero" stroke="#333" stroke-linecap="round" stroke-linejoin="round" stroke-width=".652" d="M28 36l-10.204 7.841a1.39 1.39 0 0 1-1.541 0L7 36" opacity=".09"/><path fill="#FFF" fill-rule="nonzero" stroke="#333" stroke-linecap="round" stroke-linejoin="round" d="M27 36l-9.272 7.766a1.27 1.27 0 0 1-1.467 0L7.001 36"/><g transform="translate(4 33)"><rect width="22" height="15" fill="#E9E9E9" fill-rule="nonzero" rx="2"/><rect width="21" height="14" x=".5" y=".5" stroke="#3A3A3A" rx="2"/><path stroke="#333" stroke-linecap="round" stroke-linejoin="round" d="M21 13.884l-9.005-8.151a1.603 1.603 0 0 0-1.749-.017L1 14"/><path fill="#333" fill-rule="nonzero" stroke="#333" stroke-linecap="round" stroke-linejoin="round" stroke-width=".652" d="M22 1L11.796 8.841a1.39 1.39 0 0 1-1.541 0L1 1" opacity=".09"/><path fill="#FFF" fill-rule="nonzero" stroke="#333" stroke-linecap="round" stroke-linejoin="round" d="M21 1l-9.272 7.766a1.27 1.27 0 0 1-1.467 0L1.001 1"/></g><g transform="translate(5 18)"><rect width="22" height="15" fill="#E9E9E9" fill-rule="nonzero" rx="2"/><rect width="21" height="14" x=".5" y=".5" stroke="#3A3A3A" rx="2"/><path stroke="#333" stroke-linecap="round" stroke-linejoin="round" d="M21 13.884l-9.005-8.151a1.603 1.603 0 0 0-1.749-.017L1 14"/><path fill="#333" fill-rule="nonzero" stroke="#333" stroke-linecap="round" stroke-linejoin="round" stroke-width=".652" d="M22 1L11.796 8.841a1.39 1.39 0 0 1-1.541 0L1 1" opacity=".09"/><path fill="#FFF" fill-rule="nonzero" stroke="#333" stroke-linecap="round" stroke-linejoin="round" d="M21 1l-9.272 7.766a1.27 1.27 0 0 1-1.467 0L1.001 1"/></g><path fill="#EAEAEA" fill-rule="nonzero" d="M3 90h26a2 2 0 0 1 2 2v15H1V92a2 2 0 0 1 2-2z"/><path stroke="#3A3A3A" d="M1.5 106.5h29V92a1.5 1.5 0 0 0-1.5-1.5H3A1.5 1.5 0 0 0 1.5 92v14.5z"/><path fill="#E6E6E6" fill-rule="nonzero" d="M2 93h28v1H2v-1zm0 3h28v1H2v-1zm0 3h28v1H2v-1zm0 3h28v1H2v-1z" style="mix-blend-mode:multiply"/><g stroke="#333" stroke-linecap="round" stroke-linejoin="round"><path fill="#EEE" fill-rule="nonzero" d="M2 90.439h28l-4.883-4.093a1.479 1.479 0 0 0-.948-.346H7.831a1.48 1.48 0 0 0-.953.346L2 90.439z"/><path fill="#FFF" fill-rule="nonzero" d="M24.313 86.082l-8.207 2.843c-.232.1-.492.1-.724 0L7.73 86l16.583.082z"/><path d="M2.333 90.034l9.322-2.522m17.626 2.639l-8.936-2.639"/></g><g transform="translate(3 50)"><g transform="translate(4 4)"><rect width="22" height="15" fill="#E9E9E9" fill-rule="nonzero" rx="2"/><rect width="21" height="14" x=".5" y=".5" stroke="#3A3A3A" rx="2"/></g><path stroke="#333" stroke-linecap="round" stroke-linejoin="round" d="M25 17.884l-9.005-8.151a1.603 1.603 0 0 0-1.749-.017L5 18"/><path fill="#333" fill-rule="nonzero" stroke="#333" stroke-linecap="round" stroke-linejoin="round" stroke-width=".652" d="M26 5l-10.204 7.841a1.39 1.39 0 0 1-1.541 0L5 5" opacity=".09"/><path fill="#FFF" fill-rule="nonzero" stroke="#333" stroke-linecap="round" stroke-linejoin="round" d="M25 5l-9.272 7.766a1.27 1.27 0 0 1-1.467 0L5.001 5"/><g transform="translate(2 2)"><rect width="22" height="15" fill="#E9E9E9" fill-rule="nonzero" rx="2"/><rect width="21" height="14" x=".5" y=".5" stroke="#3A3A3A" rx="2"/><path stroke="#333" stroke-linecap="round" stroke-linejoin="round" d="M21 13.884l-9.005-8.151a1.603 1.603 0 0 0-1.749-.017L1 14"/><path fill="#333" fill-rule="nonzero" stroke="#333" stroke-linecap="round" stroke-linejoin="round" stroke-width=".652" d="M22 1L11.796 8.841a1.39 1.39 0 0 1-1.541 0L1 1" opacity=".09"/><path fill="#FFF" fill-rule="nonzero" stroke="#333" stroke-linecap="round" stroke-linejoin="round" d="M21 1l-9.272 7.766a1.27 1.27 0 0 1-1.467 0L1.001 1"/></g><rect width="22" height="15" fill="#E9E9E9" fill-rule="nonzero" rx="2"/><rect width="21" height="14" x=".5" y=".5" stroke="#3A3A3A" rx="2"/><path stroke="#333" stroke-linecap="round" stroke-linejoin="round" d="M21 13.884l-9.005-8.151a1.603 1.603 0 0 0-1.749-.017L1 14"/><path fill="#333" fill-rule="nonzero" stroke="#333" stroke-linecap="round" stroke-linejoin="round" stroke-width=".652" d="M22 1L11.796 8.841a1.39 1.39 0 0 1-1.541 0L1 1" opacity=".09"/><path fill="#FFF" fill-rule="nonzero" stroke="#333" stroke-linecap="round" stroke-linejoin="round" d="M21 1l-9.272 7.766a1.27 1.27 0 0 1-1.467 0L1.001 1"/></g><path fill="#EAEAEA" fill-rule="nonzero" d="M8.933 112h12.134c.515 0 .933.895.933 2v20H8v-20c0-1.105.418-2 .933-2z"/><path fill="#E6E6E6" fill-rule="nonzero" d="M8 115h14v1H8v-1zm0 3h14v1H8v-1zm0 3h14v1H8v-1zm0 3h14v1H8v-1zm0 3h14v1H8v-1zm0 3h14v1H8v-1z" style="mix-blend-mode:multiply"/><path stroke="#3A3A3A" d="M8.233 133.5h13.534v-20a1 1 0 0 0-1-1H9.233a1 1 0 0 0-1 1v20z"/><g stroke="#333" stroke-linecap="round" stroke-linejoin="round"><path fill="#EEE" fill-rule="nonzero" d="M8.233 113h13.534l-2.208-4.654c-.133-.223-.301-.345-.474-.346h-8.17c-.174 0-.342.122-.476.346L8.233 113z"/><path fill="#FFF" fill-rule="nonzero" d="M19.157 108.082l-4.104 2.843c-.116.1-.246.1-.362 0L10.865 108l8.292.082z"/><path d="M8.233 113l4.594-3.488M21.572 113l-4.4-3.488"/></g><g><path fill="#EAEAEA" fill-rule="nonzero" d="M1.933 139h12.134c.515 0 .933.895.933 2v20H1v-20c0-1.105.418-2 .933-2z"/><path fill="#E6E6E6" fill-rule="nonzero" d="M1 142h14v1H1v-1zm0 3h14v1H1v-1zm0 3h14v1H1v-1zm0 3h14v1H1v-1zm0 3h14v1H1v-1zm0 3h14v1H1v-1z" style="mix-blend-mode:multiply"/><path stroke="#3A3A3A" d="M1.233 160.5h13.534v-20a1 1 0 0 0-1-1H2.233a1 1 0 0 0-1 1v20z"/><g stroke="#333" stroke-linecap="round" stroke-linejoin="round"><path fill="#EEE" fill-rule="nonzero" d="M1.233 140h13.534l-2.208-4.654c-.133-.223-.301-.345-.474-.346h-8.17c-.174 0-.342.122-.476.346L1.233 140z"/><path fill="#FFF" fill-rule="nonzero" d="M12.156 135.082l-4.103 2.843c-.116.1-.246.1-.362 0L3.865 135l8.291.082z"/><path d="M1.233 140l4.595-3.488M14.572 140l-4.4-3.488"/></g></g><g><path fill="#EAEAEA" fill-rule="nonzero" d="M17.933 139h12.134c.515 0 .933.895.933 2v20H17v-20c0-1.105.418-2 .933-2z"/><path fill="#E6E6E6" fill-rule="nonzero" d="M17 142h14v1H17v-1zm0 3h14v1H17v-1zm0 3h14v1H17v-1zm0 3h14v1H17v-1zm0 3h14v1H17v-1zm0 3h14v1H17v-1z" style="mix-blend-mode:multiply"/><path stroke="#3A3A3A" d="M17.233 160.5h13.534v-20a1 1 0 0 0-1-1H18.233a1 1 0 0 0-1 1v20z"/><g stroke="#333" stroke-linecap="round" stroke-linejoin="round"><path fill="#EEE" fill-rule="nonzero" d="M17.233 140h13.534l-2.208-4.654c-.133-.223-.301-.345-.474-.346h-8.17c-.174 0-.342.122-.476.346L17.233 140z"/><path fill="#FFF" fill-rule="nonzero" d="M28.157 135.082l-4.104 2.843c-.116.1-.246.1-.362 0L19.865 135l8.292.082z"/><path d="M17.233 140l4.595-3.488M30.572 140l-4.4-3.488"/></g></g><g><path fill="#EAEAEA" fill-rule="nonzero" d="M17.933 170h12.134c.515 0 .933.61.933 1.364V185H17v-13.636c0-.753.418-1.364.933-1.364z"/><path fill="#E6E6E6" fill-rule="nonzero" d="M17 173h14v1H17v-1zm0 3h14v1H17v-1zm0 3h14v1H17v-1zm0 3h14v1H17v-1z" style="mix-blend-mode:multiply"/><path stroke="#3A3A3A" d="M17.233 185.5h13.534v-14a1 1 0 0 0-1-1H18.233a1 1 0 0 0-1 1v14z"/><g stroke="#333" stroke-linecap="round" stroke-linejoin="round"><path fill="#EEE" fill-rule="nonzero" d="M17.233 171h13.534l-2.208-4.654c-.133-.223-.301-.345-.474-.346h-8.17c-.174 0-.342.122-.476.346L17.233 171z"/><path fill="#FFF" fill-rule="nonzero" d="M28.157 166.082l-4.104 2.843c-.116.1-.246.1-.362 0L19.865 166l8.292.082z"/><path d="M17.233 171l4.595-3.488M30.572 171l-4.4-3.488"/></g><g><path fill="#EAEAEA" fill-rule="nonzero" d="M1.933 170h12.134c.515 0 .933.61.933 1.364V185H1v-13.636c0-.753.418-1.364.933-1.364z"/><path fill="#E6E6E6" fill-rule="nonzero" d="M1 173h14v1H1v-1zm0 3h14v1H1v-1zm0 3h14v1H1v-1zm0 3h14v1H1v-1z" style="mix-blend-mode:multiply"/><path stroke="#3A3A3A" d="M1.233 185.5h13.534v-14a1 1 0 0 0-1-1H2.233a1 1 0 0 0-1 1v14z"/><g stroke="#333" stroke-linecap="round" stroke-linejoin="round"><path fill="#EEE" fill-rule="nonzero" d="M1.233 171h13.534l-2.208-4.654c-.133-.223-.301-.345-.474-.346h-8.17c-.174 0-.342.122-.476.346L1.233 171z"/><path fill="#FFF" fill-rule="nonzero" d="M12.156 166.082l-4.103 2.843c-.116.1-.246.1-.362 0L3.865 166l8.291.082z"/><path d="M1.233 171l4.595-3.488M14.572 171l-4.4-3.488"/></g></g><g><path fill="#EAEAEA" fill-rule="nonzero" d="M9.933 166h12.134c.515 0 .933.895.933 2v20H9v-20c0-1.105.418-2 .933-2z"/><path stroke="#3A3A3A" d="M9.233 187.5h13.534v-20a1 1 0 0 0-1-1H10.233a1 1 0 0 0-1 1v20z"/><path fill="#E6E6E6" fill-rule="nonzero" d="M9 169h13.125v1H9v-1zm0 3h13.125v1H9v-1zm0 3h13.125v1H9v-1zm0 3h13.125v1H9v-1zm0 3h13.125v1H9v-1zm0 3h13.125v1H9v-1z" style="mix-blend-mode:multiply"/><g stroke="#333" stroke-linecap="round" stroke-linejoin="round"><path fill="#EEE" fill-rule="nonzero" d="M9.233 167h13.534l-2.208-4.654c-.133-.223-.301-.345-.474-.346h-8.17c-.174 0-.342.122-.476.346L9.233 167z"/><path fill="#FFF" fill-rule="nonzero" d="M20.157 162.082l-4.104 2.843c-.116.1-.246.1-.362 0L11.865 162l8.292.082z"/><path d="M9.233 167l4.594-3.488M22.572 167l-4.4-3.488"/></g></g></g><g><path fill="#EAEAEA" fill-rule="nonzero" d="M17.933 197h12.134c.515 0 .933.61.933 1.364V212H17v-13.636c0-.753.418-1.364.933-1.364z"/><path fill="#E6E6E6" fill-rule="nonzero" d="M17 200h14v1H17v-1zm0 3h14v1H17v-1zm0 3h14v1H17v-1zm0 3h14v1H17v-1z" style="mix-blend-mode:multiply"/><path stroke="#3A3A3A" d="M17.233 212.5h13.534v-14a1 1 0 0 0-1-1H18.233a1 1 0 0 0-1 1v14z"/><g stroke="#333" stroke-linecap="round" stroke-linejoin="round"><path fill="#EEE" fill-rule="nonzero" d="M17.233 198h13.534l-2.208-4.654c-.133-.223-.301-.345-.474-.346h-8.17c-.174 0-.342.122-.476.346L17.233 198z"/><path fill="#FFF" fill-rule="nonzero" d="M28.157 193.082l-4.104 2.843c-.116.1-.246.1-.362 0L19.865 193l8.292.082z"/><path d="M17.233 198l4.595-3.488M30.572 198l-4.4-3.488"/></g><g><path fill="#EAEAEA" fill-rule="nonzero" d="M1.933 197h12.134c.515 0 .933.61.933 1.364V212H1v-13.636c0-.753.418-1.364.933-1.364z"/><path fill="#E6E6E6" fill-rule="nonzero" d="M1 200h14v1H1v-1zm0 3h14v1H1v-1zm0 3h14v1H1v-1zm0 3h14v1H1v-1z" style="mix-blend-mode:multiply"/><path stroke="#3A3A3A" d="M1.233 212.5h13.534v-14a1 1 0 0 0-1-1H2.233a1 1 0 0 0-1 1v14z"/><g stroke="#333" stroke-linecap="round" stroke-linejoin="round"><path fill="#EEE" fill-rule="nonzero" d="M1.233 198h13.534l-2.208-4.654c-.133-.223-.301-.345-.474-.346h-8.17c-.174 0-.342.122-.476.346L1.233 198z"/><path fill="#FFF" fill-rule="nonzero" d="M12.156 193.082l-4.103 2.843c-.116.1-.246.1-.362 0L3.865 193l8.291.082z"/><path d="M1.233 198l4.595-3.488M14.572 198l-4.4-3.488"/></g></g><g><path fill="#EAEAEA" fill-rule="nonzero" d="M9.933 193h12.134c.515 0 .933.895.933 2v20H9v-20c0-1.105.418-2 .933-2z"/><path stroke="#3A3A3A" d="M9.233 214.5h13.534v-20a1 1 0 0 0-1-1H10.233a1 1 0 0 0-1 1v20z"/><path fill="#E6E6E6" fill-rule="nonzero" d="M9 196h13.125v1H9v-1zm0 3h13.125v1H9v-1zm0 3h13.125v1H9v-1zm0 3h13.125v1H9v-1zm0 3h13.125v1H9v-1zm0 3h13.125v1H9v-1z" style="mix-blend-mode:multiply"/><g stroke="#333" stroke-linecap="round" stroke-linejoin="round"><path fill="#EEE" fill-rule="nonzero" d="M9.233 194h13.534l-2.208-4.654c-.133-.223-.301-.345-.474-.346h-8.17c-.174 0-.342.122-.476.346L9.233 194z"/><path fill="#FFF" fill-rule="nonzero" d="M20.157 189.082l-4.104 2.843c-.116.1-.246.1-.362 0L11.865 189l8.292.082z"/><path d="M9.233 194l4.594-3.488M22.572 194l-4.4-3.488"/></g></g></g><g><path fill="#FFF" fill-rule="nonzero" d="M10.664 16.871l4.305-3.597-4.442-1.864.137 5.461zm0 0l4.305-3.597-4.442-1.864.137 5.461zm0 0l4.305-3.597-4.442-1.864.137 5.461zM2.055 8.075l5.11 1.861 22.527-8.675L2.055 8.075zm14.716 5.854L29.692 1.261 10.668 11.348l6.103 2.581zM29.202 1.483L7.165 9.935l.094.035 3.409 6.883-.141-5.443 18.675-9.927zm0 0L7.165 9.935l.094.035 3.409 6.883-.141-5.443 18.675-9.927zm0 0L7.165 9.935l.094.035 3.409 6.883-.141-5.443 18.675-9.927zM10.664 16.871l4.305-3.597-4.442-1.864.137 5.461z"/><path fill="#333" fill-rule="nonzero" opacity=".2" d="M10.664 16.871l4.305-3.597-4.442-1.864z"/><path stroke="#000" stroke-linecap="round" stroke-linejoin="round" stroke-width=".692" d="M10.664 16.871l4.305-3.597-4.442-1.864z"/><path fill="#FFF" fill-rule="nonzero" stroke="#000" stroke-linecap="round" stroke-linejoin="round" stroke-width=".588" d="M2.055 8.075l5.11 1.861 22.527-8.675L2.055 8.075zm14.716 5.854L29.692 1.261 10.668 11.348l6.103 2.581z"/><path fill="#FFF" fill-rule="nonzero" d="M29.202 1.483L7.165 9.935l.094.035 3.409 6.883-.141-5.443z"/><path fill="#333" fill-rule="nonzero" opacity=".1" d="M29.202 1.483L7.165 9.935l.094.035 3.409 6.883-.141-5.443z"/><path stroke="#000" stroke-linecap="round" stroke-linejoin="round" stroke-width=".623" d="M29.202 1.483L7.165 9.935l.094.035 3.409 6.883-.141-5.443z"/></g><g transform="translate(7 195)"><circle cx="9" cy="9" r="9" fill="#FFF" stroke="#3A3A3A"/><rect width="2" height="10" x="8" y="4" fill="#3A3A3A" rx="1"/><path fill="#3A3A3A" d="M14 9a1 1 0 0 1-1 1H5a1 1 0 0 1 0-2h8a1 1 0 0 1 1 1z"/></g></g></svg>