<svg width="666" height="623" xmlns="http://www.w3.org/2000/svg"><g stroke="#494F5D" fill="none" fill-rule="evenodd"><circle stroke-width="2" cx="429" cy="98" r="4"/><path d="M120.663 5.658l7.033 2.78-.59-6.739-6.443 3.959zM506.663 494.658l7.033 2.78-.59-6.739-6.443 3.959zM1 184h8v8H1zM361 614h8v8h-8z" stroke-width="2"/><path d="M317.912 406.197l-.651-3.8 2.76-2.69-3.815-.555-1.706-3.457-1.706 3.457-3.815.554 2.76 2.691-.651 3.8 3.412-1.794 3.412 1.794z" stroke-width="1.5"/><path d="M639.58 382.74l-.588-3.43 2.492-2.43-3.444-.5-1.54-3.12-1.54 3.12-3.444.5 2.492 2.43-.588 3.43 3.08-1.62 3.08 1.62z" stroke-width="2"/><path d="M227.5 181.5L249 205M453.5 258.25H485" stroke-width="2" stroke-linecap="square" stroke-dasharray="2,5"/><path d="M103.788 369.687c5.018-5.164 6.659-8.627 5.37-10.25-1.426-1.795-2.75-1.795-4.584.078l-.727.741-.714-.753c-1.886-1.99-3.23-1.99-4.683-.082-1.335 1.754.297 5.21 5.338 10.266zM658.788 81.687c5.018-5.164 6.659-8.627 5.37-10.25-1.426-1.795-2.75-1.795-4.584.078l-.727.741-.714-.753c-1.886-1.99-3.23-1.99-4.683-.082-1.335 1.754.297 5.21 5.338 10.266z" stroke-width="2"/></g></svg>