<svg width="32" height="128" fill="none" xmlns="http://www.w3.org/2000/svg"><path fill-rule="evenodd" clip-rule="evenodd" d="M6 32H0v6a2 2 0 110 4v4a2 2 0 110 4v4a2 2 0 110 4v6h6a2 2 0 114 0h4a2 2 0 114 0h4a2 2 0 114 0h6v-6a2 2 0 010-4v-4a2 2 0 010-4v-4a2 2 0 010-4v-6h-6a2 2 0 11-4 0h-4a2 2 0 11-4 0h-4a2 2 0 11-4 0zm21 5H5v22h22V37z" fill="#FF6A6A"/><path fill-rule="evenodd" clip-rule="evenodd" d="M6 0H0v6a2 2 0 110 4v4a2 2 0 110 4v4a2 2 0 110 4v6h6a2 2 0 114 0h4a2 2 0 114 0h4a2 2 0 114 0h6v-6a2 2 0 010-4v-4a2 2 0 010-4v-4a2 2 0 010-4V0h-6a2 2 0 11-4 0h-4a2 2 0 11-4 0h-4a2 2 0 01-4 0zm21 5H5v22h22V5z" fill="#4FC47F"/><path fill-rule="evenodd" clip-rule="evenodd" d="M6 64H0v6a2 2 0 110 4v4a2 2 0 110 4v4a2 2 0 110 4v6h6a2 2 0 114 0h4a2 2 0 114 0h4a2 2 0 114 0h6v-6a2 2 0 010-4v-4a2 2 0 010-4v-4a2 2 0 010-4v-6h-6a2 2 0 11-4 0h-4a2 2 0 11-4 0h-4a2 2 0 11-4 0zm21 5H5v22h22V69z" fill="#8572FF"/><path fill-rule="evenodd" clip-rule="evenodd" d="M6 96H0v6a2 2 0 110 4v4a2 2 0 110 4v4a2 2 0 110 4v6h6a2 2 0 114 0h4a2 2 0 114 0h4a2 2 0 114 0h6v-6a2 2 0 110-4v-4a2 2 0 110-4v-4a2 2 0 110-4v-6h-6a2 2 0 11-4 0h-4a2 2 0 11-4 0h-4a2 2 0 11-4 0zm21 5H5v22h22v-22z" fill="#3B9DF8"/></svg>