<svg xmlns="http://www.w3.org/2000/svg" width="38" height="98" fill="none"><path d="M12 14l1.768 8.232L22 24l-8.232 1.768L12 34l-1.768-8.232L2 24l8.232-1.768L12 14z" fill="#33B0FF"/><path d="M24.5 26l1.149 5.351L31 32.5l-5.351 1.149L24.5 39l-1.149-5.351L18 32.5l5.351-1.149L24.5 26z" fill="#FFDE00"/><path d="M11 0l.848 3.151L15 4l-3.152.849L11 8l-.848-3.151L7 4l3.152-.849L11 0z" fill="#FF7575"/><path d="M4.5 8l1.273 3.227L9 12.5l-3.227 1.273L4.5 17l-1.273-3.227L0 12.5l3.227-1.273L4.5 8z" fill="#7476D6"/><path d="M16.5 62l1.503 6.997L25 70.5l-6.997 1.503L16.5 79l-1.503-6.997L8 70.5l6.997-1.503L16.5 62z" fill="#FFDE00"/><path d="M6 56l1.697 4.303L12 62l-4.303 1.697L6 68l-1.697-4.303L0 62l4.303-1.697L6 56z" fill="#FF7575"/><path d="M26.5 45l2.033 9.467L38 56.5l-9.467 2.033L26.5 68l-2.033-9.467L15 56.5l9.467-2.033L26.5 45z" fill="#3FBB72"/><path d="M19.5 39l1.273 3.227L24 43.5l-3.227 1.273L19.5 48l-1.273-3.227L15 43.5l3.227-1.273L19.5 39z" fill="#7476D6"/><path d="M11.692 79l-1.55 5.757-5.757 1.55 5.757 1.55 1.55 5.758 1.55-5.757L19 86.308l-5.758-1.55L11.692 79z" fill="#3FBB72"/><path d="M4.75 88.5l-1.344 3.406L0 93.25l3.406 1.344L4.75 98l1.343-3.406L9.5 93.25l-3.407-1.344L4.75 88.5z" fill="#FF7575"/><path d="M2.923 79L1.89 80.89 0 81.923l1.89 1.034 1.033 1.89 1.034-1.89 1.89-1.034-1.89-1.033L2.923 79z" fill="#7476D6"/></svg>