<svg width="18" height="42" fill="none" xmlns="http://www.w3.org/2000/svg"><path fill="#fff" d="M0 0h18v42H0z"/><path fill-rule="evenodd" clip-rule="evenodd" d="M14.374 3.686a.647.647 0 00-.392-.126l-.138.016-4.555.825L11.256.505l.058-.151a.268.268 0 00-.04-.138.347.347 0 00-.11-.11.626.626 0 00-.369-.106H7.022a.67.67 0 00-.323.076.389.389 0 00-.184.194L3.514 7.937a.242.242 0 00.009.183c.027.06.076.11.14.145a.662.662 0 00.357.092l.139-.008 4.67-.849-1.577 6.072a.238.238 0 00-.01.13c.008.044.03.085.061.122.07.08.174.137.293.16l.16.016c.223 0 .384-.07.484-.21l6.212-9.735c.084-.134.058-.257-.08-.37h.002z" fill="#333"/><path d="M6.765 26c4.531 0 7.009-3.463 7.009-6.465 0-.099 0-.198-.005-.292.48-.32.899-.721 1.231-1.178-.44.179-.914.301-1.415.358.51-.283.899-.726 1.083-1.258a5.246 5.246 0 01-1.563.551A2.552 2.552 0 0011.306 17c-1.358 0-2.462 1.018-2.462 2.271 0 .18.02.354.067.518-2.049-.094-3.862-.998-5.078-2.374-.21.334-.332.725-.332 1.14 0 .787.434 1.484 1.098 1.89a2.577 2.577 0 01-1.114-.283v.028c0 1.103.848 2.017 1.977 2.229a2.647 2.647 0 01-1.113.037c.311.905 1.22 1.56 2.299 1.58a5.223 5.223 0 01-3.06.97c-.2 0-.394-.01-.588-.033A7.286 7.286 0 006.765 26z" fill="#333"/><path fill-rule="evenodd" clip-rule="evenodd" d="M8.5 29.5h1c1.666 0 2.67 1.207 3.153 3H5.348c.481-1.793 1.487-3 3.152-3zm-5.474 3.642a.5.5 0 01.632-.316l2.023.674h2.82v7c-.941 0-1.671-.242-2.215-.721l-1.589.68a.5.5 0 01-.394-.919l1.346-.576c-.282-.523-.467-1.178-.565-1.964H3.5a.5.5 0 010-1h1.508a14.853 14.853 0 01.036-1.658l-1.702-.568a.5.5 0 01-.316-.632zM9.5 35.5v5c.94 0 1.67-.242 2.214-.721l1.59.68a.5.5 0 00.393-.919l-1.346-.576c.282-.523.467-1.178.565-1.964H14.5a.5.5 0 000-1h-1.508a14.773 14.773 0 00-.036-1.658l1.702-.568a.5.5 0 10-.316-.948l-2.023.674H9.5v2z" fill="#333"/></svg>