<svg xmlns="http://www.w3.org/2000/svg" width="18" height="18" viewBox="0 0 18 18">
  <g fill="#007DCC" fill-rule="evenodd">
    <path d="M9,16 C12.8659932,16 16,12.8659932 16,9 C16,5.13400675 12.8659932,2 9,2 C5.13400675,2 2,5.13400675 2,9 C2,12.8659932 5.13400675,16 9,16 Z M9,18 C4.02943725,18 6.08718376e-16,13.9705627 0,9 C-6.08718376e-16,4.02943725 4.02943725,9.13077564e-16 9,0 C13.9705627,3.04359188e-16 18,4.02943725 18,9 C18,13.9705627 13.9705627,18 9,18 Z"/>
    <path fill-rule="nonzero" d="M11.0892015,4.43155874 C11.0892015,3.87927399 11.5369168,3.43155874 12.0892015,3.43155874 C12.6414863,3.43155874 13.0892015,3.87927399 13.0892015,4.43155874 L13.0892015,9 C13.0892015,9.27936625 12.9723403,9.54599577 12.766915,9.73532605 L9.59569317,12.6580838 C9.1895838,13.0323746 8.55694444,13.0065806 8.18265361,12.6004712 C7.80836277,12.1943619 7.83415679,11.5617225 8.24026615,11.1874317 L11.0892015,8.5617094 L11.0892015,4.43155874 Z" transform="matrix(-1 0 0 1 21.007 0)"/>
  </g>
</svg>
