<svg xmlns="http://www.w3.org/2000/svg" width="13" height="13" viewBox="0 0 13 13"><g fill="#D25050"><path d="M5.4000178,3 L5.22230377,3 C4.18963154,3 3.32675131,3.78620727 3.23093196,4.81442447 L2.9515371,7.81255154 C2.87741792,8.60790883 2.58982757,9.36847524 2.11915448,10.013885 C2.05229982,10.1055593 2.00630567,10.210747 1.98439637,10.3220741 C1.90142581,10.7436698 2.17593576,11.1527016 2.59753149,11.2356722 L3.96569422,11.5049283 C5.62666261,11.8318089 7.33558025,11.8301346 8.99590495,11.5 L10.3634293,11.2280851 C10.460799,11.2087243 10.5537121,11.171401 10.6374174,11.1180238 C11.0097725,10.8805799 11.1191397,10.3862401 10.8816958,10.013885 C10.467294,9.3640278 10.196999,8.63289508 10.0890245,7.86975377 L9.64334943,4.71981661 C9.50377314,3.73332083 8.65939333,3 7.66307236,3 L7.4000178,3 C7.4000178,2.44771525 6.95230255,2 6.4000178,2 C5.84773305,2 5.4000178,2.44771525 5.4000178,3 Z M6.4000178,0.75 C7.2079394,0.75 7.91640412,1.17582554 8.31321844,1.81528311 C9.63705445,2.08474296 10.6853306,3.16159259 10.8810226,4.54470199 L11.3266976,7.69463915 C11.4096458,8.28089915 11.6172917,8.84256953 11.9356431,9.34180245 C12.544268,10.2962366 12.2639341,11.5633463 11.3094999,12.1719712 C11.0949436,12.3087897 10.8567854,12.4044581 10.6072038,12.4540842 L9.2396794,12.7259992 C7.41922223,13.0879741 5.54548549,13.0898099 3.72432254,12.7314028 L2.35615981,12.4621467 C1.25720091,12.2458702 0.541645407,11.1796613 0.757921863,10.0807024 C0.81503207,9.79051005 0.934923426,9.51632091 1.10919112,9.27735661 C1.44718409,8.81388429 1.65370432,8.26771733 1.70692972,7.69656683 L1.98632457,4.69843976 C2.11816431,3.28369535 3.1436443,2.15089702 4.47359195,1.83686523 C4.86776246,1.18542469 5.58304069,0.75 6.4000178,0.75 Z"/><path d="M6.10422358,9.42166832 L7.45381022,11.6315622 C7.63371552,11.9261499 7.54074707,12.3108025 7.24615937,12.4907078 C6.95157167,12.6706131 6.56691909,12.5776446 6.38701379,12.2830569 L4.94582537,9.92316881 C4.88591927,9.82507498 4.85422358,9.71236117 4.85422358,9.59742145 L4.85422358,7.23753333 C4.85422358,6.89235536 5.13404561,6.61253333 5.47922358,6.61253333 C5.82440155,6.61253333 6.10422358,6.89235536 6.10422358,7.23753333 L6.10422358,9.42166832 Z"/></g></svg>