<svg width="14" height="12" viewBox="0 0 14 12" xmlns="http://www.w3.org/2000/svg"><title>Group</title><path d="M4.305 11.61c5.005 0 7.742-4.222 7.742-7.882 0-.12-.002-.24-.008-.358.53-.39.993-.88 1.357-1.434-.488.22-1.013.37-1.563.436.562-.343.993-.885 1.197-1.532-.525.317-1.107.548-1.727.672C10.806.974 10.1.637 9.316.637c-1.502 0-2.72 1.24-2.72 2.77 0 .217.023.428.07.63C4.404 3.923 2.4 2.82 1.056 1.145.824 1.554.69 2.03.69 2.536c0 .96.48 1.81 1.21 2.306-.445-.014-.865-.14-1.23-.347-.002.012-.002.023-.002.036 0 1.342.938 2.462 2.183 2.716-.23.063-.47.097-.718.097-.175 0-.346-.017-.512-.05.347 1.1 1.35 1.902 2.542 1.924-.93.743-2.104 1.186-3.38 1.186-.22 0-.435-.013-.648-.04 1.204.787 2.634 1.246 4.17 1.246" fill-rule="nonzero" fill="#1DA1F2"/></svg>