<svg xmlns="http://www.w3.org/2000/svg" width="353" height="110" fill="none"><circle cx="178" cy="48" r="38" fill="#FFDE01" stroke="#272727" stroke-width="4"/><path fill="#D4BA00" d="M179.508 19.32c7.17.755 9.812.755 17.359 6.793l-17.359 16.604c-1.131-8.302.756-23.318 0-23.396Z"/><path stroke="#272727" stroke-linecap="round" stroke-width="4" d="M180 20.566v21.66M196.145 27.432l-15.317 15.316M180 3v6M186 2h-12"/><path fill="#272727" d="M148.483 20.003a4 4 0 0 1 .853-5.592l7.251-5.331a4 4 0 0 1 5.592.853l1.777 2.417-13.696 10.07-1.777-2.417Z"/><mask id="a" fill="#fff"><path fill-rule="evenodd" d="M28.418 108 38.65 83.5 28 58h48v50H28.418Z" clip-rule="evenodd"/></mask><path fill="#FFDE01" fill-rule="evenodd" d="M28.418 108 38.65 83.5 28 58h48v50H28.418Z" clip-rule="evenodd"/><path fill="#272727" d="m38.65 83.5 3.692 1.542.644-1.542-.644-1.542L38.65 83.5ZM28.419 108l-3.691-1.542L22.412 112h6.006v-4ZM28 58v-4h-6.006l2.315 5.542L28 58Zm48 0h4v-4h-4v4Zm0 50v4h4v-4h-4ZM34.96 81.958l-10.233 24.5 7.382 3.084 10.233-24.5-7.382-3.084ZM24.309 59.542l10.65 25.5 7.383-3.084-10.651-25.5-7.382 3.084ZM28 62h48v-8H28v8Zm44-4v50h8V58h-8Zm4 46H28.418v8H76v-8Z" mask="url(#a)"/><mask id="b" fill="#fff"><path fill-rule="evenodd" d="m325.582 108-10.233-24.5L326 58h-48v50h47.582Z" clip-rule="evenodd"/></mask><path fill="#FFDE01" fill-rule="evenodd" d="m325.582 108-10.233-24.5L326 58h-48v50h47.582Z" clip-rule="evenodd"/><path fill="#272727" d="m315.349 83.5-3.691 1.542-.644-1.542.644-1.542 3.691 1.542Zm10.233 24.5 3.691-1.542 2.315 5.542h-6.006v-4ZM326 58v-4h6.006l-2.315 5.542L326 58Zm-48 0h-4v-4h4v4Zm0 50v4h-4v-4h4Zm41.04-26.042 10.233 24.5-7.382 3.084-10.233-24.5 7.382-3.084Zm10.651-22.416-10.651 25.5-7.382-3.084 10.651-25.5 7.382 3.084ZM326 62h-48v-8h48v8Zm-44-4v50h-8V58h8Zm-4 46h47.582v8H278v-8Z" mask="url(#b)"/><path fill="#fff" stroke="#272727" stroke-width="4" d="M58 50h238v46H58z"/><path fill="#272727" d="M77.105 79h2.924V67.1h-2.924V79Zm14.565-3.842L87.454 67.1h-3.86V79h2.857v-8.075h.085L90.735 79h3.876V67.1h-2.856v8.058h-.085Zm16.928 4.114c3.06 0 5.134-1.955 5.134-4.964V67.1h-2.924v7.055c0 1.207-.731 2.329-2.21 2.329-1.513 0-2.244-1.122-2.244-2.329V67.1h-2.924v7.208c0 3.009 2.091 4.964 5.168 4.964Zm16.752-4.114-4.216-8.058h-3.859V79h2.856v-8.075h.085L124.415 79h3.876V67.1h-2.856v8.058h-.085ZM131.867 79h4.726c3.145 0 6.086-2.193 6.086-5.95s-2.941-5.95-6.086-5.95h-4.726V79Zm2.924-2.652v-6.596h1.632c2.108 0 3.247 1.445 3.247 3.298 0 1.836-1.122 3.298-3.247 3.298h-1.632ZM145.844 79h8.228v-2.652h-5.338v-2.159h4.692v-2.652h-4.692v-1.785h5.083V67.1h-7.973V79Zm18.117 0h3.434l-3.077-4.692c1.36-.527 2.244-1.836 2.244-3.502 0-2.006-1.717-3.706-4.097-3.706h-5.134V79h2.907v-4.131h1.139L163.961 79Zm-3.723-6.562V69.65h1.819c.782 0 1.547.425 1.547 1.394 0 .969-.765 1.394-1.547 1.394h-1.819Zm19.03 6.851c2.482 0 4.403-1.853 4.403-4.216 0-2.159-1.36-3.842-3.621-3.842-.714 0-1.581.289-2.108.85l.221-2.448h4.828V67.1h-7.242l-.595 6.698 2.72.408c.17-.272.68-.68 1.394-.68.833 0 1.513.629 1.513 1.547 0 .935-.629 1.581-1.479 1.581a1.622 1.622 0 0 1-1.632-1.513l-.068-.017c-.714.323-1.938.51-2.737.425l-.051.034c.119 2.21 1.955 3.706 4.454 3.706ZM192.023 79h2.856v-8.602h.085L197.65 79h2.686l2.686-8.602h.085V79h2.856V67.1h-4.539l-2.38 7.633h-.085l-2.363-7.633h-4.573V79Zm17.513 0h2.924V67.1h-2.924V79Zm14.565-3.842-4.216-8.058h-3.859V79h2.856v-8.075h.085L223.166 79h3.876V67.1h-2.856v8.058h-.085Zm11.651 4.114c3.06 0 5.134-1.955 5.134-4.964V67.1h-2.924v7.055c0 1.207-.731 2.329-2.21 2.329-1.513 0-2.244-1.122-2.244-2.329V67.1h-2.924v7.208c0 3.009 2.091 4.964 5.168 4.964Zm11.55-.272h2.924v-9.248h3.298V67.1h-9.52v2.652h3.298V79Zm9.361 0h8.228v-2.652h-5.338v-2.159h4.692v-2.652h-4.692v-1.785h5.083V67.1h-7.973V79Zm15.533.272c2.754 0 4.573-1.751 4.573-3.961 0-2.312-1.53-3.213-3.553-3.672l-1.122-.255c-.782-.187-1.292-.561-1.292-1.071 0-.51.425-.969 1.258-.969 1.02 0 1.598.646 1.87 1.343h.068c.595-.51 1.683-1.02 2.482-1.139l.034-.051c-.578-1.496-2.142-2.669-4.352-2.669-2.533 0-4.318 1.683-4.318 3.757 0 1.989 1.207 3.077 3.536 3.57l1.173.255c.816.17 1.258.493 1.258 1.054 0 .663-.527 1.139-1.53 1.139-1.224 0-2.091-.833-2.312-1.751h-.068c-.612.544-1.751 1.105-2.584 1.258l-.034.051c.663 1.887 2.482 3.111 4.913 3.111Z"/><circle cx="330.5" cy="90.5" r="2.5" fill="#D5BA00"/><path fill="#D4BA00" d="m337 70 1.891 5.11L344 77l-5.109 1.89L337 84l-1.891-5.11L330 77l5.109-1.89L337 70Z"/><path fill="#D5BA00" d="m352.01 86.45-3.329 1.232-1.231 3.328-1.232-3.328-3.329-1.232 3.329-1.232 1.232-3.329 1.231 3.329 3.329 1.232Z"/><circle cx="20" cy="91" r="3.5" stroke="#D5BA00" stroke-width="3"/><path fill="#D5BA00" d="m15.5 68 1.756 4.744L22 74.5l-4.744 1.756L15.5 81l-1.756-4.744L9 74.5l4.744-1.756L15.5 68Z"/><path fill="#D4BA00" d="m4.5 82 1.215 3.285L9 86.5l-3.285 1.215L4.5 91l-1.215-3.285L0 86.5l3.285-1.215L4.5 82Z"/><path fill="#272727" d="m295.485 94.9-16.985 8.6 2.517 3.109L298 97.999l-2.515-3.1Z"/><path fill="#272727" d="M280 96h10v6h-10zM58.515 94.9l16.985 8.6-2.517 3.109-16.984-8.61 2.516-3.1Z"/><path fill="#272727" d="M64 96h10v6H64z"/></svg>