<svg xmlns="http://www.w3.org/2000/svg" xmlns:xlink="http://www.w3.org/1999/xlink" width="130" height="320"><defs><path id="a" d="M84 .5h26v320H84v-230H0v-26h84z"/></defs><g fill="none" fill-rule="evenodd"><path fill="#D8F1F3" d="M7 309v11h6v-11h95a4 4 0 0 0 4-4v-51h17v-6h-19a4 4 0 0 0-4 4v51H11a4 4 0 0 0-4 4v2zm113-83h10v-6h-10v-30a3 3 0 0 0-3.464-2.964A4.037 4.037 0 0 0 116 187H92v-32h38v-6H90a4 4 0 0 0-4 4v36c0 .182.012.36.036.536A3 3 0 0 0 89 193h25v29a4 4 0 0 0 4 4h2zm3-140h7v-6h-9a4 4 0 0 0-4 4v37H89V77a4 4 0 0 0-4-4H59V33a4 4 0 0 0-4-4H13V0H7v31a4 4 0 0 0 4 4h42v40a4 4 0 0 0 4 4h26v44a4 4 0 0 0 4 4h32a4 4 0 0 0 4-4V86z"/><path fill="#E9D9F2" d="M67 286v-24h25a4 4 0 0 0 4-4v-42c0-.182-.012-.36-.036-.536A3 3 0 0 0 93 212H55v-28a3 3 0 0 0-3-3H14v-16h102a4 4 0 0 0 4-4v-16a4 4 0 0 0-4-4h-16v-29h30v-6H98a4 4 0 0 0-4 4v33a4 4 0 0 0 4 4h16v12H12a4 4 0 0 0-4 4v20c0 .182.012.36.036.536A3 3 0 0 0 11 187h38v28a3 3 0 0 0 3 3h38v38H65a4 4 0 0 0-4 4v28a4 4 0 0 0 4 4h65v-6H67z"/><path fill="#D9F2E3" d="M1 123v2a4 4 0 0 0 4 4h53v47h14v49H5a4 4 0 0 0-4 4v31a4 4 0 0 0 4 4h17v7a4 4 0 0 0 4 4h57v45h6v-47a4 4 0 0 0-4-4H28v-11H7v-27h67a4 4 0 0 0 4-4v-53a4 4 0 0 0-4-4H64v-43a4 4 0 0 0-4-4H7v-14h64a4 4 0 0 0 4-4V51h34a2 2 0 0 0 2-2V23a4 4 0 0 0-4-4H89V0h-6v23a2 2 0 0 0 2 2h20v20H73a4 4 0 0 0-4 4v54H5a4 4 0 0 0-4 4v16z"/><g transform="matrix(-1 0 0 1 130 -.5)"><mask id="b" fill="#fff"><use xlink:href="#a"/></mask><use fill="#DCE5DE" xlink:href="#a"/><g stroke="#333" stroke-linecap="round" stroke-linejoin="round" stroke-width="1.1" mask="url(#b)"><path fill="#FFDE00" fill-rule="nonzero" d="M90 7.5V26a1.5 1.5 0 0 0 1.5 1.5h12A1.5 1.5 0 0 0 105 26V7.5a1.5 1.5 0 0 0-1.5-1.5h-12A1.5 1.5 0 0 0 90 7.5z"/><path d="M90.5 27.014l6.197-8.506c.395-.526.381-1.82 0-2.356L90.5 6.717"/><path fill="#FFF" fill-rule="nonzero" d="M104.5 27l-7.755-9.116a1.195 1.195 0 0 1 0-1.448L104.5 7"/></g><g stroke="#333" stroke-linecap="round" stroke-linejoin="round" stroke-width="1.1" mask="url(#b)"><path fill="#FFDE00" fill-rule="nonzero" d="M90 39v18.5a1.5 1.5 0 0 0 1.5 1.5h12a1.5 1.5 0 0 0 1.5-1.5V39a1.5 1.5 0 0 0-1.5-1.5h-12A1.5 1.5 0 0 0 90 39z"/><path d="M90.5 58.514l6.197-8.506c.395-.526.381-1.82 0-2.356L90.5 38.217"/><path fill="#FFF" fill-rule="nonzero" d="M104.5 58.5l-7.755-9.116a1.195 1.195 0 0 1 0-1.448L104.5 38.5"/></g><g stroke="#333" stroke-linecap="round" stroke-linejoin="round" stroke-width="1.1" mask="url(#b)"><path fill="#5CC3CC" fill-rule="nonzero" d="M95.341 91.978L82.26 78.897a1.5 1.5 0 0 1 0-2.122l8.485-8.485a1.5 1.5 0 0 1 2.121 0l13.082 13.081a1.5 1.5 0 0 1 0 2.122l-8.485 8.485a1.5 1.5 0 0 1-2.122 0z"/><path d="M81.896 77.826l10.397 1.633c.652.092 1.556 1.017 1.666 1.665l2.29 11.054"/><path fill="#FFF" fill-rule="nonzero" d="M91.806 67.936l.961 11.93c.077.538.487.948 1.025 1.024l12.156 1.188"/></g><g stroke="#333" stroke-linecap="round" stroke-linejoin="round" stroke-width="1.1" mask="url(#b)"><path fill="#FFDE00" fill-rule="nonzero" d="M90 103v18.5a1.5 1.5 0 0 0 1.5 1.5h12a1.5 1.5 0 0 0 1.5-1.5V103a1.5 1.5 0 0 0-1.5-1.5h-12A1.5 1.5 0 0 0 90 103z"/><path d="M90.5 122.514l6.197-8.506c.395-.526.381-1.82 0-2.356l-6.197-9.435"/><path fill="#FFF" fill-rule="nonzero" d="M104.5 122.5l-7.755-9.116a1.195 1.195 0 0 1 0-1.448l7.755-9.436"/></g><g stroke="#333" stroke-linecap="round" stroke-linejoin="round" stroke-width="1.1" mask="url(#b)"><path fill="#5CC3CC" fill-rule="nonzero" d="M90 263v18.5a1.5 1.5 0 0 0 1.5 1.5h12a1.5 1.5 0 0 0 1.5-1.5V263a1.5 1.5 0 0 0-1.5-1.5h-12A1.5 1.5 0 0 0 90 263z"/><path d="M90.5 282.514l6.197-8.506c.395-.526.381-1.82 0-2.356l-6.197-9.435"/><path fill="#FFF" fill-rule="nonzero" d="M104.5 282.5l-7.755-9.116a1.195 1.195 0 0 1 0-1.448l7.755-9.436"/></g><g stroke="#333" stroke-linecap="round" stroke-linejoin="round" stroke-width="1.1" mask="url(#b)"><path fill="#FFDE00" fill-rule="nonzero" d="M90 295v18.5a1.5 1.5 0 0 0 1.5 1.5h12a1.5 1.5 0 0 0 1.5-1.5V295a1.5 1.5 0 0 0-1.5-1.5h-12A1.5 1.5 0 0 0 90 295z"/><path d="M90.5 314.514l6.197-8.506c.395-.526.381-1.82 0-2.356l-6.197-9.435"/><path fill="#FFF" fill-rule="nonzero" d="M104.5 314.5l-7.755-9.116a1.195 1.195 0 0 1 0-1.448l7.755-9.436"/></g><g stroke="#333" stroke-linecap="round" stroke-linejoin="round" stroke-width="1.1" mask="url(#b)"><path fill="#FFDE00" fill-rule="nonzero" d="M90 199v18.5a1.5 1.5 0 0 0 1.5 1.5h12a1.5 1.5 0 0 0 1.5-1.5V199a1.5 1.5 0 0 0-1.5-1.5h-12A1.5 1.5 0 0 0 90 199z"/><path d="M90.5 218.514l6.197-8.506c.395-.526.381-1.82 0-2.356l-6.197-9.435"/><path fill="#FFF" fill-rule="nonzero" d="M104.5 218.5l-7.755-9.116a1.195 1.195 0 0 1 0-1.448l7.755-9.436"/></g><g stroke="#333" stroke-linecap="round" stroke-linejoin="round" stroke-width="1.1" mask="url(#b)"><path d="M90.5 218.514l6.197-8.506c.395-.526.381-1.82 0-2.356l-6.197-9.435"/><path fill="#FFF" fill-rule="nonzero" d="M104.5 218.5l-7.755-9.116a1.195 1.195 0 0 1 0-1.448l7.755-9.436"/></g><g stroke="#333" stroke-linecap="round" stroke-linejoin="round" stroke-width="1.1" mask="url(#b)"><path fill="#4FC47F" fill-rule="nonzero" d="M52 85h18.5a1.5 1.5 0 0 0 1.5-1.5v-12a1.5 1.5 0 0 0-1.5-1.5H52a1.5 1.5 0 0 0-1.5 1.5v12A1.5 1.5 0 0 0 52 85z"/><path d="M71.514 84.5l-8.506-6.197c-.526-.395-1.82-.381-2.356 0L51.217 84.5"/><path fill="#FFF" fill-rule="nonzero" d="M71.5 70.5l-9.116 7.755a1.195 1.195 0 0 1-1.448 0L51.5 70.5"/></g><g stroke="#333" stroke-linecap="round" stroke-linejoin="round" stroke-width="1.1" mask="url(#b)"><path fill="#CFABE3" fill-rule="nonzero" d="M20 85h18.5a1.5 1.5 0 0 0 1.5-1.5v-12a1.5 1.5 0 0 0-1.5-1.5H20a1.5 1.5 0 0 0-1.5 1.5v12A1.5 1.5 0 0 0 20 85z"/><path d="M39.514 84.5l-8.506-6.197c-.526-.395-1.82-.381-2.356 0L19.217 84.5"/><path fill="#FFF" fill-rule="nonzero" d="M39.5 70.5l-9.116 7.755a1.195 1.195 0 0 1-1.448 0L19.5 70.5"/></g><g stroke="#333" stroke-linecap="round" stroke-linejoin="round" stroke-width="1.1" mask="url(#b)"><path fill="#5CC3CC" fill-rule="nonzero" d="M-12 85H6.5A1.5 1.5 0 0 0 8 83.5v-12A1.5 1.5 0 0 0 6.5 70H-12a1.5 1.5 0 0 0-1.5 1.5v12A1.5 1.5 0 0 0-12 85z"/><path d="M7.514 84.5l-8.506-6.197c-.526-.395-1.82-.381-2.356 0l-9.435 6.197"/><path fill="#FFF" fill-rule="nonzero" d="M7.5 70.5l-9.116 7.755a1.195 1.195 0 0 1-1.448 0L-12.5 70.5"/></g><g stroke="#333" stroke-linecap="round" stroke-linejoin="round" stroke-width="1.1" mask="url(#b)"><path fill="#CFABE3" fill-rule="nonzero" d="M90 135v18.5a1.5 1.5 0 0 0 1.5 1.5h12a1.5 1.5 0 0 0 1.5-1.5V135a1.5 1.5 0 0 0-1.5-1.5h-12A1.5 1.5 0 0 0 90 135z"/><path d="M90.5 154.514l6.197-8.506c.395-.526.381-1.82 0-2.356l-6.197-9.435"/><path fill="#FFF" fill-rule="nonzero" d="M104.5 154.5l-7.755-9.116a1.195 1.195 0 0 1 0-1.448l7.755-9.436"/></g><g stroke="#333" stroke-linecap="round" stroke-linejoin="round" stroke-width="1.1" mask="url(#b)"><path fill="#4FC47F" fill-rule="nonzero" d="M90 167v18.5a1.5 1.5 0 0 0 1.5 1.5h12a1.5 1.5 0 0 0 1.5-1.5V167a1.5 1.5 0 0 0-1.5-1.5h-12A1.5 1.5 0 0 0 90 167z"/><path d="M90.5 186.514l6.197-8.506c.395-.526.381-1.82 0-2.356l-6.197-9.435"/><path fill="#FFF" fill-rule="nonzero" d="M104.5 186.5l-7.755-9.116a1.195 1.195 0 0 1 0-1.448l7.755-9.436"/></g><g stroke="#333" stroke-linecap="round" stroke-linejoin="round" stroke-width="1.1" mask="url(#b)"><path fill="#CFABE3" fill-rule="nonzero" d="M90 231v18.5a1.5 1.5 0 0 0 1.5 1.5h12a1.5 1.5 0 0 0 1.5-1.5V231a1.5 1.5 0 0 0-1.5-1.5h-12A1.5 1.5 0 0 0 90 231z"/><path d="M90.5 250.514l6.197-8.506c.395-.526.381-1.82 0-2.356l-6.197-9.435"/><path fill="#FFF" fill-rule="nonzero" d="M104.5 250.5l-7.755-9.116a1.195 1.195 0 0 1 0-1.448l7.755-9.436"/></g><path fill="#333" d="M82 55.5V.5h2v64H0v-2h75a1 1 0 0 1 1-1h5v-5a1 1 0 0 1 1-1zm0 44a1 1 0 0 1-1-1v-5h-5a1 1 0 0 1-1-1H0v-2h84v230h-2v-221zm30-42a1 1 0 0 1 1 1v40a1 1 0 0 1-1 1v221h-2V.5h2v57z"/></g></g></svg>