<svg width="520" height="359" fill="none" xmlns="http://www.w3.org/2000/svg"><path d="M386.79 209.07c0-76.34-62.11-138.45-138.45-138.45-76.34 0-138.45 62.11-138.45 138.45 0 3.93.18 7.84.5 11.72h275.92c.3-3.88.48-7.79.48-11.72Z" fill="#FCED94"/><path d="M284.25 136.9a88.223 88.223 0 0 0-29.36-65.64 2.13 2.13 0 0 0-1.34-.54c-2-.07-3.63-.1-5.21-.1a137.17 137.17 0 0 0-83.92 28.32 139.477 139.477 0 0 0-49.1 71.63c-.141.472-.109.979.09 1.43a88.112 88.112 0 0 0 54 48.79h53.57a88.23 88.23 0 0 0 61.27-83.89Z" fill="#fff"/><path d="M284.25 136.9a88.223 88.223 0 0 0-29.36-65.64 2.13 2.13 0 0 0-1.34-.54c-2-.07-3.63-.1-5.21-.1a137.17 137.17 0 0 0-83.92 28.32 139.477 139.477 0 0 0-49.1 71.63c-.141.472-.109.979.09 1.43a88.112 88.112 0 0 0 54 48.79h53.57a88.23 88.23 0 0 0 61.27-83.89Z" fill="#fff" fill-opacity=".12"/><path d="M389.03 155.47a2.112 2.112 0 0 1-2-1.43 134.203 134.203 0 0 0-127-90.79 133.123 133.123 0 0 0-54.8 11.66 2.13 2.13 0 0 1-2.81-1.07 2.13 2.13 0 0 1 1.07-2.8 137.502 137.502 0 0 1 56.54-12 138.468 138.468 0 0 1 131 93.65 2.127 2.127 0 0 1-1.32 2.7 2.403 2.403 0 0 1-.68.08Zm-137.87-2.78a2.078 2.078 0 0 1-1-.25 41.772 41.772 0 0 0-40.52 0 2.109 2.109 0 0 1-2.86-.87 2.128 2.128 0 0 1 .87-2.87 46.851 46.851 0 0 1 22.25-5.77 46.854 46.854 0 0 1 22.25 5.77 2.123 2.123 0 0 1 .095 3.687 2.119 2.119 0 0 1-1.085.303Zm-36.91 33.58a2.13 2.13 0 0 1-2.1-1.84 2.12 2.12 0 0 1 1.83-2.38 11.113 11.113 0 0 0 5.91-2.51 10.997 10.997 0 0 0 3.35-5.49 2.142 2.142 0 0 1 2.63-1.45 2.125 2.125 0 0 1 1.45 2.63 15.213 15.213 0 0 1-4.66 7.52 15.172 15.172 0 0 1-8.13 3.5l-.28.02Zm97.06-33.58a2.055 2.055 0 0 1-1-.25 41.772 41.772 0 0 0-40.52 0 2.109 2.109 0 0 1-2.86-.87 2.128 2.128 0 0 1 .87-2.87 46.851 46.851 0 0 1 22.25-5.77 46.854 46.854 0 0 1 22.25 5.77 2.13 2.13 0 0 1 .87 2.87 2.113 2.113 0 0 1-1.86 1.12Z" fill="#24272D"/><path d="M260 201.74c-15 0-29.34-6.82-40.31-19.19a2.129 2.129 0 0 1 .18-3 2.129 2.129 0 0 1 3 .18c10.14 11.45 23.33 17.76 37.13 17.76 13.8 0 27-6.31 37.12-17.76a2.137 2.137 0 0 1 3-.18 2.129 2.129 0 0 1 .18 3c-10.99 12.37-25.28 19.19-40.3 19.19Z" fill="#24272D"/><path d="M179.9 77.95a22.271 22.271 0 0 0-20.85-14.17 22.29 22.29 0 0 0-22.23 19.72 18.285 18.285 0 0 0-16.39 17.49 2.094 2.094 0 0 0 .59 1.55 2.113 2.113 0 0 0 1.53.66h76.13a2.107 2.107 0 0 0 2.07-1.66c.316-1.391.477-2.813.48-4.24a19.438 19.438 0 0 0-21.33-19.35Z" fill="#FAF9F7"/><path d="M179.9 77.95a22.271 22.271 0 0 0-20.85-14.17 22.506 22.506 0 0 0-7 1.13 2.13 2.13 0 0 0-1.45 2 2.118 2.118 0 0 0 1.45 2 18.16 18.16 0 0 1 11.68 12 2.13 2.13 0 0 0 2.43 1.47c.962-.189 1.94-.286 2.92-.29a15.22 15.22 0 0 1 15.2 15.21 15.106 15.106 0 0 1-.37 3.31 2.135 2.135 0 0 0 .41 1.79 2.146 2.146 0 0 0 1.66.8h12.72a2.116 2.116 0 0 0 1.323-.467c.374-.302.634-.723.737-1.193.316-1.391.477-2.813.48-4.24a19.42 19.42 0 0 0-6.382-14.404A19.438 19.438 0 0 0 179.9 77.95Z" fill="#fff" fill-opacity=".24"/><path d="M179.9 77.95a22.271 22.271 0 0 0-20.85-14.17 22.506 22.506 0 0 0-7 1.13 2.13 2.13 0 0 0-1.45 2 2.118 2.118 0 0 0 1.45 2 18.16 18.16 0 0 1 11.68 12 2.13 2.13 0 0 0 2.43 1.47c.962-.189 1.94-.286 2.92-.29a15.22 15.22 0 0 1 15.2 15.21 15.106 15.106 0 0 1-.37 3.31 2.135 2.135 0 0 0 .41 1.79 2.146 2.146 0 0 0 1.66.8h12.72a2.116 2.116 0 0 0 1.323-.467c.374-.302.634-.723.737-1.193.316-1.391.477-2.813.48-4.24a19.42 19.42 0 0 0-6.382-14.404A19.438 19.438 0 0 0 179.9 77.95Z" fill="#FCED94"/><path d="M170.31 117.15h-38.57a2.107 2.107 0 0 1-2.11-2.12 2.121 2.121 0 0 1 .615-1.498 2.118 2.118 0 0 1 1.495-.622h38.57a2.13 2.13 0 0 1 1.499.621 2.12 2.12 0 0 1 .462 2.312 2.116 2.116 0 0 1-1.148 1.149c-.258.106-.534.16-.813.158Zm-7.53-13.95h-10.83a2.125 2.125 0 0 1-1.959-2.932 2.11 2.11 0 0 1 1.147-1.147c.258-.107.534-.161.812-.161h10.83a2.12 2.12 0 0 1 1.959 1.308 2.12 2.12 0 0 1-1.959 2.932Z" fill="#24272D"/><path d="M206.07 98.96h-4.92c.05-.56.08-1.11.08-1.66a19.446 19.446 0 0 0-21.33-19.35 22.271 22.271 0 0 0-20.85-14.17 22.287 22.287 0 0 0-22.23 19.72 18.272 18.272 0 0 0-16.18 15.46h-8.92a2.12 2.12 0 0 0 0 4.24h11.37l.24-.08a1.1 1.1 0 0 0 .19-.09.811.811 0 0 0 .16-.09c.078-.051.151-.108.22-.17a.34.34 0 0 0 .09-.07c.078-.07.148-.147.21-.23l.06-.07.16-.26c.061-.115.112-.235.15-.36v-.15c.006-.08.006-.16 0-.24v-.15a14.062 14.062 0 0 1 14-13.53 2.106 2.106 0 0 0 2.24-2 18.084 18.084 0 0 1 18.14-17.58 18.078 18.078 0 0 1 17.39 12.9 2.13 2.13 0 0 0 2.43 1.47c.962-.19 1.94-.287 2.92-.29a15.22 15.22 0 0 1 15.2 15.21c.001.555-.032 1.109-.1 1.66h-20.92a2.12 2.12 0 0 0 0 4.24h30.1a2.124 2.124 0 0 0 2.12-2.12 2.12 2.12 0 0 0-2.02-2.24Z" fill="#24272D"/><path d="M421.31 155.84a21.591 21.591 0 0 0-19.36 11.86 14.323 14.323 0 0 0-5-.91 14.915 14.915 0 0 0-14.68 17.5 2.121 2.121 0 0 0 2.09 1.75h55.54a2.099 2.099 0 0 0 2-1.43 21.476 21.476 0 0 0 1.2-7 21.77 21.77 0 0 0-6.386-15.398 21.788 21.788 0 0 0-15.404-6.372Z" fill="#FAF9F7"/><path d="M421.31 155.84c-2.646 0-5.269.484-7.74 1.43a2.139 2.139 0 0 0-1.36 2c-.003.433.127.857.371 1.215.245.357.594.631.999.785a17.606 17.606 0 0 1 8.182 6.431 17.607 17.607 0 0 1 3.118 9.929 17.264 17.264 0 0 1-1 5.64 2.106 2.106 0 0 0 .29 1.91 2.109 2.109 0 0 0 1.72.89h13.95c.441.002.872-.135 1.231-.391.359-.257.628-.621.769-1.039a21.472 21.472 0 0 0 1.2-7 21.777 21.777 0 0 0-21.73-21.8Z" fill="#FCED94"/><path d="M412.03 198.72h-17.46a2.124 2.124 0 0 1-.813-4.082c.258-.106.534-.16.813-.158h17.46a2.099 2.099 0 0 1 1.502.618 2.116 2.116 0 0 1 .618 1.502 2.118 2.118 0 0 1-2.12 2.12Zm15.77-12.68h-6a2.118 2.118 0 0 1-1.502-.618 2.116 2.116 0 0 1-.618-1.502 2.118 2.118 0 0 1 1.307-1.962c.258-.106.534-.159.813-.158h6a2.126 2.126 0 0 1 2.12 2.12 2.115 2.115 0 0 1-2.12 2.12Z" fill="#24272D"/><path d="M452.78 181.8h-10.13a20.8 20.8 0 0 0 .45-4.2 21.786 21.786 0 0 0-21.76-21.76 21.591 21.591 0 0 0-19.36 11.86 14.323 14.323 0 0 0-5-.91 14.915 14.915 0 0 0-14.91 14.9v.11h-17.69a2.125 2.125 0 0 0-2.12 2.12 2.118 2.118 0 0 0 2.12 2.12h35.17a2.12 2.12 0 1 0 0-4.24h-13.24v-.11a10.68 10.68 0 0 1 10.67-10.66 10.48 10.48 0 0 1 5.08 1.35c.264.145.556.231.856.253a2.096 2.096 0 0 0 1.64-.605c.216-.212.384-.467.494-.748a17.413 17.413 0 0 1 16.32-11.2 17.542 17.542 0 0 1 17.52 17.52 17.264 17.264 0 0 1-1 5.64c.005.04.005.08 0 .12v.56a.138.138 0 0 0 0 .07 1.765 1.765 0 0 0 0 .23v.19l.06.2c0 .07.05.13.07.19l.1.18c0 .06.07.12.11.17a1 1 0 0 0 .13.16l.13.15.17.13.16.12.17.09.21.1h.36c.13.015.26.015.39 0h12.88a2.119 2.119 0 0 0 2.12-2.12 2.125 2.125 0 0 0-.686-1.427 2.123 2.123 0 0 0-1.484-.553ZM260.31 47.54a2.118 2.118 0 0 1-2.12-2.12V32.94a2.118 2.118 0 0 1 3.619-1.499c.398.398.621.937.621 1.5v12.53a2.12 2.12 0 0 1-2.12 2.07Zm58.43 11.57a2.103 2.103 0 0 1-.81-.17 2.113 2.113 0 0 1-1.15-2.77l4.77-11.52a2.11 2.11 0 0 1 2.759-1.18 2.112 2.112 0 0 1 1.313 1.959c0 .278-.055.554-.162.811l-4.77 11.52a2.142 2.142 0 0 1-1.95 1.35Zm48.93 33.15a2.112 2.112 0 0 1-2.112-2.12 2.114 2.114 0 0 1 .622-1.5l8.81-8.82a2.125 2.125 0 0 1 2.312-.46 2.124 2.124 0 0 1 .688 3.46l-8.82 8.82a2.121 2.121 0 0 1-1.5.62Zm33.04 49.1a2.126 2.126 0 0 1-1.99-1.284 2.12 2.12 0 0 1 .442-2.327c.197-.197.431-.353.688-.459l11.53-4.78a2.132 2.132 0 0 1 2.311.461c.197.198.353.432.459.689a2.13 2.13 0 0 1-1.15 2.77l-11.52 4.77a2.12 2.12 0 0 1-.77.16ZM201.83 59.11a2.14 2.14 0 0 1-2-1.31l-4.77-11.52a2.116 2.116 0 0 1 .782-2.575 2.119 2.119 0 0 1 2.354-.003c.349.232.622.562.784.948l4.77 11.52a2.124 2.124 0 0 1-1.15 2.77 2.11 2.11 0 0 1-.77.17Zm-81.97 82.25c-.278 0-.553-.054-.81-.16l-11.52-4.77a2.124 2.124 0 0 1-.692-3.46 2.115 2.115 0 0 1 2.312-.46l11.52 4.78a2.115 2.115 0 0 1-.81 4.07Zm-11.28 58.46H96.11a2.115 2.115 0 0 1-1.96-1.308 2.116 2.116 0 0 1 .46-2.311 2.126 2.126 0 0 1 1.5-.621h12.47a2.12 2.12 0 1 1 0 4.24Z" fill="#24272D"/><path d="M26 254.78c3 .52 3.28.6 5.9 2.29a5.92 5.92 0 0 1 2.47 6c-.72 5.24-8.4 7.14-16 6.11-7.25-1-16.89-7.48-14.65-16.08 1-4 4.93-6.45 8.52-7.7 5-1.75 8.44.16 13.76 0" fill="#FAF9F7"/><path d="M22.9 252.69a2.114 2.114 0 0 0-2.45 1.72 2.12 2.12 0 0 0 1.72 2.46c.74.13 1.52.23 2.32.34.58.07 1.16.15 1.73.24v-4.29l-1.18-.16c-.73-.09-1.46-.19-2.14-.31Z" fill="#24272D"/><path d="M28.31 266.52c1.66-.57 3.71-1.67 4-3.69a3.922 3.922 0 0 0-1.52-4 11.894 11.894 0 0 0-4.53-1.4v9.59c.694-.119 1.38-.286 2.05-.5Z" fill="#51C57D"/><path d="M36.47 263.41a7.996 7.996 0 0 0-3.42-8.12 16.88 16.88 0 0 0-6.83-2.13v4.31c1.589.158 3.13.634 4.53 1.4a3.922 3.922 0 0 1 1.52 4c-.28 2-2.33 3.12-4 3.69-.674.221-1.362.395-2.06.52v4.3a19.583 19.583 0 0 0 3.42-.81c3.97-1.38 6.39-3.91 6.84-7.16Z" fill="#51C57D"/><path d="M23.1 284.57c2.89.45 6.5.46 9 2a5.701 5.701 0 0 1 2.49 5.78c-.6 5.06-8 7-15.24 6.16-7-.83-16.39-6.9-14.39-15.22.92-3.79 6.8-7.48 11.11-7.82" fill="#FAF9F7"/><path d="M22.99 300.89a32.86 32.86 0 0 1-3.84-.24c-4.66-.55-10.88-3.29-14.27-8.16a11.738 11.738 0 0 1-1.93-9.66c1.17-4.82 7.95-9 13-9.43a2.15 2.15 0 0 1 2.28 1.95 2.12 2.12 0 0 1-2 2.28c-3.68.29-8.59 3.59-9.22 6.2a7.461 7.461 0 0 0 1.29 6.23c2.62 3.78 7.69 5.95 11.29 6.38 6 .71 12.45-.7 12.88-4.3a3.689 3.689 0 0 0-1.49-3.73c-1.55-.95-3.83-1.21-6-1.46-.77-.09-1.52-.17-2.24-.28a2.128 2.128 0 0 1-1.76-2.43 2.12 2.12 0 0 1 2.42-1.76c.65.1 1.35.18 2.06.26 2.54.29 5.43.61 7.78 2.07a7.8 7.8 0 0 1 3.47 7.83c-.47 4.22-4.98 8.25-13.72 8.25Z" fill="#24272D"/><path d="M23.31 269.33c3.34.51 7.51.54 10.46 2.32a6.342 6.342 0 0 1 2.89 6.47c-.67 5.66-9.16 7.83-17.56 6.83-8.08-1-19-7.78-16.67-17.09 1-4.24 7.82-8.34 12.79-8.7" fill="#FAF9F7"/><path d="M23.02 287.31c-1.397 0-2.793-.084-4.18-.25-5.41-.65-12.59-3.77-16.42-9.29a12.643 12.643 0 0 1-2.06-10.41c1.3-5.3 9-9.9 14.7-10.31a2.117 2.117 0 0 1 2.05 1.194c.122.252.194.526.21.806a2.121 2.121 0 0 1-2 2.27c-4.44.32-10.13 4-10.88 7.09a8.356 8.356 0 0 0 1.43 7c2.92 4.22 9 7 13.43 7.5 3.597.5 7.26.221 10.74-.82 1.89-.65 4.2-1.9 4.46-4.16a4.284 4.284 0 0 0-1.88-4.4c-1.86-1.13-4.53-1.43-7.11-1.72-.89-.1-1.75-.2-2.57-.33a2.122 2.122 0 0 1-1.77-2.42 2.13 2.13 0 0 1 2.42-1.77c.76.12 1.57.21 2.39.3 2.9.33 6.18.71 8.83 2.31a8.422 8.422 0 0 1 3.9 8.53c-.41 3.46-3 6.19-7.29 7.67a26.257 26.257 0 0 1-8.4 1.21Z" fill="#24272D"/><path d="M22.54 254.78c3 .52 6.74.6 9.36 2.29a5.92 5.92 0 0 1 2.47 6c-.72 5.24-8.4 7.14-16 6.11-7.25-1-16.89-7.48-14.65-16.08 1-4 4.93-6.45 8.52-7.7.37-.13.73-.25 1.1-.36" fill="#FAF9F7"/><path d="M22.31 271.62a32.045 32.045 0 0 1-4.21-.29c-4.81-.66-11.2-3.62-14.61-8.72a12 12 0 0 1-1.81-10c1.43-5.49 6.8-8.1 9.87-9.18l1.17-.38a2.125 2.125 0 0 1 1.617.147 2.127 2.127 0 0 1-.357 3.903l-1 .34c-2.28.79-6.24 2.66-7.17 6.23a7.83 7.83 0 0 0 1.23 6.57c2.67 4 7.92 6.36 11.66 6.88a21.99 21.99 0 0 0 9.57-.61c1.66-.57 3.71-1.67 4-3.69a3.925 3.925 0 0 0-1.52-4c-1.6-1-4-1.34-6.26-1.64-.8-.11-1.58-.21-2.32-.34a2.113 2.113 0 0 1-1.703-1.632 2.117 2.117 0 0 1 2.433-2.548c.68.12 1.41.21 2.14.31 2.63.35 5.61.74 8 2.29a8 8 0 0 1 3.42 8.12c-.45 3.25-2.87 5.78-6.83 7.12a22.935 22.935 0 0 1-7.32 1.12Z" fill="#24272D"/><path d="M35.69 287.26a2.12 2.12 0 0 0-2.899-.694c-.317.191-.58.461-.76.784-1.41 2.53-6.67 3.86-12.5 3.16-4.78-.57-10.71-3.87-12.35-8.4a2.13 2.13 0 0 0-2-1.4 2.113 2.113 0 0 0-2 1.4 7.43 7.43 0 0 0-.24.76 11.721 11.721 0 0 0 1.93 9.65c3.39 4.87 9.61 7.61 14.27 8.16 1.273.155 2.556.235 3.84.24 8.74 0 13.25-4 13.75-8.25a8.32 8.32 0 0 0-1.04-5.41h-.001Z" fill="#FCED94"/><path d="M37.85 273.03a2.119 2.119 0 0 0-1.88-1.14 2.124 2.124 0 0 0-1.88 1.18c-1.51 3-7.77 4.66-14.86 3.82-5.69-.68-12.93-4.69-14.69-10a2.09 2.09 0 0 0-2-1.44 2.12 2.12 0 0 0-2 1.51 3.28 3.28 0 0 0-.12.38 12.596 12.596 0 0 0 2.06 10.41c3.83 5.52 11 8.64 16.42 9.29 1.387.166 2.783.25 4.18.25 2.864.04 5.715-.389 8.44-1.27 4.29-1.48 6.88-4.21 7.29-7.67a9.15 9.15 0 0 0-.96-5.32Z" fill="#FCED94"/><path d="M35.52 257.89a2.177 2.177 0 0 0-1.88-1.07 2.115 2.115 0 0 0-1.84 1.14c-1.43 2.71-7 4.07-13.21 3.21-5-.68-11.09-4.24-12.73-9a2.08 2.08 0 0 0-2.06-1.4 2.147 2.147 0 0 0-2 1.54 2.736 2.736 0 0 0-.09.31 12.08 12.08 0 0 0 1.8 10c3.42 5.1 9.8 8.06 14.61 8.72a33.19 33.19 0 0 0 4.51.32c8.69 0 13.25-4 13.83-8.24a8.66 8.66 0 0 0-.94-5.53Z" fill="#FCED94"/><path d="M38.75 278.37a8.423 8.423 0 0 0-3.9-8.53 10.841 10.841 0 0 0-2-.93 8.007 8.007 0 0 0 3.57-5.5 7.995 7.995 0 0 0-3.42-8.12c-2.4-1.55-5.38-1.94-8-2.29-.74-.09-1.46-.19-2.14-.31a2.114 2.114 0 0 0-2.45 1.72 2.12 2.12 0 0 0 1.72 2.46c.74.13 1.52.23 2.32.34 2.29.3 4.66.61 6.26 1.64a3.92 3.92 0 0 1 1.52 4c-.28 2-2.33 3.12-4 3.69-.674.221-1.362.395-2.06.52-.51.09-1 .16-1.58.22h-.35a25.566 25.566 0 0 1-3.39 0h-.43c-.58 0-1.17-.09-1.76-.17l-.51-.09a18.651 18.651 0 0 1-10-5.35l-.12-.14c-.366-.407-.7-.841-1-1.3-.09-.13-.16-.26-.25-.4a7.805 7.805 0 0 1-1-6.17 8.08 8.08 0 0 1 3.73-4.6c.3-.19.6-.36.89-.52h.07c.5-.26 1-.49 1.46-.68l.23-.1.79-.29c.49-.17 1-.32 1.48-.47l.37-.1 1.22-.32.33-.07c.5-.12 1-.23 1.51-.32 2.74-.476 5.51-.767 8.29-.87v-4.24c-2.967.1-5.924.404-8.85.91H17c-.56.11-1.11.22-1.65.35l-.39.09-1.35.35-.42.12c-.57.16-1.12.34-1.67.52a19.614 19.614 0 0 0-6.26 3.51c-.464.412-.901.853-1.31 1.32a10.714 10.714 0 0 0-2.3 4.34c-.201.766-.325 1.55-.37 2.34v.24a12.31 12.31 0 0 0 2.1 7.27 10.492 10.492 0 0 0-3.07 4.9 12.61 12.61 0 0 0 2.07 10.41 16.59 16.59 0 0 0 1.85 2.23 8.441 8.441 0 0 0-1.33 2.83 11.738 11.738 0 0 0 1.93 9.66c3.39 4.87 9.61 7.61 14.27 8.16 1.274.155 2.556.235 3.84.24 8.74 0 13.25-4 13.75-8.25a7.842 7.842 0 0 0-3.1-7.56c3.02-1.59 4.83-3.87 5.16-6.69Zm-6.22 13.77c-.43 3.6-6.89 5-12.88 4.3-3.6-.43-8.67-2.6-11.29-6.38a7.455 7.455 0 0 1-1.29-6.23c.103-.388.268-.756.49-1.09a26.378 26.378 0 0 0 11.28 4.32 35.39 35.39 0 0 0 4.18.25c1.55.003 3.098-.113 4.63-.35a2.2 2.2 0 0 0 1 .54 7.981 7.981 0 0 1 2.4.91 3.678 3.678 0 0 1 1.48 3.73Zm2-14.27c-.26 2.26-2.57 3.51-4.46 4.16a25.313 25.313 0 0 1-10.74.82c-4.46-.53-10.51-3.28-13.43-7.5a8.362 8.362 0 0 1-1.43-7 6.19 6.19 0 0 1 1.72-2.68 21.62 21.62 0 0 0 3.75 2.73 23.676 23.676 0 0 0 4.35 2h.09c.78.263 1.575.48 2.38.65.47.1.92.19 1.36.25 1.399.189 2.809.286 4.22.29.67 0 1.33 0 2-.07.42 0 .82-.09 1.23-.14v.34c2.58.29 5.26.59 7.11 1.72a4.284 4.284 0 0 1 1.86 4.43h-.01Z" fill="#24272D"/><path d="M494 254.78c-3 .52-3.29.6-5.91 2.29a5.925 5.925 0 0 0-2.47 6c.72 5.24 8.4 7.14 16 6.11 7.25-1 16.89-7.48 14.65-16.08-1-4-4.93-6.45-8.52-7.7-5-1.75-8.43.16-13.75 0" fill="#FAF9F7"/><path d="M497.82 256.87a2.106 2.106 0 0 0 1.37-.873 2.125 2.125 0 0 0-.519-2.953 2.118 2.118 0 0 0-1.581-.354c-.68.12-1.4.22-2.14.31l-1.18.16v4.31c.57-.09 1.15-.17 1.73-.24.81-.13 1.58-.23 2.32-.36Z" fill="#24272D"/><path d="M489.24 258.85a3.92 3.92 0 0 0-1.52 4c.28 2 2.33 3.12 4 3.69.654.22 1.322.394 2 .52v-9.59c-1.57.158-3.093.627-4.48 1.38Z" fill="#51C57D"/><path d="M491.72 266.52c-1.67-.57-3.72-1.67-4-3.69a3.915 3.915 0 0 1 1.52-4 11.894 11.894 0 0 1 4.53-1.4v-4.29c-2.403.214-4.732.94-6.83 2.13a8 8 0 0 0-3.42 8.12c.45 3.25 2.87 5.78 6.83 7.12 1.113.372 2.258.643 3.42.81v-4.3a14.555 14.555 0 0 1-2.05-.5Z" fill="#51C57D"/><path d="M496.89 284.57c-2.89.45-6.5.46-9 2a5.7 5.7 0 0 0-2.49 5.78c.6 5.06 8 7 15.24 6.16 7-.83 16.39-6.9 14.39-15.22-.92-3.79-6.8-7.48-11.11-7.82" fill="#FAF9F7"/><path d="M497 300.89c-8.74 0-13.25-4-13.75-8.25a7.802 7.802 0 0 1 3.47-7.83c2.35-1.46 5.24-1.78 7.78-2.07.71-.08 1.41-.16 2.06-.26a2.12 2.12 0 0 1 2.42 1.76 2.135 2.135 0 0 1-1.76 2.43c-.72.11-1.47.19-2.24.28-2.2.25-4.48.51-6 1.46a3.673 3.673 0 0 0-1.5 3.73c.43 3.6 6.89 5 12.88 4.3 3.6-.43 8.67-2.6 11.29-6.38a7.458 7.458 0 0 0 1.29-6.23c-.63-2.61-5.54-5.91-9.22-6.2a2.116 2.116 0 0 1-1.477-.721 2.135 2.135 0 0 1-.523-1.559 2.155 2.155 0 0 1 2.28-1.95c5.06.4 11.85 4.61 13 9.43a11.747 11.747 0 0 1-1.93 9.66c-3.39 4.87-9.61 7.61-14.27 8.16-1.261.153-2.53.233-3.8.24Z" fill="#24272D"/><path d="M496.69 269.33c-3.34.51-7.51.54-10.46 2.32a6.342 6.342 0 0 0-2.89 6.47c.67 5.66 9.16 7.83 17.56 6.83 8.08-1 19-7.78 16.67-17.09-1-4.24-7.82-8.34-12.79-8.7" fill="#FAF9F7"/><path d="M496.97 287.31a26.244 26.244 0 0 1-8.44-1.27c-4.29-1.48-6.88-4.21-7.3-7.67a8.458 8.458 0 0 1 3.91-8.53c2.65-1.6 5.93-2 8.83-2.31.82-.09 1.63-.18 2.39-.3a2.134 2.134 0 0 1 2.42 1.77 2.114 2.114 0 0 1-1.77 2.42c-.82.13-1.68.23-2.57.33-2.58.29-5.25.59-7.11 1.72a4.283 4.283 0 0 0-1.88 4.4c.26 2.26 2.57 3.51 4.46 4.16a25.314 25.314 0 0 0 10.74.82c4.46-.53 10.51-3.28 13.43-7.5a8.35 8.35 0 0 0 1.43-7c-.75-3.06-6.44-6.77-10.88-7.09a2.112 2.112 0 0 1-1.476-.716 2.106 2.106 0 0 1-.524-1.554 2.112 2.112 0 0 1 .715-1.469 2.126 2.126 0 0 1 1.545-.531c5.73.41 13.4 5 14.7 10.31a12.606 12.606 0 0 1-2.06 10.41c-3.83 5.52-11 8.64-16.42 9.29a35.182 35.182 0 0 1-4.14.31Z" fill="#24272D"/><path d="M497.46 254.78c-3 .52-6.75.6-9.37 2.29a5.926 5.926 0 0 0-2.47 6c.72 5.24 8.4 7.14 16 6.11 7.25-1 16.89-7.48 14.65-16.08-1-4-4.93-6.45-8.52-7.7-.37-.13-.73-.25-1.1-.36" fill="#FAF9F7"/><path d="M497.64 271.62a22.935 22.935 0 0 1-7.29-1.09c-4-1.34-6.38-3.87-6.83-7.12a7.997 7.997 0 0 1 3.42-8.12c2.4-1.55 5.38-1.94 8-2.29.74-.1 1.46-.19 2.14-.31a2.112 2.112 0 0 1 1.584.349 2.107 2.107 0 0 1 .866 1.371 2.123 2.123 0 0 1-.948 2.16c-.235.15-.497.252-.772.3-.74.13-1.52.23-2.32.34-2.29.3-4.66.61-6.26 1.64a3.92 3.92 0 0 0-1.52 4c.28 2 2.33 3.12 4 3.69a22.006 22.006 0 0 0 9.57.61c3.74-.52 9-2.89 11.66-6.88a7.819 7.819 0 0 0 1.23-6.57c-.93-3.57-4.89-5.44-7.17-6.23l-1-.34a2.115 2.115 0 0 1-1.39-2.65 2.1 2.1 0 0 1 1.033-1.252 2.124 2.124 0 0 1 1.617-.148l1.16.38c3.08 1.08 8.46 3.69 9.88 9.18a12 12 0 0 1-1.81 10c-3.41 5.1-9.79 8.06-14.6 8.72-1.41.18-2.829.267-4.25.26Z" fill="#24272D"/><path d="M517.04 282.84c-.06-.25-.15-.5-.24-.76a2.114 2.114 0 0 0-2-1.4 2.13 2.13 0 0 0-2 1.4c-1.64 4.53-7.57 7.83-12.35 8.4-5.82.7-11.08-.63-12.5-3.16a2.143 2.143 0 0 0-1.81-1.09 2.092 2.092 0 0 0-1.059.252 2.09 2.09 0 0 0-.791.748 8.315 8.315 0 0 0-1 5.38c.5 4.22 5 8.25 13.75 8.25a32.852 32.852 0 0 0 3.84-.24c4.66-.55 10.88-3.29 14.27-8.16a11.715 11.715 0 0 0 1.89-9.62Z" fill="#FCED94"/><path d="M519.63 267.36a2.963 2.963 0 0 0-.13-.4 2.116 2.116 0 0 0-2-1.5 2.105 2.105 0 0 0-2 1.45c-1.76 5.29-9 9.3-14.7 10-7.09.85-13.34-.76-14.85-3.82a2.125 2.125 0 0 0-1.88-1.18 2.123 2.123 0 0 0-1.88 1.14 9.146 9.146 0 0 0-.9 5.34c.41 3.46 3 6.19 7.29 7.67a26.244 26.244 0 0 0 8.44 1.27c1.397 0 2.793-.084 4.18-.25 5.41-.65 12.59-3.77 16.42-9.29a12.61 12.61 0 0 0 2.01-10.43Z" fill="#FCED94"/><path d="M518.31 252.63a3.99 3.99 0 0 0-.12-.37 2.103 2.103 0 0 0-2-1.52 2.107 2.107 0 0 0-2 1.43c-1.65 4.76-7.76 8.32-12.73 9-6.23.86-11.78-.5-13.21-3.22a2.134 2.134 0 0 0-2.124-1.114 2.125 2.125 0 0 0-1.596 1.054 8.666 8.666 0 0 0-1 5.52c.59 4.25 5.14 8.24 13.83 8.24a33.19 33.19 0 0 0 4.51-.32c4.81-.66 11.19-3.62 14.61-8.72a12.106 12.106 0 0 0 1.83-9.98Z" fill="#FCED94"/><path d="M519.63 267.36a10.567 10.567 0 0 0-3.07-4.9 12.748 12.748 0 0 0 2-5c.246-1.603.16-3.24-.25-4.81a12.316 12.316 0 0 0-6-7.36 21.618 21.618 0 0 0-3.89-1.81c-.54-.19-1.1-.36-1.67-.52l-.4-.12-1.38-.35-.36-.09c-.55-.13-1.11-.24-1.69-.35h-.24a64.732 64.732 0 0 0-8.85-.91v4.24c3.309.111 6.601.512 9.84 1.2l.31.07 1.25.32.35.1c.49.14 1 .3 1.47.46 2.28.79 6.24 2.66 7.17 6.23a7.819 7.819 0 0 1-1.23 6.57c-2.6 3.89-7.64 6.23-11.37 6.83l-.29.05c-.59.08-1.18.13-1.76.17h-.43a25.082 25.082 0 0 1-3.38 0h-.37c-.54-.06-1.07-.12-1.57-.22-.678-.126-1.347-.3-2-.52-1.67-.57-3.72-1.67-4-3.69a3.915 3.915 0 0 1 1.52-4c1.6-1 4-1.34 6.26-1.64.8-.11 1.58-.21 2.32-.34a2.116 2.116 0 0 0 1.703-1.632 2.113 2.113 0 0 0-.853-2.194 2.116 2.116 0 0 0-1.58-.354c-.68.12-1.4.22-2.14.31-2.63.35-5.61.74-8 2.29a8 8 0 0 0-3.42 8.12 7.995 7.995 0 0 0 3.57 5.5c-.697.242-1.367.553-2 .93a8.44 8.44 0 0 0-3.9 8.53c.33 2.83 2.14 5.14 5.11 6.71a7.836 7.836 0 0 0-3.1 7.56c.5 4.22 5 8.25 13.75 8.25a32.852 32.852 0 0 0 3.84-.24c4.66-.55 10.88-3.29 14.27-8.16a11.74 11.74 0 0 0 1.93-9.66 8.428 8.428 0 0 0-1.33-2.83 18.024 18.024 0 0 0 1.86-2.23 12.607 12.607 0 0 0 2-10.51Zm-8 22.7c-2.62 3.78-7.69 5.95-11.29 6.38-6 .71-12.45-.7-12.88-4.3a3.676 3.676 0 0 1 1.5-3.73 7.982 7.982 0 0 1 2.4-.91 2.19 2.19 0 0 0 1-.54c1.532.237 3.08.353 4.63.35 1.397 0 2.793-.084 4.18-.25a26.374 26.374 0 0 0 11.28-4.32c.222.334.387.702.49 1.09a7.465 7.465 0 0 1-1.31 6.23Zm2.45-14.71c-2.92 4.22-9 7-13.43 7.5-3.598.5-7.26.221-10.74-.82-1.89-.65-4.2-1.9-4.46-4.16a4.283 4.283 0 0 1 1.88-4.4c1.85-1.13 4.52-1.43 7.11-1.72h.08c.258-.033.509-.111.74-.23h.35c.65.05 1.31.07 2 .07a32.194 32.194 0 0 0 4.22-.29 23.263 23.263 0 0 0 11.93-5.64 6.248 6.248 0 0 1 1.72 2.68 8.358 8.358 0 0 1-1.4 7.01Z" fill="#24272D"/><path d="M374.12 326.06c0-.48.07-1 .07-1.46a21.705 21.705 0 0 0-6.359-15.331 21.705 21.705 0 0 0-15.331-6.359 21.428 21.428 0 0 0-7 1.16 24.522 24.522 0 0 0-20.12-10.62 24.456 24.456 0 0 0-24.43 24.42 24.445 24.445 0 0 0 1.26 7.74 15.877 15.877 0 0 0-9.41 14.57c.002.669.049 1.337.14 2a2.107 2.107 0 0 0 2.1 1.85h88a2.126 2.126 0 0 0 2.12-1.94c0-.43.06-.85.06-1.28a15.478 15.478 0 0 0-11.1-14.75Z" fill="#FAF9F7"/><path d="M374.12 326.06c0-.48.07-1 .07-1.46a21.705 21.705 0 0 0-6.359-15.331 21.705 21.705 0 0 0-15.331-6.359 21.428 21.428 0 0 0-7 1.16 24.508 24.508 0 0 0-8.754-7.785 24.503 24.503 0 0 0-11.366-2.835 24.485 24.485 0 0 0-8.7 1.62 2.111 2.111 0 0 0-1.36 2 2.109 2.109 0 0 0 1.36 2 20.36 20.36 0 0 1 10.24 8.71 2.12 2.12 0 0 0 2.68.88 17.2 17.2 0 0 1 7-1.47 17.466 17.466 0 0 1 12.333 5.117 17.466 17.466 0 0 1 5.117 12.333c-.02.933-.114 1.862-.28 2.78-.089.56.048 1.131.38 1.59a2.134 2.134 0 0 0 1.41.84 11.222 11.222 0 0 1 9.6 11v.93a2.137 2.137 0 0 0 .56 1.608 2.131 2.131 0 0 0 1.56.682h15.89a2.126 2.126 0 0 0 2.12-1.94c0-.43.06-.85.06-1.28a15.485 15.485 0 0 0-11.23-14.79Z" fill="#FCEC98"/><path d="M383.13 344.05h-.18a2.12 2.12 0 0 1-1.94-2.28v-.93a11.223 11.223 0 0 0-9.6-11A2.136 2.136 0 0 1 370 329a2.14 2.14 0 0 1-.38-1.59c.166-.918.259-1.847.28-2.78a17.466 17.466 0 0 0-5.117-12.333 17.466 17.466 0 0 0-12.333-5.117 17.237 17.237 0 0 0-7 1.47 2.115 2.115 0 0 1-2.68-.88 20.254 20.254 0 0 0-17.43-10.05 20.21 20.21 0 0 0-20.19 20.18 20.11 20.11 0 0 0 1.71 8.12 2.143 2.143 0 0 1 0 1.75 2.14 2.14 0 0 1-1.33 1.14 11.715 11.715 0 0 0-8.42 12.79 2.092 2.092 0 0 1-.51 1.66 2.115 2.115 0 0 1-.716.534 2.109 2.109 0 0 1-.874.186h-19a2.119 2.119 0 1 1 0-4.24h16.73a15.884 15.884 0 0 1 9.41-14.2 24.445 24.445 0 0 1-1.26-7.74 24.457 24.457 0 0 1 24.43-24.42 24.528 24.528 0 0 1 20.12 10.62 21.428 21.428 0 0 1 7-1.16 21.705 21.705 0 0 1 15.331 6.359 21.705 21.705 0 0 1 6.359 15.331c0 .5 0 1-.07 1.46a15.475 15.475 0 0 1 11.18 14.77c0 .43 0 .85-.06 1.28a2.125 2.125 0 0 1-2.05 1.91Z" fill="#24272D"/><path d="M396.79 344.05h-52.48a2.119 2.119 0 1 1 0-4.24h52.51a2.126 2.126 0 0 1 1.495.632 2.111 2.111 0 0 1 .61 1.503 2.126 2.126 0 0 1-.632 1.495 2.111 2.111 0 0 1-1.503.61Zm-69.74 14.35h-33.4a2.12 2.12 0 1 1 0-4.24h33.4a2.118 2.118 0 0 1 2.12 2.12 2.118 2.118 0 0 1-2.12 2.12Zm4.18-14.35h-10.34a2.12 2.12 0 1 1 0-4.24h10.34a2.115 2.115 0 0 1 2.12 2.12 2.118 2.118 0 0 1-2.12 2.12Z" fill="#24272D"/><path d="M174.81 24.6a2.15 2.15 0 0 0-1.72-1.44l-8.86-1.29-4-8a2.132 2.132 0 0 0-1.319-1.097 2.128 2.128 0 0 0-1.7.235 2.105 2.105 0 0 0-.781.862l-4 8-8.56 1.24-8.55-1.24-4-8a2.121 2.121 0 0 0-3.019-.861 2.121 2.121 0 0 0-.781.861l-4 8-8.56 1.24-8.56-1.24-4-8a2.108 2.108 0 0 0-1.9-1.18 2.13 2.13 0 0 0-1.9 1.18l-4 8-8.56 1.24-8.56-1.24-4-8a2.13 2.13 0 0 0-1.9-1.18 2.11 2.11 0 0 0-1.9 1.18l-4 8-8.56 1.24-8.56-1.24-4-8a2.12 2.12 0 0 0-3.8 0l-4 8-8.87 1.29a2.129 2.129 0 0 0-1.71 1.44 2.13 2.13 0 0 0 .54 2.18l6.41 6.25-1.51 8.82a2.13 2.13 0 0 0 .84 2.08 2.14 2.14 0 0 0 2.23.16l7.93-4.17 7.93 4.17c.31.16.652.242 1 .24.449.003.887-.137 1.25-.4a2.131 2.131 0 0 0 .84-2.08l-1.51-8.82 4.93-4.81L62 33.03l-1.52 8.82a2.13 2.13 0 0 0 .85 2.08c.36.263.795.403 1.24.4.348.002.69-.08 1-.24l7.93-4.17 7.92 4.17a2.149 2.149 0 0 0 2.24-.16 2.131 2.131 0 0 0 .84-2.08l-1.51-8.82 4.93-4.81 4.93 4.81-1.51 8.82a2.13 2.13 0 0 0 .84 2.08 2.149 2.149 0 0 0 2.24.16l7.92-4.17 7.93 4.17c.309.16.652.241 1 .24.445.003.88-.137 1.24-.4a2.134 2.134 0 0 0 .85-2.08l-1.52-8.82 4.94-4.81 4.93 4.81-1.51 8.82a2.135 2.135 0 0 0 .84 2.08c.364.263.801.403 1.25.4a2.15 2.15 0 0 0 1-.24l7.93-4.17 7.93 4.17a2.14 2.14 0 0 0 2.23-.16 2.122 2.122 0 0 0 .84-2.08l-1.51-8.82 4.93-4.81 4.94 4.81-1.52 8.82a2.133 2.133 0 0 0 .85 2.08 2.126 2.126 0 0 0 2.23.16l7.93-4.17 7.92 4.17c.309.16.652.241 1 .24a2.106 2.106 0 0 0 2.09-2.48l-1.51-8.82 6.41-6.26c.335-.24.593-.575.741-.96.147-.386.178-.807.089-1.21Zm-126.1 6.17a2.147 2.147 0 0 0-.61 1.88l1 5.69-5.11-2.69a2.16 2.16 0 0 0-1-.24c-.348-.002-.69.08-1 .24l-5.11 2.69 1-5.69a2.12 2.12 0 0 0-.61-1.88l-4.14-4 5.72-.83a2.13 2.13 0 0 0 1.59-1.16L43 19.6l2.56 5.18a2.11 2.11 0 0 0 1.59 1.16l5.72.83-4.16 4Zm28.85 0a2.12 2.12 0 0 0-.61 1.88l1 5.69-5.12-2.69a2.14 2.14 0 0 0-2 0l-5.11 2.69 1-5.69a2.122 2.122 0 0 0-.61-1.88l-4.13-4 5.71-.83a2.12 2.12 0 0 0 1.6-1.16l2.56-5.18 2.55 5.18a2.14 2.14 0 0 0 1.6 1.16l5.71.83-4.15 4Zm28.85 0a2.111 2.111 0 0 0-.61 1.88l1 5.69-5.11-2.69a2.155 2.155 0 0 0-1-.24 2.118 2.118 0 0 0-1 .24l-5.12 2.69 1-5.69a2.123 2.123 0 0 0-.61-1.88l-4.14-4 5.72-.83a2.141 2.141 0 0 0 1.6-1.16l2.55-5.18 2.56 5.18a2.112 2.112 0 0 0 1.6 1.16l5.71.83-4.15 4Zm28.84 0a2.111 2.111 0 0 0-.61 1.88l1 5.69-5.11-2.69a2.162 2.162 0 0 0-2 0l-5.11 2.69 1-5.69a2.153 2.153 0 0 0-.61-1.88l-4.14-4 5.72-.83a2.115 2.115 0 0 0 1.59-1.16l2.56-5.18 2.56 5.18a2.127 2.127 0 0 0 1.59 1.16l5.72.83-4.16 4Zm28.85 0a2.111 2.111 0 0 0-.61 1.88l1 5.69-5.12-2.69a2.147 2.147 0 0 0-1-.24 2.155 2.155 0 0 0-1 .24l-5.11 2.69 1-5.69a2.136 2.136 0 0 0-.6-1.88l-4.14-4 5.71-.83a2.116 2.116 0 0 0 1.6-1.16l2.56-5.18 2.55 5.18a2.147 2.147 0 0 0 1.6 1.16l5.71.83-4.15 4ZM81.03 173.28a2.116 2.116 0 0 1-1.962-1.307 2.107 2.107 0 0 1-.158-.813v-2.93a2.12 2.12 0 0 1 1.308-1.959 2.113 2.113 0 0 1 1.623 0 2.126 2.126 0 0 1 1.309 1.959v2.93a2.11 2.11 0 0 1-2.12 2.12Zm0 12.93a2.108 2.108 0 0 1-2.12-2.11v-2.94a2.12 2.12 0 0 1 4.24 0v2.94a2.116 2.116 0 0 1-1.31 1.952 2.124 2.124 0 0 1-.81.158Zm-4.99-7.93H73.1a2.115 2.115 0 0 1-1.96-1.308 2.116 2.116 0 0 1 .46-2.311 2.127 2.127 0 0 1 1.5-.621h2.94a2.114 2.114 0 0 1 1.96 1.308 2.117 2.117 0 0 1-1.148 2.771 2.133 2.133 0 0 1-.812.161Zm12.93 0h-2.94a2.113 2.113 0 0 1-1.5-.62 2.123 2.123 0 0 1 0-2.999 2.118 2.118 0 0 1 1.5-.621h2.94a2.116 2.116 0 0 1 2.082 2.533 2.117 2.117 0 0 1-1.27 1.546 2.13 2.13 0 0 1-.812.161ZM414.15 25.33a2.12 2.12 0 0 1-2.12-2.12v-2.94a2.113 2.113 0 0 1 .62-1.5 2.122 2.122 0 0 1 3.62 1.5v2.94a2.113 2.113 0 0 1-.62 1.5 2.122 2.122 0 0 1-1.5.62Zm0 12.93a2.123 2.123 0 0 1-2.12-2.12V33.2a2.117 2.117 0 0 1 3.619-1.5c.398.398.621.938.621 1.5v2.94a2.113 2.113 0 0 1-.62 1.5 2.122 2.122 0 0 1-1.5.62Zm-5-7.94h-2.94a2.11 2.11 0 0 1-1.961-2.923 2.115 2.115 0 0 1 1.148-1.149c.258-.106.534-.16.813-.158h2.94a2.11 2.11 0 0 1 2.12 2.12 2.114 2.114 0 0 1-2.12 2.11Zm12.93 0h-2.94a2.116 2.116 0 0 1-1.959-1.3 2.085 2.085 0 0 1-.161-.81 2.116 2.116 0 0 1 1.307-1.962c.258-.106.534-.16.813-.158h2.94a2.11 2.11 0 0 1 2.12 2.12 2.103 2.103 0 0 1-1.309 1.952c-.257.105-.533.16-.811.158Zm54.38 73.81a2.101 2.101 0 0 1-1.15-.35l-14.74-9.56h-3.78a2.124 2.124 0 0 1-.813-4.082c.258-.106.534-.16.813-.158h4.4c.412-.004.815.115 1.16.34l12 7.78v-6.05a2.143 2.143 0 0 1 2-2.14c11.84-.72 20.77-11.06 20.77-24.07 0-13.84-9.42-24.69-21.44-24.69h-24.44c-11.29 0-20.48 8.83-21.85 21a2.121 2.121 0 0 1-1.523 1.803 2.122 2.122 0 0 1-1.613-.184 2.113 2.113 0 0 1-1.074-2.089c1.62-14.35 12.58-24.77 26.06-24.77h24.44c14.4 0 25.67 12.71 25.67 28.93 0 14.56-9.65 26.28-22.75 28.1v8.07a2.143 2.143 0 0 1-1.11 1.86c-.315.173-.67.263-1.03.26Z" fill="#24272D" fill-opacity=".24"/><path d="M413.97 116.81a2.087 2.087 0 0 1-.94-.22 2.11 2.11 0 0 1-1.18-1.9v-6.22c-9.12-1.55-15.77-9.82-15.77-20 0-11.6 8.1-20.69 18.45-20.69h16.93c10.57 0 18.85 8.92 18.85 20.31 0 11.6-8.1 20.7-18.44 20.7h-6.6l-10 7.64c-.38.266-.837.399-1.3.38Zm.56-44.84c-8 0-14.21 7.22-14.21 16.45 0 8.67 5.93 15.55 13.78 16a2.107 2.107 0 0 1 2 2.11v3.85l7.17-5.48a2.15 2.15 0 0 1 1.29-.43h7.32c8 0 14.2-7.23 14.2-16.46 0-9-6.41-16.07-14.61-16.07l-16.94.03Z" fill="#24272D" fill-opacity=".24"/><path d="M430.31 94.96h-15.75a2.123 2.123 0 0 1-1.496-.621 2.102 2.102 0 0 1-.614-1.499 2.116 2.116 0 0 1 .615-1.495 2.116 2.116 0 0 1 1.495-.615h15.75a2.108 2.108 0 0 1 1.958 1.3 2.124 2.124 0 0 1-.193 1.99 2.099 2.099 0 0 1-1.765.94Zm-10.5-9.04h-5.29a2.105 2.105 0 0 1-1.495-.622 2.12 2.12 0 0 1-.615-1.498 2.107 2.107 0 0 1 2.11-2.12h5.29a2.123 2.123 0 0 1 1.458 3.597 2.123 2.123 0 0 1-1.458.643Zm60.57-27.38H449a2.12 2.12 0 0 1 0-4.24h31.38a2.122 2.122 0 0 1 1.499 3.62 2.12 2.12 0 0 1-1.499.62Zm0 9.27H467.1a2.12 2.12 0 0 1 0-4.24h13.28a2.12 2.12 0 1 1 0 4.24Zm0 9.28h-19.21a2.118 2.118 0 0 1-2.056-2.12 2.12 2.12 0 0 1 2.056-2.12h19.21a2.12 2.12 0 1 1 0 4.24ZM48.31 176.81a2.14 2.14 0 0 1-1.52-.64l-18.24-18.75a2.226 2.226 0 0 1-.29-.39 14.732 14.732 0 0 1-3.09-5.29 14.883 14.883 0 0 1 .89-11.39 14.846 14.846 0 0 1 8.69-7.41 14.865 14.865 0 0 1 13.56 2.26 14.866 14.866 0 0 1 6.503-2.793 14.868 14.868 0 0 1 7.057.533 14.94 14.94 0 0 1 9.58 18.8 14.699 14.699 0 0 1-3.09 5.3c-.082.137-.18.265-.29.38l-18.24 18.75a2.14 2.14 0 0 1-1.52.64Zm-16.41-22 16.41 16.87 16.41-16.88c.075-.11.158-.214.25-.31a10.52 10.52 0 0 0 2.45-4 10.698 10.698 0 0 0-6.86-13.46 10.67 10.67 0 0 0-10.77 2.53 2.112 2.112 0 0 1-2.313.463 2.106 2.106 0 0 1-.687-.463 10.657 10.657 0 0 0-10.77-2.53 10.644 10.644 0 0 0-6.22 5.31 10.634 10.634 0 0 0-.64 8.15 10.523 10.523 0 0 0 2.45 4c.105.089.201.186.29.29v.03Zm359.17-99.99a2.151 2.151 0 0 1-1.43-.56 2.121 2.121 0 0 1 1.837-3.65c.273.055.532.164.763.32.236.157.439.357.6.59a2.131 2.131 0 0 1-1.77 3.3Zm-8-6.91a2.088 2.088 0 0 1-1.3-.45 2.121 2.121 0 0 1-.446-2.927 2.114 2.114 0 0 1 2.916-.513 2.13 2.13 0 0 1 .952 1.77 2.118 2.118 0 0 1-1.334 1.968 2.123 2.123 0 0 1-.838.152h.05Zm-8.41-6.47c-.47 0-.926-.155-1.3-.44a2.112 2.112 0 0 1-.47-2.86 2.12 2.12 0 0 1 2.94-.59c.117.085.227.178.33.28a2.104 2.104 0 0 1 .463 2.313 2.12 2.12 0 0 1-.463.687 2.108 2.108 0 0 1-1.55.64l.05-.03Zm-8.75-6a2.141 2.141 0 0 1-1.18-.35 2.117 2.117 0 0 1-.467-3.108 2.128 2.128 0 0 1 2.817-.432 2.116 2.116 0 0 1 .58 2.94 2.11 2.11 0 0 1-1.8.98l.05-.03Zm-9.06-5.51a2.19 2.19 0 0 1-1.19-.36 2.117 2.117 0 0 1-.59-2.94 2.12 2.12 0 0 1 2.77-.7 2.132 2.132 0 0 1 .275 3.561c-.377.29-.84.444-1.315.439h.05Zm-9.35-5a1.997 1.997 0 0 1-.67-.11 2.084 2.084 0 0 1-.52-.25 2.132 2.132 0 0 1-.59-2.94 2.14 2.14 0 0 1 2.77-.69 2.12 2.12 0 0 1 1 2.54 2.12 2.12 0 0 1-2.04 1.43l.05.02Zm-9.61-4.49a2.138 2.138 0 0 1-.89-.2 2.117 2.117 0 0 1-.534-3.506 2.1 2.1 0 0 1 2.084-.434c.182.063.357.147.52.25a2.116 2.116 0 0 1 .58 2.94 2.129 2.129 0 0 1-1.81.98l.05-.03Zm-9.84-4a2 2 0 0 1-.8-.16 2.11 2.11 0 0 1-1.22-2.64 2.093 2.093 0 0 1 1.061-1.228 2.105 2.105 0 0 1 1.619-.112l.29.12a2.14 2.14 0 0 1 .95 2.85 2.132 2.132 0 0 1-1.95 1.2l.05-.03Zm-135.1-.33a2.12 2.12 0 0 1-2-1.45 2.11 2.11 0 0 1 1.22-2.64 2.11 2.11 0 0 1 2.69 1 2.1 2.1 0 0 1 .212.807 2.105 2.105 0 0 1-1.212 2.043l-.28.12a2.289 2.289 0 0 1-.68.13l.05-.01Zm125.06-3.09a1.852 1.852 0 0 1-.52-.07h-.17a2.127 2.127 0 0 1-1.34-2.69 2.132 2.132 0 0 1 2.992-1.21 2.118 2.118 0 0 1 1.088 2.4 2.12 2.12 0 0 1-2.1 1.58l.05-.01Zm-115-.28a2.132 2.132 0 0 1-2-1.45 2.13 2.13 0 0 1 1.34-2.69h.17a2.108 2.108 0 0 1 2.57 1.54 2.114 2.114 0 0 1-1.46 2.55 2.152 2.152 0 0 1-.68.06l.06-.01Zm104.79-2.59a2.28 2.28 0 0 1-.52-.06l-.16-.05a2.12 2.12 0 1 1 2.515-3.06c.272.472.352 1.03.225 1.56a2.128 2.128 0 0 1-2.12 1.62l.06-.01Zm-94.56-.23a2.11 2.11 0 0 1-2-1.45 2.122 2.122 0 0 1 1.34-2.68 2.12 2.12 0 0 1 2.307 3.365c-.318.38-.759.637-1.247.725-.15.037-.305.054-.46.05l.06-.01Zm84.2-2.08a2.123 2.123 0 0 1-2.02-2.79 2.122 2.122 0 0 1 2.41-1.41 2.12 2.12 0 0 1 1.73 2.08 2.11 2.11 0 0 1-2.18 2.13l.06-.01Zm-73.84-.17a2.14 2.14 0 0 1-2-1.45 2.133 2.133 0 0 1 .294-1.917 2.12 2.12 0 0 1 1.726-.883 2.12 2.12 0 0 1 2.12 2.12 2.122 2.122 0 0 1-1.73 2.09c-.155.03-.312.047-.47.05l.06-.01Zm63.38-1.56h-.24a2.127 2.127 0 0 1-1.777-1.402 2.13 2.13 0 0 1 .498-2.208 2.12 2.12 0 0 1 1.499-.62c.178 0 .356.02.53.06a2.131 2.131 0 0 1 .77 3.748 2.11 2.11 0 0 1-1.34.432l.06-.01Zm-52.9-.13a2.12 2.12 0 0 1-1.577-3.535 2.133 2.133 0 0 1 1.347-.695 2.146 2.146 0 0 1 2.29 1.6 2.12 2.12 0 0 1-1.54 2.57 2.32 2.32 0 0 1-.58.07l.06-.01Zm42.35-1h-.24a2.108 2.108 0 0 1-1.729-2.912 2.108 2.108 0 0 1 1.147-1.147c.258-.107.534-.161.812-.161a2.112 2.112 0 0 1 2.06 2.63 2.126 2.126 0 0 1-2.11 1.57l.06.02Zm-31.81-.08a2.12 2.12 0 0 1-1.575-3.54A2.12 2.12 0 0 1 244.4.67a2.138 2.138 0 0 1 2.29 1.59 2.135 2.135 0 0 1-1.54 2.58 2.332 2.332 0 0 1-.59.04l.06.02Zm21.21-.52a2.121 2.121 0 0 1-2.12-2.12 2.104 2.104 0 0 1 .614-1.498A2.12 2.12 0 0 1 265.82.14a2.123 2.123 0 0 1 2.12 2.12 2.13 2.13 0 0 1-1.348 1.955 2.12 2.12 0 0 1-.822.145l.06.02Zm-10.61 0a2.121 2.121 0 0 1-2.12-2.12 2.104 2.104 0 0 1 1.699-2.078 2.118 2.118 0 0 1 2.531 2.078 2.104 2.104 0 0 1-2.17 2.08l.06.04Zm218.75 199.76a2.111 2.111 0 0 1-2.114-1.912 2.108 2.108 0 0 1 .154-1.02 2.12 2.12 0 0 1 .79-.958 2.098 2.098 0 0 1 2.358 0c.231.156.429.357.582.59a2.101 2.101 0 0 1-.47 2.85c-.37.293-.828.451-1.3.45Zm7-7.87a2.13 2.13 0 0 1-1.718-.882 2.115 2.115 0 0 1-.292-1.908c.063-.182.147-.357.25-.52a2.116 2.116 0 0 1 2.177-.901c.273.056.532.165.763.321a2.097 2.097 0 0 1 .69 2.76 2.108 2.108 0 0 1-1.85 1.13h-.02Zm4-9.76a2.119 2.119 0 0 1-2.12-2.12 2.126 2.126 0 0 1 2.8-2.03 2.13 2.13 0 0 1 1.41 2.41 2.13 2.13 0 0 1-2.02 1.7l-.07.04Zm.93-10.53a2.105 2.105 0 0 1-2.05-1.61 2.223 2.223 0 0 1-.07-.52 2.119 2.119 0 0 1 3.541-1.576c.389.351.635.834.689 1.356a2.116 2.116 0 0 1-2.04 2.35h-.07Zm-2.82-10.14a2.127 2.127 0 0 1-1.19-3.89c.231-.156.491-.264.765-.318a2.098 2.098 0 0 1 2.175.908c.112.156.2.328.26.51a2.114 2.114 0 0 1-1.34 2.68 2.013 2.013 0 0 1-.6.11h-.07Zm-6.8-8.05a2.172 2.172 0 0 1-1.44-.56 2.134 2.134 0 0 1-.674-1.314 2.133 2.133 0 0 1 1.291-2.218 2.087 2.087 0 0 1 1.222-.118c.272.056.531.164.761.32.239.152.444.353.6.59.156.231.264.491.318.765a2.098 2.098 0 0 1-.908 2.175 2.118 2.118 0 0 1-1.14.36h-.03Zm-8.94-5.68a2.012 2.012 0 0 1-.67-.11 2.514 2.514 0 0 1-.52-.25 2.116 2.116 0 0 1-.633-2.85 2.121 2.121 0 0 1 2.813-.78 2.12 2.12 0 0 1 1 2.54 2.12 2.12 0 0 1-1.92 1.45h-.07Zm-9.13-5.39a2.092 2.092 0 0 1-1.3-.45 2.104 2.104 0 0 1-.47-2.85 2.116 2.116 0 0 1 1.348-.904 2.13 2.13 0 0 1 2.383 2.896 2.123 2.123 0 0 1-.461.688 2.107 2.107 0 0 1-1.4.62h-.1Zm-6.74-8a2.116 2.116 0 0 1-2-1.52 2.119 2.119 0 0 1 4.04-1.28 1.607 1.607 0 0 0 0 .17 2.127 2.127 0 0 1-1.97 2.63h-.07Zm1.81-10a2.15 2.15 0 0 1-1.5-.62 2.116 2.116 0 0 1-.614-1.368 2.113 2.113 0 0 1 .444-1.432 2.106 2.106 0 0 1 2.85-.47 2.11 2.11 0 0 1 .91 2.175 2.109 2.109 0 0 1-.32.765 2.856 2.856 0 0 1-.27.33 2.15 2.15 0 0 1-1.47.61l-.03.01Zm8.19-6.59a2.11 2.11 0 0 1-1.77-.95 2.126 2.126 0 0 1 .087-2.471 2.132 2.132 0 0 1 1.69-.827 2.117 2.117 0 0 1 2.003 1.448 2.11 2.11 0 0 1-1.13 2.6c-.255.117-.53.182-.81.19l-.07.01ZM48.2 119.12a2.134 2.134 0 0 1-1.852-3.11 2.127 2.127 0 0 1 1.212-1.04 2.134 2.134 0 0 1 2.68 1.34.847.847 0 0 0 0 .17 2.12 2.12 0 0 1-1.55 2.57c-.16.046-.324.069-.49.07Zm-.38-10.52a2.113 2.113 0 0 1-1.5-.62 2.12 2.12 0 0 1-.62-1.5 2.118 2.118 0 0 1 2.924-1.982 2.132 2.132 0 0 1-.804 4.102Zm3.1-10.12A2.112 2.112 0 0 1 49 95.47a2.132 2.132 0 0 1 2.6-1.13 2.13 2.13 0 0 1 1.34 2.69c-.065.178-.149.35-.25.51a2.141 2.141 0 0 1-1.77.93v.01Zm6-8.65a2.096 2.096 0 0 1-1.5-.62 2.122 2.122 0 0 1 0-3 2.13 2.13 0 0 1 3 0 2.12 2.12 0 0 1-1.47 3.62h-.03Zm9.18-5.1a2.11 2.11 0 0 1-2-1.6 2.12 2.12 0 0 1 1.46-2.55 2.12 2.12 0 0 1 1.28 4.04l-.17.05a2.334 2.334 0 0 1-.54.06h-.03Zm10.23-2.75a2.13 2.13 0 0 1-1.963-2.94 2.12 2.12 0 0 1 .783-.95c.163-.103.338-.187.52-.25a2.12 2.12 0 0 1 2.68 1.34 2.13 2.13 0 0 1-1.13 2.6 2.17 2.17 0 0 1-.86.2h-.03Zm7.06-7.45c-.175 0-.35-.02-.52-.06a2.13 2.13 0 0 1-1.54-2.57.833.833 0 0 1 0-.17 2.11 2.11 0 0 1 2.68-1.34 2.12 2.12 0 0 1 1.36 2.62 2.13 2.13 0 0 1-1.95 1.52h-.03Zm-1.27-10.26a2.13 2.13 0 0 1-2.127-2.08 2.13 2.13 0 0 1 1.712-2.136 2.12 2.12 0 0 1 2.175.906c.103.163.187.337.25.52a2.122 2.122 0 0 1-1.98 2.79h-.03Zm160.9 286.12a11.188 11.188 0 0 0-8.55-7.43 11.21 11.21 0 0 0-4.376.047c-1.442.304-2.809.89-4.024 1.723a11.215 11.215 0 0 0-7.18-4.7 11.254 11.254 0 0 0-10.67 3.83 2.105 2.105 0 0 0 .27 3 2.117 2.117 0 0 0 3-.26 7 7 0 0 1 6.64-2.38 7 7 0 0 1 5.32 4.62v.06c.072.176.163.343.27.5v.05c.096.123.203.236.32.34l.1.06.11.08c.145.098.303.176.47.23.18.046.364.073.55.08h.31c.099-.01.196-.03.29-.06h.16l.15-.07c.136-.051.265-.121.38-.21l.15-.1.18-.18a.956.956 0 0 0 .09-.09 6.997 6.997 0 0 1 6.63-2.38 7.009 7.009 0 0 1 3.286 1.596 7.01 7.01 0 0 1 2.034 3.034 2.12 2.12 0 0 0 2 1.44c.231-.003.46-.04.68-.11a2.09 2.09 0 0 0 1.29-1.057 2.112 2.112 0 0 0 .12-1.663Z" fill="#24272D" fill-opacity=".24"/><path d="M125.79 197.41a134.217 134.217 0 0 1 17.17-65.74 2.13 2.13 0 0 0 .189-1.611 2.127 2.127 0 0 0-.999-1.279 2.127 2.127 0 0 0-2.89.81 138.504 138.504 0 0 0-17.71 67.82c.01 7.835.679 15.656 2 23.38h4.3a135.646 135.646 0 0 1-2.06-23.38Zm271.76 15.81a2.114 2.114 0 0 0-1.08-2.098 2.121 2.121 0 0 0-.79-.252 2.13 2.13 0 0 0-2.34 1.87c-.31 2.69-.7 5.38-1.17 8h4.29c.43-2.46.85-4.99 1.09-7.52Z" fill="#24272D"/></svg>