<svg width="520" height="380" fill="none" xmlns="http://www.w3.org/2000/svg"><g clip-path="url(#a)"><path d="M516.49 146.7a13.847 13.847 0 0 0-10.44-4.52h-64.84a2.133 2.133 0 0 0-2.12 1.91l-9.07 86.36a2.133 2.133 0 0 0 2.11 2.36h78a2.13 2.13 0 0 0 2.12-1.91l4.36-41.48a2.097 2.097 0 0 0-.45-1.54l-2.75-3.48 2.61-24.83h1.81a2.13 2.13 0 0 0 2.12-1.91 14.004 14.004 0 0 0-3.46-10.96Z" fill="#FAF9F7"/><path d="M417.32 202.02a2.135 2.135 0 0 0-.714-.524 2.133 2.133 0 0 0-.866-.186h-211.6a2.13 2.13 0 0 0-2.12 1.91l-2.59 24.64a2.173 2.173 0 0 0 .54 1.65 2.098 2.098 0 0 0 1.58.7h211.6a2.127 2.127 0 0 0 2.12-1.9l2.59-24.65a2.119 2.119 0 0 0-.54-1.64Z" fill="#6E5BFF"/><path d="M515.66 156.01a2.148 2.148 0 0 0-1.59-.7h-31.75a2.132 2.132 0 0 0-2.12 1.91l-2.69 25.63a2.123 2.123 0 0 0 2.12 2.35h31.75a2.134 2.134 0 0 0 2.12-1.91l2.69-25.63a2.167 2.167 0 0 0-.53-1.65Z" fill="#6E5BFF" fill-opacity=".24"/><path d="M327.41 259.63H160.95a2.127 2.127 0 0 1-2.13-2.13 2.127 2.127 0 0 1 2.13-2.13h166.5a2.127 2.127 0 0 1 2.13 2.13 2.127 2.127 0 0 1-2.13 2.13h-.04ZM139.57 258.19h-12.21a2.13 2.13 0 0 1 0-4.26h12.21a2.127 2.127 0 0 1 2.13 2.13 2.127 2.127 0 0 1-2.13 2.13ZM477.19 259.63h-52.32a2.127 2.127 0 0 1-2.13-2.13 2.127 2.127 0 0 1 2.13-2.13h52.32a2.127 2.127 0 0 1 2.13 2.13 2.13 2.13 0 0 1-2.13 2.13ZM411.03 259.63h-14a2.127 2.127 0 0 1-2.13-2.13 2.127 2.127 0 0 1 2.13-2.13h14a2.127 2.127 0 0 1 2.13 2.13 2.127 2.127 0 0 1-2.13 2.13Z" fill="#24272D"/><path d="M496.57 134.33s-16.23-20.59-52.15-20.59l-2.16 20.59h54.31Z" fill="#fff"/><path d="M496.57 136.46h-54.31a2.128 2.128 0 0 1-1.579-.707 2.128 2.128 0 0 1-.541-1.643l2.16-20.6a2.13 2.13 0 0 1 2.12-1.9c36.53 0 53.14 20.53 53.82 21.4a2.134 2.134 0 0 1 .246 2.248 2.136 2.136 0 0 1-1.916 1.202Zm-51.95-4.26h46.85c-6.2-5.53-20.92-15.79-45.13-16.31l-1.72 16.31Z" fill="#fff"/><path d="M495.05 126.19c-.69-.88-17.29-21.4-53.82-21.4a2.134 2.134 0 0 0-2.12 1.9l-2.16 20.5a2.136 2.136 0 0 0 .53 1.65 2.137 2.137 0 0 0 1.58.71h54.32a2.132 2.132 0 0 0 2.116-2.361 2.134 2.134 0 0 0-.446-1.089v.09Z" fill="#6E5BFF" fill-opacity=".64"/><path d="M496.57 136.46h-54.31a2.128 2.128 0 0 1-1.579-.707 2.128 2.128 0 0 1-.541-1.643l2.16-20.6a2.13 2.13 0 0 1 2.12-1.9c36.53 0 53.14 20.53 53.82 21.4a2.134 2.134 0 0 1 .246 2.248 2.136 2.136 0 0 1-1.916 1.202Zm-51.95-4.26h46.85c-6.2-5.53-20.92-15.79-45.13-16.31l-1.72 16.31ZM432.72 227.25h-.22a2.129 2.129 0 0 1-1.9-2.34l8.49-80.81a2.128 2.128 0 0 1 2.12-1.91h64.84a13.847 13.847 0 0 1 10.44 4.52 13.983 13.983 0 0 1 2.899 5.131 13.98 13.98 0 0 1 .531 5.869 2.13 2.13 0 0 1-2.12 1.91h-33.56l-2.35 22.28 16.37 8.53a2.132 2.132 0 0 1 1.13 2.11l-1 9.2a2.136 2.136 0 0 1-.776 1.435 2.128 2.128 0 0 1-2.998-.312 2.128 2.128 0 0 1-.466-1.563l.82-7.76-16.37-8.53a2.153 2.153 0 0 1-1.13-2.11l2.69-25.63a2.133 2.133 0 0 1 2.12-1.91h33.4a9.408 9.408 0 0 0-9.67-8.87h-62.92l-8.29 78.91a2.13 2.13 0 0 1-2.08 1.85Z" fill="#24272D"/><path d="M435.95 94.68a2.126 2.126 0 0 0-1.58-.71H191.46a2.128 2.128 0 0 0-2.12 1.91l-12.28 116.87a2.102 2.102 0 0 0 .53 1.64 2.133 2.133 0 0 0 1.58.71h242.92a2.13 2.13 0 0 0 2.12-1.91l12.28-116.87a2.107 2.107 0 0 0-.54-1.64Z" fill="#FAF9F7"/><path d="M185.32 85.88h234.36a4.25 4.25 0 0 1 4.23 4.7l-11.38 108.35a4.257 4.257 0 0 1-4.24 3.81H173.95a4.268 4.268 0 0 1-3.166-1.407 4.255 4.255 0 0 1-1.074-3.293l11.38-108.35a4.252 4.252 0 0 1 4.23-3.81Z" fill="#6E5BFF"/><path d="M408.29 204.87H173.95a6.378 6.378 0 0 1-6.35-7.06l11.35-108.34a6.37 6.37 0 0 1 6.35-5.72h234.36a6.39 6.39 0 0 1 6.35 7.05l-11.37 108.39a6.371 6.371 0 0 1-6.35 5.68Zm-223-116.86a2.109 2.109 0 0 0-2.11 1.9l-11.39 108.35a2.133 2.133 0 0 0 1.255 2.17c.272.121.567.182.865.18h234.35a2.127 2.127 0 0 0 2.12-1.9l11.38-108.35a2.08 2.08 0 0 0-.53-1.65 2.112 2.112 0 0 0-1.58-.7H185.29Z" fill="#6E5BFF"/><path d="M319.87 146.03a3.92 3.92 0 0 1-3.53-1.72 2.134 2.134 0 0 0-2.18-.922 2.12 2.12 0 0 0-1.362.895 2.113 2.113 0 0 0-.33 1.597c.052.275.158.536.312.77a8 8 0 0 0 4.85 3.4l-.11 1a2.131 2.131 0 0 0 1.89 2.34h.23a2.12 2.12 0 0 0 2.11-1.91l.15-1.43c3.72-.68 6.64-3.27 7-6.45a5.78 5.78 0 0 0-1.51-4.49 8.51 8.51 0 0 0-6.41-2.59 4.398 4.398 0 0 1-3.25-1.18 1.51 1.51 0 0 1-.44-1.2c.14-1.33 2.1-2.82 4.77-2.82a3.995 3.995 0 0 1 3.53 1.71 2.134 2.134 0 0 0 3.613.102 2.138 2.138 0 0 0-.053-2.432 8 8 0 0 0-4.83-3.4l.1-1a2.136 2.136 0 0 0-.41-1.637 2.137 2.137 0 0 0-1.472-.824 2.126 2.126 0 0 0-2.136 1.186 2.142 2.142 0 0 0-.212.835l-.15 1.42c-3.73.68-6.65 3.27-7 6.46a5.762 5.762 0 0 0 1.5 4.49 8.56 8.56 0 0 0 6.42 2.59 4.418 4.418 0 0 1 3.25 1.18 1.497 1.497 0 0 1 .43 1.2c-.14 1.34-2.1 2.83-4.77 2.83ZM301.95 130.51h4.58a2.127 2.127 0 0 0 2.13-2.13 2.127 2.127 0 0 0-2.13-2.13h-4.58a2.127 2.127 0 0 0-2.13 2.13 2.127 2.127 0 0 0 2.13 2.13ZM301.03 139.68h4.58a2.127 2.127 0 0 0 2.13-2.13 2.127 2.127 0 0 0-2.13-2.13h-4.58a2.127 2.127 0 0 0-2.13 2.13 2.127 2.127 0 0 0 2.13 2.13ZM300.06 148.85h4.59a2.127 2.127 0 0 0 2.13-2.13 2.127 2.127 0 0 0-2.13-2.13h-4.59a2.127 2.127 0 0 0-2.13 2.13 2.127 2.127 0 0 0 2.13 2.13Z" fill="#FAF9F7"/><path d="M343.69 148.25a3.93 3.93 0 0 0-2.62-1.66 4.215 4.215 0 0 0-2.27.26l2.53-24.11a6.068 6.068 0 0 0-6.1-6.81h-38a7.157 7.157 0 0 0-7 6.36l-2.6 24.74a3.999 3.999 0 0 0-1.93-.5 4.524 4.524 0 0 0-4.45 4l-2.85 27.2a5.828 5.828 0 0 0 1.447 4.618 5.834 5.834 0 0 0 4.433 1.942h50.47a6.88 6.88 0 0 0 6.76-6.11l2.86-27.2a4.106 4.106 0 0 0-.68-2.73Zm-49.22-25.51a2.919 2.919 0 0 1 2.8-2.55h38a1.88 1.88 0 0 1 1.42.59 1.913 1.913 0 0 1 .45 1.51l-2.9 27.6a.482.482 0 0 0 0 .12l-19 13.91a6.251 6.251 0 0 1-7.74.11l-15.88-13.74 2.85-27.55Zm42.81 55a2.64 2.64 0 0 1-2.53 2.3h-50.47a1.645 1.645 0 0 1-1.26-.52 1.69 1.69 0 0 1-.39-1.33l2.86-27.2a.297.297 0 0 1 .06-.112.283.283 0 0 1 .1-.078l12.16 10.53-7.33 6.64a2.126 2.126 0 0 0-.559 2.346 2.134 2.134 0 0 0 1.989 1.364 2.168 2.168 0 0 0 1.43-.55l7.72-7 3.61 3.12c3.55 3 8.91 3.09 13 .1l4.38-3.21 6.1 6.82c.199.223.442.401.714.524.273.122.568.185.866.186a2.08 2.08 0 0 0 1.42-.55c.209-.185.379-.41.5-.662a2.103 2.103 0 0 0 .092-1.624 2.116 2.116 0 0 0-.422-.714l-5.81-6.5 14.55-10.66-2.78 26.78Zm2.9-27.08c0-.06-.05-.11 0-.12v.09l-1.11-1.51 1.35 1.67a.36.36 0 0 1-.24-.13Z" fill="#FAF9F7"/><path d="M418.26 215.1H183.95a6.38 6.38 0 0 1-6.073-4.418c-.277-.852-.371-1.752-.277-2.642l11.35-108.35a6.37 6.37 0 0 1 6.35-5.72h234.35a6.392 6.392 0 0 1 6.35 7.06l-11.38 108.35a6.378 6.378 0 0 1-6.36 5.72ZM195.29 98.19a2.128 2.128 0 0 0-2.12 1.91l-11.38 108.39a2.057 2.057 0 0 0 .53 1.64 2.081 2.081 0 0 0 1.58.71h234.36a2.12 2.12 0 0 0 2.11-1.91l11.39-108.35a2.101 2.101 0 0 0-.54-1.64 2.061 2.061 0 0 0-1.58-.71l-234.35-.04ZM243.95 247.81a2.119 2.119 0 0 1-2.12-2 27.265 27.265 0 0 1 .08-4.94 30.202 30.202 0 0 1 7.59-17 2.13 2.13 0 0 1 3.18 2.82 26.067 26.067 0 0 0-6.54 14.57 23.439 23.439 0 0 0-.07 4.18 2.132 2.132 0 0 1-2 2.29l-.12.08ZM436.73 239.74h-96.91a2.127 2.127 0 0 1-2.13-2.13 2.127 2.127 0 0 1 2.13-2.13h96.91a2.127 2.127 0 0 1 2.13 2.13 2.127 2.127 0 0 1-2.13 2.13Z" fill="#24272D"/><path d="M244.43 239.74h-32.48a2.137 2.137 0 0 1-1.583-.703 2.128 2.128 0 0 1-.537-1.647l1.34-12.71a2.13 2.13 0 0 1 4.23.45l-1.09 10.35h30.08a2.127 2.127 0 0 1 2.13 2.13 2.127 2.127 0 0 1-2.13 2.13h.04ZM510.1 232.81h-19.85a2.13 2.13 0 0 1 0-4.26h17.94l4.06-38.71-2.75-3.48a2.143 2.143 0 0 1-.44-1.54l2.9-27.6a2.124 2.124 0 0 1 1.491-1.936c.277-.086.569-.116.857-.086a2.125 2.125 0 0 1 1.472.825 2.136 2.136 0 0 1 .41 1.637l-2.81 26.74 2.75 3.48c.348.433.51.987.45 1.54l-4.36 41.48a2.13 2.13 0 0 1-2.12 1.91ZM508.89 244.34h-18.4a2.127 2.127 0 0 1-2.13-2.13 2.127 2.127 0 0 1 2.13-2.13h18.4a2.13 2.13 0 0 1 0 4.26Z" fill="#24272D"/><path d="M474.744 252.412c6.913-6.571 7.72-16.944 1.803-23.169-5.917-6.224-16.317-5.943-23.23.629-6.913 6.571-7.72 16.944-1.803 23.169 5.917 6.224 16.317 5.943 23.23-.629Z" fill="#FAF9F7"/><path d="M462.31 259.63a16.715 16.715 0 0 1-12.63-5.47 16.91 16.91 0 0 1-4.15-13.26 20.847 20.847 0 0 1 20.22-18.3 16.616 16.616 0 0 1 16.172 11.687 16.62 16.62 0 0 1 .608 7.053 20.841 20.841 0 0 1-20.22 18.29Zm3.44-32.77a16.49 16.49 0 0 0-16 14.48 12.659 12.659 0 0 0 3.07 10 12.514 12.514 0 0 0 9.47 4.06 16.49 16.49 0 0 0 16-14.47 12.71 12.71 0 0 0-3.08-10 12.55 12.55 0 0 0-9.46-4.07Z" fill="#24272D"/><path d="M322.495 252.404c6.913-6.572 7.72-16.945 1.803-23.169-5.917-6.225-16.318-5.943-23.231.628-6.912 6.572-7.72 16.945-1.803 23.169 5.917 6.225 16.318 5.943 23.231-.628Z" fill="#FAF9F7"/><path d="M310.06 259.63a16.6 16.6 0 0 1-12.679-5.521 16.593 16.593 0 0 1-4.091-13.209 20.852 20.852 0 0 1 20.22-18.3 16.602 16.602 0 0 1 12.675 5.531 16.622 16.622 0 0 1 3.488 6.158c.706 2.279.913 4.684.607 7.051a20.83 20.83 0 0 1-20.22 18.29Zm3.45-32.77a16.486 16.486 0 0 0-16 14.48 12.659 12.659 0 0 0 3.07 10 12.538 12.538 0 0 0 9.47 4.06 16.49 16.49 0 0 0 16-14.47 12.686 12.686 0 0 0-.458-5.331 12.686 12.686 0 0 0-2.612-4.669 12.568 12.568 0 0 0-9.47-4.07Z" fill="#24272D"/><path d="M282.009 252.411c6.913-6.572 7.72-16.945 1.803-23.169-5.917-6.225-16.318-5.943-23.231.628-6.913 6.572-7.72 16.945-1.803 23.169 5.917 6.225 16.318 5.943 23.231-.628Z" fill="#FAF9F7"/><path d="M269.57 259.63a16.6 16.6 0 0 1-12.679-5.521A16.584 16.584 0 0 1 252.8 240.9a20.852 20.852 0 0 1 20.22-18.3 16.622 16.622 0 0 1 16.78 18.74 20.848 20.848 0 0 1-20.23 18.29Zm3.45-32.77a16.486 16.486 0 0 0-16 14.48 12.635 12.635 0 0 0 3.08 10 12.495 12.495 0 0 0 9.46 4.06 16.488 16.488 0 0 0 16-14.47 12.686 12.686 0 0 0-.458-5.331 12.686 12.686 0 0 0-2.612-4.669 12.552 12.552 0 0 0-9.47-4.07ZM464.03 243.25a2.087 2.087 0 0 1-1.5-.63 2.072 2.072 0 0 1-.63-1.5c-.01-.14-.01-.28 0-.42 0-.13.08-.27.13-.4.049-.127.113-.248.19-.36.076-.121.167-.232.27-.33a2.174 2.174 0 0 1 1.92-.58c.137.026.271.066.4.12a2.029 2.029 0 0 1 .95.79c.08.112.147.233.2.36.054.129.094.263.12.4.015.14.015.28 0 .42.002.278-.052.554-.16.81a2.195 2.195 0 0 1-.46.69c-.197.2-.432.36-.69.47a2.094 2.094 0 0 1-.74.16ZM311.78 243.25a2.063 2.063 0 0 1-1.5-.63 1.906 1.906 0 0 1-.46-.69 2.047 2.047 0 0 1-.16-.81 1.966 1.966 0 0 1 0-.42c.026-.137.066-.271.12-.4.053-.125.117-.246.19-.36.082-.116.172-.227.27-.33.101-.1.212-.191.33-.27.112-.077.233-.141.36-.19a2.12 2.12 0 0 1 .39-.12 2.176 2.176 0 0 1 1.93.58c.101.101.191.211.27.33.07.12.13.23.19.36.06.13.09.27.13.4.01.14.01.28 0 .42a2.067 2.067 0 0 1-.63 1.5 2.277 2.277 0 0 1-.69.47 2.073 2.073 0 0 1-.74.16Z" fill="#24272D"/><path d="M471.7 223.63a17.685 17.685 0 0 0-6-1 20.853 20.853 0 0 0-20.22 18.3 16.91 16.91 0 0 0 4.15 13.26 16.715 16.715 0 0 0 12.63 5.47 19.335 19.335 0 0 0 6.09-1 2.122 2.122 0 0 0 0-4 12.356 12.356 0 0 1-8-13.26 16.581 16.581 0 0 1 11.24-13.68 2.125 2.125 0 0 0 1.397-2 2.131 2.131 0 0 0-1.397-2l.11-.09ZM319.45 223.63a17.567 17.567 0 0 0-5.94-1 20.853 20.853 0 0 0-20.22 18.3 16.594 16.594 0 0 0 9.828 17.354 16.6 16.6 0 0 0 6.942 1.376 19.34 19.34 0 0 0 6.09-1 2.132 2.132 0 0 0 0-4 12.349 12.349 0 0 1-8-13.26 16.545 16.545 0 0 1 11.24-13.68 2.125 2.125 0 0 0 1.397-2 2.131 2.131 0 0 0-1.397-2l.06-.09ZM278.95 223.63a17.567 17.567 0 0 0-5.94-1 20.853 20.853 0 0 0-20.22 18.3 16.594 16.594 0 0 0 9.828 17.354 16.6 16.6 0 0 0 6.942 1.376 19.34 19.34 0 0 0 6.09-1 2.132 2.132 0 0 0 0-4 12.349 12.349 0 0 1-8-13.26 16.546 16.546 0 0 1 11.3-13.74 2.132 2.132 0 0 0 0-4v-.03Z" fill="#6E5BFF" fill-opacity=".16"/><path d="M271.29 243.25a2.101 2.101 0 0 1-1.5-.63 2.054 2.054 0 0 1-.47-.69 2.247 2.247 0 0 1-.16-.81 1.477 1.477 0 0 1 0-.42c.027-.136.064-.269.11-.4.06-.125.131-.246.21-.36a1.63 1.63 0 0 1 .26-.33c.102-.095.209-.185.32-.27.118-.073.242-.137.37-.19.128-.055.263-.095.4-.12.274-.05.556-.05.83 0 .137.025.272.065.4.12.128.053.252.117.37.19.11.09.22.17.33.27.095.101.178.212.25.33.084.11.151.231.2.36.058.127.099.262.12.4.015.14.015.28 0 .42.002.278-.052.554-.16.81-.1.259-.254.494-.45.69-.203.198-.44.357-.7.47a1.995 1.995 0 0 1-.73.16ZM462.31 259.63a16.715 16.715 0 0 1-12.63-5.47 16.91 16.91 0 0 1-4.15-13.26 20.847 20.847 0 0 1 20.22-18.3 16.616 16.616 0 0 1 16.172 11.687 16.62 16.62 0 0 1 .608 7.053 20.841 20.841 0 0 1-20.22 18.29Zm3.44-32.77a16.49 16.49 0 0 0-16 14.48 12.659 12.659 0 0 0 3.07 10 12.514 12.514 0 0 0 9.47 4.06 16.49 16.49 0 0 0 16-14.47 12.71 12.71 0 0 0-3.08-10 12.55 12.55 0 0 0-9.46-4.07ZM310.06 259.63a16.6 16.6 0 0 1-12.679-5.521 16.593 16.593 0 0 1-4.091-13.209 20.852 20.852 0 0 1 20.22-18.3 16.602 16.602 0 0 1 12.675 5.531 16.622 16.622 0 0 1 3.488 6.158c.706 2.279.913 4.684.607 7.051a20.83 20.83 0 0 1-20.22 18.29Zm3.45-32.77a16.486 16.486 0 0 0-16 14.48 12.659 12.659 0 0 0 3.07 10 12.538 12.538 0 0 0 9.47 4.06 16.49 16.49 0 0 0 16-14.47 12.686 12.686 0 0 0-.458-5.331 12.686 12.686 0 0 0-2.612-4.669 12.568 12.568 0 0 0-9.47-4.07Z" fill="#24272D"/><path d="M269.57 259.63a16.6 16.6 0 0 1-12.679-5.521A16.584 16.584 0 0 1 252.8 240.9a20.852 20.852 0 0 1 20.22-18.3 16.622 16.622 0 0 1 16.78 18.74 20.848 20.848 0 0 1-20.23 18.29Zm3.45-32.77a16.486 16.486 0 0 0-16 14.48 12.635 12.635 0 0 0 3.08 10 12.495 12.495 0 0 0 9.46 4.06 16.488 16.488 0 0 0 16-14.47 12.686 12.686 0 0 0-.458-5.331 12.686 12.686 0 0 0-2.612-4.669 12.552 12.552 0 0 0-9.47-4.07Z" fill="#24272D"/><path d="m13.58 290.19-10-5.27L3 274.37c-.19-3.57-.42-7.14-.62-10.71-.17-2.93-.11-5.79 1.83-8 2.67-3 6.84-4.42 10.78-5.25l16.77-3.21 25.48-34.75a13.384 13.384 0 0 1 10.48-4.55h150.23a5.676 5.676 0 0 1 4.81 5.08l7.57 72.09a4.385 4.385 0 0 1-3.74 5.08h-213l-.01.04Z" fill="#FAF9F7"/><path d="M226.59 292.31h-213a2.102 2.102 0 0 1-1-.25l-10-5.26a2.143 2.143 0 0 1-1.14-1.77l-.57-10.56-.39-6.74-.24-4c-.18-3.11-.16-6.67 2.38-9.5s6.42-4.75 11.92-5.91l16-3.06 25-34.08a15.452 15.452 0 0 1 12.19-5.41h150.47a7.737 7.737 0 0 1 6.66 7l7.58 72.09a6.467 6.467 0 0 1-1.225 4.889 6.47 6.47 0 0 1-4.365 2.521l-.27.04Zm-212.48-4.26h212.31c.79-.15 2-.72 1.79-2.73l-7.57-72.08a3.474 3.474 0 0 0-2.85-3.18H67.73a11.224 11.224 0 0 0-8.78 3.71l-25.46 34.72a2.1 2.1 0 0 1-1.32.83l-16.77 3.21c-4.54 1-7.69 2.46-9.59 4.58-1.31 1.46-1.47 3.46-1.3 6.42l.24 3.94c.13 2.26.27 4.51.39 6.77l.51 9.35 8.46 4.46Z" fill="#fff"/><path d="m239.42 276.53-7.58-72.08a7.749 7.749 0 0 0-6.67-7H74.7a15.479 15.479 0 0 0-12.2 5.42l-25 34.07-16 3.06c-5.5 1.16-9.4 3.1-11.92 5.91-2.52 2.81-2.56 6.39-2.38 9.51l.23 4c.14 2.253.27 4.503.39 6.75l.58 10.56a2.128 2.128 0 0 0 1.13 1.77l10 5.26c.308.162.652.244 1 .24h213.29a6.47 6.47 0 0 0 5.6-7.47Z" fill="#fff"/><path d="m239.42 276.53-7.58-72.08a7.749 7.749 0 0 0-6.67-7H74.7a15.479 15.479 0 0 0-12.2 5.42l-25 34.07-16 3.06c-5.5 1.16-9.4 3.1-11.92 5.91-2.52 2.81-2.56 6.39-2.38 9.51l.23 4c.14 2.253.27 4.503.39 6.75l.58 10.56a2.128 2.128 0 0 0 1.13 1.77l10 5.26c.308.162.652.244 1 .24h213.29a6.47 6.47 0 0 0 5.6-7.47Z" fill="#6E5BFF" fill-opacity=".64"/><path d="M160.16 255.07h-4.83a2.13 2.13 0 0 1-2.12-1.91l-1.7-16.13a2.132 2.132 0 0 1 1.254-2.167c.272-.121.568-.183.866-.183h4.84a11.372 11.372 0 0 1 11 10 9.249 9.249 0 0 1-9.34 10.42l.03-.03Zm-2.92-4.26h2.92a5.004 5.004 0 0 0 4.938-3.553c.21-.699.266-1.435.162-2.157a7 7 0 0 0-6.79-6.16h-2.52l1.29 11.87Z" fill="#FAF9F7"/><path d="M127.31 264.75a2.06 2.06 0 0 1-.87-.19 2.124 2.124 0 0 1-1.25-1.72l-3.72-35.49a2.129 2.129 0 0 1 3.24-2l2.61 1.63a49.802 49.802 0 0 0 26.31 7.73 2.13 2.13 0 0 1 2.12 1.91l1.69 16.13a2.11 2.11 0 0 1-1.247 2.164 2.16 2.16 0 0 1-.863.186 41.783 41.783 0 0 0-24.51 7.65l-2.27 1.63a2.148 2.148 0 0 1-1.24.37Zm-1.16-33.56 2.9 27.53a45.8 45.8 0 0 1 23.92-7.89l-1.26-12a54.264 54.264 0 0 1-25.56-7.64Z" fill="#FAF9F7"/><path d="M151.67 266.36a2.12 2.12 0 0 1-1.54-3.59 12.11 12.11 0 0 0 2.591-4.468c.531-1.659.698-3.413.489-5.142a2.136 2.136 0 0 1 .41-1.637 2.137 2.137 0 0 1 2.329-.739 2.125 2.125 0 0 1 1.279 1.101c.127.261.199.545.212.835a16.29 16.29 0 0 1-4.22 13 2.137 2.137 0 0 1-1.55.64ZM114.34 247h-4.47a2.127 2.127 0 0 1-2.099-1.276 2.122 2.122 0 0 1 0-1.698c.116-.267.286-.508.499-.708a2.145 2.145 0 0 1 1.6-.568h4.47a2.132 2.132 0 0 1 1.984 2.125A2.133 2.133 0 0 1 114.34 247ZM115.52 258.27a2.128 2.128 0 0 1-1.931-2.985 2.13 2.13 0 0 1 .931-1.015l2.29-1.25a2.134 2.134 0 0 1 2.702.96 2.13 2.13 0 0 1-.702 2.78l-2.29 1.25c-.306.169-.65.258-1 .26ZM115.7 236.99c-.323 0-.641-.075-.93-.22l-2.56-1.25a2.117 2.117 0 0 1-1.129-1.221 2.126 2.126 0 0 1 .093-1.661 2.13 2.13 0 0 1 2.916-.938l2.55 1.25a2.134 2.134 0 0 1 1.056 2.359c-.107.454-.36.861-.72 1.158a2.135 2.135 0 0 1-1.276.483v.04Z" fill="#FAF9F7"/><path d="M90.84 218.89a2.125 2.125 0 0 0-1.54-.65H51.47a2.125 2.125 0 0 0-1.72.87l-17.54 23.92a2.132 2.132 0 0 0 .604 3.076c.336.206.722.314 1.116.314h40a16.102 16.102 0 0 0 14.95-9.4c2.21-4.58 2.35-9.53 2.5-14.32 0-.75 0-1.5.07-2.25a2.149 2.149 0 0 0-.61-1.56Z" fill="#fff"/><path d="M90.84 218.89a2.125 2.125 0 0 0-1.54-.65H51.47a2.125 2.125 0 0 0-1.72.87l-17.54 23.92a2.132 2.132 0 0 0 .604 3.076c.336.206.722.314 1.116.314h40a16.102 16.102 0 0 0 14.95-9.4c2.21-4.58 2.35-9.53 2.5-14.32 0-.75 0-1.5.07-2.25a2.149 2.149 0 0 0-.61-1.56Z" fill="#6E5BFF" fill-opacity=".32"/><path d="M206.33 309.76H163.6a2.127 2.127 0 0 1-2.13-2.13 2.127 2.127 0 0 1 2.13-2.13h42.73a2.127 2.127 0 0 1 2.13 2.13 2.127 2.127 0 0 1-2.13 2.13ZM242.05 309.76h-20.83a2.127 2.127 0 0 1-2.13-2.13 2.127 2.127 0 0 1 2.13-2.13h20.83a2.127 2.127 0 0 1 2.13 2.13 2.127 2.127 0 0 1-2.13 2.13ZM83.88 309.76H23.26a2.128 2.128 0 0 1-2.13-2.13 2.129 2.129 0 0 1 2.13-2.13h60.62a2.128 2.128 0 0 1 2.13 2.13 2.129 2.129 0 0 1-2.13 2.13ZM110.17 309.76H99.83a2.128 2.128 0 0 1-2.13-2.13 2.128 2.128 0 0 1 2.13-2.13h10.34a2.127 2.127 0 0 1 2.13 2.13 2.127 2.127 0 0 1-2.13 2.13ZM153.95 292.31h-92.5a2.128 2.128 0 0 1-2.13-2.13 2.129 2.129 0 0 1 2.13-2.13h92.5a2.127 2.127 0 0 1 2.13 2.13 2.127 2.127 0 0 1-2.13 2.13Z" fill="#24272D"/><path d="M13.58 292.31a2.054 2.054 0 0 1-1-.25l-10-5.26a2.143 2.143 0 0 1-1.14-1.77l-.57-10.56-.39-6.74-.24-4c-.18-3.11-.16-6.67 2.38-9.5s6.42-4.75 11.92-5.91l16-3.06 25-34.08a15.452 15.452 0 0 1 12.19-5.41h150.48a7.737 7.737 0 0 1 6.66 7l7.58 72.09a6.467 6.467 0 0 1-1.225 4.889 6.47 6.47 0 0 1-4.365 2.521h-25.07a2.127 2.127 0 0 1-2.13-2.13 2.127 2.127 0 0 1 2.13-2.13h24.63c.79-.15 2-.72 1.79-2.73l-7.57-72.08a3.474 3.474 0 0 0-2.85-3.18H67.73a11.224 11.224 0 0 0-8.78 3.71l-25.46 34.72a2.1 2.1 0 0 1-1.32.83l-16.77 3.21c-4.54 1-7.69 2.46-9.59 4.58-1.31 1.46-1.47 3.46-1.3 6.42l.24 3.94c.13 2.26.27 4.51.39 6.77l.51 9.35 8.92 4.7a2.134 2.134 0 0 1 1.047 2.387 2.132 2.132 0 0 1-2.047 1.613l.01.06Z" fill="#24272D"/><path d="M46.95 252.7a2.129 2.129 0 0 1-1.78-3.29l4.13-6.29a2.114 2.114 0 0 1 1.78-1h22.87a11.81 11.81 0 0 0 11.12-7c1.81-3.75 1.94-8 2.07-12.59v-.07H51.47a2.128 2.128 0 0 1-2.13-2.13 2.129 2.129 0 0 1 2.13-2.13H89.3a2.11 2.11 0 0 1 1.992 1.37c.102.268.148.554.138.84 0 .75-.05 1.5-.07 2.25-.15 4.79-.29 9.74-2.5 14.32a16.101 16.101 0 0 1-14.95 9.4H52.26l-3.5 5.32a2.109 2.109 0 0 1-1.81 1Z" fill="#24272D"/><path d="M49.226 303.502c5.415-5.696 4.677-15.187-1.647-21.199-6.325-6.013-15.841-6.269-21.256-.573-5.415 5.696-4.677 15.187 1.647 21.2 6.325 6.012 15.841 6.268 21.256.572Z" fill="#FAF9F7"/><path d="M39.35 309.76a19.272 19.272 0 0 1-18.69-16.91 15.628 15.628 0 0 1 3.84-12.28 15.487 15.487 0 0 1 11.7-5.07 19.269 19.269 0 0 1 18.68 16.91 15.383 15.383 0 0 1-9.104 16.07 15.385 15.385 0 0 1-6.426 1.28Zm-3.15-30a11.317 11.317 0 0 0-8.54 3.66 11.497 11.497 0 0 0-2.77 9 14.912 14.912 0 0 0 14.46 13.09 11.265 11.265 0 0 0 8.53-3.66 11.442 11.442 0 0 0 2.77-9 14.91 14.91 0 0 0-14.45-13.09Z" fill="#24272D"/><path d="M37.77 294.76a2.098 2.098 0 0 1-.82-.16 2.001 2.001 0 0 1-.69-.47 1.951 1.951 0 0 1-.26-.31 2.73 2.73 0 0 1-.2-.38 1.738 1.738 0 0 1-.11-.39 1.752 1.752 0 0 1 0-.83c.021-.14.058-.278.11-.41a2.53 2.53 0 0 1 .2-.36c.147-.241.35-.443.59-.59.114-.076.235-.143.36-.2a1.88 1.88 0 0 1 .41-.11c.272-.07.558-.07.83 0 .134.02.265.057.39.11.132.057.259.124.38.2.11.079.213.166.31.26.103.098.194.209.27.33.077.112.14.233.19.36.058.132.101.269.13.41.01.136.01.273 0 .41a2.149 2.149 0 0 1-2.13 2.13h.04Z" fill="#24272D"/><path d="M54.88 292.41A19.269 19.269 0 0 0 36.2 275.5a16.37 16.37 0 0 0-4.82.72 2.129 2.129 0 0 0 0 4.08 15.085 15.085 0 0 1 10.71 12.55 11 11 0 0 1-7.73 12.12 2.129 2.129 0 0 0 0 4.08c1.595.466 3.248.705 4.91.71a15.385 15.385 0 0 0 11.737-5.12 15.373 15.373 0 0 0 3.793-12.23h.08Z" fill="#6E5BFF" fill-opacity=".16"/><path d="M189.575 303.5c5.415-5.696 4.677-15.187-1.647-21.199-6.324-6.013-15.841-6.269-21.256-.573-5.414 5.696-4.677 15.188 1.647 21.2 6.325 6.012 15.841 6.268 21.256.572Z" fill="#FAF9F7"/><path d="M179.69 309.76a19.27 19.27 0 0 1-18.68-16.91 15.398 15.398 0 0 1 .563-6.529 15.394 15.394 0 0 1 8.54-9.541 15.39 15.39 0 0 1 6.427-1.28 19.272 19.272 0 0 1 18.69 16.91 15.63 15.63 0 0 1-3.84 12.28 15.478 15.478 0 0 1-11.7 5.07Zm-3.15-30a11.261 11.261 0 0 0-8.53 3.66 11.45 11.45 0 0 0-2.77 9 14.9 14.9 0 0 0 14.45 13.09 11.317 11.317 0 0 0 8.54-3.66 11.472 11.472 0 0 0 2.77-9 14.917 14.917 0 0 0-14.46-13.09Z" fill="#24272D"/><path d="M195.23 292.41a19.27 19.27 0 0 0-18.69-16.91c-1.63-.003-3.252.24-4.81.72a2.125 2.125 0 0 0-1.517 2.04 2.125 2.125 0 0 0 1.517 2.04 15.094 15.094 0 0 1 7.226 4.681 15.091 15.091 0 0 1 3.494 7.869 10.998 10.998 0 0 1-7.73 12.12 2.125 2.125 0 0 0-1.517 2.04 2.125 2.125 0 0 0 1.517 2.04c1.595.466 3.248.705 4.91.71a15.486 15.486 0 0 0 11.7-5.07 15.62 15.62 0 0 0 3.9-12.28Z" fill="#6E5BFF" fill-opacity=".16"/><path d="M178.12 294.76a2.099 2.099 0 0 1-.82-.16 1.993 1.993 0 0 1-.69-.47 1.978 1.978 0 0 1-.26-.31 2.806 2.806 0 0 1-.2-.38 2.546 2.546 0 0 1-.12-.39 2.186 2.186 0 0 1 .12-1.24 2.58 2.58 0 0 1 .46-.69c.1-.094.207-.181.32-.26.119-.074.243-.141.37-.2.129-.051.263-.087.4-.11.276-.07.564-.07.84 0 .134.021.265.058.39.11.129.055.253.122.37.2.113.079.22.166.32.26a2.137 2.137 0 0 1 .46.69c.06.13.1.268.12.41.014.136.014.274 0 .41.01.14.01.28 0 .42a1.787 1.787 0 0 1-.13.39 1.928 1.928 0 0 1-.19.38 1.566 1.566 0 0 1-.27.31 2.074 2.074 0 0 1-1.49.63ZM39.35 309.76a19.272 19.272 0 0 1-18.69-16.91 15.628 15.628 0 0 1 3.84-12.28 15.487 15.487 0 0 1 11.7-5.07 19.269 19.269 0 0 1 18.68 16.91 15.383 15.383 0 0 1-9.104 16.07 15.385 15.385 0 0 1-6.426 1.28Zm-3.15-30a11.317 11.317 0 0 0-8.54 3.66 11.497 11.497 0 0 0-2.77 9 14.912 14.912 0 0 0 14.46 13.09 11.265 11.265 0 0 0 8.53-3.66 11.442 11.442 0 0 0 2.77-9 14.91 14.91 0 0 0-14.45-13.09Z" fill="#24272D"/><path d="M179.69 309.76a19.27 19.27 0 0 1-18.68-16.91 15.398 15.398 0 0 1 .563-6.529 15.394 15.394 0 0 1 8.54-9.541 15.39 15.39 0 0 1 6.427-1.28 19.272 19.272 0 0 1 18.69 16.91 15.63 15.63 0 0 1-3.84 12.28 15.478 15.478 0 0 1-11.7 5.07Zm-3.15-30a11.261 11.261 0 0 0-8.53 3.66 11.45 11.45 0 0 0-2.77 9 14.9 14.9 0 0 0 14.45 13.09 11.317 11.317 0 0 0 8.54-3.66 11.472 11.472 0 0 0 2.77-9 14.917 14.917 0 0 0-14.46-13.09Z" fill="#24272D"/><path d="M459.52 89.69a2.318 2.318 0 0 1-.58-.08 2.146 2.146 0 0 1-1.55-2.18l1.6-27.73h-8.27a2.128 2.128 0 0 1-1.82-1 2.103 2.103 0 0 1 0-2.1l22.2-41.43a2.13 2.13 0 0 1 4 1.13l-1.6 27.74h8.27a2.123 2.123 0 0 1 2.126 2.075 2.13 2.13 0 0 1-.256 1.055L461.45 88.6a2.136 2.136 0 0 1-1.93 1.09Zm-5.24-34.25h7a2.146 2.146 0 0 1 1.55.66 2.163 2.163 0 0 1 .58 1.59l-1.17 20.36 16-29.79h-7a2.112 2.112 0 0 1-1.55-.67 2.163 2.163 0 0 1-.58-1.59l1.17-20.36-16 29.8ZM144.47 96.19a1.65 1.65 0 0 1-.44-.05l-6.31-1.32a2.12 2.12 0 0 1-1.61-1.49l-1.85-6.43-3.95-2a2.125 2.125 0 0 1-1.16-2.065 2.134 2.134 0 0 1 2.289-1.96c.279.022.551.098.801.225l4.77 2.41a2.113 2.113 0 0 1 1.08 1.31l1.75 6.09 3.81.79 4-4.86a2.158 2.158 0 0 1 1.52-.77l5.34-.29a2.08 2.08 0 0 1 1.59.59l4.56 4.39 3.7-1.21 1.07-6.24a2.127 2.127 0 0 1 2.46-1.74 2.129 2.129 0 0 1 1.74 2.46l-1.29 7.51a2.144 2.144 0 0 1-1.39 1.65l-6.13 2a2.13 2.13 0 0 1-2.14-.49l-4.81-4.64-3.49.2-4.27 5.13a2.155 2.155 0 0 1-1.64.8ZM183.53 68a2.13 2.13 0 0 1-.59-4.18l6.08-1.75.8-3.81-4.87-4.07a2.101 2.101 0 0 1-.77-1.52l-.29-5.34a2.166 2.166 0 0 1 .59-1.6l4.39-4.55-1.21-3.7-6.24-1.08a2.097 2.097 0 0 1-1.42-.93l-2.93-4.48a2.14 2.14 0 0 1-.28-1.68l1.53-6.14-2.9-2.6-5.94 2.19a2.138 2.138 0 0 1-1.7-.09l-4.76-2.48a2.147 2.147 0 0 1-1.09-1.31l-1.75-6.08-3.81-.8-4 4.87a2.144 2.144 0 0 1-1.52.76l-5.34.29a2.108 2.108 0 0 1-1.6-.59l-4.56-4.39-3.73 1.25-1.08 6.24a2.108 2.108 0 0 1-.93 1.42l-4.48 2.93a2.09 2.09 0 0 1-1.67.28l-6.15-1.52-2.59 2.9 2.19 5.94a2.13 2.13 0 0 1-.1 1.69l-2.42 4.78a2.076 2.076 0 0 1-1.31 1.08L111 41.69l-.8 3.8 4.87 4.05a2.133 2.133 0 0 1 .76 1.52l.3 5.34a2.133 2.133 0 1 1-4.26.24l-.24-4.42-5.13-4.27a2.134 2.134 0 0 1-.73-2.08l1.33-6.31a2.113 2.113 0 0 1 1.49-1.61l6.42-1.85 1.58-3.12-2.31-6.27a2.13 2.13 0 0 1 .41-2.16l4.31-4.81a2.101 2.101 0 0 1 2.09-.64l6.49 1.61 2.93-1.92 1.13-6.58a2.13 2.13 0 0 1 1.43-1.67l6.14-2a2.16 2.16 0 0 1 2.14.49l4.81 4.64 3.49-.19 4.27-5.14a2.095 2.095 0 0 1 2.07-.72l6.32 1.32a2.144 2.144 0 0 1 1.61 1.5l1.85 6.42 3.12 1.58 6.27-2.31a2.09 2.09 0 0 1 2.15.41l4.81 4.3a2.135 2.135 0 0 1 .65 2.1l-1.61 6.49 1.91 2.92 6.58 1.14a2.134 2.134 0 0 1 1.67 1.43l2 6.14a2.162 2.162 0 0 1-.49 2.14l-4.64 4.81.19 3.49 5.14 4.27a2.12 2.12 0 0 1 .72 2.08l-1.29 6.34a2.143 2.143 0 0 1-1.5 1.61l-7.31 2.1a2 2 0 0 1-.61.05V68Z" fill="#24272D" fill-opacity=".24"/><path d="M150.04 75.78a23.941 23.941 0 0 1-20.554-36.218A23.941 23.941 0 1 1 150.04 75.78Zm-.09-43.59a19.679 19.679 0 0 0-8.616 37.361A19.68 19.68 0 0 0 165.52 39.8a19.626 19.626 0 0 0-15.57-7.61ZM104.95 111.19a2.11 2.11 0 0 1-1.47-.59l-4-3.86-3.18-.06-4.17 3.7a2.111 2.111 0 0 1-2.37.3l-5.94-3a2.118 2.118 0 0 1-1.16-2.09l.52-5.55-1.94-2.53-5.49-1a2.13 2.13 0 0 1-1.72-1.67l-1.35-6.51a2.12 2.12 0 0 1 .92-2.21l4.65-3.06.77-3.09-2.68-4.89a2.12 2.12 0 0 1 .23-2.38l4.25-5.12a2.12 2.12 0 0 1 2.3-.66l5.29 1.73 2.9-1.32 2.15-5.15a2.09 2.09 0 0 1 2-1.3l6.65.13a2.117 2.117 0 0 1 2 1.38l1.94 5.23 2.84 1.43 5.36-1.52a2.13 2.13 0 0 1 2.27.75l4.05 5.28a2.125 2.125 0 0 1 .13 2.39l-2.87 4.78.65 3.12 4.47 3.34a2.111 2.111 0 0 1 .83 2.24l-1.6 6.46a2.146 2.146 0 0 1-1.79 1.6l-5.44.7-2 2.45.3 5.56c.011.418-.1.83-.32 1.186a2.152 2.152 0 0 1-.92.814l-6.05 2.77c-.314.155-.66.231-1.01.22Zm-9.46-8.79 4.85.1c.534.009 1.045.22 1.43.59l3.58 3.44 3.41-1.57-.26-4.95a2.121 2.121 0 0 1 .48-1.47l3.1-3.73a2.12 2.12 0 0 1 1.36-.75l4.91-.66.91-3.64-4-2.88a2.101 2.101 0 0 1-.85-1.3l-1-4.75a2.199 2.199 0 0 1 .26-1.53l2.56-4.25-2.29-3-4.76 1.36a2.19 2.19 0 0 1-1.55-.15l-4.33-2.19a2.17 2.17 0 0 1-1-1.16l-1.73-4.64-3.75-.08-1.87 4.6a2.13 2.13 0 0 1-1.08 1.11l-4.41 2a2.18 2.18 0 0 1-1.55.09l-4.71-1.55-2.4 2.89 2.39 4.35a2.17 2.17 0 0 1 .2 1.54l-1.18 4.71a2.13 2.13 0 0 1-.89 1.26l-4.15 2.72.77 3.68 4.88.84a2.12 2.12 0 0 1 1.33.81l3 3.85c.323.426.476.957.43 1.49l-.46 4.94 3.35 1.69 3.7-3.29a2.11 2.11 0 0 1 1.35-.52h-.03Z" fill="#24272D" fill-opacity=".24"/><path d="M97.95 88.49a2.14 2.14 0 0 1-1.51-.62 2.451 2.451 0 0 1-.46-.69 2.28 2.28 0 0 1-.15-.81 2.102 2.102 0 0 1 0-.43c.021-.134.058-.265.11-.39.056-.134.126-.261.21-.38.072-.112.156-.216.25-.31.102-.099.213-.19.33-.27.118-.08.246-.143.38-.19.123-.06.254-.101.39-.12a2.13 2.13 0 0 1 1.92.58c.097.094.184.198.26.31.084.117.151.245.2.38.06.123.1.255.12.39a2.128 2.128 0 0 1-.58 1.93 2.17 2.17 0 0 1-1.51.62h.04ZM165.89 144.62a2.133 2.133 0 0 1-1.961-1.322 2.138 2.138 0 0 1 .468-2.318 2.13 2.13 0 1 1 1.473 3.64h.02Zm-10.66 0a2.13 2.13 0 1 1 .808-.159 2.14 2.14 0 0 1-.818.159h.01Zm-10.66 0a2.133 2.133 0 0 1-1.961-1.322 2.138 2.138 0 0 1 .468-2.318 2.13 2.13 0 0 1 3.466 2.328 2.141 2.141 0 0 1-1.983 1.312h.01Zm-10.65 0a2.13 2.13 0 1 1 .03 0h-.03Zm-10.66 0a2.13 2.13 0 1 1 .808-.159 2.14 2.14 0 0 1-.818.159h.01Zm-10.66 0a2.133 2.133 0 0 1-1.961-1.322 2.138 2.138 0 0 1 .468-2.318 2.13 2.13 0 1 1 1.483 3.64h.01ZM164.26 160.79a2.13 2.13 0 1 1 .808-.159 2.14 2.14 0 0 1-.818.159h.01Zm-10.66 0a2.133 2.133 0 0 1-1.961-1.322 2.138 2.138 0 0 1 .468-2.318 2.13 2.13 0 0 1 3.633 1.51 2.12 2.12 0 0 1-2.15 2.13h.01Zm-10.65 0a2.13 2.13 0 1 1 0-4.258 2.13 2.13 0 0 1 0 4.258Zm-10.66 0a2.133 2.133 0 0 1-1.961-1.322 2.138 2.138 0 0 1 .468-2.318 2.13 2.13 0 1 1 1.483 3.64h.01Zm-10.65 0a2.13 2.13 0 1 1 .808-.159 2.14 2.14 0 0 1-.818.159h.01Zm-10.66 0a2.13 2.13 0 1 1 .794-.154 2.116 2.116 0 0 1-.824.154h.03Zm-10.66 0a2.132 2.132 0 0 1-1.493-3.64 2.126 2.126 0 0 1 2.32-.457 2.128 2.128 0 0 1-.016 3.94c-.26.106-.54.159-.821.157h.01Zm-10.65 0a2.13 2.13 0 1 1 .808-.159c-.26.106-.537.16-.818.159h.01Zm-10.66 0a2.13 2.13 0 1 1 .808-.159c-.26.106-.537.16-.818.159h.01Zm-10.65 0a2.132 2.132 0 0 1-1.493-3.64 2.126 2.126 0 0 1 2.32-.457 2.126 2.126 0 0 1 1.313 1.967 2.12 2.12 0 0 1-2.16 2.13h.02ZM162.56 176.97a2.13 2.13 0 1 1 .808-.159 2.14 2.14 0 0 1-.818.159h.01Zm-10.66 0a2.133 2.133 0 0 1-1.961-1.322 2.138 2.138 0 0 1 .468-2.318 2.137 2.137 0 0 1 2.32-.457 2.136 2.136 0 0 1 1.313 1.967 2.14 2.14 0 0 1-.631 1.513 2.134 2.134 0 0 1-1.519.617h.01Zm-10.65 0a2.13 2.13 0 1 1 .808-.159 2.14 2.14 0 0 1-.818.159h.01ZM270.16 278.19a2.13 2.13 0 0 1 0-4.26 2.127 2.127 0 0 1 2.13 2.13 2.127 2.127 0 0 1-2.13 2.13Zm-10.66 0a2.13 2.13 0 1 1 .001-4.262 2.13 2.13 0 0 1-.001 4.262Zm-10.66 0a2.13 2.13 0 0 1 0-4.26 2.127 2.127 0 0 1 2.13 2.13 2.127 2.127 0 0 1-2.13 2.13ZM282.4 293.83a2.127 2.127 0 0 1-2.13-2.13 2.127 2.127 0 0 1 2.13-2.13 2.127 2.127 0 0 1 2.13 2.13 2.131 2.131 0 0 1-2.13 2.13Zm-10.66 0a2.13 2.13 0 0 1 0-4.26 2.127 2.127 0 0 1 2.13 2.13 2.131 2.131 0 0 1-2.13 2.13Zm-10.66 0a2.13 2.13 0 0 1 0-4.26 2.127 2.127 0 0 1 2.13 2.13 2.131 2.131 0 0 1-2.13 2.13Zm-10.65 0a2.127 2.127 0 0 1-2.13-2.13 2.127 2.127 0 0 1 2.13-2.13 2.127 2.127 0 0 1 2.13 2.13 2.131 2.131 0 0 1-2.13 2.13ZM466.75 317.32h-.23a2.14 2.14 0 0 1-1.89-2.34l.31-3a2.132 2.132 0 0 1 4.24.45l-.31 3a2.13 2.13 0 0 1-2.12 1.89ZM465.39 330.31h-.23a2.136 2.136 0 0 1-1.817-1.521 2.112 2.112 0 0 1-.073-.829l.31-3a2.125 2.125 0 0 1 .745-1.509 2.135 2.135 0 0 1 1.607-.498 2.141 2.141 0 0 1 1.841 1.598c.07.281.083.573.037.859l-.31 3a2.132 2.132 0 0 1-2.11 1.9ZM461.2 322.34h-3a2.13 2.13 0 0 1 0-4.26h3a2.127 2.127 0 0 1 2.13 2.13 2.128 2.128 0 0 1-2.13 2.13ZM474.19 322.34h-3a2.13 2.13 0 0 1 0-4.26h3a2.127 2.127 0 0 1 2.13 2.13 2.128 2.128 0 0 1-2.13 2.13ZM253.67 24.9h-.23a2.125 2.125 0 0 1-1.432-.777 2.12 2.12 0 0 1-.458-1.563l.31-3a2.13 2.13 0 1 1 4.23.44l-.31 3a2.117 2.117 0 0 1-2.11 1.9ZM252.3 37.89h-.22a2.133 2.133 0 0 1-1.823-1.512 2.127 2.127 0 0 1-.077-.828l.31-3a2.13 2.13 0 0 1 4.163-.388c.08.268.106.55.077.828l-.31 3a2.133 2.133 0 0 1-2.12 1.9ZM248.12 29.92h-2.95a2.129 2.129 0 1 1 0-4.26h2.95a2.129 2.129 0 1 1 0 4.26ZM261.11 29.92h-2.95a2.129 2.129 0 1 1 0-4.26h2.95a2.129 2.129 0 1 1 0 4.26ZM28.95 116.28a2.128 2.128 0 0 1-2.13-2.13 2.129 2.129 0 0 1 2.13-2.13 2.128 2.128 0 0 1 2.13 2.13 2.129 2.129 0 0 1-2.13 2.13Zm10.54-1.15a2.128 2.128 0 0 1-1.817-3.232 2.126 2.126 0 0 1 1.147-.918h.16a2.128 2.128 0 0 1 2.536 2.702 2.125 2.125 0 0 1-1.154 1.308 2.131 2.131 0 0 1-.872.19v-.05Zm8.33-6.21a2.128 2.128 0 0 1-1.278-3.85 2.13 2.13 0 0 1 3.278 2.39c-.06.182-.148.354-.26.51a2.103 2.103 0 0 1-1.75.95h.01Zm1.16-10.3a2.14 2.14 0 0 1-2.11-2.14 2.13 2.13 0 1 1 2.8 2 2.24 2.24 0 0 1-.72.14h.03Zm-4.14-9.8a2.13 2.13 0 0 1-1.77-1 2.535 2.535 0 0 1-.26-.52 2.13 2.13 0 1 1 2 1.47l.03.05Zm-4.08-9.84a2.13 2.13 0 0 1-2-1.46v-.16a2.13 2.13 0 0 1 4.11-1.12 2.12 2.12 0 0 1-1.37 2.63 2 2 0 0 1-.75.11h.01Zm-2.08-10.42a2.14 2.14 0 1 1 2.06-2.66c.048.172.072.35.07.53a2.13 2.13 0 0 1-2.14 2.13h.01Zm.94-10.57a2.239 2.239 0 0 1-.67-.11 2.14 2.14 0 1 1 2.74-1.52.838.838 0 0 1-.05.17 2.14 2.14 0 0 1-2.03 1.46h.01Zm4-9.85a2.13 2.13 0 1 1 2.03-1.46c-.063.18-.147.35-.25.51a2.13 2.13 0 0 1-1.78 1v-.05Zm6.31-8.56a2.13 2.13 0 0 1-1.51-3.63 2.13 2.13 0 0 1 3 3 2.1 2.1 0 0 1-1.47.63h-.02Zm39.42-2.9a2.13 2.13 0 1 1 .67-4.16c.179.069.35.156.51.26a2.13 2.13 0 0 1-1.18 3.9Zm-30.82-3.29a2.13 2.13 0 1 1 1.19-.36c-.16.107-.336.191-.52.25a2 2 0 0 1-.67.11Zm20.87-.49c-.175 0-.35-.02-.52-.06h-.17a2.14 2.14 0 1 1 .69.11v-.05Zm-10.45-1.62a2.13 2.13 0 1 1 0-4.26 2.13 2.13 0 0 1 0 4.26ZM255.21 66.19a2.129 2.129 0 1 1 0-4.258 2.129 2.129 0 0 1 0 4.258Zm10.64-.2a2.152 2.152 0 0 1-2.169-1.994 2.149 2.149 0 1 1 3.966.986 2.15 2.15 0 0 1-1.797 1.008Zm-21.26-.56h-.24a2.13 2.13 0 0 1 .22-4.25 2.13 2.13 0 1 1 .02 4.26v-.01Zm31.86-.46a2.149 2.149 0 1 1-.03-4.298 2.149 2.149 0 0 1 .03 4.298Zm-42.34-1.47a2.13 2.13 0 1 1-.007-4.26 2.13 2.13 0 0 1 .007 4.26Zm52.86-.24a2.13 2.13 0 0 1-.68-4.15c.223-.072.456-.109.69-.11a2.131 2.131 0 0 1 .38 4.23l-.39.03Zm10.4-2.29a2.128 2.128 0 0 1-1.817-3.233 2.132 2.132 0 0 1 1.827-1.027 2.13 2.13 0 0 1-.01 4.26Zm-73.36-.78a2.17 2.17 0 0 1-.9-.19 2.15 2.15 0 0 1-1.22-2.78 2.148 2.148 0 0 1 2.78-1.22c.182.063.357.147.52.25a2.134 2.134 0 0 1 .854 2.387 2.13 2.13 0 0 1-2.034 1.513v.04Zm83.7-1.77a2.13 2.13 0 0 1-.68-4.15c.223-.072.456-.109.69-.11a2.128 2.128 0 0 1 1.674 3.408 2.13 2.13 0 0 1-1.294.812c-.13.015-.26.015-.39 0v.04Zm10.35-2.51a2.128 2.128 0 0 1-1.817-3.233 2.132 2.132 0 0 1 1.827-1.027 2.13 2.13 0 0 1 .39 4.22 1.807 1.807 0 0 1-.4 0v.04Zm-103.27-1a2.09 2.09 0 0 1-1.39-.52 2.13 2.13 0 0 1 2.56-3.39c.121.076.231.167.33.27a2.128 2.128 0 0 1-.316 3.28c-.351.234-.762.36-1.184.36Zm113.65-1.4a2.129 2.129 0 0 1 .01-4.26 2.13 2.13 0 0 1 .39 4.22 1.807 1.807 0 0 1-.4 0v.04Zm10.42-2.24a2.13 2.13 0 1 1 .01-4.26 2.128 2.128 0 0 1 1.674 3.408 2.13 2.13 0 0 1-1.294.812 1.716 1.716 0 0 1-.39-.04v.08Zm10.46-2a2.13 2.13 0 0 1-.68-4.15c.223-.072.456-.109.69-.11a2.128 2.128 0 0 1 1.674 3.408 2.13 2.13 0 0 1-1.294.812 1.716 1.716 0 0 1-.39-.04v.08Zm84.71-1.26a2.13 2.13 0 1 1-.007-4.26 2.13 2.13 0 0 1 .007 4.26Zm-74.21-.5a2.129 2.129 0 0 1-.67-4.15 2 2 0 0 1 .68-.12 2.13 2.13 0 0 1 .39 4.23 2.853 2.853 0 0 1-.4-.04v.08Zm63.7-1.18h-.24a2.13 2.13 0 0 1 .22-4.25 2.13 2.13 0 1 1 .02 4.26v-.01Zm-53.14-.25a2.131 2.131 0 0 1-.22-4.25 2.13 2.13 0 0 1 .75 4.19 2.384 2.384 0 0 1-.53-.02v.08Zm42.54-.91h-.23a2.13 2.13 0 1 1 .75-4.18 2.133 2.133 0 0 1 1.573 2.322 2.132 2.132 0 0 1-2.093 1.868v-.01Zm-31.94-.1a2.12 2.12 0 1 1 .53-.06c-.187.016-.375.009-.56-.02l.03.08Zm21.31-.49a2.129 2.129 0 0 1-1.506-3.636 2.129 2.129 0 0 1 3.636 1.506 2.128 2.128 0 0 1-2.13 2.13Zm-10.66 0a2.129 2.129 0 0 1-1.506-3.636 2.129 2.129 0 0 1 3.636 1.506 2.128 2.128 0 0 1-2.13 2.13Z" fill="#24272D" fill-opacity=".24"/><path d="M379.6 335.21h-10.28a2.13 2.13 0 0 0-2.13 2.13v24.54a2.13 2.13 0 0 0 2.13 2.13h10.28a2.13 2.13 0 0 0 2.13-2.13v-24.54a2.13 2.13 0 0 0-2.13-2.13ZM379.6 298.76h-10.28a2.13 2.13 0 0 0-2.13 2.13v10.08a2.13 2.13 0 0 0 2.13 2.13h10.28a2.13 2.13 0 0 0 2.13-2.13v-10.08a2.13 2.13 0 0 0-2.13-2.13ZM374.46 258.66a7.282 7.282 0 0 0-7.27 7.27v8.58a2.127 2.127 0 0 0 2.13 2.13h10.28a2.127 2.127 0 0 0 2.13-2.13v-8.58a7.282 7.282 0 0 0-7.27-7.27Z" fill="#6E5BFF" fill-opacity=".16"/><path d="M385.85 364.01h-38.52a2.127 2.127 0 0 1-2.13-2.13 2.127 2.127 0 0 1 2.13-2.13h38.52a2.127 2.127 0 0 1 2.13 2.13 2.127 2.127 0 0 1-2.13 2.13ZM333.5 364.01h-55.78a2.127 2.127 0 0 1-2.13-2.13 2.127 2.127 0 0 1 2.13-2.13h55.78a2.127 2.127 0 0 1 2.13 2.13 2.127 2.127 0 0 1-2.13 2.13ZM411.86 364.01h-12.8a2.127 2.127 0 0 1-2.13-2.13 2.127 2.127 0 0 1 2.13-2.13h12.8a2.127 2.127 0 0 1 2.13 2.13 2.127 2.127 0 0 1-2.13 2.13Z" fill="#24272D"/><path d="m464.23 283.51-10.92-13.19a2.163 2.163 0 0 0-1.64-.77H312.84a2.13 2.13 0 0 0-2.12 1.91l-2.77 26.38a2.123 2.123 0 0 0 2.12 2.35h138.88a2.161 2.161 0 0 0 1.48-.6l13.69-13.19a2.13 2.13 0 0 0 .11-2.89Z" fill="#6E5BFF"/><path d="M451.79 303.01H312.95a2.133 2.133 0 0 1-1.59-.7 2.167 2.167 0 0 1-.53-1.65l2.77-26.37a2.133 2.133 0 0 1 2.12-1.91h138.83a2.136 2.136 0 0 1 1.64.77l10.92 13.19a2.128 2.128 0 0 1-.16 2.89l-13.69 13.19a2.156 2.156 0 0 1-1.47.59Zm-136.47-4.25h135.63l11.65-11.23-9-10.89H317.64l-2.32 22.12Z" fill="#24272D"/><path d="m325.41 284.58.19-1.87h8.29l-.2 1.87h-3l-.87 8.24h-2.22l.87-8.24h-3.06ZM340.72 282.71a2.99 2.99 0 0 1 1.2.22c.331.132.629.337.87.6.233.254.404.559.5.89.102.35.132.718.09 1.08a3.228 3.228 0 0 1-.54 1.54 2.666 2.666 0 0 1-1.33 1c.242.063.464.183.65.35.161.157.29.344.38.55.094.226.151.466.17.71.015.253.015.507 0 .76v1.23a4.407 4.407 0 0 0 0 .65c.023.181.084.355.18.51h-2.22a3.621 3.621 0 0 1-.11-1.14v-1.28a1.823 1.823 0 0 0-.36-1.16 1.51 1.51 0 0 0-1.17-.37h-2.22l-.42 4h-2.22l1.06-10.11 5.49-.03Zm-1.28 4.57c.421.029.839-.091 1.18-.34a1.519 1.519 0 0 0 .5-1.1 1.244 1.244 0 0 0-.27-1.07 1.574 1.574 0 0 0-1.11-.33h-2.44l-.3 2.84h2.44ZM350.74 282.71l2.72 10.11h-2.31l-.52-2.25h-3.79l-1 2.25h-2.24l4.89-10.11h2.25Zm-.52 6.2-.89-3.71-1.7 3.71h2.59ZM357.83 282.71l3.5 6.78.72-6.78h2.08l-1.06 10.11h-2.23l-3.49-6.77-.71 6.77h-2.09l1.07-10.11h2.21ZM367.22 290.33c.088.226.237.423.43.57.202.155.433.267.68.33.274.072.556.109.84.11.214-.003.428-.019.64-.05.227-.036.449-.1.66-.19a1.78 1.78 0 0 0 .54-.39c.154-.176.245-.397.26-.63a.798.798 0 0 0-.19-.67 1.93 1.93 0 0 0-.64-.43 5.961 5.961 0 0 0-.93-.29c-.35-.09-.71-.18-1.06-.29a8.868 8.868 0 0 1-1.07-.34 3.53 3.53 0 0 1-.91-.53 2.167 2.167 0 0 1-.6-.82 2.34 2.34 0 0 1-.14-1.18c.044-.486.209-.954.48-1.36.259-.4.6-.741 1-1 .39-.264.823-.457 1.28-.57.45-.119.914-.179 1.38-.18a6.585 6.585 0 0 1 1.5.17 3.34 3.34 0 0 1 1.23.58c.352.255.628.601.8 1 .19.476.249.994.17 1.5h-2.15a1.73 1.73 0 0 0-.11-.76 1.149 1.149 0 0 0-.38-.46 1.46 1.46 0 0 0-.6-.24 3.435 3.435 0 0 0-.75-.07c-.18-.02-.361-.02-.54 0a1.868 1.868 0 0 0-.51.2 1.377 1.377 0 0 0-.4.36 1.095 1.095 0 0 0-.2.53.836.836 0 0 0 .07.49c.1.152.242.27.41.34.288.127.585.231.89.31l1.49.39c.19 0 .44.11.76.21.357.101.695.259 1 .47.321.229.585.531.77.88.212.43.285.916.21 1.39a3.412 3.412 0 0 1-.4 1.29 3.296 3.296 0 0 1-.91 1 4.27 4.27 0 0 1-1.39.67 6.464 6.464 0 0 1-1.84.24 6.003 6.003 0 0 1-1.6-.21 3.54 3.54 0 0 1-1.32-.64 2.698 2.698 0 0 1-.84-1.12 3.082 3.082 0 0 1-.17-1.61h2.15c-.085.328-.082.673.01 1ZM380.77 282.71l2.72 10.11h-2.31l-.52-2.25h-3.79l-1 2.25h-2.24l4.89-10.11h2.25Zm-.52 6.2-.89-3.71-1.7 3.71h2.59ZM391.85 285.41a2.017 2.017 0 0 0-1.84-1.07 2.844 2.844 0 0 0-1.31.29 2.706 2.706 0 0 0-.93.78 3.683 3.683 0 0 0-.59 1.11 6.068 6.068 0 0 0-.29 1.29 5.712 5.712 0 0 0 0 1.24c.053.379.175.745.36 1.08.185.32.45.585.77.77.381.212.814.316 1.25.3a2.218 2.218 0 0 0 1.65-.63 3.22 3.22 0 0 0 .88-1.64h2.15c-.111.6-.32 1.178-.62 1.71a4.728 4.728 0 0 1-1.07 1.31 4.51 4.51 0 0 1-1.45.82 5.174 5.174 0 0 1-1.74.28 4.896 4.896 0 0 1-2.05-.4 3.823 3.823 0 0 1-1.44-1.11 4.337 4.337 0 0 1-.81-1.67 5.83 5.83 0 0 1-.12-2.06 6.922 6.922 0 0 1 .56-2.11 5.896 5.896 0 0 1 1.16-1.69 5.003 5.003 0 0 1 1.68-1.13 5.327 5.327 0 0 1 2.13-.41 4.884 4.884 0 0 1 1.56.24c.46.146.885.384 1.25.7.365.314.658.703.86 1.14a3.8 3.8 0 0 1 .31 1.56h-2.15c0-.242-.055-.482-.16-.7ZM395.36 284.58l.2-1.87h8.29l-.2 1.87h-3l-.87 8.24h-2.22l.87-8.24h-3.07ZM407.44 282.71l-1.06 10.11h-2.22l1.06-10.11h2.22ZM409.2 285.7a5.89 5.89 0 0 1 1.15-1.69 5.16 5.16 0 0 1 1.69-1.13 5.293 5.293 0 0 1 2.13-.41 4.683 4.683 0 0 1 2 .41c.566.253 1.06.641 1.44 1.13.384.5.657 1.076.8 1.69.163.691.203 1.405.12 2.11a6.396 6.396 0 0 1-.56 2.06 5.585 5.585 0 0 1-1.15 1.67 5.185 5.185 0 0 1-1.67 1.11c-.68.274-1.407.41-2.14.4a4.877 4.877 0 0 1-2-.4 3.93 3.93 0 0 1-1.45-1.11 4.477 4.477 0 0 1-.8-1.67 5.83 5.83 0 0 1-.12-2.06c.069-.73.258-1.442.56-2.11Zm1.68 3.35c.053.379.175.745.36 1.08.181.323.447.589.77.77.378.212.807.316 1.24.3.455.011.905-.092 1.31-.3.363-.186.68-.448.93-.77.255-.325.454-.69.59-1.08a5.86 5.86 0 0 0 .28-1.24c.05-.429.05-.862 0-1.29a2.997 2.997 0 0 0-.35-1.11 2.06 2.06 0 0 0-.77-.78 2.494 2.494 0 0 0-1.25-.29c-.45-.009-.896.09-1.3.29a2.706 2.706 0 0 0-.93.78 3.699 3.699 0 0 0-.6 1.11c-.14.418-.234.851-.28 1.29-.05.412-.05.828 0 1.24ZM423.06 282.71l3.5 6.78.71-6.78h2.09l-1.07 10.11h-2.22l-3.5-6.77-.72 6.77h-2.08l1.07-10.11h2.22ZM436.6 282.71l2.71 10.11h-2.3l-.53-2.25h-3.78l-1 2.25h-2.24l4.89-10.11h2.25Zm-.53 6.2-.88-3.71-1.71 3.71h2.59ZM443.69 282.71l-.86 8.24h4.93l-.2 1.87h-7.15l1.06-10.11h2.22Z" fill="#FAF9F7"/><path d="M429.02 307.87a2.143 2.143 0 0 0-2.12-1.91H301.05a2.173 2.173 0 0 0-1.64.77l-10.92 13.19a2.118 2.118 0 0 0 .17 2.89L302.35 336a2.12 2.12 0 0 0 1.47.6h125.85a2.135 2.135 0 0 0 1.587-.707 2.127 2.127 0 0 0 .533-1.653l-2.77-26.37Z" fill="#6E5BFF" fill-opacity=".64"/><path d="M426.75 339.47h-125.8a2.157 2.157 0 0 1-1.48-.6l-13.69-13.19a2.126 2.126 0 0 1-.16-2.89l10.92-13.19a2.143 2.143 0 0 1 1.64-.77h125.77a2.12 2.12 0 0 1 2.11 1.91l2.77 26.38a2.103 2.103 0 0 1-.53 1.64 2.14 2.14 0 0 1-.7.518 2.13 2.13 0 0 1-.85.192Zm-125-4.26h122.62l-2.32-22.12H299.13l-9 10.9 11.62 11.22Z" fill="#24272D"/><path d="M308.44 319.19a4.308 4.308 0 0 1 1.64.28c.434.158.83.407 1.16.73.303.283.547.623.72 1 .169.381.276.786.32 1.2.042.401.019.806-.07 1.2a2.346 2.346 0 0 1-.5 1c-.266.325-.61.576-1 .73a3.948 3.948 0 0 1-1.59.28h-2.34l.39 3.63h-2.22l-1.07-10.05h4.56Zm-.11 4.76c.245.001.489-.019.73-.06.212-.029.416-.1.6-.21.173-.116.308-.279.39-.47.089-.25.116-.517.08-.78a1.75 1.75 0 0 0-.25-.77 1.315 1.315 0 0 0-.48-.46 1.729 1.729 0 0 0-.65-.22 4.372 4.372 0 0 0-.74-.06h-1.73l.32 3 1.73.03ZM319.13 319.19a3.356 3.356 0 0 1 2.25.82c.284.25.518.552.69.89.174.336.282.703.32 1.08a2.863 2.863 0 0 1-.22 1.55 1.999 1.999 0 0 1-1.12 1c.258.062.5.178.71.34.197.157.366.346.5.56.14.216.248.452.32.7.077.249.141.503.19.76 0 .16.03.35.09.57.06.22.1.44.12.66.037.222.098.44.18.65.067.186.161.361.28.52h-2.22a4.323 4.323 0 0 1-.35-1.15c-.07-.44-.16-.87-.26-1.28a2.27 2.27 0 0 0-.6-1.16 1.842 1.842 0 0 0-1.24-.37h-2.22l.42 4h-2.23l-1.06-10.14h5.45Zm-.31 4.58c.4.033.797-.089 1.11-.34a1.328 1.328 0 0 0 .27-1.11 1.492 1.492 0 0 0-.5-1.07 1.838 1.838 0 0 0-1.18-.33h-2.43l.3 2.85h2.43ZM324.48 322.19a4.449 4.449 0 0 1 .8-1.7 3.86 3.86 0 0 1 1.44-1.13 4.883 4.883 0 0 1 2.05-.41 5.488 5.488 0 0 1 2.14.41 5.42 5.42 0 0 1 1.68 1.13 5.952 5.952 0 0 1 1.15 1.7c.302.664.491 1.374.56 2.1a5.807 5.807 0 0 1-.12 2.06 4.47 4.47 0 0 1-.8 1.67 3.996 3.996 0 0 1-1.44 1.11c-.65.28-1.353.416-2.06.4a5.51 5.51 0 0 1-2.13-.4 5.126 5.126 0 0 1-1.68-1.11 5.585 5.585 0 0 1-1.15-1.67 6.339 6.339 0 0 1-.56-2.06 6.008 6.008 0 0 1 .12-2.1Zm2.38 3.34c.136.39.336.755.59 1.08.25.325.567.591.93.78.407.2.856.299 1.31.29.432.014.859-.086 1.24-.29a2.06 2.06 0 0 0 .77-.78 3.13 3.13 0 0 0 .36-1.08c.05-.412.05-.828 0-1.24a5.765 5.765 0 0 0-.29-1.29 3.937 3.937 0 0 0-.59-1.11 2.706 2.706 0 0 0-.93-.78c-.404-.2-.85-.299-1.3-.29a2.462 2.462 0 0 0-1.25.29 2.067 2.067 0 0 0-.77.78 3.079 3.079 0 0 0-.35 1.11 5.566 5.566 0 0 0 .28 2.5v.03ZM338.77 319.19l3.09 7 1.51-7h3.13l1.06 10.12h-2.08l-.75-7.17-1.73 7.17h-1.71l-3.23-7.1.75 7.1h-2.08l-1.06-10.12h3.1ZM349.05 322.19a4.6 4.6 0 0 1 .8-1.7 4.005 4.005 0 0 1 1.45-1.13 4.883 4.883 0 0 1 2.05-.41 5.507 5.507 0 0 1 2.14.41 5.236 5.236 0 0 1 1.67 1.13 6.005 6.005 0 0 1 1.16 1.7 6.87 6.87 0 0 1 .56 2.1c.08.689.036 1.387-.13 2.06a4.174 4.174 0 0 1-.8 1.67 3.815 3.815 0 0 1-1.44 1.11c-.63.274-1.312.41-2 .4a5.437 5.437 0 0 1-2.13-.4 5.303 5.303 0 0 1-1.69-1.11 5.783 5.783 0 0 1-1.15-1.67 6.614 6.614 0 0 1-.56-2.06 6.303 6.303 0 0 1 .07-2.1Zm2.39 3.34c.132.392.332.757.59 1.08a2.698 2.698 0 0 0 2.23 1.07c.435.014.866-.086 1.25-.29.32-.188.586-.457.77-.78a3.13 3.13 0 0 0 .36-1.08c.05-.412.05-.828 0-1.24a5.704 5.704 0 0 0-.28-1.29 3.937 3.937 0 0 0-.59-1.11 2.706 2.706 0 0 0-.93-.78 2.841 2.841 0 0 0-1.31-.29 2.456 2.456 0 0 0-1.24.29 1.998 1.998 0 0 0-.77.78 3.303 3.303 0 0 0-.36 1.11c-.05.429-.05.862 0 1.29.045.413.139.819.28 1.21v.03ZM359.62 321.03l-.2-1.87h8.28l.2 1.87h-3l.87 8.25h-2.23l-.86-8.25h-3.06ZM371.44 319.19l1.07 10.12h-2.23l-1.06-10.12h2.22ZM373.95 322.19a4.449 4.449 0 0 1 .8-1.7 3.853 3.853 0 0 1 1.44-1.13 4.896 4.896 0 0 1 2-.41 5.488 5.488 0 0 1 2.14.41 5.403 5.403 0 0 1 1.68 1.13 5.952 5.952 0 0 1 1.15 1.7c.302.664.491 1.374.56 2.1a5.807 5.807 0 0 1-.12 2.06 4.477 4.477 0 0 1-.8 1.67 4.004 4.004 0 0 1-1.44 1.11 4.895 4.895 0 0 1-2.06.4 5.507 5.507 0 0 1-2.13-.4 5.126 5.126 0 0 1-1.68-1.11 5.585 5.585 0 0 1-1.15-1.67 6.339 6.339 0 0 1-.56-2.06 5.994 5.994 0 0 1 .17-2.1Zm2.38 3.34c.136.39.335.755.59 1.08a2.8 2.8 0 0 0 .93.78c.407.2.856.299 1.31.29.432.014.859-.086 1.24-.29.322-.186.588-.455.77-.78a3.13 3.13 0 0 0 .36-1.08c.05-.412.05-.828 0-1.24a6.317 6.317 0 0 0-.28-1.29 4.019 4.019 0 0 0-.6-1.11 2.706 2.706 0 0 0-.93-.78c-.404-.2-.85-.299-1.3-.29a2.494 2.494 0 0 0-1.25.29 2.06 2.06 0 0 0-.77.78 3.079 3.079 0 0 0-.35 1.11c-.05.429-.05.861 0 1.29.056.413.156.819.3 1.21l-.02.03ZM387.34 319.19l4.93 6.79-.71-6.79h2.08l1.06 10.12h-2.22l-4.92-6.78.71 6.78h-2.08l-1.06-10.12h2.21ZM401.02 319.19l4.85 10.12h-2.31l-1-2.26h-3.79l-.55 2.26h-2.27l2.76-10.12h2.31Zm.78 6.21-1.66-3.72-.93 3.72h2.59ZM408.26 319.19l.87 8.25h4.92l.2 1.87h-7.15l-1.06-10.12h2.22Z" fill="#FAF9F7"/><path d="M379.6 364.01h-10.28a2.127 2.127 0 0 1-2.13-2.13v-24.54a2.127 2.127 0 0 1 2.13-2.13h10.28a2.127 2.127 0 0 1 2.13 2.13v24.54a2.141 2.141 0 0 1-2.13 2.13Zm-8.15-4.26h6v-20.28h-6v20.28ZM379.6 313.09h-10.28a2.127 2.127 0 0 1-2.13-2.13v-10.07a2.127 2.127 0 0 1 2.13-2.13h10.28a2.127 2.127 0 0 1 2.13 2.13v10.07a2.127 2.127 0 0 1-2.13 2.13Zm-8.15-4.26h6v-5.82h-6v5.82ZM379.6 276.64h-10.28a2.127 2.127 0 0 1-2.13-2.13v-8.58c0-1.928.766-3.777 2.129-5.141a7.273 7.273 0 0 1 10.282 0 7.273 7.273 0 0 1 2.129 5.141v8.58a2.127 2.127 0 0 1-2.13 2.13Zm-8.15-4.26h6v-6.45c0-.796-.316-1.559-.879-2.121a2.996 2.996 0 0 0-4.242 0 2.996 2.996 0 0 0-.879 2.121v6.45Z" fill="#24272D"/></g><defs><clipPath id="a"><path fill="#fff" d="M0 0h520v380H0z"/></clipPath></defs></svg>