<svg width="58" height="31" viewBox="0 0 58 31" xmlns="http://www.w3.org/2000/svg" xmlns:xlink="http://www.w3.org/1999/xlink"><title>PHP-logo</title><defs><path d="M.053 14.944C.053 6.722 12.715.057 28.335.057c15.619 0 28.28 6.665 28.28 14.887 0 8.221-12.661 14.886-28.28 14.886-15.62 0-28.282-6.665-28.282-14.886" id="a"/><radialGradient cx="30.02%" cy="82.422%" fx="30.02%" fy="82.422%" r=".181%" id="c"><stop stop-color="#AEB2D5" offset="0%"/><stop stop-color="#AEB2D5" offset="30%"/><stop stop-color="#484C89" offset="75%"/><stop stop-color="#484C89" offset="100%"/></radialGradient><path id="d" d="M0 33.163h58.92V0H0z"/><path id="f" d="M0 33.163h58.92V0H0z"/></defs><g fill="none" fill-rule="evenodd"><g transform="matrix(1 0 0 -1 .674 30.18)"><mask id="b" fill="#fff"><use xlink:href="#a"/></mask><g mask="url(#b)"><path d="M.053 14.944C.053 6.722 12.715.057 28.335.057c15.619 0 28.28 6.665 28.28 14.887 0 8.221-12.661 14.886-28.28 14.886-15.62 0-28.282-6.665-28.282-14.886" fill-rule="nonzero" fill="url(#c)"/></g></g><g transform="matrix(1 0 0 -1 -.45 31.818)"><mask id="e" fill="#fff"><use xlink:href="#d"/></mask><g mask="url(#e)"><path d="M29.46 2.8c15.009 0 27.176 6.17 27.176 13.781 0 7.612-12.167 13.782-27.176 13.782-15.01 0-27.177-6.17-27.177-13.781C2.283 8.97 14.451 2.8 29.46 2.8" fill="#777BB3" fill-rule="nonzero"/></g></g><g transform="matrix(1 0 0 -1 -.45 31.818)"><mask id="g" fill="#fff"><use xlink:href="#f"/></mask><g mask="url(#g)"><path d="M16.543 14.873c1.235 0 2.156.228 2.739.677.577.444.975 1.214 1.184 2.288.194 1.003.12 1.704-.22 2.083-.35.386-1.103.582-2.24.582h-1.972l-1.094-5.63h1.603zm-6.45-6.934a.306.306 0 0 0-.301.365l2.897 14.918a.308.308 0 0 0 .302.249h6.245c1.963 0 3.424-.533 4.342-1.585.924-1.058 1.208-2.536.848-4.393a7.012 7.012 0 0 0-.75-2.09 6.998 6.998 0 0 0-1.383-1.732 6.069 6.069 0 0 0-2.276-1.364c-.818-.267-1.87-.402-3.124-.402h-2.53l-.721-3.718a.307.307 0 0 0-.301-.248h-3.248z" fill="#000" fill-rule="nonzero"/><path d="M16.287 20.196h1.719c1.373 0 1.85-.302 2.012-.481.269-.299.32-.928.147-1.819-.195-.998-.554-1.706-1.07-2.103-.528-.407-1.387-.613-2.551-.613h-1.231l.974 5.016zm2.949 3.582H12.99a.614.614 0 0 1-.603-.497L9.49 8.363a.614.614 0 0 1 .602-.731h3.248c.293 0 .546.208.602.497l.674 3.469h2.276c1.287 0 2.371.14 3.22.417a6.371 6.371 0 0 1 2.39 1.431 7.334 7.334 0 0 1 1.44 1.808c.367.657.63 1.392.784 2.18.38 1.956.071 3.522-.918 4.654-.978 1.122-2.517 1.69-4.572 1.69zm-4.668-9.212h1.975c1.31 0 2.285.247 2.926.74.641.494 1.073 1.318 1.298 2.473.215 1.109.117 1.891-.294 2.347-.41.456-1.233.684-2.467.684H15.78l-1.213-6.244zm4.668 8.598c1.879 0 3.25-.493 4.11-1.48.862-.987 1.122-2.365.778-4.133a6.684 6.684 0 0 0-.718-1.998 6.648 6.648 0 0 0-1.321-1.656 5.73 5.73 0 0 0-2.162-1.297c-.793-.26-1.802-.388-3.03-.388h-2.782l-.77-3.966h-3.248l2.898 14.918h6.245z" fill="#FFF" fill-rule="nonzero"/><path d="M31.872 11.905a.306.306 0 0 0-.301.366l1.281 6.6c.122.628.092 1.079-.084 1.269-.109.116-.433.312-1.392.312h-2.322l-1.612-8.299a.307.307 0 0 0-.301-.248h-3.222a.307.307 0 0 0-.302.366l2.898 14.918a.307.307 0 0 0 .301.248h3.222a.307.307 0 0 0 .302-.365l-.7-3.601h2.499c1.903 0 3.193-.336 3.945-1.026.766-.705 1.005-1.832.71-3.35l-1.348-6.941a.307.307 0 0 0-.3-.25h-3.274z" fill="#000" fill-rule="nonzero"/><path d="M30.039 27.744h-3.222a.614.614 0 0 1-.603-.497L23.316 12.33a.614.614 0 0 1 .603-.731h3.222c.294 0 .546.208.603.497l1.563 8.05h2.07c.957 0 1.158-.205 1.166-.214.058-.062.135-.352.01-1.001l-1.283-6.6a.615.615 0 0 1 .603-.732h3.273c.294 0 .546.208.603.497l1.347 6.942c.316 1.63.046 2.852-.804 3.634-.811.745-2.17 1.107-4.153 1.107h-2.126l.628 3.235a.614.614 0 0 1-.602.731m0-.614l-.77-3.966h2.87c1.806 0 3.052-.316 3.737-.946.686-.63.891-1.652.617-3.064l-1.348-6.942h-3.273l1.282 6.6c.146.751.092 1.264-.161 1.537-.254.273-.793.41-1.617.41H28.8l-1.66-8.547h-3.222l2.899 14.918h3.222" fill="#FFF" fill-rule="nonzero"/><path d="M41.893 14.873c1.234 0 2.156.228 2.738.677.577.444.976 1.214 1.185 2.288.194 1.003.12 1.704-.22 2.083-.35.386-1.103.582-2.24.582h-1.973l-1.093-5.63h1.603zm-6.45-6.934a.306.306 0 0 0-.302.365l2.898 14.918a.308.308 0 0 0 .302.249h6.245c1.963 0 3.423-.533 4.342-1.585.923-1.058 1.208-2.536.848-4.393a7.003 7.003 0 0 0-.751-2.09 6.993 6.993 0 0 0-1.382-1.732 6.07 6.07 0 0 0-2.276-1.364c-.818-.267-1.87-.402-3.125-.402h-2.529l-.721-3.718a.307.307 0 0 0-.302-.248h-3.247z" fill="#000" fill-rule="nonzero"/><path d="M41.636 20.196h1.72c1.372 0 1.85-.302 2.011-.481.27-.299.32-.928.147-1.819-.194-.998-.554-1.706-1.07-2.103-.528-.407-1.386-.613-2.55-.613h-1.232l.974 5.016zm2.95 3.582H38.34a.614.614 0 0 1-.602-.497L34.84 8.363a.614.614 0 0 1 .603-.731h3.247c.294 0 .547.208.603.497l.674 3.469h2.275c1.287 0 2.37.14 3.22.417a6.369 6.369 0 0 1 2.39 1.432 7.3 7.3 0 0 1 1.439 1.807 7.33 7.33 0 0 1 .784 2.18c.38 1.956.072 3.521-.917 4.654-.978 1.121-2.517 1.69-4.572 1.69zm-4.668-9.212h1.975c1.31 0 2.285.247 2.926.74.641.494 1.073 1.318 1.298 2.473.215 1.109.117 1.891-.294 2.347-.411.456-1.233.684-2.467.684H41.13l-1.212-6.244zm4.667 8.598c1.88 0 3.25-.493 4.112-1.48.86-.987 1.12-2.365.777-4.133a6.684 6.684 0 0 0-.718-1.998 6.648 6.648 0 0 0-1.322-1.656 5.73 5.73 0 0 0-2.161-1.297c-.793-.26-1.803-.388-3.03-.388h-2.782l-.77-3.966h-3.248l2.897 14.918h6.245z" fill="#FFF" fill-rule="nonzero"/></g></g></g></svg>