<svg width="32" height="32" viewBox="0 0 32 32" xmlns="http://www.w3.org/2000/svg"><title>Ruby_logo</title><defs><linearGradient x1="84.75%" y1="111.399%" x2="58.254%" y2="64.584%" id="a"><stop stop-color="#FB7655" offset="0%"/><stop stop-color="#FB7655" offset="0%"/><stop stop-color="#E42B1E" offset="41%"/><stop stop-color="#900" offset="99%"/><stop stop-color="#900" offset="100%"/></linearGradient><linearGradient x1="116.651%" y1="60.89%" x2="1.746%" y2="19.288%" id="b"><stop stop-color="#871101" offset="0%"/><stop stop-color="#871101" offset="0%"/><stop stop-color="#911209" offset="99%"/><stop stop-color="#911209" offset="100%"/></linearGradient><linearGradient x1="75.774%" y1="219.327%" x2="38.978%" y2="7.829%" id="c"><stop stop-color="#871101" offset="0%"/><stop stop-color="#871101" offset="0%"/><stop stop-color="#911209" offset="99%"/><stop stop-color="#911209" offset="100%"/></linearGradient><linearGradient x1="50.012%" y1="7.234%" x2="66.483%" y2="79.135%" id="d"><stop stop-color="#FFF" offset="0%"/><stop stop-color="#FFF" offset="0%"/><stop stop-color="#E57252" offset="23%"/><stop stop-color="#DE3B20" offset="46%"/><stop stop-color="#A60003" offset="99%"/><stop stop-color="#A60003" offset="100%"/></linearGradient><linearGradient x1="46.174%" y1="16.348%" x2="49.932%" y2="83.047%" id="e"><stop stop-color="#FFF" offset="0%"/><stop stop-color="#FFF" offset="0%"/><stop stop-color="#E4714E" offset="23%"/><stop stop-color="#BE1A0D" offset="56%"/><stop stop-color="#A80D00" offset="99%"/><stop stop-color="#A80D00" offset="100%"/></linearGradient><linearGradient x1="36.965%" y1="15.594%" x2="49.528%" y2="92.478%" id="f"><stop stop-color="#FFF" offset="0%"/><stop stop-color="#FFF" offset="0%"/><stop stop-color="#E46342" offset="18%"/><stop stop-color="#C82410" offset="40%"/><stop stop-color="#A80D00" offset="99%"/><stop stop-color="#A80D00" offset="100%"/></linearGradient><linearGradient x1="13.609%" y1="58.346%" x2="85.764%" y2="-46.717%" id="g"><stop stop-color="#FFF" offset="0%"/><stop stop-color="#FFF" offset="0%"/><stop stop-color="#C81F11" offset="54%"/><stop stop-color="#BF0905" offset="99%"/><stop stop-color="#BF0905" offset="100%"/></linearGradient><linearGradient x1="27.624%" y1="21.135%" x2="50.745%" y2="79.056%" id="h"><stop stop-color="#FFF" offset="0%"/><stop stop-color="#FFF" offset="0%"/><stop stop-color="#DE4024" offset="31%"/><stop stop-color="#BF190B" offset="99%"/><stop stop-color="#BF190B" offset="100%"/></linearGradient><linearGradient x1="-20.667%" y1="122.282%" x2="104.242%" y2="-6.342%" id="i"><stop stop-color="#BD0012" offset="0%"/><stop stop-color="#BD0012" offset="0%"/><stop stop-color="#FFF" offset="7%"/><stop stop-color="#FFF" offset="17%"/><stop stop-color="#C82F1C" offset="27%"/><stop stop-color="#820C01" offset="33%"/><stop stop-color="#A31601" offset="46%"/><stop stop-color="#B31301" offset="72%"/><stop stop-color="#E82609" offset="99%"/><stop stop-color="#E82609" offset="100%"/></linearGradient><linearGradient x1="58.792%" y1="65.205%" x2="11.964%" y2="50.128%" id="j"><stop stop-color="#8C0C01" offset="0%"/><stop stop-color="#8C0C01" offset="0%"/><stop stop-color="#990C00" offset="54%"/><stop stop-color="#A80D0E" offset="99%"/><stop stop-color="#A80D0E" offset="100%"/></linearGradient><linearGradient x1="79.319%" y1="62.754%" x2="23.088%" y2="17.888%" id="k"><stop stop-color="#7E110B" offset="0%"/><stop stop-color="#7E110B" offset="0%"/><stop stop-color="#9E0C00" offset="99%"/><stop stop-color="#9E0C00" offset="100%"/></linearGradient><linearGradient x1="92.88%" y1="74.122%" x2="59.841%" y2="39.704%" id="l"><stop stop-color="#79130D" offset="0%"/><stop stop-color="#79130D" offset="0%"/><stop stop-color="#9E120B" offset="99%"/><stop stop-color="#9E120B" offset="100%"/></linearGradient><radialGradient cx="32.001%" cy="40.21%" fx="32.001%" fy="40.21%" r="69.573%" id="m"><stop stop-color="#A80D00" offset="0%"/><stop stop-color="#A80D00" offset="0%"/><stop stop-color="#7E0E08" offset="99%"/><stop stop-color="#7E0E08" offset="100%"/></radialGradient><radialGradient cx="13.549%" cy="40.86%" fx="13.549%" fy="40.86%" r="88.386%" id="n"><stop stop-color="#A30C00" offset="0%"/><stop stop-color="#A30C00" offset="0%"/><stop stop-color="#800E08" offset="99%"/><stop stop-color="#800E08" offset="100%"/></radialGradient><linearGradient x1="56.57%" y1="101.717%" x2="3.105%" y2="11.993%" id="o"><stop stop-color="#8B2114" offset="0%"/><stop stop-color="#8B2114" offset="0%"/><stop stop-color="#9E100A" offset="43%"/><stop stop-color="#B3100C" offset="99%"/><stop stop-color="#B3100C" offset="100%"/></linearGradient><linearGradient x1="30.87%" y1="35.599%" x2="92.471%" y2="100.694%" id="p"><stop stop-color="#B31000" offset="0%"/><stop stop-color="#B31000" offset="0%"/><stop stop-color="#910F08" offset="44%"/><stop stop-color="#791C12" offset="99%"/><stop stop-color="#791C12" offset="100%"/></linearGradient></defs><g fill="none" fill-rule="evenodd"><path fill="url(#a)" d="M24.42 20.747L6.424 31.433l23.302-1.581 1.795-23.496z" transform="translate(0 .25)"/><path fill="url(#b)" d="M29.764 29.836l-2.003-13.823-5.455 7.203z" transform="translate(0 .25)"/><path fill="url(#c)" d="M29.791 29.836l-14.673-1.152-8.616 2.72z" transform="translate(0 .25)"/><path fill="url(#d)" d="M6.523 31.406l3.665-12.008-8.066 1.725z" transform="translate(0 .25)"/><path fill="url(#e)" d="M22.305 23.256l-3.373-13.211-9.652 9.048z" transform="translate(0 .25)"/><path fill="url(#f)" d="M30.755 10.231L21.632 2.78l-2.541 8.214z" transform="translate(0 .25)"/><path fill="url(#g)" d="M26.489.122l-5.367 2.966L17.737.083z" transform="translate(0 .25)"/><path fill="url(#h)" d="M0 25.15l2.248-4.1L.43 16.168z" transform="translate(0 .25)"/><path d="M.309 16.262l1.83 5.19 7.949-1.784 9.076-8.435 2.561-8.135L17.692.25l-6.856 2.566c-2.16 2.01-6.353 5.985-6.504 6.06-.15.076-2.768 5.026-4.023 7.386z" fill="#FFF"/><path d="M6.733 6.69C11.415 2.047 17.45-.695 19.767 1.642c2.315 2.337-.14 8.016-4.822 12.657-4.682 4.64-10.643 7.535-12.958 5.198-2.316-2.336.064-8.167 4.746-12.807z" fill="url(#i)" transform="translate(0 .25)"/><path d="M6.523 31.401l3.637-12.046 12.078 3.88c-4.367 4.095-9.224 7.557-15.715 8.166z" fill="url(#j)" transform="translate(0 .25)"/><path d="M19.18 10.96l3.1 12.282c3.649-3.836 6.923-7.96 8.526-13.06l-11.626.778z" fill="url(#k)" transform="translate(0 .25)"/><path d="M30.775 10.244c1.24-3.745 1.527-9.118-4.325-10.115L21.65 2.78l9.126 7.463z" fill="url(#l)" transform="translate(0 .25)"/><path d="M0 25.347c.172 6.18 4.631 6.273 6.53 6.327L2.144 21.427 0 25.347z" fill="#9E1209"/><path d="M19.197 10.979c2.804 1.723 8.453 5.183 8.568 5.247.178.1 2.435-3.807 2.947-6.016l-11.515.769z" fill="url(#m)" transform="translate(0 .25)"/><path d="M10.155 19.355l4.862 9.38c2.874-1.56 5.125-3.459 7.187-5.493l-12.05-3.887z" fill="url(#n)" transform="translate(0 .25)"/><path d="M2.124 21.19l-.689 8.202c1.3 1.776 3.088 1.93 4.964 1.791-1.357-3.377-4.068-10.13-4.275-9.994z" fill="url(#o)" transform="translate(0 .25)"/><path d="M21.62 2.802l9.659 1.355C30.763 1.973 29.18.563 26.482.122l-4.862 2.68z" fill="url(#p)" transform="translate(0 .25)"/></g></svg>