<svg width="84" height="30" viewBox="0 0 84 30" xmlns="http://www.w3.org/2000/svg"><title>Ruby_On_Rails_Logo</title><g fill="#C00" fill-rule="evenodd"><path d="M72.497 25.76v3.781h6.832c1.4 0 3.802-1.023 3.886-3.886v-1.462c0-2.445-2.006-3.886-3.886-3.886h-3.406v-1.755h6.749v-3.803h-6.477c-1.672 0-3.907 1.38-3.907 3.949v1.316c0 2.57 2.215 3.886 3.907 3.886 4.7.021-1.128 0 3.217 0v1.839l-6.915.02zm-36.605-.92s3.657-.313 3.657-5.035c0-4.721-4.43-5.16-4.43-5.16h-7.98V29.54h4.01v-3.593l3.469 3.593h5.934l-4.66-4.7zm-1.546-3.05H31.15v-3.405h3.217s.899.334.899 1.692c0 1.358-.92 1.713-.92 1.713zm15.106-7.04h-4.074c-2.904 0-3.886 2.632-3.886 3.885v10.906h4.074V26.93h3.823v2.611h3.949V18.635c0-3.175-2.883-3.886-3.886-3.886zm-.063 7.96h-3.844v-3.615s0-.815 1.274-.815h1.4c1.128 0 1.15.815 1.15.815v3.614h.02zM55.197 14.749h4.241v14.792h-4.241zM65.393 25.718V14.749h-4.22v14.792h9.924v-3.823z"/><path d="M1.962 29.541h16.506s-3.155-14.395 7.291-20.224c2.278-1.107 9.528-5.244 21.395 3.531.376-.313.731-.564.731-.564S37.021 1.44 24.924 2.652c-6.08.544-13.56 6.08-17.947 13.393C2.589 23.357 1.963 29.54 1.963 29.54z"/><path d="M1.962 29.541h16.506s-3.155-14.395 7.291-20.224c2.278-1.107 9.528-5.244 21.395 3.531.376-.313.731-.564.731-.564S37.021 1.44 24.924 2.652c-6.08.544-13.56 6.08-17.947 13.393C2.589 23.357 1.963 29.54 1.963 29.54z"/><path d="M1.962 29.541h16.506s-3.155-14.395 7.291-20.224c2.278-1.107 9.528-5.244 21.395 3.531.376-.313.731-.564.731-.564S37.021 1.44 24.924 2.652c-6.101.544-13.58 6.08-17.968 13.393C2.568 23.357 1.962 29.54 1.962 29.54zm34.39-25.719l.084-1.4c-.188-.104-.71-.355-2.027-.73l-.083 1.378c.689.23 1.358.48 2.026.752z"/><path d="M34.367 8.252l-.083 1.316c.69.02 1.379.104 2.068.25l.084-1.295c-.71-.146-1.4-.23-2.069-.271zm-7.73-6.519h.209L26.428.459c-.648 0-1.316.041-2.006.125l.397 1.233a17.638 17.638 0 0 1 1.818-.084zm1.003 7.689l.48 1.441a13.218 13.218 0 0 1 1.818-.731l-.46-1.379c-.71.209-1.316.439-1.838.669zm-9.486-5.495l-.94-1.442a33.23 33.23 0 0 0-1.63.899l.962 1.462a21.036 21.036 0 0 1 1.608-.92zm4.284 9.402l1.002 1.504c.356-.522.773-1.003 1.233-1.484l-.94-1.42c-.48.438-.92.919-1.296 1.4zm-3.03 6.727l1.692 1.337c.084-.815.23-1.63.44-2.444l-1.505-1.191c-.272.773-.46 1.546-.627 2.298zm-9.151-9.924L8.774 8.837a36.203 36.203 0 0 0-1.546 1.567l1.608 1.379c.439-.565.92-1.129 1.421-1.651zm-6.31 9.34l-2.402-.878A54.049 54.049 0 0 0 .5 21.1l2.403.877c.271-.71.71-1.734 1.044-2.507zm15.148 5.89c.041 1.108.146 2.007.25 2.633l2.508.899a27.615 27.615 0 0 1-.502-2.716l-2.256-.815z"/></g></svg>