<svg width="47" height="27" viewBox="0 0 47 27" xmlns="http://www.w3.org/2000/svg"><title>Microsoft_.NET_Logo</title><g fill-rule="nonzero" fill="#000"><path d="M45.541 2.379c0-.092-.025-.157-.076-.2-.057-.045-.156-.07-.293-.07h-.198v.543h.238c.22 0 .33-.092.33-.273zm.308 1.13h-.271l-.173-.381c-.088-.191-.182-.287-.285-.287h-.146v.669h-.223V1.919h.448c.199 0 .348.043.45.133.088.077.131.176.131.3 0 .11-.035.201-.107.278a.536.536 0 0 1-.297.156v.007c.089.021.177.118.263.294l.21.423zm.495-.78c0-.312-.107-.576-.32-.786a1.076 1.076 0 0 0-.782-.314 1.074 1.074 0 0 0-1.105 1.101c0 .317.109.582.324.793.213.212.474.316.781.316.305 0 .566-.105.78-.32.215-.21.322-.474.322-.79zm.15-.006c0 .351-.12.646-.363.883-.242.24-.54.358-.895.358-.358 0-.655-.117-.892-.348a1.19 1.19 0 0 1-.354-.883c0-.35.12-.642.36-.883.24-.24.54-.36.896-.36.35 0 .644.115.883.344.244.234.366.53.366.889zM12.497 7.159h-.77V2.746c0-.348.022-.772.063-1.273h-.017a4.177 4.177 0 0 1-.197.636l-2.24 5.05H8.96L6.715 2.146a3.664 3.664 0 0 1-.197-.673h-.016c.023.263.037.69.037 1.282V7.16h-.744V.589h1.017l2.016 4.58c.152.346.25.608.298.787h.032c.131-.359.236-.628.315-.805L11.532.588h.965v6.57zM14.869 7.158h-.75V2.466h.75v4.692zm.13-6.374a.47.47 0 0 1-.146.349.477.477 0 0 1-.35.142.484.484 0 0 1-.345-.137.468.468 0 0 1-.143-.354c0-.135.048-.25.143-.345A.476.476 0 0 1 14.504.3c.137 0 .254.045.35.14.096.093.144.209.144.344zM19.551 6.941c-.36.221-.789.33-1.285.33-.673 0-1.215-.223-1.628-.669-.402-.433-.604-.992-.604-1.676 0-.769.22-1.391.663-1.864.44-.474 1.033-.71 1.779-.71.408 0 .77.08 1.086.238v.77a1.904 1.904 0 0 0-1.118-.367c-.478 0-.867.167-1.168.5-.314.34-.473.796-.473 1.365 0 .546.145.978.434 1.297.289.317.674.476 1.16.476.41 0 .794-.135 1.154-.403v.713zM23.135 3.227c-.132-.101-.322-.15-.574-.15-.305 0-.561.136-.769.411-.235.308-.353.734-.353 1.278v2.392h-.75V2.466h.75v.968h.018c.11-.343.281-.606.509-.793.213-.17.454-.257.719-.257.2 0 .348.022.45.064v.78zM27.32 4.82c0-.6-.135-1.059-.406-1.373-.263-.303-.631-.454-1.105-.454-.467 0-.841.153-1.121.459-.297.327-.444.788-.444 1.387 0 .562.14 1.002.425 1.317.282.316.663.475 1.14.475.494 0 .872-.161 1.131-.481.254-.313.38-.756.38-1.33m.77-.026c0 .748-.21 1.349-.631 1.799-.423.452-.991.678-1.705.678-.705 0-1.265-.226-1.676-.678-.403-.436-.605-1.011-.605-1.726 0-.817.228-1.446.687-1.893.424-.414.992-.623 1.703-.623.7 0 1.247.218 1.64.65.39.435.588 1.033.588 1.793M31.815 5.903c0 .384-.143.702-.43.956-.315.275-.746.412-1.288.412-.444 0-.834-.093-1.164-.282V6.18c.368.3.774.45 1.22.45.594 0 .892-.22.892-.656a.58.58 0 0 0-.197-.453c-.132-.12-.389-.263-.77-.43-.393-.173-.673-.35-.838-.533-.198-.217-.298-.5-.298-.847 0-.39.155-.714.463-.972.309-.26.705-.389 1.192-.389.373 0 .706.073 1.003.22v.757a1.77 1.77 0 0 0-1.065-.335c-.249 0-.449.062-.597.182a.585.585 0 0 0-.226.473c0 .208.063.37.188.485.112.107.348.238.705.39.4.167.69.341.866.52.229.225.344.511.344.86M36.405 4.82c0-.6-.136-1.059-.408-1.373-.262-.303-.63-.454-1.103-.454-.467 0-.842.153-1.124.459-.295.327-.442.788-.442 1.387 0 .562.14 1.002.422 1.317.286.316.667.475 1.144.475.494 0 .871-.161 1.13-.481.254-.313.381-.756.381-1.33m.772-.026c0 .748-.213 1.349-.635 1.799-.42.452-.989.678-1.703.678-.705 0-1.266-.226-1.677-.678-.402-.436-.605-1.011-.605-1.726 0-.817.23-1.446.687-1.893.424-.414.992-.623 1.704-.623.7 0 1.246.218 1.639.65.39.435.59 1.033.59 1.793M40.486.872a1.008 1.008 0 0 0-.499-.123c-.526 0-.786.33-.786.994v.723h1.1v.636h-1.1v4.056h-.752V3.102h-.798v-.636h.798v-.76c0-.517.158-.922.48-1.214.275-.254.612-.38 1.013-.38.232 0 .413.028.544.082v.678zM43.45 7.111c-.177.102-.413.152-.705.152-.82 0-1.229-.461-1.229-1.385V3.103h-.804v-.637h.804V1.32c.24-.075.49-.158.753-.243v1.388h1.181v.637h-1.18v2.648c0 .314.05.54.158.67.109.135.286.2.537.2.186 0 .348-.05.485-.15v.64zM2.851 25.47c0 .368-.131.686-.396.955a1.302 1.302 0 0 1-.962.403 1.25 1.25 0 0 1-.937-.403 1.335 1.335 0 0 1-.384-.954c0-.378.128-.697.384-.962.257-.265.57-.396.937-.396.377 0 .698.133.962.402.265.268.396.587.396.956M19.667 26.551h-2.45l-8.89-13.73a6.3 6.3 0 0 1-.54-1.082h-.073c.063.368.096 1.157.096 2.366V26.55H5.79V9.324h2.621l8.625 13.515c.344.536.578.92.698 1.152h.048c-.08-.496-.122-1.34-.122-2.533V9.324h2.007v17.227zM32.612 26.551h-9.13V9.324h8.733v1.826H25.5v5.73h6.223v1.827H25.5v6.018h7.113v1.826zM46.46 11.15h-4.962v15.402H39.48V11.15h-4.972V9.324H46.46z"/></g></svg>