<svg width="55" height="35" viewBox="0 0 55 35" xmlns="http://www.w3.org/2000/svg" xmlns:xlink="http://www.w3.org/1999/xlink"><title>Node.js_logo</title><defs><path d="M5.535 13.2L.356 10.211a.625.625 0 0 1-.313-.541V3.688c0-.223.12-.43.313-.542L5.535.156a.626.626 0 0 1 .626 0l5.177 2.99a.626.626 0 0 1 .313.542V9.67c0 .223-.12.43-.313.541L6.16 13.2a.626.626 0 0 1-.625 0" id="a"/><linearGradient x1="-4418.47%" y1="16.568%" x2="5323.229%" y2="16.568%" id="c"><stop stop-color="#9BB48F" offset="0%"/><stop stop-color="#9BB48F" offset="9.192%"/><stop stop-color="#9BB48F" offset="30.263%"/><stop stop-color="#687E67" offset="86.244%"/><stop stop-color="#687E67" offset="100%"/></linearGradient><path d="M5.535 13.2L.356 10.211a.625.625 0 0 1-.313-.541V3.688c0-.223.12-.43.313-.542L5.535.156a.626.626 0 0 1 .626 0l5.177 2.99a.626.626 0 0 1 .313.542V9.67c0 .223-.12.43-.313.541L6.16 13.2a.626.626 0 0 1-.625 0" id="d"/><linearGradient x1="-9713.77%" y1="31.987%" x2="27.929%" y2="31.987%" id="f"><stop stop-color="#9BB48F" offset="0%"/><stop stop-color="#9BB48F" offset="9.192%"/><stop stop-color="#9BB48F" offset="30.263%"/><stop stop-color="#687E67" offset="86.244%"/><stop stop-color="#687E67" offset="100%"/></linearGradient><linearGradient x1="68.141%" y1="82.52%" x2="27.833%" y2="10.281%" id="g"><stop stop-color="#687E67" offset="0%"/><stop stop-color="#687E67" offset="52.88%"/><stop stop-color="#83A178" offset="100%"/></linearGradient><linearGradient x1="43.204%" y1="44.778%" x2="159.268%" y2="118.3%" id="h"><stop stop-color="#687E67" offset="0%"/><stop stop-color="#687E67" offset="13.756%"/><stop stop-color="#9BB48F" offset="69.737%"/><stop stop-color="#9BB48F" offset="90.808%"/><stop stop-color="#9BB48F" offset="100%"/></linearGradient><linearGradient x1="-4.533%" y1="49.998%" x2="101.719%" y2="49.998%" id="i"><stop stop-color="#9BB48F" offset="0%"/><stop stop-color="#9BB48F" offset="9.192%"/><stop stop-color="#9BB48F" offset="30.263%"/><stop stop-color="#687E67" offset="86.244%"/><stop stop-color="#687E67" offset="100%"/></linearGradient><path d="M5.535 13.2L.356 10.211a.625.625 0 0 1-.313-.541V3.688c0-.223.12-.43.313-.542L5.535.156a.626.626 0 0 1 .626 0l5.177 2.99a.626.626 0 0 1 .313.542V9.67c0 .223-.12.43-.313.541L6.16 13.2a.626.626 0 0 1-.625 0" id="j"/><linearGradient x1="-103.698%" y1="49.999%" x2="100.586%" y2="49.999%" id="l"><stop stop-color="#9BB48F" offset="0%"/><stop stop-color="#9BB48F" offset="9.192%"/><stop stop-color="#9BB48F" offset="30.263%"/><stop stop-color="#687E67" offset="86.244%"/><stop stop-color="#687E67" offset="100%"/></linearGradient><path d="M5.535 13.2L.356 10.211a.625.625 0 0 1-.313-.541V3.688c0-.223.12-.43.313-.542L5.535.156a.626.626 0 0 1 .626 0l5.177 2.99a.626.626 0 0 1 .313.542V9.67c0 .223-.12.43-.313.541L6.16 13.2a.626.626 0 0 1-.625 0" id="m"/><linearGradient x1="130.347%" y1="311.036%" x2="4.358%" y2="-101.153%" id="o"><stop stop-color="#687E67" offset="0%"/><stop stop-color="#687E67" offset="52.88%"/><stop stop-color="#83A178" offset="100%"/></linearGradient></defs><g fill="none" fill-rule="evenodd"><g transform="matrix(1 0 0 -1 14.376 21.813)"><mask id="b" fill="#fff"><use xlink:href="#a"/></mask><g mask="url(#b)"><path d="M.302.166L.012 0h.387z" fill-rule="nonzero" fill="url(#c)" transform="translate(5.285 14.258)"/></g></g><g transform="matrix(1 0 0 -1 14.376 21.813)"><mask id="e" fill="#fff"><use xlink:href="#d"/></mask><g mask="url(#e)"><path d="M.14.136L0 .373v-.32l.14.082z" fill-rule="nonzero" fill="url(#f)" transform="translate(11.8 3.196)"/></g></g><path d="M27.03 34.22a1.03 1.03 0 0 1-.515-.138l-1.64-.97c-.244-.137-.124-.185-.044-.213.327-.114.393-.14.742-.338.036-.02.084-.012.122.01l1.259.747c.046.026.11.026.152 0l4.91-2.834a.155.155 0 0 0 .075-.133v-5.666a.158.158 0 0 0-.076-.136l-4.908-2.831a.154.154 0 0 0-.151 0l-4.907 2.832a.158.158 0 0 0-.078.135v5.666c0 .055.03.106.077.132l1.345.777c.73.365 1.177-.065 1.177-.497v-5.595c0-.079.064-.141.143-.141h.622c.078 0 .143.062.143.141v5.595c0 .974-.53 1.533-1.454 1.533-.284 0-.508 0-1.131-.307l-1.288-.742a1.037 1.037 0 0 1-.515-.896v-5.666c0-.368.197-.712.515-.895l4.91-2.838c.31-.175.724-.175 1.032 0l4.91 2.838c.318.184.516.527.516.895v5.666c0 .369-.198.711-.516.896l-4.91 2.835a1.03 1.03 0 0 1-.517.138" fill-rule="nonzero" fill="#689F63"/><path d="M28.547 30.316c-2.149 0-2.599-.986-2.599-1.814 0-.078.063-.141.142-.141h.635c.07 0 .13.05.14.12.097.646.383.973 1.682.973 1.034 0 1.475-.234 1.475-.783 0-.317-.125-.551-1.733-.709-1.343-.133-2.174-.43-2.174-1.504 0-.991.835-1.582 2.235-1.582 1.573 0 2.352.546 2.45 1.717.004.04-.01.08-.037.11a.145.145 0 0 1-.104.045h-.638a.141.141 0 0 1-.137-.111c-.153-.68-.525-.897-1.534-.897-1.13 0-1.26.393-1.26.688 0 .357.154.46 1.68.663 1.508.2 2.225.482 2.225 1.542 0 1.07-.892 1.683-2.448 1.683M34.526 24.308h.165c.135 0 .16-.095.16-.15 0-.146-.1-.146-.155-.146h-.17v.296zm-.2-.466h.365c.125 0 .37 0 .37.28 0 .196-.124.236-.2.261.146.01.156.105.176.24.01.085.025.23.055.28h-.225c-.006-.05-.04-.32-.04-.335-.015-.06-.036-.09-.11-.09h-.186v.426h-.205v-1.062zm-.438.528c0 .441.355.797.79.797a.8.8 0 0 0 .797-.797.794.794 0 0 0-1.587 0zm1.74.003c0 .52-.426.946-.947.946a.949.949 0 0 1-.946-.946.946.946 0 1 1 1.893 0z" fill-rule="nonzero" fill="#689F63"/><path d="M11.825 12.05a.628.628 0 0 0-.315-.547L6.304 8.507a.612.612 0 0 0-.286-.083h-.054a.62.62 0 0 0-.288.083L.47 11.503a.63.63 0 0 0-.314.546l.011 8.068c0 .112.058.216.157.271a.303.303 0 0 0 .312 0l3.094-1.771a.634.634 0 0 0 .315-.546v-3.769c0-.225.12-.433.314-.544l1.317-.759a.626.626 0 0 1 .628 0l1.317.759c.195.111.315.32.315.544v3.77c0 .223.12.43.315.545l3.093 1.771a.314.314 0 1 0 .47-.272l.01-8.067zM36.39 16.25c0 .056-.03.108-.078.136l-1.788 1.03a.158.158 0 0 1-.157 0l-1.788-1.03a.157.157 0 0 1-.079-.136v-2.065c0-.056.03-.108.079-.136l1.788-1.033a.157.157 0 0 1 .157 0l1.788 1.033c.049.028.079.08.079.136v2.065zM36.875.96a.315.315 0 0 0-.468.274v7.99a.22.22 0 0 1-.33.19l-1.304-.751a.629.629 0 0 0-.628 0l-5.208 3.005a.629.629 0 0 0-.315.545v6.012c0 .225.12.433.315.545l5.208 3.008a.63.63 0 0 0 .629 0l5.208-3.008a.63.63 0 0 0 .315-.545V3.238a.629.629 0 0 0-.323-.55L36.874.96zM54.216 14.131a.629.629 0 0 0 .313-.544V12.13a.629.629 0 0 0-.313-.543L49.04 8.582a.629.629 0 0 0-.63 0l-5.206 3.005a.629.629 0 0 0-.315.544v6.011c0 .226.122.435.318.547l5.174 2.948c.19.109.424.11.616.003l3.13-1.74a.314.314 0 0 0 .004-.547l-5.24-3.007a.314.314 0 0 1-.157-.273V14.19c0-.113.06-.217.157-.273l1.63-.94a.314.314 0 0 1 .314 0l1.632.94c.097.056.157.16.157.273v1.482a.315.315 0 0 0 .473.272l3.118-1.813z" fill="#333"/><path d="M48.65 13.85a.12.12 0 0 1 .12 0l1 .576a.12.12 0 0 1 .06.105v1.154a.12.12 0 0 1-.06.104l-1 .577a.12.12 0 0 1-.12 0l-1-.577a.12.12 0 0 1-.06-.104V14.53a.12.12 0 0 1 .06-.105l1-.576z" fill="#689F63"/><g transform="matrix(1 0 0 -1 14.376 21.813)" fill-rule="nonzero" fill="url(#g)"><path d="M5.535 13.2L.356 10.211a.625.625 0 0 1-.313-.541V3.688c0-.223.12-.43.313-.542L5.535.156a.626.626 0 0 1 .626 0l5.177 2.99a.626.626 0 0 1 .313.542V9.67c0 .223-.12.43-.313.541L6.16 13.2a.625.625 0 0 1-.625 0"/></g><g transform="matrix(1 0 0 -1 14.499 21.813)" fill-rule="nonzero" fill="url(#h)"><path d="M.05 3.308a.626.626 0 0 1 .183-.162L4.676.581l.74-.426a.63.63 0 0 1 .36-.081.63.63 0 0 1 .123.022l5.461 10a.622.622 0 0 1-.145.115L7.824 12.17 6.032 13.2a.625.625 0 0 1-.163.065L.05 3.308z"/></g><g transform="matrix(1 0 0 -1 14.745 21.813)" fill-rule="nonzero" fill="url(#i)"><path d="M5.416 13.28a.623.623 0 0 1-.25-.08L.002 10.22 5.57.078a.625.625 0 0 1 .223.077l5.177 2.991c.16.093.27.25.302.428L5.596 13.27a.616.616 0 0 1-.18.01"/></g><g><g transform="matrix(1 0 0 -1 14.376 21.813)"><mask id="k" fill="#fff"><use xlink:href="#j"/></mask><g mask="url(#k)"><path d="M5.451 3.27L.267.277A.625.625 0 0 0 .038.2L.142.012 5.9 3.345v.079l-.143.243a.655.655 0 0 0-.306-.398" fill-rule="nonzero" fill="url(#l)" transform="translate(5.9 -.123)"/></g></g></g><g><g transform="matrix(1 0 0 -1 14.376 21.813)"><mask id="n" fill="#fff"><use xlink:href="#m"/></mask><g mask="url(#n)"><path d="M5.451 3.27L.267.277A.625.625 0 0 0 .038.2L.142.012 5.9 3.345v.079l-.143.243a.655.655 0 0 0-.306-.398" fill-rule="nonzero" fill="url(#o)" transform="translate(5.9 -.123)"/></g></g></g></g></svg>