<svg xmlns="http://www.w3.org/2000/svg" width="137" height="46" viewBox="0 0 137 46">
  <g fill="none">
    <g fill="#000">
      <path d="M125.737196,1.35525272e-18 L10.8854263,1.35525272e-18 C10.4667772,1.35525272e-18 10.0531513,1.35525272e-18 9.63560958,0.0023 C9.28608833,0.0046 8.93935275,0.0112815 8.586475,0.016905 C7.81986145,0.0259920742 7.05505072,0.0939276989 6.29868917,0.2201215 C5.54338999,0.349062522 4.81175112,0.592153101 4.12851783,0.9411715 C3.44612016,1.29314247 2.8225939,1.75049266 2.28055908,2.2966305 C1.73567868,2.84123254 1.2814788,3.47071883 0.935424583,4.160884 C0.588415276,4.84967549 0.347797902,5.58777904 0.221882917,6.349702 C0.0947708245,7.11066264 0.0263706512,7.88039862 0.01729625,8.652002 C0.00670158333,9.004592 0.00558275,9.358355 0,9.710991 L0,36.29239 C0.00558275,36.649465 0.00670158333,36.995385 0.01729625,37.352575 C0.0263734339,38.1241401 0.0947736083,38.8938377 0.221882917,39.65476 C0.347450213,40.4171284 0.588081814,41.1556556 0.935424583,41.844705 C1.28132167,42.5326383 1.73558543,43.1595761 2.28055908,43.70115 C2.82053867,44.2497162 3.44446797,44.7073775 4.12851783,45.056655 C4.81174593,45.4066075 5.54330592,45.651145 6.29868917,45.782075 C7.0551793,45.9072579 7.81991138,45.9752212 8.586475,45.985395 C8.93935275,45.993215 9.28608833,45.9977 9.63560958,45.9977 C10.0531399,46 10.4668,46 10.8854263,46 L125.737196,46 C126.147511,46 126.564447,46 126.974762,45.9977 C127.322628,45.9977 127.679399,45.993215 128.027265,45.985395 C128.792379,45.9757623 129.555672,45.9077947 130.310598,45.782075 C131.068418,45.6502233 131.802601,45.4057506 132.489127,45.056655 C133.172559,44.7071753 133.795913,44.2495264 134.33543,43.70115 C134.878997,43.1574551 135.334231,42.5309758 135.684423,41.844705 C136.02916,41.1551544 136.267501,40.4166862 136.391229,39.65476 C136.518542,38.8937333 136.589369,38.1242069 136.603122,37.352575 C136.607575,36.995385 136.607575,36.649465 136.607575,36.29239 C136.61648,35.874595 136.61648,35.4591 136.61648,35.03452 L136.61648,10.9665495 C136.61648,10.545408 136.61648,10.127636 136.607575,9.710991 C136.607575,9.358355 136.607575,9.004592 136.603122,8.651956 C136.589372,7.88028581 136.518545,7.11072102 136.391229,6.349656 C136.267156,5.58817384 136.028829,4.85012877 135.684423,4.160838 C134.9797,2.77747549 133.862213,1.65142921 132.489127,0.941068 C131.802599,0.592902487 131.068338,0.349876471 130.310598,0.220018 C129.555802,0.0932682006 128.79243,0.0253089296 128.027265,0.016744 C127.679399,0.011132 127.322628,0.004393 126.974762,0.0021505 C126.564447,-0.0001495 126.147511,-0.0001495 125.737196,-0.0001495 L125.737196,1.35525272e-18 Z"/>
      <path d="M9.64118092,44.99375 C9.29333792,44.99375 8.95389758,44.989265 8.60878317,44.981445 C7.89385069,44.9720619 7.18058919,44.9093688 6.47484833,44.79388 C5.81678059,44.6797174 5.17928985,44.4673541 4.5834035,44.163795 C3.99298111,43.8627511 3.45446843,43.4680138 2.98849517,42.994705 C2.51577704,42.5269715 2.1222176,41.9844806 1.82341292,41.38873 C1.52131566,40.7891075 1.31224637,40.1463845 1.20348792,39.48295 C1.08603823,38.7700821 1.02249308,38.0492602 1.01340042,37.3267 C1.00616225,37.084165 0.996686417,36.276635 0.996686417,36.276635 L0.996686417,9.710991 C0.996686417,9.710991 1.00677875,8.9158695 1.0134575,8.68227 C1.02216365,7.96085436 1.08533929,7.24115106 1.20243758,6.5293895 C1.31139679,5.86413759 1.52062793,5.2195612 1.82288775,4.6179745 C2.12059426,4.02263543 2.51196873,3.47973934 2.98183925,3.010332 C3.45118165,2.53646463 3.99141692,2.13969474 4.58284408,1.8344915 C5.17736091,1.53190764 5.81364688,1.32104243 6.47038442,1.2089605 C7.17844304,1.09231156 7.89418071,1.0292455 8.61159167,1.0202915 L9.64174033,1.00625 L126.969168,1.00625 L128.011624,1.020855 C128.722509,1.02936408 129.431745,1.09186751 130.133297,1.2078335 C130.796683,1.32132133 131.4396,1.53365786 132.040908,1.837861 C133.225751,2.45293396 134.189835,3.42603739 134.798033,4.6207805 C135.095469,5.2182142 135.301472,5.85753277 135.409053,6.5170385 C135.527546,7.23464009 135.593863,7.95999909 135.607475,8.68733 C135.610786,9.01301 135.610786,9.36284 135.610786,9.710991 C135.619805,10.142241 135.619805,10.5527105 135.619805,10.9665495 L135.619805,35.03452 C135.619805,35.452315 135.619805,35.85999 135.610786,36.271 C135.610786,36.64498 135.610786,36.987565 135.606333,37.340155 C135.593016,38.054507 135.527805,38.7669189 135.411222,39.47168 C135.304693,40.1399003 135.096762,40.7876401 134.794722,41.39218 C134.493805,41.9814643 134.102506,42.5192561 133.635246,42.985735 C133.168853,43.4615873 132.62939,43.8586341 132.037597,44.16161 C131.437955,44.4675027 130.795985,44.6806513 130.133297,44.79388 C129.42761,44.9099851 128.71428,44.9726822 127.999294,44.981445 C127.6649,44.989265 127.314751,44.99375 126.974762,44.99375 L125.737196,44.99605 L9.64118092,44.99375 Z"/>
    </g>
    <g fill="#FFF" transform="translate(11.275 9.2)">
      <path d="M17.0028047 14.145782C17.0277581 12.1948405 18.0431403 10.392764 19.6932107 9.370913 18.6475269 7.86658968 16.9588642 6.94701011 15.1366363 6.889581 13.219504 6.686882 11.3609277 8.0451355 10.3839922 8.0451355 9.38815058 8.0451355 7.88400475 6.909706 6.264288 6.9432745 4.13316311 7.01262918 2.19453994 8.2035543 1.15770433 10.080325-1.050279 13.931008.596677917 19.5902155 2.711741 22.702817 3.76995183 24.2269695 5.0066965 25.929487 6.62495192 25.869112 8.20851208 25.8029525 8.79994108 24.85196 10.7114336 24.85196 12.6051846 24.85196 13.1600688 25.869112 14.8111586 25.830725 16.5103924 25.802941 17.5809903 24.299799 18.6020742 22.761214 19.3623969 21.6751997 19.947464 20.4749173 20.3356037 19.2048275 18.3174299 18.3450085 17.0051602 16.3530395 17.0028047 14.145782zM13.8841937 4.8425235C14.8106866 3.72218419 15.2671345 2.28217782 15.1566041.8283105 13.741129.978064061 12.4336266 1.65950713 11.4946169 2.736862 10.567388 3.79981738 10.097656 5.19044758 10.1888813 6.6024605 11.6233362 6.61733778 12.9853209 5.9686762 13.8841938 4.8425235z"/>
      <g transform="translate(27.542 11.35)">
        <path d="M9.47842492 10.6605975L4.07445992 10.6605975 2.77670458 14.520515.487799917 14.520515 5.60634825.239815 7.98443992.239815 13.1029882 14.520515 10.77505 14.520515 9.47842492 10.6605975zM4.63413917 8.879443L8.9176725 8.879443 6.80603442 2.6150825 6.74694175 2.6150825 4.63413917 8.879443zM24.1573127 9.3151895C24.1573127 12.5506915 22.4381226 14.629443 19.8437307 14.629443 18.5027123 14.7001043 17.2395462 13.9925853 16.5915448 12.807843L16.5424532 12.807843 16.5424532 17.96488 14.4207798 17.96488 14.4207798 4.108737 16.4744783 4.108737 16.4744783 5.840476 16.5135005 5.840476C17.19029 4.66316111 18.4548182 3.95594666 19.8047086 3.9997975 22.4280417 3.999809 24.1573127 6.088669 24.1573127 9.3151895zM21.9765467 9.3151895C21.9765467 7.2072395 20.8950802 5.821386 19.2450179 5.821386 17.6239426 5.821386 16.5335596 7.2364265 16.5335596 9.3151895 16.5335596 11.4130425 17.6239426 12.8179745 19.2450179 12.8179745 20.8950916 12.8179745 21.9765467 11.442241 21.9765467 9.3151895zM35.5338384 9.3151895C35.5338384 12.5506915 33.8146482 14.629443 31.2202564 14.629443 29.8792379 14.7001043 28.6160718 13.9925853 27.9680705 12.807843L27.9189788 12.807843 27.9189788 17.96488 25.7973055 17.96488 25.7973055 4.108737 27.8509583 4.108737 27.8509583 5.840476 27.8899805 5.840476C28.5667749 4.66316182 29.831308 3.95595154 31.1812 3.999809 33.804613 3.999809 35.5338384 6.088669 35.5338384 9.3151895zM33.3530724 9.3151895C33.3530724 7.2072395 32.2716058 5.821386 30.6215436 5.821386 29.0004682 5.821386 27.9100852 7.2364265 27.9100852 9.3151895 27.9100852 11.4130425 29.0004682 12.8179745 30.6215436 12.8179745 32.2716172 12.8179745 33.3530838 11.442241 33.3530838 9.3151895L33.3530724 9.3151895zM43.0527866 10.5415495C43.2099941 11.957717 44.5757699 12.8875495 46.4421095 12.8875495 48.2304276 12.8875495 49.5170288 11.957671 49.5170288 10.680757 49.5170288 9.5723065 48.7410494 8.908607 46.9036853 8.453759L45.0663212 8.007904C42.463013 7.374507 41.2544447 6.1481355 41.2544447 4.158095 41.2544447 1.694128 43.3861532.001696 46.4131226.001696 49.4088559.001696 51.462543 1.694128 51.5316709 4.158095L49.3899042 4.158095C49.2616951 2.732946 48.0921489 1.8727 46.382994 1.8727 44.6738391 1.8727 43.5043043 2.743066 43.5043043 4.00986 43.5043043 5.0194795 44.2512968 5.6135695 46.0786257 6.06836L47.6406083 6.454691C50.5494037 7.147612 51.7579721 8.324591 51.7579721 10.413428 51.7579721 13.085154 49.6452152 14.758496 46.2848792 14.758496 43.1408319 14.758496 41.0180512 13.124461 40.8809142 10.541446L43.0527866 10.5415495zM56.3369231 1.64477L56.3369231 4.108737 58.3025077 4.108737 58.3025077 5.801169 56.3369231 5.801169 56.3369231 11.5410605C56.3369231 12.432759 56.7304898 12.8482885 57.5945374 12.8482885 57.8278843 12.8441898 58.0608536 12.8276835 58.2924725 12.7988385L58.2924725 14.481162C57.9039957 14.5542785 57.5091417 14.5873927 57.1140099 14.579993 55.0213349 14.579993 54.2052145 13.788241 54.2052145 11.769002L54.2052145 5.801169 52.7023245 5.801169 52.7023245 4.108737 54.2051917 4.108737 54.2051917 1.64477 56.3369231 1.64477zM59.440875 9.3151895C59.440875 6.039265 61.3562834 3.980719 64.3431346 3.980719 67.3400096 3.980719 69.2465016 6.039219 69.2465016 9.3151895 69.2465016 12.600107 67.3500448 14.64966 64.3431346 14.64966 61.3372861 14.64966 59.440875 12.6000955 59.440875 9.3151895zM67.0846872 9.3151895C67.0846872 7.0679745 66.0623133 5.7416565 64.3431232 5.7416565 62.623933 5.7416565 61.6026779 7.078083 61.6026779 9.3151895 61.6026779 11.571386 62.623933 12.887607 64.3431232 12.887607 66.0623133 12.887607 67.0846416 11.571386 67.0846416 9.3151895L67.0846872 9.3151895zM70.9957518 4.108737L73.0193103 4.108737 73.0193103 5.880887 73.068402 5.880887C73.3505947 4.74007367 74.38832 3.95492629 75.5546437 3.999786 75.7991477 3.99892607 76.042977 4.02567336 76.2815657 4.079527L76.2815657 6.078549C75.9728944 5.98353982 75.6508972 5.93991798 75.3282741 5.949404 74.7045225 5.92391476 74.1008693 6.17431494 73.675816 6.63485687 73.2507627 7.0953988 73.0467749 7.72007135 73.1174137 8.344854L73.1174137 14.520492 70.9957404 14.520492 70.9957518 4.108737zM86.0637425 11.4624465C85.7783258 13.352529 83.9509856 14.6496485 81.6130235 14.6496485 78.6061132 14.6496485 76.7397622 12.620301 76.7397622 9.3645935 76.7397622 6.0987775 78.6161485 3.9807075 81.5238365 3.9807075 84.3835745 3.9807075 86.1819278 5.9595125 86.1819278 9.1164005L86.1819278 9.8486285 78.8815061 9.8486285 78.8815061 9.9777735C78.8133456 10.7529099 79.0790619 11.5201874 79.6110652 12.0844354 80.1430686 12.6486835 80.8900831 12.9555183 81.6620923 12.926891 82.6916956 13.0240655 83.66241 12.4285243 84.0491118 11.462435L86.0637425 11.4624465zM78.8915212 8.3549855L84.0591357 8.354974C84.0976389 7.65846212 83.8459369 6.97734655 83.3646713 6.47572628 82.8834058 5.97410601 82.2162126 5.69746247 81.5238365 5.7124465 80.8259834 5.70825156 80.1553786 5.98502482 79.6610766 6.48124823 79.1667747 6.97747164 78.8897332 7.65202836 78.8915212 8.3549855z"/>
      </g>
    </g>
    <g fill="#FFF" transform="translate(40 9)">
      <path d="M3.22993143.835428571C4.13158464.770724779 5.01473402 1.11376849 5.63629862 1.77013922 6.25786322 2.42650995 6.55232671 3.32702262 6.43864 4.22381714 6.43864 6.40238857 5.26118857 7.65467429 3.22993143 7.65467429L.766765714 7.65467429.766765714.835428571 3.22993143.835428571zM1.82590857 6.69028571L3.11162286 6.69028571C3.75599079 6.72880229 4.38341317 6.47492458 4.8196783 5.9991449 5.25594343 5.52336523 5.45460527 4.87633648 5.36050286 4.23771429 5.44775887 3.60174232 5.24623609 2.96005282 4.81105266 2.48815312 4.37586922 2.01625342 3.75256648 1.7635272 3.11162286 1.79909714L1.82590857 1.79909714 1.82590857 6.69028571zM7.63506286 5.07924571C7.54681957 4.15682863 7.98912419 3.26412793 8.77647535 2.77553985 9.5638265 2.28695177 10.5600935 2.28695177 11.3474447 2.77553985 12.1347958 3.26412793 12.5771004 4.15682863 12.4888571 5.07924571 12.5787794 6.00265401 12.1368785 6.89708615 11.3488292 7.38672606 10.5607799 7.87636596 9.56314008 7.87636596 8.77509081 7.38672606 7.98704154 6.89708615 7.54514064 6.00265401 7.63506286 5.07924571zM11.4442057 5.07924571C11.4442057 3.96373714 10.9430857 3.31139429 10.0636343 3.31139429 9.18082286 3.31139429 8.68420571 3.96373714 8.68420571 5.07925714 8.68420571 6.20370286 9.18085714 6.85101714 10.0636343 6.85101714 10.9431086 6.85100571 11.4442171 6.19922286 11.4442171 5.07924571L11.4442057 5.07924571z"/>
      <polygon points="18.941 7.655 17.887 7.655 16.824 3.864 16.743 3.864 15.684 7.655 14.641 7.655 13.222 2.508 14.252 2.508 15.174 6.435 15.25 6.435 16.308 2.508 17.282 2.508 18.34 6.435 18.421 6.435 19.338 2.508 20.354 2.508"/>
      <path d="M21.5469029,2.50836571 L22.5245714,2.50836571 L22.5245714,3.32588571 L22.6004686,3.32588571 C22.8643941,2.72397479 23.4811118,2.35577997 24.1361829,2.40902857 C24.6434021,2.37089345 25.140441,2.56547417 25.4869609,2.93783094 C25.8334808,3.3101877 25.9918778,3.81991287 25.9174286,4.32308571 L25.9174286,7.65451429 L24.9018057,7.65451429 L24.9018057,4.57812571 C24.9018057,3.75112 24.5424343,3.33984 23.7913143,3.33984 C23.4472752,3.32381614 23.1133945,3.45883722 22.8772053,3.70950489 C22.641016,3.96017257 22.5260743,4.30148687 22.5625143,4.64396571 L22.5625143,7.65457143 L21.5468914,7.65457143 L21.5469029,2.50836571 Z"/>
      <polygon points="27.536 .499 28.551 .499 28.551 7.655 27.536 7.655"/>
      <path d="M29.9631886 5.07924571C29.8750131 4.15676828 30.3173874 3.26404499 31.104797 2.77544937 31.8922066 2.28685376 32.8885248 2.28685376 33.6759344 2.77544937 34.463344 3.26404499 34.9057184 4.15676828 34.8175429 5.07924571 34.9073509 6.00268707 34.465369 6.89709393 33.6772806 7.38671227 32.8891922 7.87633062 31.8915392 7.87633062 31.1034508 7.38671227 30.3153624 6.89709393 29.8733806 6.00268707 29.9631886 5.07924571zM33.7723314 5.07924571C33.7723314 3.96373714 33.2712114 3.31139429 32.39176 3.31139429 31.5089486 3.31139429 31.0123314 3.96373714 31.0123314 5.07925714 31.0123314 6.20370286 31.5089829 6.85101714 32.39176 6.85101714 33.2712229 6.85100571 33.7723429 6.19922286 33.7723429 5.07924571L33.7723314 5.07924571zM35.8867429 6.19922286C35.8867429 5.27288 36.57648 4.73884571 37.8008 4.66294857L39.1947771 4.58259429 39.1947771 4.1384C39.1947771 3.59486857 38.8354057 3.28795429 38.1412114 3.28795429 37.5742514 3.28795429 37.1813943 3.49610286 37.0686629 3.85994286L36.0854057 3.85994286C36.1892 2.97601143 37.0206743 2.40905143 38.18808 2.40905143 39.4782629 2.40905143 40.2059429 3.05133714 40.2059429 4.1384L40.2059429 7.65458286 39.2282629 7.65458286 39.2282629 6.93137143 39.1479086 6.93137143C38.8158498 7.45951581 38.2253413 7.76818655 37.6021486 7.73937143 37.1652756 7.7848135 36.729567 7.64332647 36.4027381 7.34988851 36.0759091 7.05645055 35.8884641 6.6384495 35.8867429 6.19922286zM39.1947771 5.75948571L39.1947771 5.32924571 37.93808 5.4096C37.2293714 5.45702857 36.9079429 5.69810286 36.9079429 6.15178286 36.9079429 6.61494857 37.3097257 6.88448 37.8622286 6.88448 38.1892984 6.91758841 38.5158016 6.81654292 38.7669947 6.60447496 39.0181879 6.392407 39.1725618 6.08747549 39.1947771 5.75948571zM41.5407543 5.07924571C41.5407543 3.45313143 42.3766971 2.42299429 43.6769143 2.42299429 44.3334592 2.39274301 44.9483743 2.74454042 45.25504 3.32585143L45.3309371 3.32585143 45.3309371.499428571 46.34656.499428571 46.34656 7.65456 45.3733486 7.65456 45.3733486 6.84149714 45.2929943 6.84149714C44.9631476 7.41798512 44.3406566 7.76383597 43.6769257 7.73937143 42.3677714 7.73942857 41.5407543 6.70926857 41.5407543 5.07924571zM42.5898971 5.07924571C42.5898971 6.17076571 43.1044114 6.82757714 43.9649029 6.82757714 44.8209029 6.82757714 45.3499429 6.16129143 45.3499429 5.08371429 45.3499429 4.01116571 44.8153486 3.33538286 43.9649029 3.33538286 43.1099543 3.33538286 42.5898629 3.99665143 42.5898629 5.07924571L42.5898971 5.07924571zM50.5485714 5.07924571C50.4603281 4.15682863 50.9026328 3.26412793 51.6899839 2.77553985 52.4773351 2.28695177 53.4736021 2.28695177 54.2609532 2.77553985 55.0483044 3.26412793 55.490609 4.15682863 55.4023657 5.07924571 55.4922879 6.00265401 55.050387 6.89708615 54.2623378 7.38672606 53.4742885 7.87636596 52.4766487 7.87636596 51.6885994 7.38672606 50.9005501 6.89708615 50.4586492 6.00265401 50.5485714 5.07924571zM54.3577143 5.07924571C54.3577143 3.96373714 53.8565943 3.31139429 52.9771429 3.31139429 52.0943314 3.31139429 51.5977143 3.96373714 51.5977143 5.07925714 51.5977143 6.20370286 52.0943657 6.85101714 52.9771429 6.85101714 53.8566057 6.85100571 54.3577143 6.19922286 54.3577143 5.07924571zM56.7650857 2.50836571L57.7427657 2.50836571 57.7427657 3.32588571 57.8186629 3.32588571C58.0825884 2.72397479 58.6993061 2.35577997 59.3543771 2.40902857 59.8615963 2.37089345 60.3586353 2.56547417 60.7051552 2.93783094 61.0516751 3.3101877 61.2100721 3.81991287 61.1356229 4.32308571L61.1356229 7.65451429 60.12 7.65451429 60.12 4.57812571C60.12 3.75112 59.7606286 3.33984 59.0095086 3.33984 58.6654695 3.32381614 58.3315888 3.45883722 58.0953996 3.70950489 57.8592103 3.96017257 57.7442686 4.30148687 57.7807086 4.64396571L57.7807086 7.65457143 56.7650857 7.65457143 56.7650857 2.50836571zM66.8744686 1.22712L66.8744686 2.53180571 67.9894286 2.53180571 67.9894286 3.38728 66.8744686 3.38728 66.8744686 6.03348571C66.8744686 6.57254857 67.0965714 6.80859429 67.6021486 6.80859429 67.7315835 6.80818004 67.8608885 6.8003539 67.9894286 6.78515429L67.9894286 7.63113143C67.8070394 7.66376082 67.6222464 7.68112005 67.4369714 7.68302857 66.3075086 7.68302857 65.8577257 7.28570286 65.8577257 6.29352L65.8577257 3.38723429 65.0407657 3.38723429 65.0407657 2.53176 65.8577257 2.53176 65.8577257 1.22712 66.8744686 1.22712zM69.3766971.499428571L70.3833943.499428571 70.3833943 3.33537143 70.4637486 3.33537143C70.7403517 2.72819264 71.367863 2.35952862 72.0328914 2.41349714 72.5372304 2.38605404 73.0275409 2.58491853 73.3702734 2.9559244 73.713006 3.32693028 73.8724628 3.83143501 73.8052114 4.33202286L73.8052114 7.65457143 72.7885714 7.65457143 72.7885714 4.58257143C72.7885714 3.76058286 72.4057143 3.34428571 71.6881257 3.34428571 71.3347874 3.31530705 70.9866732 3.4437611 70.7368484 3.69530686 70.4870235 3.94685262 70.3609622 4.29584036 70.3923657 4.64897143L70.3923657 7.65454857 69.3767429 7.65454857 69.3766971.499428571zM79.7271429 6.26506286C79.4423509 7.23578227 78.5029702 7.8629749 77.4972343 7.75389714 76.8110216 7.77201165 76.151533 7.48757794 75.6937466 6.97606304 75.2359601 6.46454814 75.0261559 5.77766393 75.12 5.09765714 75.0286484 4.41576054 75.2376665 3.7277757 75.6929038 3.21193938 76.1481411 2.69610306 76.8048023 2.40317343 77.4927657 2.40904 78.9246857 2.40904 79.7885257 3.38732571 79.7885257 5.00332571L79.7885257 5.35771429 76.1545943 5.35771429 76.1545943 5.41462857C76.1224366 5.79650302 76.252858 6.174226 76.5137838 6.45490366 76.7747095 6.73558131 77.141929 6.8931702 77.5251314 6.88891429 78.0220135 6.94856535 78.5056943 6.70209491 78.7494629 6.26502857L79.7271429 6.26506286zM76.1545714 4.60658286L78.7538971 4.60658286C78.7797862 4.25732621 78.6569811 3.91337722 78.4157451 3.65949611 78.174509 3.40561499 77.8372771 3.26541283 77.4871543 3.27344 77.132288 3.26898161 76.7906605 3.40802427 76.5397672 3.65902729 76.288874 3.91003032 76.1499807 4.25171855 76.1545943 4.60658286L76.1545714 4.60658286z"/>
    </g>
  </g>
</svg>
