<svg xmlns="http://www.w3.org/2000/svg" xmlns:xlink="http://www.w3.org/1999/xlink" viewBox="0 0 408.1531 246.698"><defs><clipPath id="clip-path"><path d="M120.323,56.8212l23.96-1.3922-1.4284-24.5833c-.4131-7.109-4.2838-13.1774-12.4651-12.702-7.597.4414-11.9076,6.9852-11.4945,14.0941Z" fill="none"/></clipPath><clipPath id="clip-path-2"><path d="M120.323,53.8212l23.96-1.3922-1.4284-24.5833c-.4131-7.109-4.2838-13.1774-12.4651-12.702-7.597.4414-11.9076,6.9852-11.4945,14.0941Z" fill="none"/></clipPath></defs><title>slack</title><g id="Layer_2" data-name="Layer 2"><g id="Layer_5" data-name="Layer 5"><rect x="52.9023" y="53.198" width="314" height="192" stroke-width="3" stroke="#23292a" stroke-linecap="round" stroke-linejoin="round" fill="none"/><path d="M57.9023,37.198h304a5,5,0,0,1,5,5v12a0,0,0,0,1,0,0h-314a0,0,0,0,1,0,0v-12A5,5,0,0,1,57.9023,37.198Z" fill="#e6e6e6" stroke="#23292a" stroke-linecap="round" stroke-linejoin="round" stroke-width="3"/><rect x="54.4023" y="54.698" width="32" height="189" fill="#ffde02"/><rect x="87.4023" y="54.698" width="71" height="189" fill="#ffde00"/><rect x="87.4023" y="54.698" width="71" height="189" fill="#fff" opacity="0.25"/><rect x="61.4023" y="63.698" width="18" height="18" rx="3" stroke-width="2" stroke="#23292a" stroke-linecap="round" stroke-linejoin="round" fill="#e6e6e6"/><rect x="61.4023" y="93.698" width="18" height="18" rx="3" stroke-width="2" stroke="#23292a" stroke-linecap="round" stroke-linejoin="round" fill="#ffde02"/><rect x="61.4023" y="123.698" width="18" height="18" rx="3" stroke-width="2" stroke="#23292a" stroke-linecap="round" stroke-linejoin="round" fill="#e6e6e6"/><line x1="70.4023" y1="128.698" x2="70.4023" y2="136.698" fill="none" stroke="#23292a" stroke-linecap="round" stroke-linejoin="round" stroke-width="2"/><line x1="74.4023" y1="132.698" x2="66.4023" y2="132.698" fill="none" stroke="#23292a" stroke-linecap="round" stroke-linejoin="round" stroke-width="2"/><path d="M54.4023,94.698h0a2,2,0,0,1,2,2v12a2,2,0,0,1-2,2h0a0,0,0,0,1,0,0v-16a0,0,0,0,1,0,0Z" fill="#fff"/><rect x="77.4023" y="91.698" width="6" height="6" rx="3" stroke-width="2" stroke="#23292a" stroke-linecap="round" stroke-linejoin="round" fill="#007dcc"/><rect x="159.4023" y="54.698" width="207" height="189" fill="#fff"/><line x1="87.4023" y1="54.698" x2="87.4023" y2="244.698" fill="#fff" stroke="#23292a" stroke-linecap="round" stroke-linejoin="round" stroke-width="2"/><circle cx="65.4023" cy="45.698" r="1.5" fill="#e6e6e6" stroke="#23292a" stroke-linecap="round" stroke-linejoin="round" stroke-width="2"/><circle cx="72.4023" cy="45.698" r="1.5" fill="#e6e6e6" stroke="#23292a" stroke-linecap="round" stroke-linejoin="round" stroke-width="2"/><circle cx="79.4023" cy="45.698" r="1.5" fill="#e6e6e6" stroke="#23292a" stroke-linecap="round" stroke-linejoin="round" stroke-width="2"/><line x1="159.4023" y1="54.698" x2="159.4023" y2="244.698" fill="#fff" stroke="#23292a" stroke-linecap="round" stroke-linejoin="round" stroke-width="2"/><g opacity="0.54"><rect x="98.4023" y="71.698" width="31" height="4" rx="2" fill="#ecc700"/><rect x="98.4023" y="83.698" width="4" height="4" rx="2" fill="#ecc700"/><rect x="106.4023" y="83.698" width="41" height="4" rx="2" fill="#ecc700"/><rect x="98.4023" y="102.698" width="28" height="4" rx="2" fill="#ecc700"/><rect x="98.4023" y="117.698" width="43" height="4" rx="2" fill="#ecc700"/><rect x="98.4023" y="133.698" width="33" height="4" rx="2" fill="#ecc700"/><rect x="98.4023" y="149.698" width="46" height="4" rx="2" fill="#ecc700"/><rect x="98.4023" y="165.698" width="39" height="4" rx="2" fill="#ecc700"/><rect x="98.4023" y="181.698" width="33" height="4" rx="2" fill="#ecc700"/><rect x="98.4023" y="197.698" width="44" height="4" rx="2" fill="#ecc700"/></g><path d="M354.3363,234.698H172.4682a3.0334,3.0334,0,0,1-3.0659-3v-13a3.0335,3.0335,0,0,1,3.0659-3H354.3363a3.0336,3.0336,0,0,1,3.066,3v13A3.0335,3.0335,0,0,1,354.3363,234.698Z" fill="#fff" stroke="#e6e6e6" stroke-miterlimit="10" stroke-width="2"/><line x1="187.1682" y1="215.698" x2="187.1682" y2="234.698" fill="none" stroke="#e6e6e6" stroke-miterlimit="10" stroke-width="2"/><rect x="211.7687" y="80.198" width="43" height="5" rx="2.5" fill="#e6e6e6" stroke="#e6e6e6" stroke-miterlimit="10"/><rect x="221.7687" y="96.802" width="73" height="5" rx="2.5" fill="#e6e6e6" stroke="#e6e6e6" stroke-miterlimit="10"/><rect x="221.7687" y="109.802" width="23" height="5" rx="2.5" fill="#e6e6e6" stroke="#e6e6e6" stroke-miterlimit="10"/><rect x="221.7687" y="122.802" width="53" height="5" rx="2.5" fill="#e6e6e6" stroke="#e6e6e6" stroke-miterlimit="10"/><rect x="221.7687" y="136.802" width="97" height="5" rx="2.5" fill="#e6e6e6" stroke="#e6e6e6" stroke-miterlimit="10"/><rect x="221.7687" y="151.802" width="64.1559" height="15" rx="7.5" fill="#fff" stroke="#e6e6e6" stroke-miterlimit="10" stroke-width="2"/><rect x="279.2687" y="122.802" width="10" height="5" rx="2.5" fill="#e6e6e6" stroke="#e6e6e6" stroke-miterlimit="10"/><rect x="211.7687" y="93.802" width="2.8807" height="76.8961" fill="#ffde02"/><rect x="251.7687" y="109.802" width="83" height="5" rx="2.5" fill="#e6e6e6" stroke="#e6e6e6" stroke-miterlimit="10"/><path d="M203.3913,105.7824V104.53a1.1011,1.1011,0,0,1,0-2.2022v-1.7128a1.1011,1.1011,0,0,1,0-2.2022V96.7a1.1011,1.1011,0,0,1,0-2.2022V92.7845a1.1011,1.1011,0,0,1,0-2.2021V88.87a1.1011,1.1011,0,0,1,0-2.2021V84.9546a1.1011,1.1011,0,0,1,0-2.2022V81.04a1.1011,1.1011,0,0,1,0-2.2022V77.5845a.99.99,0,0,1-.7859-.8865h-1.467a1.1,1.1,0,1,1-2.2,0h-1.7116a1.1,1.1,0,1,1-2.2005,0h-1.7115a1.1,1.1,0,1,1-2.2006,0h-1.7115a1.1,1.1,0,1,1-2.2006,0H185.49a1.1,1.1,0,1,1-2.2005,0H181.578a1.1,1.1,0,1,1-2.2005,0h-1.7116a1.1,1.1,0,1,1-2.2005,0h-1.467c0,.37-.5848.775-1.0532.8865v1.2529a1.1011,1.1011,0,0,1,0,2.2022v1.7128a1.1011,1.1011,0,0,1,0,2.2022v1.7128a1.1011,1.1011,0,0,1,0,2.2021v1.7129a1.1011,1.1011,0,0,1,0,2.2021v1.7128a1.1011,1.1011,0,0,1,0,2.2022v1.7128a1.1011,1.1011,0,0,1,0,2.2022v1.7128a1.1011,1.1011,0,0,1,0,2.2022v1.2529c.4684.1115,1.0532.5453,1.0532.9156h1.467a1.1,1.1,0,1,1,2.2005,0h1.7116a1.1,1.1,0,1,1,2.2005,0H183.29a1.1,1.1,0,1,1,2.2005,0h1.7115a1.1,1.1,0,1,1,2.2006,0h1.7115a1.1,1.1,0,1,1,2.2006,0h1.7115a1.1,1.1,0,1,1,2.2005,0h1.7116a1.1,1.1,0,1,1,2.2,0h1.467A1.021,1.021,0,0,1,203.3913,105.7824Z" fill="#fff" stroke="#333" stroke-linecap="round" stroke-linejoin="round" stroke-width="1.6"/><rect x="177.7833" y="81.3132" width="20.7698" height="20.7698" fill="#ffde00"/><path d="M184.9563,97.1845h-1.8026v1.8027h5.8533V97.1845H187.12V93.4732h1.6118c2.0571,0,3.4144-.2333,4.4112-1.23a4.5614,4.5614,0,0,0,1.2088-3.2023c0-1.8239-.8271-4.4536-4.8141-4.4536h-6.3835V86.39h1.8026Zm2.1632-5.45V86.39h2.4813a2.3567,2.3567,0,0,1,2.5449,2.63c0,1.4845-.5726,2.7145-3.2236,2.7145Z" fill="#333"/><g opacity="0.08"><path d="M282.6455,26.4968l.635-11.5337-12.1112-.6669-2.8055-2.7094a3.0963,3.0963,0,0,0-3.911-.2154l-3.2284,2.3773-13.8894-.7648L246.7042,24.44,241.53,27.46,240.08,53.8106a2.8445,2.8445,0,0,0,2.6759,2.9878l39.0547,2.15a3.0591,3.0591,0,0,0,3.2131-2.8777l1.4391-26.1374Z" stroke="#000" stroke-linecap="round" stroke-linejoin="round" stroke-width="9"/><path d="M281.3389,58.4221l-38.0573-2.0955a2.8439,2.8439,0,0,1-2.6754-2.9872l1.4384-26.1248,43.9335,2.419-1.4267,25.9113A3.0585,3.0585,0,0,1,281.3389,58.4221Z" stroke="#000" stroke-linecap="round" stroke-linejoin="round" stroke-width="3"/><path d="M263.9991,11.4169,241.9373,26.4118,263.8207,43.319l22.3174-13.6842L267.8188,11.6272A2.9816,2.9816,0,0,0,263.9991,11.4169Z" stroke="#000" stroke-linecap="round" stroke-linejoin="round" stroke-width="2.6"/><path d="M241.8086,53.8085l20.3173-11.2177a2.9815,2.9815,0,0,1,3.4489.1543l18.6438,13.3985" stroke="#000" stroke-linecap="round" stroke-linejoin="round" stroke-width="2"/><polyline points="246.927 29.486 247.807 13.511 282.754 15.435 281.874 31.411" stroke="#000" stroke-linecap="round" stroke-linejoin="round" stroke-width="3"/></g><path d="M282.6455,23.4968l.635-11.5337-12.1112-.6669-2.8055-2.7094a3.0963,3.0963,0,0,0-3.911-.2154l-3.2284,2.3773L247.335,9.9839,246.7042,21.44,241.53,24.46,240.08,50.8106a2.8445,2.8445,0,0,0,2.6759,2.9878l39.0547,2.15a3.0591,3.0591,0,0,0,3.2131-2.8777l1.4391-26.1374Z" fill="#fff" stroke="#fff" stroke-linecap="round" stroke-linejoin="round" stroke-width="9"/><path d="M281.3389,55.4221l-38.0573-2.0955a2.8439,2.8439,0,0,1-2.6754-2.9872l1.4384-26.1248,43.9335,2.419-1.4267,25.9113A3.0585,3.0585,0,0,1,281.3389,55.4221Z" fill="#ffde00" stroke="#333" stroke-linecap="round" stroke-linejoin="round" stroke-width="3"/><path d="M263.9991,8.4169,241.9373,23.4118,263.8207,40.319l22.3174-13.6842L267.8188,8.6272A2.9816,2.9816,0,0,0,263.9991,8.4169Z" fill="#fff" stroke="#333" stroke-linecap="round" stroke-linejoin="round" stroke-width="2.6"/><path d="M241.8086,50.8085l20.3173-11.2177a2.9815,2.9815,0,0,1,3.4489.1543l18.6438,13.3985" fill="#ffde00" stroke="#333" stroke-linecap="round" stroke-linejoin="round" stroke-width="2"/><polyline points="246.927 26.486 247.807 10.511 282.754 12.435 281.874 28.411" fill="#fff" stroke="#333" stroke-linecap="round" stroke-linejoin="round" stroke-width="3"/><g opacity="0.08"><path d="M159.28,16.4935s-27.5033,1.5695-28.8908,1.65c-7.597.4415-11.9076,6.9853-11.4945,14.0942L120.12,53.3271l-11.1965.6505c.1639,2.82,1.9451,5.3963,4.3062,4.7583l20.309-1.18,11.33-.6583,27.9529-1.6242L171.24,28.0509C170.9634,21.6741,165.666,16.3105,159.28,16.4935Z"/><path d="M159.28,16.4935s-27.5033,1.5695-28.8908,1.65c-7.597.4415-11.9076,6.9853-11.4945,14.0942L120.12,53.3271l-11.1965.6505c.1639,2.82,1.9451,5.3963,4.3062,4.7583l20.309-1.18,11.33-.6583,27.9529-1.6242L171.24,28.0509C170.9634,21.6741,165.666,16.3105,159.28,16.4935Z" fill="none" stroke="#000" stroke-linecap="round" stroke-linejoin="round" stroke-width="8"/><polygon points="167.513 7 156.531 7.638 156.589 8.636 156.821 12.63 167.803 11.992 167.513 7"/><polygon points="167.513 7 156.531 7.638 156.589 8.636 156.821 12.63 167.803 11.992 167.513 7" fill="none" stroke="#000" stroke-linecap="round" stroke-linejoin="round" stroke-width="8"/><path d="M133.5387,57.5558l39.2829-2.2825L171.24,28.0509a11.5211,11.5211,0,0,0-11.931-11.0582l-28.6822,1.6665Z" stroke="#000" stroke-linecap="round" stroke-linejoin="round" stroke-width="3"/><path d="M120.8511,57.2913l23.96-1.3921-1.4284-24.5834c-.413-7.1089-4.2837-13.1773-12.4651-12.702-7.5969.4414-11.9075,6.9852-11.4944,14.0942Z"/><path d="M120.8511,57.2913l23.96-1.3921-1.4284-24.5834c-.413-7.1089-4.2837-13.1773-12.4651-12.702-7.5969.4414-11.9075,6.9852-11.4944,14.0942Z" opacity="0.2"/><path d="M120.8511,57.2913l23.96-1.3921-1.4284-24.5834c-.413-7.1089-4.2837-13.1773-12.4651-12.702-7.5969.4414-11.9075,6.9852-11.4944,14.0942Z" fill="none" stroke="#000" stroke-linecap="round" stroke-linejoin="round" stroke-width="3"/><path d="M113.23,58.7359l31.6391-1.8384-.29-4.9916-35.6552,2.0717C109.0874,56.7981,109.9277,58.9277,113.23,58.7359Z" stroke="#000" stroke-linecap="round" stroke-linejoin="round" stroke-width="3"/><path d="M156.3158,8.6855l.87,14.9747" fill="none" stroke="#000" stroke-linecap="round" stroke-linejoin="round" stroke-width="2"/><path d="M143.1682,53.49l3.9933-.232.116,1.9966-3.9932.232Z"/><path d="M167.8025,11.9916l-10.9814.638-.29-4.9915L167.5125,7Z" stroke="#000" stroke-linecap="round" stroke-linejoin="round" stroke-width="2.5"/><g clip-path="url(#clip-path)"><rect x="128.2734" y="29.6615" width="23" height="17" rx="1.1442" transform="translate(-1.9783 8.172) rotate(-3.3254)" stroke-width="2" stroke="#000" stroke-linecap="round" stroke-linejoin="round"/><path d="M153.6094,44.4411l-11.7528-6.7547a1.88,1.88,0,0,0-2.0716.1l-10.8722,7.6713" fill="none" stroke="#000" stroke-linecap="round" stroke-linejoin="round" stroke-width="2"/><path d="M152.7844,30.2423,141.98,40.6133a1.2545,1.2545,0,0,1-1.731.1L128.2,31.6707" stroke="#000" stroke-linecap="round" stroke-linejoin="round" stroke-width="2"/></g><line x1="143.9925" y1="50.4374" x2="142.8245" y2="30.3342" fill="none" stroke="#000" stroke-linecap="round" stroke-linejoin="round" stroke-width="2"/></g><path d="M159.28,13.4935s-27.5033,1.57-28.8908,1.65c-7.597.4415-11.9076,6.9853-11.4945,14.0942L120.12,50.3271l-11.1965.6505c.1639,2.82,1.9451,5.3963,4.3062,4.7583l20.309-1.18,11.33-.6583,27.9529-1.6242L171.24,25.0509C170.9634,18.6741,165.666,13.3105,159.28,13.4935Z" fill="#fff"/><path d="M159.28,13.4935s-27.5033,1.57-28.8908,1.65c-7.597.4415-11.9076,6.9853-11.4945,14.0942L120.12,50.3271l-11.1965.6505c.1639,2.82,1.9451,5.3963,4.3062,4.7583l20.309-1.18,11.33-.6583,27.9529-1.6242L171.24,25.0509C170.9634,18.6741,165.666,13.3105,159.28,13.4935Z" fill="none" stroke="#fff" stroke-linecap="round" stroke-linejoin="round" stroke-width="8"/><polygon points="167.513 4 156.531 4.638 156.589 5.636 156.821 9.63 167.803 8.992 167.513 4" fill="#fff"/><polygon points="167.513 4 156.531 4.638 156.589 5.636 156.821 9.63 167.803 8.992 167.513 4" fill="none" stroke="#fff" stroke-linecap="round" stroke-linejoin="round" stroke-width="8"/><g id="Layer_2-2" data-name="Layer 2"><g id="Layer_1-2" data-name="Layer 1-2"><path d="M133.5387,54.5558l39.2829-2.2825L171.24,25.0509a11.5211,11.5211,0,0,0-11.931-11.0582l-28.6822,1.6665Z" fill="#fff" stroke="#333" stroke-linecap="round" stroke-linejoin="round" stroke-width="3"/><path d="M120.8511,54.2913l23.96-1.3921-1.4284-24.5834c-.413-7.1089-4.2837-13.1773-12.4651-12.702-7.5969.4414-11.9075,6.9852-11.4944,14.0942Z" fill="#e6e6e6"/><path d="M120.8511,54.2913l23.96-1.3921-1.4284-24.5834c-.413-7.1089-4.2837-13.1773-12.4651-12.702-7.5969.4414-11.9075,6.9852-11.4944,14.0942Z" fill="#23292a" opacity="0.2"/><path d="M120.8511,54.2913l23.96-1.3921-1.4284-24.5834c-.413-7.1089-4.2837-13.1773-12.4651-12.702-7.5969.4414-11.9075,6.9852-11.4944,14.0942Z" fill="none" stroke="#333" stroke-linecap="round" stroke-linejoin="round" stroke-width="3"/><path d="M113.23,55.7359l31.6391-1.8384-.29-4.9916-35.6552,2.0717C109.0874,53.7981,109.9277,55.9277,113.23,55.7359Z" fill="#fff" stroke="#333" stroke-linecap="round" stroke-linejoin="round" stroke-width="3"/><path d="M156.3158,5.6855l.87,14.9747" fill="none" stroke="#333" stroke-linecap="round" stroke-linejoin="round" stroke-width="2"/><path d="M143.1682,50.49l3.9933-.232.116,1.9966-3.9932.232Z" fill="#fff"/><path d="M167.8025,8.9916l-10.9814.638-.29-4.9915L167.5125,4Z" fill="#ffde02" stroke="#333" stroke-linecap="round" stroke-linejoin="round" stroke-width="2.5"/></g></g><g clip-path="url(#clip-path-2)"><rect x="128.2734" y="26.6615" width="23" height="17" rx="1.1442" transform="translate(-1.8042 8.1669) rotate(-3.3254)" stroke-width="2" stroke="#333" stroke-linecap="round" stroke-linejoin="round" fill="#ffde00"/><path d="M153.6094,41.4411l-11.7528-6.7547a1.88,1.88,0,0,0-2.0716.1l-10.8722,7.6713" fill="none" stroke="#333" stroke-linecap="round" stroke-linejoin="round" stroke-width="2"/><path d="M152.7844,27.2423,141.98,37.6133a1.2545,1.2545,0,0,1-1.731.1L128.2,28.6707" fill="#ffde02" stroke="#333" stroke-linecap="round" stroke-linejoin="round" stroke-width="2"/></g><line x1="143.9925" y1="47.4374" x2="142.8245" y2="27.3342" fill="none" stroke="#333" stroke-linecap="round" stroke-linejoin="round" stroke-width="2"/><g opacity="0.08"><path d="M398.7973,91.4736,397.5338,79.917a4.4959,4.4959,0,0,0-4.9579-3.9805l-.3351.0367-.322-2.9433a4.88,4.88,0,0,0-5.3818-4.3209l-2.2.2406.7688-4.4948a1.42,1.42,0,0,0-1.16-1.6393l-4.6808-.8006-2.068-7.51a1.9686,1.9686,0,0,0-2.4143-1.3716L362.18,56.604a1.9591,1.9591,0,0,0-1.3994,2.2491l-5.7645-.986a1.42,1.42,0,0,0-1.6392,1.16l-6.1888,36.18a4.4835,4.4835,0,0,0,3.659,5.1691l22.9009,3.9172a4.4835,4.4835,0,0,0,5.1691-3.659l4.2967-25.1193,3.0957,28.3048a1.4186,1.4186,0,0,0,1.5662,1.2575l2.6076-.2851a4.8808,4.8808,0,0,0,4.3208-5.3818l-.3219-2.9432.3349-.0365a4.4949,4.4949,0,0,0,3.98-4.9579Zm-2.8085,1.8214a2.1161,2.1161,0,0,1-1.4285.7837l-.3353.0367-1.7269-15.7895.3347-.0365a2.1291,2.1291,0,0,1,2.3481,1.8846l1.2639,11.557A2.115,2.115,0,0,1,395.9888,93.295Z" stroke="#000" stroke-linecap="round" stroke-linejoin="round" stroke-width="8"/><path d="M359.1952,51.2829c2.5622-.8313,4.9952-.2927,7.4334,1.6462a.9467.9467,0,1,0,1.1784-1.4821c-2.9332-2.3327-6.028-2.9939-9.1962-1.9651-11.5725,3.753-21.1008,29.7247-24.8046,41.23a12.0063,12.0063,0,0,0-8.6852-9.521.9468.9468,0,0,0-.377,1.8556c.3492.0729,8.5381,1.9168,7.387,13.2334a.9469.9469,0,0,0,.7662,1.0264l.0164.0028a.9467.9467,0,0,0,1.0711-.6793C334.0986,96.2217,345.5343,55.7133,359.1952,51.2829Z" stroke="#000" stroke-linecap="round" stroke-linejoin="round" stroke-width="8"/><path d="M370.2279,52.0262a.9468.9468,0,0,0,.9323-1.48c-.0185-.0261-1.838-2.6434-.476-4.7958a.9466.9466,0,0,0-1.6-1.0127c-2.0328,3.212.4244,6.7535.53,6.9024A.9438.9438,0,0,0,370.2279,52.0262Z" stroke="#000" stroke-linecap="round" stroke-linejoin="round" stroke-width="8"/><rect x="363.8932" y="55.4147" width="15.1044" height="20.4354" rx="1.0166" transform="translate(-4.0955 100.9643) rotate(-15.3951)" stroke-width="2" stroke="#000" stroke-linecap="round" stroke-linejoin="round"/><path d="M380.7434,75.4658,369.7251,68.005a1.1148,1.1148,0,0,1-.409-1.4853l5.6187-12.1489" stroke="#000" stroke-linecap="round" stroke-linejoin="round" stroke-width="2"/><path d="M374.6063,102.8776l-23.268-3.98a3.0926,3.0926,0,0,1-2.5269-3.57l6.2335-36.4421L384.41,63.9086l-6.2335,36.4421A3.0926,3.0926,0,0,1,374.6063,102.8776Z" stroke="#000" stroke-linecap="round" stroke-linejoin="round" stroke-width="3"/><line x1="360.9938" y1="69.8042" x2="357.5297" y2="90.0557" stroke="#000" stroke-linecap="round" stroke-linejoin="round" stroke-width="2"/><line x1="368.0818" y1="71.0166" x2="364.6177" y2="91.2681" stroke="#000" stroke-linecap="round" stroke-linejoin="round" stroke-width="2"/><line x1="375.1698" y1="72.229" x2="371.7058" y2="92.4805" stroke="#000" stroke-linecap="round" stroke-linejoin="round" stroke-width="2"/><path d="M391.4617,77.2488l1.2427-.136a3.3124,3.3124,0,0,1,3.6529,2.9327l1.264,11.5564a3.3124,3.3124,0,0,1-2.9326,3.6529h0l-1.2427.1359" fill="none" stroke="#000" stroke-linecap="round" stroke-linejoin="round" stroke-width="2.5"/><path d="M387.7214,103.6664l-3.6377-33.26,2.6076-.2852a3.46,3.46,0,0,1,3.8159,3.0635l2.8853,26.3809a3.46,3.46,0,0,1-3.0634,3.8159Z" stroke="#000" stroke-linecap="round" stroke-linejoin="round" stroke-width="3"/><path d="M324.9341,82.1194s9.396,1.8931,8.1388,14.2566c0,0,16.2776-58.3932,34.1449-44.1878" fill="none" stroke="#000" stroke-linecap="round" stroke-linejoin="round" stroke-width="2.5"/><path d="M370.3873,51.0929s-2.22-3.136-.5029-5.8491" fill="none" stroke="#000" stroke-linecap="round" stroke-linejoin="round" stroke-width="2"/></g><path d="M398.7973,88.4736,397.5338,76.917a4.4959,4.4959,0,0,0-4.9579-3.9805l-.3351.0367-.322-2.9433a4.88,4.88,0,0,0-5.3818-4.3209l-2.2.2406.7688-4.4948a1.42,1.42,0,0,0-1.16-1.6393l-4.6808-.8006-2.068-7.51a1.9686,1.9686,0,0,0-2.4143-1.3716L362.18,53.604a1.9591,1.9591,0,0,0-1.3994,2.2491l-5.7645-.986a1.42,1.42,0,0,0-1.6392,1.16l-6.1888,36.18a4.4835,4.4835,0,0,0,3.659,5.1691l22.9009,3.9172a4.4835,4.4835,0,0,0,5.1691-3.659l4.2967-25.1193,3.0957,28.3048a1.4186,1.4186,0,0,0,1.5662,1.2575l2.6076-.2851a4.8808,4.8808,0,0,0,4.3208-5.3818l-.3219-2.9432.3349-.0365a4.4949,4.4949,0,0,0,3.98-4.9579Zm-2.8085,1.8214a2.1161,2.1161,0,0,1-1.4285.7837l-.3353.0367-1.7269-15.7895.3347-.0365a2.1291,2.1291,0,0,1,2.3481,1.8846l1.2639,11.557A2.115,2.115,0,0,1,395.9888,90.295Z" fill="#fff" stroke="#fff" stroke-linecap="round" stroke-linejoin="round" stroke-width="8"/><path d="M359.1952,48.2829c2.5622-.8313,4.9952-.2927,7.4334,1.6462a.9467.9467,0,1,0,1.1784-1.4821c-2.9332-2.3327-6.028-2.9939-9.1962-1.9651-11.5725,3.753-21.1008,29.7247-24.8046,41.23a12.0063,12.0063,0,0,0-8.6852-9.521.9468.9468,0,0,0-.377,1.8556c.3492.0729,8.5381,1.9168,7.387,13.2334a.9469.9469,0,0,0,.7662,1.0264l.0164.0028a.9467.9467,0,0,0,1.0711-.6793C334.0986,93.2217,345.5343,52.7133,359.1952,48.2829Z" fill="#fff" stroke="#fff" stroke-linecap="round" stroke-linejoin="round" stroke-width="8"/><path d="M370.2279,49.0262a.9468.9468,0,0,0,.9323-1.48c-.0185-.0261-1.838-2.6434-.476-4.7958a.9466.9466,0,0,0-1.6-1.0127c-2.0328,3.212.4244,6.7535.53,6.9024A.9438.9438,0,0,0,370.2279,49.0262Z" fill="#fff" stroke="#fff" stroke-linecap="round" stroke-linejoin="round" stroke-width="8"/><rect x="363.8932" y="52.4147" width="15.1044" height="20.4354" rx="1.0166" transform="translate(-3.2991 100.8566) rotate(-15.3951)" stroke-width="2" stroke="#333" stroke-linecap="round" stroke-linejoin="round" fill="#ffde00"/><path d="M380.7434,72.4658,369.7251,65.005a1.1148,1.1148,0,0,1-.409-1.4853l5.6187-12.1489" fill="#ffde02" stroke="#333" stroke-linecap="round" stroke-linejoin="round" stroke-width="2"/><path d="M374.6063,99.8776l-23.268-3.98a3.0926,3.0926,0,0,1-2.5269-3.57l6.2335-36.4421L384.41,60.9086l-6.2335,36.4421A3.0926,3.0926,0,0,1,374.6063,99.8776Z" fill="#e6e6e6" stroke="#333" stroke-linecap="round" stroke-linejoin="round" stroke-width="3"/><line x1="360.9938" y1="66.8042" x2="357.5297" y2="87.0557" fill="#e6e6e6" stroke="#333" stroke-linecap="round" stroke-linejoin="round" stroke-width="2"/><line x1="368.0818" y1="68.0166" x2="364.6177" y2="88.2681" fill="#e6e6e6" stroke="#333" stroke-linecap="round" stroke-linejoin="round" stroke-width="2"/><line x1="375.1698" y1="69.229" x2="371.7058" y2="89.4805" fill="#e6e6e6" stroke="#333" stroke-linecap="round" stroke-linejoin="round" stroke-width="2"/><path d="M391.4617,74.2488l1.2427-.136a3.3124,3.3124,0,0,1,3.6529,2.9327l1.264,11.5564a3.3124,3.3124,0,0,1-2.9326,3.6529h0l-1.2427.1359" fill="none" stroke="#333" stroke-linecap="round" stroke-linejoin="round" stroke-width="2.5"/><path d="M387.7214,100.6664l-3.6377-33.26,2.6076-.2852a3.46,3.46,0,0,1,3.8159,3.0635l2.8853,26.3809a3.46,3.46,0,0,1-3.0634,3.8159Z" fill="#e6e6e6" stroke="#333" stroke-linecap="round" stroke-linejoin="round" stroke-width="3"/><path d="M324.9341,79.1194s9.396,1.8931,8.1388,14.2566c0,0,16.2776-58.3932,34.1449-44.1878" fill="none" stroke="#333" stroke-linecap="round" stroke-linejoin="round" stroke-width="2.5"/><path d="M370.3873,48.0929s-2.22-3.136-.5029-5.8491" fill="none" stroke="#333" stroke-linecap="round" stroke-linejoin="round" stroke-width="2"/><g opacity="0.08"><path d="M8.92,178.198a5.4358,5.4358,0,0,1-4.5454-2.4111,5.2219,5.2219,0,0,1-.4638-4.9214L19.1152,134.553a5.552,5.552,0,0,1,9.2544-1.4848L54.1738,162.8a5.1753,5.1753,0,0,1,.97,5.2222,5.4964,5.4964,0,0,1-4.3125,3.5219L9.8217,178.1258A5.6565,5.6565,0,0,1,8.92,178.198Z" fill="#232323"/><path d="M24.2318,134.698a1.9562,1.9562,0,0,1,1.4942.6639l12.9021,14.8659L51.53,165.0939a1.8425,1.8425,0,0,1-1.254,2.9949l-20.5046,3.2906L9.2671,174.67a2.1982,2.1982,0,0,1-.3467.0279,1.8187,1.8187,0,0,1-1.7815-2.48l7.6025-18.1566,7.6024-18.1567a2.0249,2.0249,0,0,1,1.888-1.2066m0-7h0a9.0013,9.0013,0,0,0-8.3445,5.503L8.2845,151.3578.6821,169.5144a8.7146,8.7146,0,0,0,.7792,8.2117A8.9285,8.9285,0,0,0,8.92,181.698a9.2185,9.2185,0,0,0,1.4557-.1163l20.5047-3.2907L51.3854,175a8.9979,8.9979,0,0,0,7.0478-5.7833,8.7445,8.7445,0,0,0-1.6164-8.7114L43.9148,145.64,31.0127,130.7737a8.9652,8.9652,0,0,0-6.7808-3.0757Z" fill="#232323"/><path d="M24.2318,134.698a1.9565,1.9565,0,0,1,1.4943.6639l12.902,14.8659L51.53,165.0939a1.8425,1.8425,0,0,1-1.254,2.9949l-20.5046,3.2906L9.2671,174.67a2.1982,2.1982,0,0,1-.3467.0279,1.8187,1.8187,0,0,1-1.7815-2.48l7.6025-18.1566,7.6024-18.1567a2.0249,2.0249,0,0,1,1.888-1.2066m0-3h0a5.0112,5.0112,0,0,0-4.6552,3.048l-7.6025,18.1566L4.3717,171.0592a4.7236,4.7236,0,0,0,.42,4.4511A4.9373,4.9373,0,0,0,8.92,177.698a5.2044,5.2044,0,0,0,.8221-.0658l20.5045-3.2907,20.5046-3.2906a4.9961,4.9961,0,0,0,3.922-3.2,4.6808,4.6808,0,0,0-.8777-4.7238l-12.9021-14.866-12.9021-14.866a4.9675,4.9675,0,0,0-3.76-1.6975Z" fill="#232323"/><polyline points="20.316 158.741 26.121 162.672 33.817 151.135" fill="none" stroke="#232323" stroke-linecap="round" stroke-miterlimit="10" stroke-width="2.8548"/></g><path d="M8.92,175.198a5.4358,5.4358,0,0,1-4.5454-2.4111,5.2219,5.2219,0,0,1-.4638-4.9214L19.1152,131.553a5.552,5.552,0,0,1,9.2544-1.4848L54.1738,159.8a5.1753,5.1753,0,0,1,.97,5.2222,5.4964,5.4964,0,0,1-4.3125,3.5219L9.8217,175.1258A5.6565,5.6565,0,0,1,8.92,175.198Z" fill="#ffde02"/><path d="M24.2318,131.698a1.9562,1.9562,0,0,1,1.4942.6639l12.9021,14.8659L51.53,162.0939a1.8425,1.8425,0,0,1-1.254,2.9949l-20.5046,3.2906L9.2671,171.67a2.1982,2.1982,0,0,1-.3467.0279,1.8187,1.8187,0,0,1-1.7815-2.48l7.6025-18.1566,7.6024-18.1567a2.0249,2.0249,0,0,1,1.888-1.2066m0-7h0a9.0013,9.0013,0,0,0-8.3445,5.503L8.2845,148.3578.6821,166.5144a8.7146,8.7146,0,0,0,.7792,8.2117A8.9285,8.9285,0,0,0,8.92,178.698a9.2185,9.2185,0,0,0,1.4557-.1163l20.5047-3.2907L51.3854,172a8.9979,8.9979,0,0,0,7.0478-5.7833,8.7445,8.7445,0,0,0-1.6164-8.7114L43.9148,142.64,31.0127,127.7737a8.9652,8.9652,0,0,0-6.7808-3.0757Z" fill="#fff"/><path d="M24.2318,131.698a1.9565,1.9565,0,0,1,1.4943.6639l12.902,14.8659L51.53,162.0939a1.8425,1.8425,0,0,1-1.254,2.9949l-20.5046,3.2906L9.2671,171.67a2.1982,2.1982,0,0,1-.3467.0279,1.8187,1.8187,0,0,1-1.7815-2.48l7.6025-18.1566,7.6024-18.1567a2.0249,2.0249,0,0,1,1.888-1.2066m0-3h0a5.0112,5.0112,0,0,0-4.6552,3.048l-7.6025,18.1566L4.3717,168.0592a4.7236,4.7236,0,0,0,.42,4.4511A4.9373,4.9373,0,0,0,8.92,174.698a5.2044,5.2044,0,0,0,.8221-.0658l20.5045-3.2907,20.5046-3.2906a4.9961,4.9961,0,0,0,3.922-3.2,4.6808,4.6808,0,0,0-.8777-4.7238l-12.9021-14.866-12.9021-14.866a4.9675,4.9675,0,0,0-3.76-1.6975Z" fill="#23292a"/><polyline points="20.316 155.741 26.121 159.672 33.817 148.135" fill="none" stroke="#333" stroke-linecap="round" stroke-miterlimit="10" stroke-width="2.8548"/><g opacity="0.08"><path d="M397.4587,171.05a13.4631,13.4631,0,0,0-5.382-25.3488L355.6745,143.26a13.4771,13.4771,0,1,0-1.8032,26.8939l32.07,2.15-.6321,9.4279,5.1-5.1292,3.4922,8.7712,4.5558-1.7414-3.4674-8.77,7.0126.4962Z" stroke="#000" stroke-linecap="round" stroke-linejoin="round" stroke-width="7"/><rect x="360.8888" y="127.6002" width="24.1707" height="60.6546" rx="12.0853" transform="translate(190.4492 519.5011) rotate(-86.1642)"/><rect x="360.8888" y="127.6002" width="24.1707" height="60.6546" rx="12.0853" transform="translate(190.4492 519.5011) rotate(-86.1642)" stroke-width="3" stroke="#000" stroke-linecap="round" stroke-linejoin="round" fill="none"/><path d="M393.9013,186.8748a1.5,1.5,0,0,1-1.394-.9458l-2.6465-6.6475-3.4873,3.5083a1.5,1.5,0,0,1-2.5606-1.1577l1.4-20.88a1.5,1.5,0,0,1,2.5288-.9882l15.2925,14.5073a1.5,1.5,0,0,1-1.0312,2.5884c-.0362,0-.0713-.0015-.1065-.0039l-4.6357-.3277,2.5908,6.5532a1.5,1.5,0,0,1-.8594,1.9532l-4.5556,1.7412A1.5075,1.5075,0,0,1,393.9013,186.8748Z"/><path d="M386.7093,160.8525,402.002,175.36l-7.0126-.4962,3.4675,8.77-4.5558,1.7414-3.4922-8.7713-5.1,5.1293,1.4-20.88m-.0006-3a3,3,0,0,0-2.9927,2.7993l-1.4,20.88a3,3,0,0,0,5.1208,2.3158l1.8761-1.887,1.8009,4.5235a2.9974,2.9974,0,0,0,3.8584,1.6926l4.5558-1.7414a3,3,0,0,0,1.7188-3.9054l-1.7151-4.3376,2.2586.16c.0711.0051.1422.0076.2127.0076a3,3,0,0,0,2.0637-5.1766l-15.2928-14.507a3,3,0,0,0-2.0652-.8235Z"/></g><path d="M397.4587,168.05a13.4631,13.4631,0,0,0-5.382-25.3488L355.6745,140.26a13.4771,13.4771,0,1,0-1.8032,26.8939l32.07,2.15-.6321,9.4279,5.1-5.1292,3.4922,8.7712,4.5558-1.7414-3.4674-8.77,7.0126.4962Z" fill="#fff" stroke="#fff" stroke-linecap="round" stroke-linejoin="round" stroke-width="7"/><rect x="360.8888" y="124.6002" width="24.1707" height="60.6546" rx="12.0853" transform="translate(193.4425 516.7018) rotate(-86.1642)" fill="#ffde02"/><rect x="360.8888" y="124.6002" width="24.1707" height="60.6546" rx="12.0853" transform="translate(193.4425 516.7018) rotate(-86.1642)" stroke-width="3" stroke="#333" stroke-linecap="round" stroke-linejoin="round" fill="none"/><path d="M393.9013,183.8748a1.5,1.5,0,0,1-1.394-.9458l-2.6465-6.6475-3.4873,3.5083a1.5,1.5,0,0,1-2.5606-1.1577l1.4-20.88a1.5,1.5,0,0,1,2.5288-.9882l15.2925,14.5073a1.5,1.5,0,0,1-1.0312,2.5884c-.0362,0-.0713-.0015-.1065-.0039l-4.6357-.3277,2.5908,6.5532a1.5,1.5,0,0,1-.8594,1.9532l-4.5556,1.7412A1.5075,1.5075,0,0,1,393.9013,183.8748Z" fill="#333"/><path d="M386.7093,157.8525,402.002,172.36l-7.0126-.4962,3.4675,8.77-4.5558,1.7414-3.4922-8.7713-5.1,5.1293,1.4-20.88m-.0006-3a3,3,0,0,0-2.9927,2.7993l-1.4,20.88a3,3,0,0,0,5.1208,2.3158l1.8761-1.887,1.8009,4.5235a2.9974,2.9974,0,0,0,3.8584,1.6926l4.5558-1.7414a3,3,0,0,0,1.7188-3.9054l-1.7151-4.3376,2.2586.16c.0711.0051.1422.0076.2127.0076a3,3,0,0,0,2.0637-5.1766l-15.2928-14.507a3,3,0,0,0-2.0652-.8235Z" fill="#fff"/></g></g></svg>