<svg width="980" height="375" fill="none" xmlns="http://www.w3.org/2000/svg"><path d="M955 316H25c-11.598 0-21 9.402-21 21s9.402 21 21 21h930c11.598 0 21-9.402 21-21s-9.402-21-21-21Z" fill="#fff"/><path d="M955 318H25c-10.493 0-19 8.507-19 19s8.507 19 19 19h930c10.493 0 19-8.507 19-19s-8.507-19-19-19Z" fill="#B3D8F0" fill-opacity=".3" stroke="#C9E2F2" stroke-width="4"/><path d="M955 314H25c-12.703 0-23 10.297-23 23s10.297 23 23 23h930c12.703 0 23-10.297 23-23s-10.297-23-23-23Z" stroke="#004775" stroke-width="4"/><path d="M26 350.5c7.456 0 13.5-6.044 13.5-13.5s-6.044-13.5-13.5-13.5-13.5 6.044-13.5 13.5 6.044 13.5 13.5 13.5Z" fill="#B3D8F0" stroke="#004775" stroke-width="3"/><path d="M26 340.237a3.237 3.237 0 1 0 0-6.474 3.237 3.237 0 0 0 0 6.474Z" stroke="#004775" stroke-width="3"/><path d="M146 350.5c7.456 0 13.5-6.044 13.5-13.5s-6.044-13.5-13.5-13.5-13.5 6.044-13.5 13.5 6.044 13.5 13.5 13.5Z" fill="#B3D8F0" stroke="#004775" stroke-width="3"/><path d="M146 340.188a3.188 3.188 0 1 0 0-6.375 3.188 3.188 0 0 0 0 6.375Z" stroke="#004775" stroke-width="3"/><path d="M266 350.5c7.456 0 13.5-6.044 13.5-13.5s-6.044-13.5-13.5-13.5-13.5 6.044-13.5 13.5 6.044 13.5 13.5 13.5Z" fill="#B3D8F0" stroke="#004775" stroke-width="3"/><path d="M266 340.237a3.237 3.237 0 1 0 0-6.473 3.237 3.237 0 0 0 0 6.473Z" stroke="#004775" stroke-width="3"/><path d="M954 350.5c7.456 0 13.5-6.044 13.5-13.5s-6.044-13.5-13.5-13.5-13.5 6.044-13.5 13.5 6.044 13.5 13.5 13.5Z" fill="#B3D8F0" stroke="#004775" stroke-width="3"/><path d="M954 340.237a3.237 3.237 0 1 0 0-6.473 3.237 3.237 0 0 0 0 6.473Z" stroke="#004775" stroke-width="3"/><path d="M834 350.5c7.456 0 13.5-6.044 13.5-13.5s-6.044-13.5-13.5-13.5-13.5 6.044-13.5 13.5 6.044 13.5 13.5 13.5Z" fill="#B3D8F0" stroke="#004775" stroke-width="3"/><path d="M834 340.237a3.237 3.237 0 1 0 0-6.473 3.237 3.237 0 0 0 0 6.473Z" stroke="#004775" stroke-width="3"/><path d="M714 350.5c7.456 0 13.5-6.044 13.5-13.5s-6.044-13.5-13.5-13.5-13.5 6.044-13.5 13.5 6.044 13.5 13.5 13.5Z" fill="#B3D8F0" stroke="#004775" stroke-width="3"/><path d="M714 340.237a3.237 3.237 0 1 0 0-6.473 3.237 3.237 0 0 0 0 6.473Z" stroke="#004775" stroke-width="3"/><path d="M637.5 72.5h-295a3 3 0 0 0-3 3v295a3 3 0 0 0 3 3h295a3 3 0 0 0 3-3v-295a3 3 0 0 0-3-3Z" fill="#B3D8F0" stroke="#004775" stroke-width="3"/><path d="M625.5 85.5h-271a2 2 0 0 0-2 2v271a2 2 0 0 0 2 2h271a2 2 0 0 0 2-2v-271a2 2 0 0 0-2-2Z" fill="#C9E1F1" stroke="#004775" stroke-width="3"/><path d="M366 103a4 4 0 1 0 0-8 4 4 0 0 0 0 8Z" fill="#004775"/><path d="m362.5 102.5 7-7" stroke="#C9E1F1" stroke-linecap="square"/><path d="M614 103a4 4 0 1 0 0-8 4 4 0 0 0 0 8Z" fill="#004775"/><path d="m609.5 94.5 9.055 9.055" stroke="#C9E1F1" stroke-linecap="square"/><path d="M614 351a4 4 0 1 0 0-8 4 4 0 0 0 0 8ZM366 351a4 4 0 1 0 0-8 4 4 0 0 0 0 8Z" fill="#004775"/><path d="m610.28 350.5 7.22-7.22m-246 9.22-8.631-8.631 8.631 8.631Z" stroke="#C9E1F1" stroke-linecap="square"/><path fill-rule="evenodd" clip-rule="evenodd" d="M482.5 65.5h15v7h-15v-7Z" fill="#B3D8F0" stroke="#004775" stroke-width="3"/><path fill-rule="evenodd" clip-rule="evenodd" d="m489.737 21.978-.002-.002a.052.052 0 0 0 .013.006l-.011-.004Zm.261.277a6.466 6.466 0 0 0-.25.33c-.439.615-.856 1.317-2.07 3.444-.5.875-1.029 1.693-1.6 2.487-.562.78-1.143 1.51-1.851 2.342-.307.36-1.438 1.656-1.694 1.957-2.972 3.492-4.033 6.243-4.033 12.434v15.344a5.498 5.498 0 0 0 5.5 5.5h12a5.498 5.498 0 0 0 5.5-5.5v-15.13c0-6.323-1.066-9.113-4.057-12.64-.25-.294-1.394-1.611-1.713-1.988a35.49 35.49 0 0 1-1.874-2.388 28.154 28.154 0 0 1-1.553-2.43c-1.208-2.123-1.624-2.824-2.06-3.438a6.266 6.266 0 0 0-.245-.324Z" fill="#E8F6FF" stroke="#004775" stroke-width="3"/><path d="M485 52a2 2 0 1 0 0-4 2 2 0 0 0 0 4ZM495 52a2 2 0 1 0 0-4 2 2 0 0 0 0 4ZM496.931 50.49 490 67m-6.936-16.535L490 67l-6.936-16.535Z" stroke="#004775" stroke-width="1.5"/><path d="M491.5 1.5a1.5 1.5 0 0 0-3 0v10a1.5 1.5 0 0 0 3 0v-10ZM519.613 20.018a1.499 1.499 0 1 0-1.721-2.458l-8.191 5.736a1.5 1.5 0 1 0 1.721 2.458l8.191-5.736ZM460.387 20.018a1.5 1.5 0 1 1 1.721-2.458l8.191 5.736a1.5 1.5 0 1 1-1.72 2.457l-8.192-5.735ZM455.477 46.215a1.5 1.5 0 1 1 .521-2.954l9.848 1.736a1.5 1.5 0 1 1-.521 2.955l-9.848-1.737ZM513.478 44.997a1.5 1.5 0 0 0 .52 2.954l9.849-1.736a1.5 1.5 0 0 0-.521-2.955l-9.848 1.737Z" fill="#004775"/><path fill-rule="evenodd" clip-rule="evenodd" d="m443.851 231 .092-11.523h-.069L439.642 231h-2.76l-4.117-11.523h-.069l.092 11.523h-3.703v-16.284h5.589l3.703 10.442h.092l3.542-10.442h5.681V231h-3.841Zm13.754-4.991h-.483c-.414 0-.832.02-1.253.058-.383.03-.761.104-1.128.218-.33.107-.601.264-.816.472-.215.207-.322.479-.322.816 0 .215.05.399.15.552.1.153.226.276.379.368.153.092.33.157.529.195.2.039.391.058.575.058.767 0 1.353-.21 1.76-.633.406-.421.609-.992.609-1.713v-.391Zm-6.923-4.899a6.611 6.611 0 0 1 2.358-1.449 8.073 8.073 0 0 1 2.748-.483c.966 0 1.782.119 2.45.357.667.237 1.207.605 1.621 1.104.414.498.717 1.126.909 1.886.191.759.287 1.66.287 2.702V231h-3.45v-1.219h-.069c-.291.475-.732.843-1.323 1.104-.59.26-1.23.391-1.92.391-.46 0-.935-.061-1.426-.184a4.185 4.185 0 0 1-1.346-.598 3.229 3.229 0 0 1-1-1.104c-.26-.46-.391-1.027-.391-1.702 0-.828.226-1.495.678-2.001.453-.506 1.035-.897 1.748-1.173a9.275 9.275 0 0 1 2.381-.552 24.19 24.19 0 0 1 2.553-.138v-.184c0-.567-.2-.985-.598-1.253-.399-.269-.89-.403-1.472-.403-.537 0-1.054.115-1.553.345-.498.23-.923.506-1.276.828l-1.909-2.047Zm17.273-5.221c0 .291-.057.563-.172.816-.11.246-.266.469-.46.656-.416.386-.963.6-1.53.598-.613 0-1.127-.203-1.541-.61a1.977 1.977 0 0 1-.621-1.46c0-.276.054-.54.161-.794.107-.253.26-.471.46-.655.2-.184.43-.333.69-.448.26-.116.544-.173.851-.173a2.239 2.239 0 0 1 1.53.598c.191.184.344.402.46.656.115.253.172.525.172.816ZM463.907 231v-11.454h3.772V231h-3.772Zm6.808 0v-17.388h3.818V231h-3.818Zm21.781 0 .092-11.523h-.069L488.287 231h-2.76l-4.117-11.523h-.069l.092 11.523h-3.703v-16.284h5.589l3.703 10.442h.092l3.542-10.442h5.681V231h-3.841Zm13.754-4.991h-.483c-.414 0-.832.02-1.254.058-.383.03-.761.104-1.127.218-.33.107-.601.264-.816.472-.215.207-.322.479-.322.816 0 .215.05.399.15.552.1.153.226.276.379.368.153.092.33.157.529.195.2.039.391.058.575.058.767 0 1.353-.21 1.76-.633.406-.421.609-.992.609-1.713v-.391Zm-6.923-4.899a6.611 6.611 0 0 1 2.358-1.449 8.073 8.073 0 0 1 2.748-.483c.966 0 1.782.119 2.45.357.667.237 1.207.605 1.621 1.104.414.498.717 1.126.909 1.886.191.759.287 1.66.287 2.702V231h-3.45v-1.219h-.069c-.291.475-.732.843-1.322 1.104-.59.26-1.231.391-1.921.391-.46 0-.935-.061-1.426-.184a4.18 4.18 0 0 1-1.345-.598 3.232 3.232 0 0 1-1.001-1.104c-.26-.46-.391-1.027-.391-1.702 0-.828.226-1.495.679-2.001.452-.506 1.034-.897 1.748-1.173a9.267 9.267 0 0 1 2.38-.552 24.19 24.19 0 0 1 2.553-.138v-.184c0-.567-.2-.985-.598-1.253-.399-.269-.89-.403-1.472-.403a3.66 3.66 0 0 0-1.552.345c-.499.23-.924.506-1.277.828l-1.909-2.047Zm19.918 1.817c-.32-.3-.684-.549-1.081-.736a2.992 2.992 0 0 0-1.311-.299c-.353 0-.678.069-.978.207-.299.138-.448.376-.448.713 0 .322.165.552.494.69.33.138.863.291 1.599.46.43.092.862.222 1.3.391.426.162.825.387 1.184.667.353.276.636.613.851 1.012.215.399.322.874.322 1.426 0 .72-.146 1.33-.437 1.829-.291.498-.67.9-1.138 1.207a4.9 4.9 0 0 1-1.576.667 7.568 7.568 0 0 1-1.748.207c-.935 0-1.851-.15-2.748-.448-.898-.3-1.645-.74-2.243-1.323l2.116-2.231c.337.368.751.675 1.242.92.485.244 1.021.37 1.564.368.307 0 .61-.073.909-.218.299-.146.448-.403.448-.771 0-.353-.184-.613-.552-.782-.368-.169-.943-.345-1.725-.529a8.786 8.786 0 0 1-1.196-.368 3.795 3.795 0 0 1-1.07-.621 3.087 3.087 0 0 1-.77-.966c-.2-.383-.299-.843-.299-1.38 0-.69.146-1.276.437-1.76a3.706 3.706 0 0 1 1.127-1.184c.468-.31.986-.539 1.53-.678a6.604 6.604 0 0 1 1.667-.219c.859 0 1.698.134 2.519.403.82.268 1.514.67 2.081 1.207l-2.07 2.139Zm16.261 2.3c0 .935-.169 1.782-.506 2.542a5.687 5.687 0 0 1-1.38 1.932 6.322 6.322 0 0 1-2.024 1.23 6.871 6.871 0 0 1-2.461.437 6.9 6.9 0 0 1-2.45-.437 6.159 6.159 0 0 1-2.024-1.23 5.786 5.786 0 0 1-1.368-1.932c-.337-.76-.506-1.607-.506-2.542 0-.935.169-1.779.506-2.53a5.676 5.676 0 0 1 1.368-1.909 5.954 5.954 0 0 1 2.024-1.196 7.252 7.252 0 0 1 2.45-.414c.874 0 1.694.138 2.461.414a6.11 6.11 0 0 1 2.024 1.196 5.606 5.606 0 0 1 1.38 1.909c.337.751.506 1.595.506 2.53Zm-3.634 0c0-.368-.061-.728-.184-1.081a2.86 2.86 0 0 0-.529-.931 2.685 2.685 0 0 0-.851-.656 2.587 2.587 0 0 0-1.173-.253 2.587 2.587 0 0 0-1.173.253 2.559 2.559 0 0 0-.84.656 2.803 2.803 0 0 0-.506.931c-.23.702-.23 1.46 0 2.162.116.353.288.67.518.955.23.283.514.51.851.678.366.175.768.262 1.173.253.405.009.807-.078 1.173-.253.337-.169.621-.395.851-.678a2.98 2.98 0 0 0 .518-.955c.115-.353.172-.713.172-1.081ZM545.419 231v-6.256c0-.322-.027-.629-.08-.92a2.54 2.54 0 0 0-.265-.77 1.364 1.364 0 0 0-.517-.53c-.223-.13-.503-.195-.84-.195-.337 0-.632.065-.885.196-.254.13-.464.31-.633.54-.169.23-.295.494-.38.794a3.424 3.424 0 0 0-.126.931V231h-3.795v-11.454h3.657v1.587h.046c.138-.245.318-.487.54-.725.223-.237.483-.44.783-.609.299-.169.624-.307.977-.414a3.873 3.873 0 0 1 1.127-.161c.767 0 1.418.138 1.955.414.537.276.97.632 1.3 1.07.33.437.567.939.713 1.506.144.556.217 1.128.218 1.702V231h-3.795Z" fill="#003659"/><path opacity=".12" fill-rule="evenodd" clip-rule="evenodd" d="M429 195h22v8h-22v-8Zm25 0h22v8h-22v-8Zm25 0h22v8h-22v-8Zm25 0h22v8h-22v-8Zm25 0h22v8h-22v-8Zm-100-11h10v8h-10v-8Zm13 0h22v8h-22v-8Zm-13-11h22v8h-22v-8Zm25 0h22v8h-22v-8Zm25 0h22v8h-22v-8Zm25 0h22v8h-22v-8Zm25 0h22v8h-22v-8Zm-62 11h22v8h-22v-8Zm25 0h22v8h-22v-8Zm25 0h22v8h-22v-8Zm25 0h9v8h-9v-8ZM429 265h22v8h-22v-8Zm25 0h22v8h-22v-8Zm25 0h22v8h-22v-8Zm25 0h22v8h-22v-8Zm25 0h22v8h-22v-8Zm-100-11h10v8h-10v-8Zm13 0h22v8h-22v-8Zm-13-11h22v8h-22v-8Zm25 0h22v8h-22v-8Zm25 0h22v8h-22v-8Zm25 0h22v8h-22v-8Zm25 0h22v8h-22v-8Zm-62 11h22v8h-22v-8Zm25 0h22v8h-22v-8Zm25 0h22v8h-22v-8Zm25 0h9v8h-9v-8Z" fill="#004775"/><path d="m24.876 273.748 60.969-44.296c1.036-.753 2.5-.505 3.27.554l16.023 22.054c.769 1.059.553 2.527-.483 3.28l-60.969 44.296c-1.036.753-2.5.506-3.27-.553l-16.023-22.054c-.77-1.059-.553-2.528.483-3.281Z" fill="#fff"/><path fill-rule="evenodd" clip-rule="evenodd" d="M25.758 274.962c-.36.261-.438.79-.151 1.185l16.023 22.054c.287.395.814.484 1.174.222l60.968-44.296c.36-.261.438-.79.151-1.185L87.9 230.888c-.287-.395-.814-.484-1.174-.222L25.76 274.961l-.001.001Z" fill="#F7931E" fill-opacity=".2" stroke="#F7931E" stroke-width="3"/><path d="M41.667 278.943c.305-.221.603-.354.897-.399a1.77 1.77 0 0 1 .837.029c.27.071.519.197.748.376.23.18.431.389.605.629l2.116 2.912-1.165.847-1.862-2.563a3.88 3.88 0 0 0-.332-.397 1.387 1.387 0 0 0-.416-.306.904.904 0 0 0-.48-.11c-.167.002-.344.071-.532.207-.188.137-.323.29-.408.46-.084.17-.127.349-.128.538a1.51 1.51 0 0 0 .086.546c.062.182.15.351.263.506l1.848 2.543-1.165.847-5.332-7.34 1.165-.846 2.419 3.33.02-.014a1.362 1.362 0 0 1-.011-.423c.02-.163.063-.322.127-.478.06-.162.148-.32.264-.474.116-.153.262-.293.436-.42ZM49.48 276.323a1.659 1.659 0 0 0-.38-.378 1.141 1.141 0 0 0-.454-.218 1.131 1.131 0 0 0-.526.011 1.376 1.376 0 0 0-.556.256c-.35.254-.57.577-.66.969a1.41 1.41 0 0 0 .187 1.095l2.388-1.735Zm1.545-.322.113.155c.037.052.072.106.103.162l-3.544 2.575c.136.159.29.284.465.374.177.08.364.127.562.141.194.007.39-.016.587-.071.198-.054.38-.143.549-.265.291-.211.5-.442.625-.691.12-.256.177-.525.17-.807l1.228.057c-.008.956-.449 1.751-1.322 2.385a3.598 3.598 0 0 1-1.12.562 3.089 3.089 0 0 1-1.149.093 2.807 2.807 0 0 1-1.074-.376 3.385 3.385 0 0 1-.932-.895 3.338 3.338 0 0 1-.556-1.154 2.874 2.874 0 0 1 .362-2.236c.215-.344.497-.643.847-.897a2.928 2.928 0 0 1 1.013-.484 2.296 2.296 0 0 1 1.064-.046c.351.061.697.21 1.037.448.342.226.666.549.972.97ZM56.21 274.8l-.03.021c.035.292-.029.6-.189.924a2.416 2.416 0 0 1-.742.836 3.004 3.004 0 0 1-.649.352 2.2 2.2 0 0 1-.732.176 1.922 1.922 0 0 1-.752-.136c-.246-.108-.468-.297-.666-.569-.254-.35-.359-.699-.315-1.047.05-.353.19-.697.421-1.033.231-.335.523-.656.874-.961a13.62 13.62 0 0 1 1.075-.869l-.085-.117c-.212-.291-.474-.427-.786-.408-.31.008-.611.118-.903.33a2.078 2.078 0 0 0-.596.67 2.358 2.358 0 0 0-.288.788l-1.116-.272c.086-.438.256-.844.51-1.216.26-.377.568-.695.924-.953.415-.301.797-.49 1.147-.566.356-.081.68-.084.972-.009.292.074.551.207.779.398.234.186.435.395.605.628l2.06 2.835-1.088.79-.43-.592Zm-1.134-1.52-.262.191a7.719 7.719 0 0 0-.571.459 2.777 2.777 0 0 0-.496.523 1.399 1.399 0 0 0-.267.55c-.046.182-.006.36.121.535.08.11.171.187.273.232.103.034.21.045.321.034a1.02 1.02 0 0 0 .333-.094c.11-.051.215-.112.312-.182.401-.292.628-.619.68-.983.052-.365-.056-.731-.324-1.1l-.12-.165ZM63.822 270.174l-1.107.804-.508-.699-.019.014c.036.389-.04.761-.228 1.115a2.518 2.518 0 0 1-.767.884 2.855 2.855 0 0 1-1.102.504 2.937 2.937 0 0 1-1.107-.012 3.17 3.17 0 0 1-1.027-.455 3.699 3.699 0 0 1-.861-.858 3.395 3.395 0 0 1-.533-1.081 2.897 2.897 0 0 1-.099-1.115c.041-.366.156-.711.345-1.037.184-.331.442-.617.772-.857.213-.155.423-.268.629-.338.201-.077.389-.125.564-.143.18-.023.347-.025.499-.007.152.019.285.045.4.081l.029-.021-2.377-3.272 1.165-.847 5.332 7.34Zm-5.542.437c.132.181.29.343.473.487.19.139.392.239.605.302a1.531 1.531 0 0 0 1.362-.248c.214-.155.374-.336.482-.543.102-.213.16-.432.173-.659a1.733 1.733 0 0 0-.074-.674 1.984 1.984 0 0 0-.298-.614 1.987 1.987 0 0 0-.492-.473 1.705 1.705 0 0 0-.625-.288 1.727 1.727 0 0 0-.68-.039 1.475 1.475 0 0 0-.672.28 1.523 1.523 0 0 0-.493.566 1.478 1.478 0 0 0-.171.643c-.007.223.027.446.1.669.075.213.179.409.31.591ZM66.487 263.966a1.655 1.655 0 0 0-.378-.378 1.128 1.128 0 0 0-.455-.218 1.131 1.131 0 0 0-.526.011 1.387 1.387 0 0 0-.556.255c-.35.254-.57.577-.66.97a1.41 1.41 0 0 0 .187 1.095l2.388-1.735Zm1.546-.323.113.156c.038.052.072.106.103.162l-3.543 2.575c.135.158.29.283.465.374.176.079.363.126.561.14.194.008.39-.015.587-.07.198-.054.38-.143.55-.265.29-.212.499-.442.624-.692a1.76 1.76 0 0 0 .17-.806l1.229.057c-.008.955-.45 1.75-1.323 2.385a3.598 3.598 0 0 1-1.12.562 3.089 3.089 0 0 1-1.148.093 2.808 2.808 0 0 1-1.075-.377 3.37 3.37 0 0 1-.932-.895 3.334 3.334 0 0 1-.556-1.153 2.874 2.874 0 0 1 .363-2.236c.214-.344.497-.643.846-.897a2.91 2.91 0 0 1 1.013-.484 2.296 2.296 0 0 1 1.064-.046c.351.061.697.21 1.037.447.343.226.667.55.972.97ZM67.426 260.435l1.117-.811.564.777.02-.014a2.098 2.098 0 0 1 .064-1.055 1.675 1.675 0 0 1 .784-.941.542.542 0 0 1 .15-.08l.776 1.068a1.907 1.907 0 0 0-.394.213c-.266.193-.444.396-.535.611a1.44 1.44 0 0 0-.125.624c.008.202.048.386.119.552.071.166.137.291.198.375l1.813 2.495-1.165.846-3.386-4.66ZM73.177 262.339a.9.9 0 0 1-.165-.696.953.953 0 0 1 .391-.625.963.963 0 0 1 .699-.182c.259.03.463.148.614.355.15.207.202.442.155.704a.914.914 0 0 1-.382.618 1.002 1.002 0 0 1-.343.16 1.067 1.067 0 0 1-.356.021.967.967 0 0 1-.344-.106.894.894 0 0 1-.27-.249ZM75.513 254.352c.305-.221.603-.354.897-.399.295-.056.574-.046.837.03.27.071.519.196.748.376.23.179.431.389.605.628l2.116 2.913-1.165.846-1.862-2.563a3.767 3.767 0 0 0-.332-.396 1.374 1.374 0 0 0-.416-.307.913.913 0 0 0-.48-.11c-.167.002-.344.072-.532.208a1.272 1.272 0 0 0-.408.459c-.084.17-.127.35-.128.539a1.51 1.51 0 0 0 .085.546c.063.181.151.35.264.505l1.848 2.544-1.165.846-5.332-7.339 1.165-.847 2.419 3.33.02-.014a1.356 1.356 0 0 1-.011-.422 1.81 1.81 0 0 1 .127-.478 1.84 1.84 0 0 1 .264-.474c.116-.154.262-.294.436-.421ZM77.927 248.712l2.377 3.272.03-.021a2.309 2.309 0 0 1 .197-.871c.078-.165.184-.331.32-.499.13-.174.303-.339.516-.494.33-.24.681-.396 1.054-.469a2.628 2.628 0 0 1 1.092-.007c.36.074.704.22 1.03.438.327.218.614.498.864.841.249.343.43.707.54 1.091.113.373.151.746.115 1.118a2.745 2.745 0 0 1-.33 1.056 2.768 2.768 0 0 1-.81.885c-.33.24-.693.394-1.088.464a1.975 1.975 0 0 1-1.121-.135l-.02.014.508.699-1.106.804-5.333-7.339 1.165-.847Zm6.295 3.051a2.071 2.071 0 0 0-.475-.471 1.783 1.783 0 0 0-.595-.309 1.483 1.483 0 0 0-.665-.036 1.509 1.509 0 0 0-.69.294 1.467 1.467 0 0 0-.475.552 1.892 1.892 0 0 0-.183.667c-.013.227.014.455.081.683.074.223.176.426.308.607.131.181.292.341.482.48.192.128.398.221.618.278.226.053.456.064.69.033.23-.039.451-.135.665-.29a1.526 1.526 0 0 0 .657-1.219 1.762 1.762 0 0 0-.11-.662 2.174 2.174 0 0 0-.308-.607ZM88.308 247.163a1.587 1.587 0 0 0-.681-.039 1.45 1.45 0 0 0-.705.274c-.188.137-.331.3-.43.491a.495.495 0 0 0 .05.557c.13.182.309.25.534.205.226-.055.533-.164.92-.327a4.95 4.95 0 0 1 .636-.225 2.18 2.18 0 0 1 .676-.091 1.393 1.393 0 0 1 1.2.611c.207.285.329.568.364.848.038.27.01.532-.081.787a2.092 2.092 0 0 1-.43.713c-.192.228-.413.433-.666.616a3.667 3.667 0 0 1-1.199.575 2.834 2.834 0 0 1-1.27.048l.245-1.276a1.873 1.873 0 0 0 1.617-.285 1.403 1.403 0 0 0 .41-.476.66.66 0 0 0 .058-.309.589.589 0 0 0-.123-.311.531.531 0 0 0-.575-.22c-.236.043-.562.151-.98.326-.202.088-.409.164-.62.228a2.344 2.344 0 0 1-.613.075c-.204-.01-.4-.061-.585-.153a1.473 1.473 0 0 1-.519-.469 1.69 1.69 0 0 1-.331-.783 1.699 1.699 0 0 1 .095-.766c.086-.25.217-.484.395-.702.178-.218.383-.412.616-.581a3.48 3.48 0 0 1 1.108-.538 2.051 2.051 0 0 1 1.154-.023l-.27 1.22Z" fill="#F7931E"/><path d="m271.346 226.491 57.73 48.441c.981.824 1.095 2.304.253 3.307l-17.522 20.882c-.841 1.003-2.318 1.149-3.3.325l-57.73-48.441c-.981-.823-1.095-2.304-.253-3.307l17.522-20.882c.841-1.003 2.318-1.148 3.3-.325Z" fill="#fff"/><path fill-rule="evenodd" clip-rule="evenodd" d="M270.382 227.64c-.341-.286-.873-.234-1.187.14l-17.522 20.882c-.314.374-.273.907.068 1.193l57.73 48.441c.341.286.873.234 1.186-.14l17.523-20.882c.313-.374.272-.907-.068-1.193l-57.73-48.44v-.001Z" fill="#CF649A" fill-opacity=".2" stroke="#CF649A" stroke-width="3"/><path d="M286.463 256.511a1.773 1.773 0 0 0-.193-.835 1.936 1.936 0 0 0-.982-1.012 1.422 1.422 0 0 0-.499-.153 1.103 1.103 0 0 0-.507.045 1 1 0 0 0-.441.319.963.963 0 0 0-.224.454c-.026.156-.018.314.024.475.049.166.127.341.233.525.107.184.23.38.367.59.152.242.302.499.451.77.155.276.265.561.33.856.072.301.076.607.013.919-.058.318-.22.636-.488.954-.293.35-.614.602-.964.758a2.491 2.491 0 0 1-1.055.211 2.854 2.854 0 0 1-1.077-.246c-.36-.156-.7-.368-1.019-.635a4.565 4.565 0 0 1-1.048-1.271 3.186 3.186 0 0 1-.406-1.532l1.475-.078c-.026.354.039.706.195 1.056.161.355.371.641.628.857.135.113.286.213.452.301.172.081.347.128.524.141.183.018.357-.003.522-.062.177-.061.34-.181.489-.358a.92.92 0 0 0 .235-.523 1.303 1.303 0 0 0-.075-.565 2.787 2.787 0 0 0-.293-.621 225.03 225.03 0 0 0-.417-.679 7.35 7.35 0 0 1-.403-.715 2.635 2.635 0 0 1-.248-.787 2.224 2.224 0 0 1 .055-.831c.077-.291.244-.589.501-.896.278-.331.584-.559.92-.685a2.407 2.407 0 0 1 1.036-.133c.36.031.712.128 1.056.291.355.162.679.366.973.613.331.278.616.616.856 1.015.245.405.396.829.452 1.273l-1.448.194ZM287.258 264.995l-.028-.023c-.274.104-.588.117-.942.04a2.404 2.404 0 0 1-.99-.518 2.992 2.992 0 0 1-.499-.544 2.206 2.206 0 0 1-.348-.668 1.923 1.923 0 0 1-.05-.762c.045-.265.175-.527.391-.784.278-.331.591-.517.939-.559.355-.037.723.016 1.105.159.381.142.763.348 1.144.615.392.267.76.544 1.103.832l.093-.11c.231-.276.3-.563.205-.862-.083-.299-.262-.564-.538-.796a2.088 2.088 0 0 0-.794-.416 2.374 2.374 0 0 0-.834-.089l-.007-1.149c.447-.022.881.045 1.304.201.428.161.811.384 1.148.666.393.329.668.655.827.976.164.326.246.64.244.941a1.951 1.951 0 0 1-.198.852 3.236 3.236 0 0 1-.464.739l-2.252 2.684-1.03-.864.471-.561Zm1.2-1.467-.248-.209a8.087 8.087 0 0 0-.584-.443 2.79 2.79 0 0 0-.627-.354 1.401 1.401 0 0 0-.599-.126c-.187-.001-.35.082-.489.247a.676.676 0 0 0-.16.321.783.783 0 0 0 .046.32c.037.104.094.204.171.3.076.095.16.182.252.259.38.319.753.459 1.119.421.366-.037.695-.231.988-.58l.131-.156ZM294.235 266.291a1.588 1.588 0 0 0-.127-.67 1.452 1.452 0 0 0-.437-.618 1.405 1.405 0 0 0-.58-.298.495.495 0 0 0-.529.183.494.494 0 0 0-.07.568c.109.206.289.477.54.813.135.175.259.363.373.563.12.206.204.417.251.634.059.217.067.437.024.663-.037.219-.146.435-.326.65-.226.27-.471.456-.735.558a1.61 1.61 0 0 1-.782.111 2.077 2.077 0 0 1-.797-.245 3.68 3.68 0 0 1-.759-.496 3.67 3.67 0 0 1-.848-1.025 2.83 2.83 0 0 1-.353-1.221l1.297-.071a1.876 1.876 0 0 0 .667 1.501 1.423 1.423 0 0 0 .562.283.585.585 0 0 0 .586-.213.533.533 0 0 0 .074-.612c-.098-.218-.283-.509-.553-.871a5.714 5.714 0 0 1-.371-.547 2.323 2.323 0 0 1-.221-.577 1.452 1.452 0 0 1 .006-.605c.045-.203.155-.408.33-.617a1.68 1.68 0 0 1 .679-.51c.253-.091.509-.122.767-.093.263.022.522.093.777.213.254.12.492.272.713.457a3.5 3.5 0 0 1 .789.945c.214.367.315.739.302 1.115l-1.249.032ZM298.32 269.719a1.625 1.625 0 0 0-.127-.671 1.451 1.451 0 0 0-.438-.617 1.404 1.404 0 0 0-.579-.299.495.495 0 0 0-.529.183.492.492 0 0 0-.07.568c.109.206.289.477.54.813.134.176.259.364.373.564.12.205.204.416.251.634.059.216.067.437.024.662a1.386 1.386 0 0 1-.327.65c-.226.27-.471.456-.734.559a1.64 1.64 0 0 1-.783.111 2.093 2.093 0 0 1-.796-.246 3.68 3.68 0 0 1-.759-.496 3.666 3.666 0 0 1-.848-1.024 2.818 2.818 0 0 1-.354-1.221l1.297-.071c-.011.262.038.527.147.796.108.269.282.504.521.704a1.367 1.367 0 0 0 .561.283.65.65 0 0 0 .314-.019.595.595 0 0 0 .273-.194.531.531 0 0 0 .074-.611c-.099-.219-.283-.509-.553-.872a5.71 5.71 0 0 1-.372-.546 2.378 2.378 0 0 1-.221-.577 1.457 1.457 0 0 1 .007-.606c.045-.202.154-.408.329-.616.206-.245.432-.416.68-.511.253-.09.509-.121.767-.093.263.023.522.094.776.213.255.12.493.273.713.458.319.267.582.582.79.944.214.368.314.739.302 1.115l-1.249.033Z" fill="#CF649A"/><path d="M193 230h-76a2 2 0 0 0-2 2v28a2 2 0 0 0 2 2h76a2 2 0 0 0 2-2v-28a2 2 0 0 0-2-2Z" fill="#fff"/><path d="M191.5 231.5h-73a2 2 0 0 0-2 2v25a2 2 0 0 0 2 2h73a2 2 0 0 0 2-2v-25a2 2 0 0 0-2-2Z" fill="#F7931E" fill-opacity=".2" stroke="#F7931E" stroke-width="3"/><path d="M127.622 245.392h-1.092v-1.152h1.092v-.852c0-.344.036-.672.108-.984.08-.32.208-.6.384-.84.184-.24.424-.428.72-.564.296-.144.668-.216 1.116-.216.16 0 .292.008.396.024.112.008.224.028.336.06l-.096 1.224a2.152 2.152 0 0 0-.264-.06 1.613 1.613 0 0 0-.288-.024.94.94 0 0 0-.504.12.862.862 0 0 0-.3.312 1.432 1.432 0 0 0-.132.42c-.024.152-.036.3-.036.444v.936h1.332v1.152h-1.332V250h-1.44v-4.608ZM130.949 247.096c0-.456.08-.868.24-1.236.168-.376.392-.696.672-.96s.612-.468.996-.612a3.457 3.457 0 0 1 1.224-.216c.432 0 .84.072 1.224.216.384.144.716.348.996.612s.5.584.66.96c.168.368.252.78.252 1.236 0 .456-.084.872-.252 1.248-.16.376-.38.7-.66.972-.28.264-.612.472-.996.624a3.295 3.295 0 0 1-1.224.228c-.432 0-.84-.076-1.224-.228a3.094 3.094 0 0 1-.996-.624 3.105 3.105 0 0 1-.672-.972 3.156 3.156 0 0 1-.24-1.248Zm1.464 0c0 .224.032.448.096.672.072.224.176.424.312.6s.308.32.516.432c.208.112.456.168.744.168s.536-.056.744-.168c.208-.112.38-.256.516-.432s.236-.376.3-.6c.072-.224.108-.448.108-.672 0-.224-.036-.444-.108-.66a1.763 1.763 0 0 0-.3-.6 1.475 1.475 0 0 0-.516-.42 1.548 1.548 0 0 0-.744-.168c-.288 0-.536.056-.744.168-.208.104-.38.244-.516.42s-.24.376-.312.6a2.311 2.311 0 0 0-.096.66ZM138.273 247.096c0-.456.08-.868.24-1.236.168-.376.392-.696.672-.96s.612-.468.996-.612a3.457 3.457 0 0 1 1.224-.216c.432 0 .84.072 1.224.216.384.144.716.348.996.612s.5.584.66.96c.168.368.252.78.252 1.236 0 .456-.084.872-.252 1.248-.16.376-.38.7-.66.972-.28.264-.612.472-.996.624a3.295 3.295 0 0 1-1.224.228c-.432 0-.84-.076-1.224-.228a3.094 3.094 0 0 1-.996-.624 3.105 3.105 0 0 1-.672-.972 3.156 3.156 0 0 1-.24-1.248Zm1.464 0c0 .224.032.448.096.672.072.224.176.424.312.6s.308.32.516.432c.208.112.456.168.744.168s.536-.056.744-.168c.208-.112.38-.256.516-.432s.236-.376.3-.6c.072-.224.108-.448.108-.672 0-.224-.036-.444-.108-.66a1.763 1.763 0 0 0-.3-.6 1.475 1.475 0 0 0-.516-.42 1.548 1.548 0 0 0-.744-.168c-.288 0-.536.056-.744.168-.208.104-.38.244-.516.42s-.24.376-.312.6a2.311 2.311 0 0 0-.096.66ZM145.105 245.392v-1.152h1.008v-1.668h1.416v1.668h1.44v1.152h-1.44v2.676c0 .256.044.468.132.636.096.168.304.252.624.252.096 0 .2-.008.312-.024.112-.024.212-.056.3-.096l.048 1.128c-.128.048-.28.084-.456.108a2.82 2.82 0 0 1-.504.048c-.384 0-.696-.052-.936-.156a1.545 1.545 0 0 1-.576-.444 1.827 1.827 0 0 1-.288-.648 4.165 4.165 0 0 1-.072-.792v-2.688h-1.008ZM154.067 246.544c0-.184-.028-.36-.084-.528a1.141 1.141 0 0 0-.24-.444 1.132 1.132 0 0 0-.432-.3 1.384 1.384 0 0 0-.6-.12c-.432 0-.8.132-1.104.396a1.41 1.41 0 0 0-.492.996h2.952Zm1.44.648v.192c0 .064-.004.128-.012.192h-4.38c.016.208.068.4.156.576.096.168.22.316.372.444.152.12.324.216.516.288.192.072.392.108.6.108.36 0 .664-.064.912-.192.248-.136.452-.32.612-.552l.96.768c-.568.768-1.392 1.152-2.472 1.152a3.61 3.61 0 0 1-1.236-.204 3.067 3.067 0 0 1-.984-.6 2.8 2.8 0 0 1-.648-.936 3.368 3.368 0 0 1-.228-1.272c0-.464.076-.884.228-1.26a2.876 2.876 0 0 1 1.608-1.596c.376-.152.78-.228 1.212-.228.4 0 .768.068 1.104.204.344.128.64.324.888.588.248.256.44.58.576.972.144.384.216.836.216 1.356ZM156.902 244.24h1.38v.96h.024a2.1 2.1 0 0 1 .672-.816 1.676 1.676 0 0 1 1.188-.3c.064 0 .12.008.168.024v1.32a1.944 1.944 0 0 0-.444-.06c-.328 0-.592.06-.792.18-.2.12-.356.264-.468.432-.112.168-.188.34-.228.516-.04.176-.06.316-.06.42V250h-1.44v-5.76ZM160.435 249.16a.9.9 0 0 1 .276-.66.955.955 0 0 1 .684-.276c.256 0 .48.088.672.264a.845.845 0 0 1 .288.648.882.882 0 0 1-.288.66.915.915 0 0 1-.672.276.993.993 0 0 1-.888-.552.904.904 0 0 1-.072-.36ZM167.02 244.072c.376 0 .696.068.96.204.272.128.492.3.66.516.176.216.304.464.384.744.08.28.12.568.12.864v3.6h-1.44v-3.168c0-.168-.012-.34-.036-.516a1.367 1.367 0 0 0-.156-.492.908.908 0 0 0-.324-.372c-.136-.096-.32-.144-.552-.144-.232 0-.432.044-.6.132a1.215 1.215 0 0 0-.42.36 1.509 1.509 0 0 0-.252.492 1.927 1.927 0 0 0-.084.564V250h-1.44v-9.072h1.44v4.116h.024c.056-.12.136-.236.24-.348.112-.12.24-.224.384-.312.144-.096.308-.172.492-.228.184-.056.384-.084.6-.084ZM172.288 240.928v4.044h.036a2.302 2.302 0 0 1 .672-.588c.16-.088.344-.16.552-.216.208-.064.444-.096.708-.096.408 0 .784.08 1.128.24.344.152.64.364.888.636a2.9 2.9 0 0 1 .576.96 3.4 3.4 0 0 1 .204 1.188 3.5 3.5 0 0 1-.204 1.2 2.873 2.873 0 0 1-.564.972c-.24.272-.536.492-.888.66-.344.16-.736.24-1.176.24-.408 0-.792-.088-1.152-.264a1.968 1.968 0 0 1-.828-.768h-.024V250h-1.368v-9.072h1.44Zm3.3 6.168c0-.224-.036-.444-.108-.66a1.763 1.763 0 0 0-.3-.6 1.475 1.475 0 0 0-.516-.42 1.521 1.521 0 0 0-.732-.168c-.264 0-.5.056-.708.168a1.892 1.892 0 0 0-.54.432 2.003 2.003 0 0 0-.336.6 2.185 2.185 0 0 0-.108.672c0 .224.036.448.108.672.08.216.192.412.336.588.152.176.332.32.54.432.208.104.444.156.708.156a1.521 1.521 0 0 0 1.248-.6c.136-.176.236-.376.3-.6.072-.224.108-.448.108-.672ZM181.597 245.776a1.599 1.599 0 0 0-.528-.432 1.45 1.45 0 0 0-.732-.192c-.232 0-.444.048-.636.144a.496.496 0 0 0-.288.48c0 .224.104.384.312.48.216.088.528.18.936.276.216.048.432.112.648.192.224.08.424.188.6.324.184.128.332.292.444.492.112.192.168.428.168.708 0 .352-.068.652-.204.9-.128.24-.304.436-.528.588-.216.152-.472.26-.768.324a3.697 3.697 0 0 1-.9.108c-.448 0-.884-.08-1.308-.24a2.824 2.824 0 0 1-1.056-.708l.948-.888c.16.208.368.38.624.516s.54.204.852.204a1.384 1.384 0 0 0 .612-.144.657.657 0 0 0 .228-.216.592.592 0 0 0 .084-.324.532.532 0 0 0-.336-.516c-.216-.104-.544-.208-.984-.312a5.767 5.767 0 0 1-.636-.18c-.2-.08-.38-.18-.54-.3a1.453 1.453 0 0 1-.384-.468 1.467 1.467 0 0 1-.144-.684c0-.32.064-.596.192-.828a1.7 1.7 0 0 1 .528-.564c.216-.152.46-.264.732-.336.272-.072.552-.108.84-.108.416 0 .82.072 1.212.216.4.144.716.364.948.66l-.936.828Z" fill="#F7931E"/><path d="m252.487 182.291-48.852 58.22a2 2 0 0 0 .247 2.817l21.449 17.998a2 2 0 0 0 2.818-.246l48.852-58.22a2 2 0 0 0-.247-2.817l-21.449-17.998a2 2 0 0 0-2.818.246Z" fill="#fff"/><path d="m252.672 184.404-46.923 55.922a2 2 0 0 0 .246 2.817l19.151 16.07a2 2 0 0 0 2.818-.246l46.923-55.922a2 2 0 0 0-.246-2.817l-19.151-16.07a2 2 0 0 0-2.818.246Z" fill="#F7931E" fill-opacity=".2" stroke="#F7931E" stroke-width="3"/><path d="m218.545 239.743.926-1.103 6.949 5.831-.925 1.103-6.95-5.831ZM229.281 239.923l-.023.027c.104.275.117.589.04.942a2.408 2.408 0 0 1-.518.991 3.025 3.025 0 0 1-.544.499c-.203.154-.425.27-.668.348a1.927 1.927 0 0 1-.763.05c-.265-.045-.526-.175-.783-.391-.331-.278-.518-.591-.56-.94a2.438 2.438 0 0 1 .159-1.104c.143-.381.348-.763.616-1.144.266-.392.544-.76.832-1.103l-.111-.093c-.275-.231-.563-.3-.861-.206-.299.083-.565.263-.796.539a2.08 2.08 0 0 0-.416.794 2.35 2.35 0 0 0-.089.834l-1.149.007a3.265 3.265 0 0 1 .201-1.304c.161-.429.383-.811.666-1.148.329-.393.654-.668.975-.827.327-.165.64-.246.941-.244.302.002.586.068.853.198.272.124.518.278.739.464l2.684 2.252-.864 1.029-.561-.47Zm-1.468-1.2-.208.248a7.607 7.607 0 0 0-.443.584 2.79 2.79 0 0 0-.354.627c-.09.206-.132.406-.126.599-.001.187.081.35.247.489a.675.675 0 0 0 .32.159.761.761 0 0 0 .32-.045c.105-.037.205-.094.3-.171.096-.076.182-.16.259-.252.319-.38.46-.753.422-1.119-.038-.366-.231-.695-.58-.988l-.157-.131ZM226.816 235.038l1.026-1.223 4.242 1.461.015-.019-2.29-3.786.964-1.149 3.609 6.584c.135.249.241.484.317.705.082.225.121.446.117.662.003.222-.043.444-.137.668-.089.218-.236.45-.442.695a2.932 2.932 0 0 1-.257.269 2.238 2.238 0 0 1-.285.247l-.879-.894c.086-.053.16-.111.223-.173.074-.064.137-.126.188-.187.098-.117.165-.227.201-.333a.578.578 0 0 0 .041-.31 1.056 1.056 0 0 0-.088-.325 6.836 6.836 0 0 0-.188-.392l-.375-.691-6.002-1.809ZM233.298 231.756a3.07 3.07 0 0 1-.792-.978 2.96 2.96 0 0 1-.304-1.132 2.932 2.932 0 0 1 .172-1.156 3.44 3.44 0 0 1 .621-1.077c.278-.331.595-.597.952-.798a2.933 2.933 0 0 1 1.109-.37 2.817 2.817 0 0 1 1.16.111c.39.108.759.309 1.109.602.349.293.614.625.794.995.185.364.292.741.32 1.131.022.384-.032.772-.162 1.164a3.316 3.316 0 0 1-.612 1.084 3.3 3.3 0 0 1-.962.791 3.106 3.106 0 0 1-1.118.362c-.388.039-.78.003-1.176-.11a3.15 3.15 0 0 1-1.111-.619Zm.941-1.121c.172.144.364.263.577.358.218.089.438.138.66.147.222.009.443-.03.663-.118.219-.087.421-.241.606-.462.186-.22.302-.446.35-.677.048-.232.048-.456.001-.673a1.78 1.78 0 0 0-.267-.616 2.097 2.097 0 0 0-1.02-.856 1.768 1.768 0 0 0-.653-.156 1.556 1.556 0 0 0-1.26.587 1.556 1.556 0 0 0-.36 1.343c.048.218.134.426.259.625.125.188.273.354.444.498ZM243.825 223.729l-.879 1.048-.708-.594-.015.018c.138.283.19.619.156 1.009-.035.377-.191.732-.469 1.063-.242.288-.499.495-.772.621-.274.115-.55.17-.829.166a2.162 2.162 0 0 1-.809-.193 3.121 3.121 0 0 1-.739-.464l-2.758-2.314.926-1.103 2.445 2.052c.129.108.271.212.428.312.156.1.318.168.486.204.162.032.323.026.484-.017.166-.048.324-.161.473-.339.144-.172.236-.35.277-.535.04-.197.038-.381-.006-.553a1.498 1.498 0 0 0-.215-.51 2.041 2.041 0 0 0-.387-.434l-2.427-2.037.926-1.103 4.412 3.703ZM240.874 220.077l-.882-.74.647-.773-1.277-1.072.91-1.085 1.278 1.073.925-1.103.883.74-.926 1.103 2.05 1.72c.196.165.387.267.572.308.191.034.389-.071.594-.316a2.07 2.07 0 0 0 .182-.255c.054-.101.094-.198.12-.291l.895.688a2.135 2.135 0 0 1-.211.419 2.805 2.805 0 0 1-.287.417c-.247.294-.487.5-.721.617-.24.111-.477.163-.71.155a1.829 1.829 0 0 1-.682-.195 4.204 4.204 0 0 1-.653-.454l-2.059-1.728-.648.772ZM246.744 218.943a.902.902 0 0 1-.328-.636.96.96 0 0 1 .228-.701.965.965 0 0 1 .635-.345.842.842 0 0 1 .681.196.883.883 0 0 1 .321.645.916.916 0 0 1-.221.692.985.985 0 0 1-.994.325.91.91 0 0 1-.322-.176ZM247.08 210.628c.241-.288.499-.49.773-.604a1.78 1.78 0 0 1 .819-.174c.279.004.551.065.817.184.266.118.512.273.739.463l2.758 2.314-.926 1.103-2.426-2.036a3.912 3.912 0 0 0-.419-.304 1.355 1.355 0 0 0-.477-.197.918.918 0 0 0-.493.009c-.161.043-.316.153-.465.331a1.27 1.27 0 0 0-.285.544c-.041.185-.039.37.006.553.038.179.11.348.215.509.105.162.231.304.378.427l2.408 2.021-.925 1.103-6.95-5.831.926-1.103 3.153 2.646.015-.019a1.36 1.36 0 0 1-.112-.407 1.827 1.827 0 0 1 .008-.495c.019-.172.066-.347.141-.523.076-.177.183-.349.322-.514ZM248.057 204.572l3.098 2.599.023-.028a2.342 2.342 0 0 1-.052-.404 2.192 2.192 0 0 1 .034-.488c.035-.179.098-.367.189-.562.085-.2.212-.402.382-.604.262-.313.565-.549.909-.71.337-.166.69-.256 1.058-.271.367-.015.736.043 1.105.176.37.132.717.334 1.041.607.325.272.588.582.789.927.199.335.327.687.382 1.057a2.74 2.74 0 0 1-.066 1.105 2.75 2.75 0 0 1-.572 1.055c-.262.313-.576.55-.942.713a1.971 1.971 0 0 1-1.121.14l-.015.019.662.555-.88 1.048-6.949-5.831.925-1.103Zm6.846 1.436a2.068 2.068 0 0 0-.575-.341 1.759 1.759 0 0 0-.652-.156 1.48 1.48 0 0 0-.653.125c-.22.088-.42.239-.6.453a1.476 1.476 0 0 0-.326.65 1.896 1.896 0 0 0-.016.692 2 2 0 0 0 .243.643c.126.199.274.371.446.515.171.143.366.26.584.349.217.077.439.117.666.12.233-.003.459-.048.678-.136.214-.092.405-.24.575-.442a1.52 1.52 0 0 0 .343-1.341 1.78 1.78 0 0 0-.267-.616 2.199 2.199 0 0 0-.446-.515ZM257.755 200.557a1.6 1.6 0 0 0-.67.126c-.242.09-.448.235-.618.438a1.404 1.404 0 0 0-.299.579.498.498 0 0 0 .183.53.492.492 0 0 0 .568.069c.207-.109.478-.289.813-.539a4.96 4.96 0 0 1 .564-.373 2.16 2.16 0 0 1 .634-.252c.216-.058.437-.066.662-.024.219.038.436.147.65.327.27.226.456.471.559.735.101.252.138.513.111.782a2.085 2.085 0 0 1-.246.797 3.737 3.737 0 0 1-1.52 1.606 2.818 2.818 0 0 1-1.221.354l-.071-1.297c.262.011.528-.038.796-.146.269-.109.504-.283.704-.522.067-.08.125-.167.173-.262.054-.101.091-.201.11-.299a.588.588 0 0 0-.213-.586c-.184-.155-.387-.179-.611-.075-.219.099-.509.283-.872.554a5.76 5.76 0 0 1-.546.371c-.19.102-.382.175-.577.221-.201.04-.403.038-.606-.007a1.467 1.467 0 0 1-.616-.329 1.698 1.698 0 0 1-.511-.679 1.714 1.714 0 0 1-.093-.767c.023-.264.094-.523.214-.777.119-.255.272-.492.457-.713.267-.319.582-.582.944-.79a2.059 2.059 0 0 1 1.115-.302l.033 1.25Z" fill="#F7931E"/><path d="M171 269H95a2 2 0 0 0-2 2v28a2 2 0 0 0 2 2h76a2 2 0 0 0 2-2v-28a2 2 0 0 0-2-2Z" fill="#fff"/><path d="M169.5 270.5h-73a2 2 0 0 0-2 2v25a2 2 0 0 0 2 2h73a2 2 0 0 0 2-2v-25a2 2 0 0 0-2-2Z" fill="#4ABA79" fill-opacity=".2" stroke="#4ABA79" stroke-width="3"/><path d="M106.624 280.504h1.656l1.644 6.24h.024l1.872-6.24h1.56l1.836 6.24h.024l1.68-6.24h1.608L116.044 289h-1.464l-1.992-6.372h-.024L110.572 289h-1.464l-2.484-8.496ZM123.085 285.544c0-.184-.028-.36-.084-.528a1.141 1.141 0 0 0-.24-.444 1.132 1.132 0 0 0-.432-.3 1.384 1.384 0 0 0-.6-.12c-.432 0-.8.132-1.104.396a1.41 1.41 0 0 0-.492.996h2.952Zm1.44.648v.192c0 .064-.004.128-.012.192h-4.38c.016.208.068.4.156.576.096.168.22.316.372.444.152.12.324.216.516.288.192.072.392.108.6.108.36 0 .664-.064.912-.192.248-.136.452-.32.612-.552l.96.768c-.568.768-1.392 1.152-2.472 1.152a3.61 3.61 0 0 1-1.236-.204 3.067 3.067 0 0 1-.984-.6 2.8 2.8 0 0 1-.648-.936 3.368 3.368 0 0 1-.228-1.272c0-.464.076-.884.228-1.26a2.876 2.876 0 0 1 1.608-1.596c.376-.152.78-.228 1.212-.228.4 0 .768.068 1.104.204.344.128.64.324.888.588.248.256.44.58.576.972.144.384.216.836.216 1.356ZM125.944 279.928h1.44V289h-1.44v-9.072ZM133.067 284.836a1.226 1.226 0 0 0-.504-.396 1.514 1.514 0 0 0-.684-.168 1.4 1.4 0 0 0-.696.168c-.2.104-.368.244-.504.42a1.896 1.896 0 0 0-.288.6 2.311 2.311 0 0 0-.096.66c0 .224.032.448.096.672.072.216.176.412.312.588s.304.32.504.432c.208.104.448.156.72.156.224 0 .448-.044.672-.132a1.28 1.28 0 0 0 .54-.384l.9.912c-.24.256-.548.456-.924.6a3.436 3.436 0 0 1-1.2.204c-.424 0-.828-.068-1.212-.204a2.936 2.936 0 0 1-.996-.6 2.963 2.963 0 0 1-.672-.96 3.252 3.252 0 0 1-.24-1.284c0-.464.08-.884.24-1.26.168-.376.392-.696.672-.96a2.99 2.99 0 0 1 .972-.612 3.326 3.326 0 0 1 1.2-.216c.424 0 .832.08 1.224.24.4.16.716.38.948.66l-.984.864ZM134.654 286.096c0-.456.08-.868.24-1.236.168-.376.392-.696.672-.96s.612-.468.996-.612a3.457 3.457 0 0 1 1.224-.216c.432 0 .84.072 1.224.216.384.144.716.348.996.612s.5.584.66.96c.168.368.252.78.252 1.236 0 .456-.084.872-.252 1.248-.16.376-.38.7-.66.972-.28.264-.612.472-.996.624a3.295 3.295 0 0 1-1.224.228c-.432 0-.84-.076-1.224-.228a3.094 3.094 0 0 1-.996-.624 3.105 3.105 0 0 1-.672-.972 3.156 3.156 0 0 1-.24-1.248Zm1.464 0c0 .224.032.448.096.672.072.224.176.424.312.6s.308.32.516.432c.208.112.456.168.744.168s.536-.056.744-.168c.208-.112.38-.256.516-.432s.236-.376.3-.6c.072-.224.108-.448.108-.672 0-.224-.036-.444-.108-.66a1.763 1.763 0 0 0-.3-.6 1.475 1.475 0 0 0-.516-.42 1.548 1.548 0 0 0-.744-.168c-.288 0-.536.056-.744.168-.208.104-.38.244-.516.42s-.24.376-.312.6a2.311 2.311 0 0 0-.096.66ZM149.19 283.072c.376 0 .696.068.96.204.272.128.492.3.66.516.176.216.304.464.384.744.08.28.12.568.12.864v3.6h-1.44v-3.192c0-.168-.012-.344-.036-.528a1.367 1.367 0 0 0-.156-.492 1.001 1.001 0 0 0-.336-.372c-.136-.096-.32-.144-.552-.144a1.1 1.1 0 0 0-.576.144c-.16.096-.292.22-.396.372-.104.152-.18.324-.228.516a2.179 2.179 0 0 0-.072.552V289h-1.44v-3.48c0-.36-.088-.656-.264-.888-.168-.24-.436-.36-.804-.36-.216 0-.404.048-.564.144-.16.088-.292.204-.396.348a1.822 1.822 0 0 0-.228.504 2.225 2.225 0 0 0-.072.564V289h-1.44v-5.76h1.368v.924h.024c.064-.144.148-.28.252-.408.112-.128.24-.244.384-.348.152-.104.324-.184.516-.24.192-.064.404-.096.636-.096.448 0 .82.1 1.116.3.296.2.524.464.684.792.192-.352.448-.62.768-.804.32-.192.696-.288 1.128-.288ZM157.046 285.544c0-.184-.028-.36-.084-.528a1.141 1.141 0 0 0-.24-.444 1.132 1.132 0 0 0-.432-.3 1.384 1.384 0 0 0-.6-.12c-.432 0-.8.132-1.104.396a1.41 1.41 0 0 0-.492.996h2.952Zm1.44.648v.192c0 .064-.004.128-.012.192h-4.38c.016.208.068.4.156.576.096.168.22.316.372.444.152.12.324.216.516.288.192.072.392.108.6.108.36 0 .664-.064.912-.192.248-.136.452-.32.612-.552l.96.768c-.568.768-1.392 1.152-2.472 1.152a3.61 3.61 0 0 1-1.236-.204 3.067 3.067 0 0 1-.984-.6 2.8 2.8 0 0 1-.648-.936 3.368 3.368 0 0 1-.228-1.272c0-.464.076-.884.228-1.26a2.876 2.876 0 0 1 1.608-1.596c.376-.152.78-.228 1.212-.228.4 0 .768.068 1.104.204.344.128.64.324.888.588.248.256.44.58.576.972.144.384.216.836.216 1.356Z" fill="#4ABA79"/><path d="M259 269h-76a2 2 0 0 0-2 2v28a2 2 0 0 0 2 2h76a2 2 0 0 0 2-2v-28a2 2 0 0 0-2-2Z" fill="#fff"/><path d="M257.5 270.5h-73a2 2 0 0 0-2 2v25a2 2 0 0 0 2 2h73a2 2 0 0 0 2-2v-25a2 2 0 0 0-2-2Z" fill="#4ABA79" fill-opacity=".2" stroke="#4ABA79" stroke-width="3"/><path d="M202.034 280.504h1.512V289h-1.512v-8.496ZM205.349 283.24h1.368v.924h.024c.128-.288.348-.54.66-.756.32-.224.696-.336 1.128-.336.376 0 .696.068.96.204.272.128.492.3.66.516.176.216.304.464.384.744.08.28.12.568.12.864v3.6h-1.44v-3.192c0-.168-.012-.344-.036-.528a1.367 1.367 0 0 0-.156-.492 1.001 1.001 0 0 0-.336-.372c-.136-.096-.32-.144-.552-.144a1.19 1.19 0 0 0-.6.144 1.272 1.272 0 0 0-.42.348 1.634 1.634 0 0 0-.24.504 1.927 1.927 0 0 0-.084.564V289h-1.44v-5.76ZM211.469 283.24h1.572l1.512 4.2h.024l1.524-4.2h1.524l-2.292 5.76h-1.536l-2.328-5.76ZM218.149 286.096c0-.456.08-.868.24-1.236.168-.376.392-.696.672-.96s.612-.468.996-.612a3.457 3.457 0 0 1 1.224-.216c.432 0 .84.072 1.224.216.384.144.716.348.996.612s.5.584.66.96c.168.368.252.78.252 1.236 0 .456-.084.872-.252 1.248-.16.376-.38.7-.66.972-.28.264-.612.472-.996.624a3.295 3.295 0 0 1-1.224.228c-.432 0-.84-.076-1.224-.228a3.094 3.094 0 0 1-.996-.624 3.105 3.105 0 0 1-.672-.972 3.156 3.156 0 0 1-.24-1.248Zm1.464 0c0 .224.032.448.096.672.072.224.176.424.312.6s.308.32.516.432c.208.112.456.168.744.168s.536-.056.744-.168c.208-.112.38-.256.516-.432s.236-.376.3-.6c.072-.224.108-.448.108-.672 0-.224-.036-.444-.108-.66a1.763 1.763 0 0 0-.3-.6 1.475 1.475 0 0 0-.516-.42 1.548 1.548 0 0 0-.744-.168c-.288 0-.536.056-.744.168-.208.104-.38.244-.516.42s-.24.376-.312.6a2.311 2.311 0 0 0-.096.66ZM225.834 283.24h1.44V289h-1.44v-5.76Zm-.204-1.956a.82.82 0 0 1 .252-.6.895.895 0 0 1 .66-.264c.264 0 .484.084.66.252.184.16.276.364.276.612a.811.811 0 0 1-.276.624.944.944 0 0 1-.66.24.918.918 0 0 1-.66-.252.86.86 0 0 1-.252-.612ZM232.957 284.836a1.226 1.226 0 0 0-.504-.396 1.514 1.514 0 0 0-.684-.168 1.4 1.4 0 0 0-.696.168c-.2.104-.368.244-.504.42a1.896 1.896 0 0 0-.288.6 2.311 2.311 0 0 0-.096.66c0 .224.032.448.096.672.072.216.176.412.312.588s.304.32.504.432c.208.104.448.156.72.156.224 0 .448-.044.672-.132a1.28 1.28 0 0 0 .54-.384l.9.912c-.24.256-.548.456-.924.6a3.436 3.436 0 0 1-1.2.204c-.424 0-.828-.068-1.212-.204a2.936 2.936 0 0 1-.996-.6 2.963 2.963 0 0 1-.672-.96 3.252 3.252 0 0 1-.24-1.284c0-.464.08-.884.24-1.26.168-.376.392-.696.672-.96a2.99 2.99 0 0 1 .972-.612 3.326 3.326 0 0 1 1.2-.216c.424 0 .832.08 1.224.24.4.16.716.38.948.66l-.984.864ZM238.936 285.544c0-.184-.028-.36-.084-.528a1.141 1.141 0 0 0-.24-.444 1.132 1.132 0 0 0-.432-.3 1.384 1.384 0 0 0-.6-.12c-.432 0-.8.132-1.104.396a1.41 1.41 0 0 0-.492.996h2.952Zm1.44.648v.192c0 .064-.004.128-.012.192h-4.38c.016.208.068.4.156.576.096.168.22.316.372.444.152.12.324.216.516.288.192.072.392.108.6.108.36 0 .664-.064.912-.192.248-.136.452-.32.612-.552l.96.768c-.568.768-1.392 1.152-2.472 1.152a3.61 3.61 0 0 1-1.236-.204 3.067 3.067 0 0 1-.984-.6 2.8 2.8 0 0 1-.648-.936 3.368 3.368 0 0 1-.228-1.272c0-.464.076-.884.228-1.26a2.876 2.876 0 0 1 1.608-1.596c.376-.152.78-.228 1.212-.228.4 0 .768.068 1.104.204.344.128.64.324.888.588.248.256.44.58.576.972.144.384.216.836.216 1.356Z" fill="#4ABA79"/><path d="M206 191h-76a2 2 0 0 0-2 2v28a2 2 0 0 0 2 2h76a2 2 0 0 0 2-2v-28a2 2 0 0 0-2-2Z" fill="#fff"/><path d="M204.5 192.5h-73a2 2 0 0 0-2 2v25a2 2 0 0 0 2 2h73a2 2 0 0 0 2-2v-25a2 2 0 0 0-2-2Z" fill="#4ABA79" fill-opacity=".2" stroke="#4ABA79" stroke-width="3"/><path d="M153.582 202.504h1.512V211h-1.512v-8.496ZM156.897 205.24h1.368v.924h.024c.128-.288.348-.54.66-.756.32-.224.696-.336 1.128-.336.376 0 .696.068.96.204.272.128.492.3.66.516.176.216.304.464.384.744.08.28.12.568.12.864v3.6h-1.44v-3.192c0-.168-.012-.344-.036-.528a1.367 1.367 0 0 0-.156-.492 1.001 1.001 0 0 0-.336-.372c-.136-.096-.32-.144-.552-.144a1.19 1.19 0 0 0-.6.144 1.272 1.272 0 0 0-.42.348 1.634 1.634 0 0 0-.24.504 1.927 1.927 0 0 0-.084.564V211h-1.44v-5.76ZM163.017 205.24h1.572l1.512 4.2h.024l1.524-4.2h1.524l-2.292 5.76h-1.536l-2.328-5.76ZM170.057 205.24h1.44V211h-1.44v-5.76Zm-.204-1.956a.82.82 0 0 1 .252-.6.895.895 0 0 1 .66-.264c.264 0 .484.084.66.252.184.16.276.364.276.612a.811.811 0 0 1-.276.624.944.944 0 0 1-.66.24.918.918 0 0 1-.66-.252.86.86 0 0 1-.252-.612ZM172.416 206.392v-1.152h1.008v-1.668h1.416v1.668h1.44v1.152h-1.44v2.676c0 .256.044.468.132.636.096.168.304.252.624.252.096 0 .2-.008.312-.024.112-.024.212-.056.3-.096l.048 1.128c-.128.048-.28.084-.456.108a2.82 2.82 0 0 1-.504.048c-.384 0-.696-.052-.936-.156a1.545 1.545 0 0 1-.576-.444 1.827 1.827 0 0 1-.288-.648 4.165 4.165 0 0 1-.072-.792v-2.688h-1.008ZM181.379 207.544c0-.184-.028-.36-.084-.528a1.141 1.141 0 0 0-.24-.444 1.132 1.132 0 0 0-.432-.3 1.384 1.384 0 0 0-.6-.12c-.432 0-.8.132-1.104.396a1.41 1.41 0 0 0-.492.996h2.952Zm1.44.648v.192c0 .064-.004.128-.012.192h-4.38c.016.208.068.4.156.576.096.168.22.316.372.444.152.12.324.216.516.288.192.072.392.108.6.108.36 0 .664-.064.912-.192.248-.136.452-.32.612-.552l.96.768c-.568.768-1.392 1.152-2.472 1.152a3.61 3.61 0 0 1-1.236-.204 3.067 3.067 0 0 1-.984-.6 2.8 2.8 0 0 1-.648-.936 3.368 3.368 0 0 1-.228-1.272c0-.464.076-.884.228-1.26a2.876 2.876 0 0 1 1.608-1.596c.376-.152.78-.228 1.212-.228.4 0 .768.068 1.104.204.344.128.64.324.888.588.248.256.44.58.576.972.144.384.216.836.216 1.356Z" fill="#4ABA79"/><path fill-rule="evenodd" clip-rule="evenodd" d="M843.5 200.621 829.379 186.5H757a.504.504 0 0 0-.354.146.504.504 0 0 0-.146.354v112c0 .133.053.26.146.354a.504.504 0 0 0 .354.146h86c.133 0 .26-.053.354-.146a.504.504 0 0 0 .146-.354v-98.379Z" fill="#F5FBFF" stroke="#004775" stroke-width="3"/><path fill-rule="evenodd" clip-rule="evenodd" d="M826 185h3v18h-3v-18Z" fill="#004775"/><path fill-rule="evenodd" clip-rule="evenodd" d="M845 200.5v3h-19v-3h19Z" fill="#004775"/><path fill-rule="evenodd" clip-rule="evenodd" d="M772 211h55v2h-55v-2Zm0 6h33v2h-33v-2Z" fill="#004775" fill-opacity=".1"/><path fill-rule="evenodd" clip-rule="evenodd" d="M772 225h57v30h-57v-30Z" fill="#004775" fill-opacity=".05"/><path fill-rule="evenodd" clip-rule="evenodd" d="M784 237h33v2h-33v-2Zm0-6h33v2h-33v-2Zm-12 30h33v2h-33v-2Zm45 0h12v2h-12v-2Zm0 6h12v2h-12v-2Zm0 6h12v2h-12v-2Zm-45-6h33v2h-33v-2Z" fill="#004775" fill-opacity=".1"/><path fill-rule="evenodd" clip-rule="evenodd" d="M790 243h23v6h-23v-6Z" fill="#2EBB69"/><path fill-rule="evenodd" clip-rule="evenodd" d="M945.5 200.621 931.379 186.5H859a.504.504 0 0 0-.354.146.504.504 0 0 0-.146.354v112c0 .133.053.26.146.354a.504.504 0 0 0 .354.146h86c.133 0 .26-.053.354-.146a.504.504 0 0 0 .146-.354v-98.379Z" fill="#F5FBFF" stroke="#004775" stroke-width="3"/><path fill-rule="evenodd" clip-rule="evenodd" d="M928 185h3v18h-3v-18Z" fill="#004775"/><path fill-rule="evenodd" clip-rule="evenodd" d="M947 200.5v3h-19v-3h19Z" fill="#004775"/><path fill-rule="evenodd" clip-rule="evenodd" d="M874 222h55v2h-55v-2Zm0 6h33v2h-33v-2Zm0 6h33v2h-33v-2Zm0 16h48v2h-48v-2Zm0 6h33v2h-33v-2Zm0 6h33v2h-33v-2Z" fill="#004775" fill-opacity=".1"/><path fill-rule="evenodd" clip-rule="evenodd" d="M892 240h23v6h-23v-6Z" fill="#FD5F3B"/><path fill-rule="evenodd" clip-rule="evenodd" d="M741.5 200.621 727.379 186.5H655a.504.504 0 0 0-.354.146.504.504 0 0 0-.146.354v112c0 .133.053.26.146.354a.504.504 0 0 0 .354.146h86c.133 0 .26-.053.354-.146a.504.504 0 0 0 .146-.354v-98.379Z" fill="#F5FBFF" stroke="#004775" stroke-width="3"/><path fill-rule="evenodd" clip-rule="evenodd" d="M724 185h3v18h-3v-18Z" fill="#004775"/><path fill-rule="evenodd" clip-rule="evenodd" d="M743 200.5v3h-19v-3h19Z" fill="#004775"/><path fill-rule="evenodd" clip-rule="evenodd" d="M670 215h55v2h-55v-2Zm0 6h33v2h-33v-2Zm0 6h33v2h-33v-2Zm0 16h33v2h-33v-2Z" fill="#004775" fill-opacity=".1"/><path fill-rule="evenodd" clip-rule="evenodd" d="M670 251h57v20h-57v-20Z" fill="#004775" fill-opacity=".05"/><path fill-rule="evenodd" clip-rule="evenodd" d="M676 257h33v2h-33v-2Zm0 6h33v2h-33v-2Z" fill="#004775" fill-opacity=".1"/><path fill-rule="evenodd" clip-rule="evenodd" d="M688 233h23v6h-23v-6Z" fill="#366ED2"/></svg>