<svg xmlns="http://www.w3.org/2000/svg" width="18" height="18" viewBox="0 0 18 18">
  <path fill="#007DCC" d="M12,4 L6,4 L6,5 C6,5.55228475 5.55228475,6 5,6 C4.44771525,6 4,5.55228475 4,5 L4,4 L3,4 C2.44771525,4 2,4.44771525 2,5 L2,15 C2,15.5522847 2.44771525,16 3,16 L15,16 C15.5522847,16 16,15.5522847 16,15 L16,5 C16,4.44771525 15.5522847,4 15,4 L14,4 L14,5 C14,5.55228475 13.5522847,6 13,6 C12.4477153,6 12,5.55228475 12,5 L12,4 Z M14,2 L15,2 C16.6568542,2 18,3.34314575 18,5 L18,15 C18,16.6568542 16.6568542,18 15,18 L3,18 C1.34314575,18 3.33066907e-16,16.6568542 0,15 L0,5 C-1.66533454e-16,3.34314575 1.34314575,2 3,2 L4,2 L4,1 C4,0.44771525 4.44771525,1.01453063e-16 5,0 C5.55228475,-1.01453063e-16 6,0.44771525 6,1 L6,2 L12,2 L12,1 C12,0.44771525 12.4477153,1.01453063e-16 13,0 C13.5522847,-1.01453063e-16 14,0.44771525 14,1 L14,2 Z M2,7 L16,7 L16,9 L2,9 L2,7 Z"/>
</svg>
